<?xml version="1.0" encoding="utf-8"?>
<!-- Generator: Adobe Illustrator 16.0.0, SVG Export Plug-In . SVG Version: 6.00 Build 0)  -->
<!DOCTYPE svg PUBLIC "-//W3C//DTD SVG 1.1//EN" "http://www.w3.org/Graphics/SVG/1.1/DTD/svg11.dtd">
<svg version="1.1" id="Layer_1" xmlns="http://www.w3.org/2000/svg" xmlns:xlink="http://www.w3.org/1999/xlink" x="0px" y="0px"
	 width="830px" height="826px" viewBox="0 0 830 826" enable-background="new 0 0 830 826" xml:space="preserve">
<g>
	<path d="M124.41,635.903l-6.778-9.491l35.769-25.543c-5.719-1.152-11.036-3.526-15.95-7.123l8.613-6.15
		c2.58,1.898,6.038,3.491,10.375,4.78s8.4,1.396,12.19,0.322l5.499,7.701L124.41,635.903z"/>
	<path d="M162.788,627.129l5.335,4.379c-0.79,1.1-1.143,2.209-1.06,3.327c0.083,1.118,0.659,2.271,1.726,3.459
		c1.175,1.308,2.3,2.075,3.373,2.304c0.735,0.143,1.384-0.04,1.948-0.547c0.384-0.345,0.594-0.751,0.63-1.218
		c0.013-0.467-0.272-1.23-0.855-2.29c-2.767-4.888-4.269-8.211-4.506-9.972c-0.327-2.438,0.427-4.483,2.263-6.134
		c1.656-1.487,3.635-2.085,5.938-1.791c2.303,0.294,4.689,1.814,7.159,4.562c2.351,2.615,3.672,4.942,3.963,6.979
		c0.291,2.037-0.182,4.045-1.417,6.024l-5.168-3.977c0.561-0.872,0.783-1.771,0.667-2.697c-0.117-0.926-0.649-1.917-1.598-2.972
		c-1.197-1.332-2.24-2.118-3.13-2.36c-0.609-0.146-1.124-0.031-1.543,0.347c-0.36,0.323-0.515,0.766-0.465,1.328
		c0.074,0.758,1.016,2.759,2.825,6.002s2.75,5.798,2.822,7.663c0.049,1.864-0.73,3.52-2.337,4.965
		c-1.752,1.574-3.915,2.196-6.49,1.864c-2.576-0.331-5.152-1.931-7.729-4.798c-2.34-2.603-3.665-5.138-3.973-7.604
		C160.855,631.506,161.396,629.225,162.788,627.129z"/>
	<path d="M204.445,644.272l-3.784,3.88l-3.326-3.243l-7.23,7.416c-1.464,1.501-2.285,2.407-2.463,2.717
		c-0.179,0.311-0.234,0.656-0.167,1.038c0.067,0.381,0.263,0.729,0.586,1.045c0.45,0.438,1.255,0.919,2.414,1.44l-3.267,4.183
		c-1.605-0.619-3.124-1.626-4.556-3.022c-0.878-0.855-1.525-1.774-1.943-2.756s-0.563-1.866-0.436-2.655s0.515-1.644,1.166-2.564
		c0.447-0.667,1.51-1.861,3.188-3.582l7.821-8.021l-2.235-2.18l3.784-3.881l2.235,2.18l3.564-3.656l7.656,1.923l-6.334,6.496
		L204.445,644.272z"/>
	<path d="M206.984,669.771l4.413,5.266c-2.276,1.323-4.55,1.868-6.822,1.635c-2.272-0.232-4.482-1.267-6.628-3.1
		c-3.398-2.901-4.964-6.159-4.699-9.773c0.231-2.878,1.504-5.673,3.819-8.384c2.766-3.238,5.778-5.052,9.037-5.439
		c3.259-0.388,6.183,0.522,8.771,2.733c2.907,2.482,4.381,5.401,4.422,8.757c0.041,3.354-1.667,6.982-5.125,10.881l-12.953-11.063
		c-1.273,1.564-1.875,3.113-1.805,4.647c0.069,1.533,0.699,2.808,1.889,3.824c0.81,0.691,1.679,1.052,2.608,1.082
		C204.839,670.866,205.864,670.512,206.984,669.771z M211.742,664.797c1.241-1.527,1.826-2.995,1.756-4.403
		c-0.071-1.407-0.634-2.562-1.688-3.463c-1.129-0.964-2.412-1.349-3.85-1.155c-1.438,0.193-2.753,1-3.946,2.422L211.742,664.797z"/>
	<path d="M242.809,738.542l26.21-54.91l37.643,17.968l-4.434,9.289l-26.556-12.676l-6.204,12.997l22.923,10.941l-4.434,9.289
		l-22.923-10.941l-11.139,23.335L242.809,738.542z"/>
	<path d="M295.81,762.191l17.134-57.862l11.779,3.487L310.5,755.851l29.29,8.673l-2.911,9.829L295.81,762.191z"/>
	<path d="M351.546,777.302l7.494-60.382l44.771,5.557l-1.268,10.215l-32.58-4.043l-1.661,13.386l30.314,3.763l-1.263,10.173
		l-30.314-3.763L365,768.642l33.733,4.187l-1.263,10.174L351.546,777.302z"/>
	<path d="M410.053,763.839l11.89-1.691c0.896,3.976,2.486,6.854,4.768,8.637c2.28,1.782,5.287,2.59,9.019,2.424
		c3.953-0.176,6.894-1.144,8.824-2.905c1.93-1.762,2.845-3.762,2.745-6.001c-0.063-1.437-0.54-2.641-1.428-3.613
		c-0.889-0.971-2.399-1.783-4.533-2.437c-1.459-0.434-4.774-1.172-9.944-2.217c-6.651-1.338-11.356-3.137-14.116-5.396
		c-3.88-3.179-5.928-7.173-6.141-11.982c-0.138-3.096,0.611-6.03,2.247-8.804c1.635-2.773,4.073-4.938,7.314-6.494
		c3.24-1.557,7.196-2.439,11.868-2.646c7.629-0.34,13.446,1.078,17.451,4.251c4.005,3.174,6.228,7.548,6.669,13.123l-12.249,1.084
		c-0.664-3.1-1.891-5.296-3.679-6.588c-1.788-1.291-4.41-1.86-7.865-1.706c-3.565,0.158-6.325,1.015-8.278,2.569
		c-1.258,0.998-1.851,2.284-1.78,3.859c0.063,1.438,0.726,2.642,1.988,3.609c1.605,1.231,5.425,2.418,11.458,3.563
		s10.515,2.406,13.442,3.785c2.928,1.38,5.258,3.339,6.991,5.88c1.733,2.54,2.686,5.731,2.856,9.573
		c0.154,3.483-0.669,6.788-2.468,9.914c-1.8,3.128-4.437,5.509-7.908,7.145c-3.473,1.636-7.849,2.571-13.128,2.807
		c-7.686,0.341-13.666-1.173-17.942-4.542C413.847,775.67,411.157,770.603,410.053,763.839z"/>
	<path d="M518.369,749.854l10.787-5.279c2.08,3.505,4.48,5.753,7.2,6.744s5.828,0.831,9.327-0.479
		c3.705-1.387,6.203-3.216,7.495-5.487c1.292-2.271,1.545-4.456,0.76-6.555c-0.505-1.348-1.329-2.346-2.474-2.996
		c-1.145-0.649-2.833-0.956-5.063-0.919c-1.522,0.038-4.903,0.358-10.144,0.961c-6.739,0.78-11.771,0.521-15.092-0.775
		c-4.672-1.826-7.853-4.993-9.54-9.503c-1.087-2.901-1.28-5.924-0.58-9.066c0.699-3.143,2.35-5.954,4.952-8.436
		c2.602-2.48,6.092-4.541,10.472-6.18c7.151-2.678,13.122-3.125,17.911-1.343c4.788,1.782,8.253,5.257,10.394,10.423l-11.315,4.813
		c-1.589-2.744-3.434-4.454-5.533-5.131c-2.1-0.676-4.769-0.408-8.008,0.805c-3.343,1.251-5.703,2.918-7.08,4.999
		c-0.889,1.338-1.056,2.744-0.503,4.222c0.504,1.348,1.506,2.287,3.005,2.818c1.907,0.676,5.907,0.626,11.999-0.148
		c6.092-0.773,10.743-0.956,13.954-0.548c3.21,0.408,6.032,1.553,8.465,3.434c2.433,1.882,4.323,4.624,5.671,8.226
		c1.223,3.265,1.46,6.662,0.714,10.191c-0.747,3.53-2.52,6.608-5.317,9.236c-2.799,2.628-6.672,4.868-11.621,6.722
		c-7.204,2.696-13.359,3.103-18.467,1.218C525.629,759.936,521.507,755.946,518.369,749.854z"/>
	<path d="M598.297,736.841l-25.228-43.808l-15.646,9.011l-5.137-8.92l41.9-24.13l5.137,8.919l-15.609,8.989l25.229,43.807
		L598.297,736.841z"/>
	<path d="M614.119,693.031c-3.969-4.76-6.589-9.348-7.858-13.766c-0.923-3.266-1.253-6.61-0.992-10.035
		c0.261-3.424,1.104-6.506,2.531-9.245c1.884-3.659,4.727-7.076,8.531-10.248c6.885-5.741,14.175-8.2,21.869-7.376
		c7.695,0.825,14.715,5.041,21.059,12.648c6.291,7.544,9.163,15.156,8.614,22.837c-0.548,7.681-4.254,14.383-11.117,20.106
		c-6.949,5.795-14.242,8.283-21.878,7.463C627.241,704.598,620.322,700.47,614.119,693.031z M623.575,684.605
		c4.413,5.291,8.979,8.283,13.7,8.976c4.721,0.693,8.962-0.529,12.723-3.666c3.762-3.136,5.719-7.064,5.871-11.785
		s-2.031-9.791-6.55-15.209c-4.466-5.355-8.972-8.371-13.517-9.048c-4.546-0.677-8.763,0.605-12.651,3.849
		s-5.911,7.191-6.067,11.842C616.928,674.216,619.092,679.229,623.575,684.605z"/>
	<path d="M689.809,665.968l-46.187-38.84l7.907-9.402l38.341,32.242l19.66-23.38l7.846,6.599L689.809,665.968z"/>
	<path d="M724.146,622.502l-50.693-33.648l6.794-10.236l50.694,33.648L724.146,622.502z"/>
</g>
<path fill="none" stroke="#000000" stroke-width="15" stroke-miterlimit="10" d="M342.229,481.782h156.464 M339.271,672.121
	l1.743-217.113v-4.864l1.215-6.085l3.043-11.561l3.042-8.518l4.259-10.344c0,0,12.776-31.231,12.776-31.637
	c0,0,15.211-37.317,15.211-37.722c0,0,2.84-7.302,3.043-8.52l2.433-6.691l1.217-4.868l0.607-3.042c0,0,0.203-6.083,0-9.125
	c0-7.908,0.458-117.588,0.458-117.588l62.211,0.163V308.38l0.608,13.385l0.608,3.042c0,0,9.702,26.181,15.211,38.332
	c0,0.609,28.597,74.836,28.597,74.836l0.608,2.434l1.217,6.085l0.607,4.258l0.607,14.603v0.607l1.344,206.096 M387.861,321.156
	h63.277 M371.079,367.619c0,0,41.477,14.255,96.561,0 M356.352,400.712c0,0,54.03,26.03,125.786,0"/>
<path fill="none" stroke="#000000" stroke-width="10" stroke-miterlimit="10" d="M690.208,413.5
	c0,149.502-121.206,270.709-270.708,270.709c-149.509,0-270.708-121.207-270.708-270.709c0-149.509,121.2-270.708,270.708-270.708
	C569.002,142.792,690.208,263.991,690.208,413.5z"/>
<circle fill="none" stroke="#000000" stroke-width="10" stroke-miterlimit="10" cx="419.5" cy="413.5" r="400"/>
<g>
	<path d="M212.685,192.038l-8.809,10.051l-13.896-5.114l-16.03,18.291l7.084,12.886l-8.589,9.801l-30.139-57.926l8.563-9.77
		L212.685,192.038z M179.673,193.183l-22.506-8.576l11.563,21.062L179.673,193.183z"/>
	<path d="M233.009,148.291l11.734-4.296c2.616,6.371,3.23,12.13,1.84,17.278c-1.389,5.148-4.667,9.719-9.833,13.712
		c-6.393,4.941-13.335,6.818-20.826,5.632c-7.492-1.186-14.165-5.567-20.02-13.142c-6.193-8.012-8.934-15.834-8.223-23.465
		c0.711-7.631,4.438-14.053,11.181-19.265c5.889-4.552,12.018-6.509,18.386-5.871c3.779,0.366,7.706,2.052,11.779,5.059
		l-7.845,9.735c-2.499-2.056-5.209-3.108-8.132-3.157s-5.676,0.925-8.259,2.921c-3.568,2.758-5.474,6.277-5.716,10.556
		c-0.243,4.279,1.854,9.287,6.287,15.022c4.704,6.086,9.149,9.575,13.335,10.466c4.186,0.892,8.03-0.017,11.533-2.725
		c2.583-1.997,4.171-4.535,4.763-7.615C235.584,156.057,234.924,152.441,233.009,148.291z"/>
	<path d="M262.884,154.657l-27.227-54.413l10.986-5.498l10.716,21.417l21.528-10.772l-10.716-21.417l10.986-5.498l27.227,54.413
		l-10.986,5.498l-11.905-23.792l-21.528,10.772l11.905,23.792L262.884,154.657z"/>
	<path d="M316.442,130.011l-19.643-57.587l11.627-3.966l19.643,57.587L316.442,130.011z"/>
	<path d="M337.337,122.481l-12.134-59.623l44.208-8.997l2.053,10.086l-32.17,6.547l2.69,13.218l29.933-6.092l2.044,10.045
		l-29.933,6.092l3.302,16.228l33.309-6.779l2.044,10.045L337.337,122.481z"/>
	<path d="M406.141,112.22l-23.073-60.354l13.32-0.292l16.379,44.684l13.911-45.347l13.029-0.285l-20.454,61.307L406.141,112.22z"/>
	<path d="M444.748,112.227l9.438-60.108l44.568,6.999l-1.597,10.168l-32.432-5.093l-2.093,13.325l30.177,4.739l-1.59,10.127
		l-30.178-4.739l-2.568,16.36l33.58,5.273l-1.59,10.127L444.748,112.227z"/>
	<path d="M497.813,120.782l21.359-56.973l17.217,6.455l-4.232,42.738l24.79-35.03l17.255,6.469l-21.359,56.973l-10.687-4.007
		l16.813-44.847l-28.123,40.607l-11.075-4.152l5.543-49.073l-16.813,44.847L497.813,120.782z"/>
	<path d="M560.94,146.246l32.375-51.517l38.197,24.005l-5.477,8.715l-27.796-17.468l-7.178,11.421l25.864,16.253l-5.455,8.68
		l-25.863-16.253l-8.812,14.021l28.78,18.087l-5.455,8.68L560.94,146.246z"/>
	<path d="M606.459,175.703l41.35-44.635l8.769,8.124l-9.346,46.73l27.614-29.807l8.373,7.757l-41.351,44.635l-9.042-8.377
		l8.971-45.776l-26.965,29.107L606.459,175.703z"/>
	<path d="M656.85,227.459l40.384-30.408l-10.859-14.423l8.223-6.191l29.084,38.626l-8.223,6.191l-10.835-14.389l-40.383,30.408
		L656.85,227.459z"/>
</g>
<g>
	<path d="M430.313,627.035h-17.866v-67.33c-6.528,6.104-14.221,10.617-23.079,13.542v-16.212c4.662-1.526,9.728-4.419,15.195-8.679
		s9.219-9.229,11.253-14.909h14.496V627.035z"/>
</g>
<path fill="none" stroke="#000000" stroke-width="10" stroke-miterlimit="10" d="M726.46,522.795
	c26.49-74.335,26.235-158.436-7.029-236.803"/>
<path fill="none" stroke="#000000" stroke-width="10" stroke-miterlimit="10" d="M112.033,522.826
	c-26.491-74.336-26.235-158.436,7.029-236.803"/>
</svg>
