<?xml version="1.0" encoding="utf-8"?>
<!-- Generator: Adobe Illustrator 16.0.0, SVG Export Plug-In . SVG Version: 6.00 Build 0)  -->
<!DOCTYPE svg PUBLIC "-//W3C//DTD SVG 1.1//EN" "http://www.w3.org/Graphics/SVG/1.1/DTD/svg11.dtd">
<svg version="1.1" id="Layer_1" xmlns="http://www.w3.org/2000/svg" xmlns:xlink="http://www.w3.org/1999/xlink" x="0px" y="0px"
	 width="830px" height="826px" viewBox="0 0 830 826" enable-background="new 0 0 830 826" xml:space="preserve">
<g>
	<path d="M81.946,564.006l-4.469-10.772l40.598-16.842c-5.313-2.409-9.959-5.919-13.938-10.528l9.775-4.056
		c2.086,2.43,5.098,4.76,9.034,6.991c3.937,2.231,7.871,3.25,11.805,3.056l3.626,8.741L81.946,564.006z"/>
	<path d="M154.091,570.422c3.01,5.067,3.556,10.102,1.636,15.104c-2.261,5.945-8.351,11.865-18.27,17.759
		c-9.896,5.88-18.026,8.393-24.39,7.539c-5.25-0.711-9.38-3.6-12.391-8.666c-3.024-5.091-3.506-10.356-1.444-15.798
		c2.061-5.44,8.111-11.144,18.15-17.107c9.848-5.852,17.954-8.35,24.319-7.497C146.95,562.467,151.081,565.355,154.091,570.422z
		 M145.777,575.361c-0.721-1.213-1.751-2.065-3.088-2.558c-1.339-0.492-3.163-0.406-5.472,0.258
		c-3.003,0.851-7.572,3.099-13.709,6.745s-10.17,6.461-12.098,8.443c-1.928,1.982-2.994,3.669-3.196,5.061
		c-0.204,1.393,0.056,2.695,0.777,3.908s1.75,2.065,3.089,2.558c1.338,0.492,3.162,0.406,5.471-0.257
		c2.979-0.837,7.537-3.078,13.674-6.725s10.169-6.461,12.098-8.443c1.928-1.982,2.999-3.673,3.214-5.071
		C146.75,577.881,146.498,576.575,145.777,575.361z"/>
	<path d="M154.8,671.859l41.229-44.747l30.675,28.264l-6.975,7.57l-21.641-19.939l-9.759,10.591l18.68,17.212l-6.975,7.569
		l-18.68-17.211l-17.521,19.016L154.8,671.859z"/>
	<path d="M198.403,710.047l33.524-50.179l10.215,6.824l-27.829,41.654l25.4,16.97l-5.695,8.524L198.403,710.047z"/>
	<path d="M247.112,741.008l25.098-55.427l41.098,18.609l-4.246,9.376l-29.907-13.542l-5.564,12.288l27.827,12.601l-4.229,9.339
		l-27.827-12.601l-6.831,15.085l30.965,14.021l-4.229,9.339L247.112,741.008z"/>
	<path d="M307.228,745.625l11.863,1.868c-0.308,4.064,0.367,7.282,2.025,9.654c1.659,2.373,4.296,4.026,7.913,4.962
		c3.831,0.991,6.926,0.928,9.288-0.191c2.361-1.118,3.823-2.763,4.384-4.933c0.36-1.393,0.258-2.684-0.306-3.873
		c-0.564-1.188-1.771-2.408-3.62-3.658c-1.268-0.842-4.221-2.521-8.858-5.034c-5.967-3.229-9.938-6.328-11.914-9.298
		c-2.778-4.176-3.564-8.596-2.359-13.257c0.776-2.999,2.352-5.586,4.729-7.758c2.376-2.172,5.342-3.526,8.896-4.065
		c3.554-0.538,7.595-0.222,12.123,0.949c7.393,1.912,12.539,4.973,15.438,9.181c2.898,4.208,3.741,9.042,2.53,14.501l-12.029-2.554
		c0.273-3.159-0.255-5.618-1.586-7.377s-3.671-3.071-7.02-3.938c-3.456-0.894-6.345-0.884-8.667,0.03
		c-1.495,0.585-2.439,1.642-2.834,3.168c-0.36,1.394-0.08,2.738,0.843,4.033c1.174,1.647,4.478,3.902,9.911,6.765
		c5.433,2.863,9.347,5.383,11.742,7.56c2.395,2.178,4.048,4.734,4.961,7.671c0.912,2.937,0.887,6.268-0.076,9.99
		c-0.873,3.376-2.628,6.294-5.265,8.756c-2.638,2.462-5.856,3.966-9.655,4.512c-3.8,0.546-8.258,0.158-13.374-1.165
		c-7.447-1.927-12.721-5.127-15.822-9.602C307.386,758.049,306.3,752.415,307.228,745.625z"/>
	<path d="M365.243,759.806l12.008-0.179c0.388,4.058,1.601,7.114,3.639,9.169c2.038,2.057,4.918,3.236,8.642,3.543
		c3.943,0.324,6.983-0.265,9.12-1.77c2.136-1.504,3.296-3.372,3.48-5.606c0.118-1.434-0.203-2.688-0.96-3.765
		c-0.759-1.075-2.155-2.071-4.189-2.988c-1.394-0.614-4.588-1.766-9.585-3.454c-6.43-2.166-10.87-4.544-13.322-7.134
		c-3.449-3.643-4.976-7.863-4.581-12.662c0.254-3.088,1.367-5.905,3.339-8.449c1.972-2.545,4.664-4.385,8.075-5.521
		c3.411-1.135,7.446-1.511,12.107-1.128c7.611,0.626,13.203,2.766,16.775,6.419c3.572,3.653,5.226,8.273,4.961,13.858l-12.288-0.469
		c-0.268-3.159-1.208-5.492-2.818-6.999c-1.611-1.507-4.141-2.402-7.587-2.686c-3.557-0.293-6.403,0.209-8.536,1.505
		c-1.374,0.831-2.125,2.032-2.254,3.604c-0.118,1.435,0.387,2.711,1.517,3.831c1.438,1.424,5.077,3.083,10.918,4.979
		c5.841,1.896,10.126,3.713,12.857,5.45c2.73,1.738,4.795,3.977,6.194,6.715s1.941,6.024,1.625,9.857
		c-0.286,3.475-1.519,6.649-3.698,9.523c-2.18,2.875-5.096,4.905-8.747,6.09c-3.651,1.185-8.11,1.561-13.377,1.128
		c-7.667-0.631-13.408-2.887-17.226-6.769C367.514,772.021,365.485,766.654,365.243,759.806z"/>
	<path d="M429.423,783.392l-5.203-60.621l44.95-3.858l0.88,10.256l-32.709,2.807l1.153,13.439l30.435-2.612l0.877,10.214
		l-30.436,2.612l1.417,16.5l33.867-2.907l0.876,10.214L429.423,783.392z"/>
	<path d="M492.548,776.469l-15.871-58.738l11.54-3.118l34.639,32.73l-10.599-39.226l11.019-2.978l15.871,58.738l-11.9,3.216
		l-34.029-31.906l10.35,38.304L492.548,776.469z"/>
	<path d="M591.323,719.045l9.32-7.573c2.816,2.947,5.661,4.597,8.534,4.949c2.873,0.354,5.866-0.503,8.979-2.566
		c3.298-2.187,5.32-4.531,6.067-7.035c0.747-2.503,0.502-4.689-0.737-6.558c-0.794-1.199-1.822-1.986-3.084-2.362
		c-1.262-0.375-2.976-0.293-5.141,0.246c-1.475,0.38-4.696,1.454-9.666,3.221c-6.391,2.278-11.351,3.16-14.879,2.645
		c-4.964-0.727-8.775-3.097-11.436-7.109c-1.712-2.583-2.582-5.483-2.608-8.703s0.949-6.331,2.926-9.334
		c1.976-3.003,4.912-5.797,8.811-8.381c6.364-4.219,12.081-6,17.147-5.343c5.067,0.658,9.226,3.263,12.476,7.814l-9.941,7.237
		c-2.166-2.315-4.349-3.565-6.546-3.752c-2.198-0.187-4.739,0.677-7.621,2.588c-2.976,1.972-4.899,4.128-5.772,6.466
		c-0.564,1.503-0.41,2.911,0.461,4.226c0.795,1.199,1.982,1.89,3.563,2.069c2.01,0.229,5.896-0.722,11.656-2.848
		s10.252-3.352,13.472-3.678c3.221-0.325,6.228,0.154,9.021,1.439s5.253,3.53,7.378,6.736c1.927,2.905,2.923,6.162,2.991,9.769
		c0.067,3.607-0.966,7.007-3.101,10.197c-2.134,3.19-5.403,6.246-9.808,9.166c-6.412,4.25-12.317,6.033-17.718,5.347
		C600.668,727.233,595.753,724.275,591.323,719.045z"/>
	<path d="M666.251,688.423l-34.389-37.052l-13.233,12.281l-7.002-7.544l35.44-32.893l7.002,7.544l-13.203,12.254l34.39,37.052
		L666.251,688.423z"/>
	<path d="M671.865,642.204c-4.931-3.755-8.508-7.643-10.731-11.666c-1.627-2.978-2.696-6.164-3.205-9.561
		c-0.51-3.396-0.375-6.588,0.405-9.577c1.02-3.987,3.028-7.952,6.029-11.893c5.431-7.133,11.988-11.155,19.674-12.068
		c7.685-0.913,15.468,1.631,23.35,7.631c7.815,5.95,12.313,12.73,13.491,20.34s-0.938,14.97-6.353,22.08
		c-5.48,7.199-12.035,11.251-19.662,12.156S679.571,648.07,671.865,642.204z M679.204,631.881
		c5.481,4.174,10.601,6.072,15.356,5.693c4.757-0.377,8.618-2.515,11.585-6.411c2.967-3.897,3.998-8.163,3.094-12.799
		c-0.905-4.636-4.164-9.091-9.777-13.365c-5.548-4.224-10.613-6.158-15.194-5.804c-4.582,0.354-8.407,2.545-11.475,6.574
		c-3.067,4.028-4.158,8.328-3.272,12.896C670.406,623.235,673.635,627.641,679.204,631.881z"/>
	<path d="M739.627,598.901L685.91,571.4l5.599-10.936l44.592,22.829l13.92-27.19l9.125,4.672L739.627,598.901z"/>
	<path d="M763.352,548.795l-56.971-21.364l4.314-11.503l56.97,21.364L763.352,548.795z"/>
</g>
<path fill="none" stroke="#000000" stroke-width="15" stroke-miterlimit="10" d="M323.535,451.236l147.028,53.514 M255.655,629.084
	l75.895-203.423l1.664-4.571l3.223-5.303l6.813-9.822l5.771-6.964l7.54-8.263c0,0,22.688-24.978,22.827-25.359
	c0,0,27.057-29.864,27.195-30.245c0,0,5.166-5.89,5.774-6.965l4.575-5.456l2.809-4.159l1.611-2.651c0,0,2.271-5.647,3.121-8.575
	c2.705-7.431,40.647-110.341,40.647-110.341l58.403,21.431l-38.913,106.914l-4.007,12.786l-0.468,3.066
	c0,0,0.162,27.92,1.183,41.222c-0.208,0.572,1.277,80.104,1.277,80.104l-0.261,2.495l-0.938,6.134l-0.885,4.209l-4.424,13.93
	l-0.208,0.57l-69.226,194.126 M421.353,315.904l59.461,21.642 M389.691,353.825c0,0,34.1,27.582,90.738,33.026 M364.534,379.885
	c0,0,41.868,42.94,118.2,43.021"/>
<path fill="none" stroke="#000000" stroke-width="10" stroke-miterlimit="10" d="M690.208,413.5
	c0,149.502-121.206,270.709-270.708,270.709c-149.509,0-270.708-121.207-270.708-270.709c0-149.509,121.2-270.708,270.708-270.708
	C569.002,142.792,690.208,263.991,690.208,413.5z"/>
<circle fill="none" stroke="#000000" stroke-width="10" stroke-miterlimit="10" cx="419.5" cy="413.5" r="400"/>
<g>
	<path d="M212.685,192.038l-8.809,10.051l-13.896-5.114l-16.03,18.291l7.084,12.886l-8.589,9.801l-30.139-57.926l8.563-9.77
		L212.685,192.038z M179.673,193.183l-22.506-8.576l11.563,21.062L179.673,193.183z"/>
	<path d="M233.009,148.291l11.734-4.296c2.616,6.371,3.23,12.13,1.84,17.278c-1.389,5.148-4.667,9.719-9.833,13.712
		c-6.393,4.941-13.335,6.818-20.826,5.632c-7.492-1.186-14.165-5.567-20.02-13.142c-6.193-8.012-8.934-15.834-8.223-23.465
		c0.711-7.631,4.438-14.053,11.181-19.265c5.889-4.552,12.018-6.509,18.386-5.871c3.779,0.366,7.706,2.052,11.779,5.059
		l-7.845,9.735c-2.499-2.056-5.209-3.108-8.132-3.157s-5.676,0.925-8.259,2.921c-3.568,2.758-5.474,6.277-5.716,10.556
		c-0.243,4.279,1.854,9.287,6.287,15.022c4.704,6.086,9.149,9.575,13.335,10.466c4.186,0.892,8.03-0.017,11.533-2.725
		c2.583-1.997,4.171-4.535,4.763-7.615C235.584,156.057,234.924,152.441,233.009,148.291z"/>
	<path d="M262.884,154.657l-27.227-54.413l10.986-5.498l10.716,21.417l21.528-10.772l-10.716-21.417l10.986-5.498l27.227,54.413
		l-10.986,5.498l-11.905-23.792l-21.528,10.772l11.905,23.792L262.884,154.657z"/>
	<path d="M316.442,130.011l-19.643-57.587l11.627-3.966l19.643,57.587L316.442,130.011z"/>
	<path d="M337.337,122.481l-12.134-59.623l44.208-8.997l2.053,10.086l-32.17,6.547l2.69,13.218l29.933-6.092l2.044,10.045
		l-29.933,6.092l3.302,16.228l33.309-6.779l2.044,10.045L337.337,122.481z"/>
	<path d="M406.141,112.22l-23.073-60.354l13.32-0.292l16.379,44.684l13.911-45.347l13.029-0.285l-20.454,61.307L406.141,112.22z"/>
	<path d="M444.748,112.227l9.438-60.108l44.568,6.999l-1.597,10.168l-32.432-5.093l-2.093,13.325l30.177,4.739l-1.59,10.127
		l-30.178-4.739l-2.568,16.36l33.58,5.273l-1.59,10.127L444.748,112.227z"/>
	<path d="M497.813,120.782l21.359-56.973l17.217,6.455l-4.232,42.738l24.79-35.03l17.255,6.469l-21.359,56.973l-10.687-4.007
		l16.813-44.847l-28.123,40.607l-11.075-4.152l5.543-49.073l-16.813,44.847L497.813,120.782z"/>
	<path d="M560.94,146.246l32.375-51.517l38.197,24.005l-5.477,8.715l-27.796-17.468l-7.178,11.421l25.864,16.253l-5.455,8.68
		l-25.863-16.253l-8.812,14.021l28.78,18.087l-5.455,8.68L560.94,146.246z"/>
	<path d="M606.459,175.703l41.35-44.635l8.769,8.124l-9.346,46.73l27.614-29.807l8.373,7.757l-41.351,44.635l-9.042-8.377
		l8.971-45.776l-26.965,29.107L606.459,175.703z"/>
	<path d="M656.85,227.459l40.384-30.408l-10.859-14.423l8.223-6.191l29.084,38.626l-8.223,6.191l-10.835-14.389l-40.383,30.408
		L656.85,227.459z"/>
</g>
<g>
	<path d="M329.619,608.009l-16.789-6.11l23.028-63.27c-8.221,3.503-16.994,5.113-26.318,4.832l5.545-15.234
		c4.903,0.16,10.652-0.825,17.247-2.958c6.595-2.133,11.819-5.52,15.674-10.161l13.622,4.958L329.619,608.009z"/>
	<path d="M401.027,534.405c8.484,3.088,14.014,8.529,16.59,16.322c3.086,9.242,1.606,22.168-4.438,38.777
		c-6.031,16.57-13.233,27.435-21.606,32.596c-6.914,4.249-14.614,4.83-23.098,1.742c-8.523-3.102-14.202-8.879-17.035-17.33
		c-2.833-8.45-1.19-21.08,4.927-37.889c6.002-16.489,13.189-27.314,21.564-32.477C384.844,531.897,392.544,531.318,401.027,534.405z
		 M395.96,548.325c-2.031-0.738-4.08-0.751-6.144-0.036c-2.065,0.714-4.144,2.585-6.238,5.612
		c-2.736,3.92-5.973,11.019-9.713,21.295c-3.74,10.275-5.792,17.524-6.155,21.745c-0.364,4.221,0.008,7.253,1.119,9.101
		c1.11,1.848,2.68,3.141,4.711,3.88c2.032,0.739,4.08,0.753,6.144,0.037c2.063-0.714,4.143-2.585,6.236-5.611
		c2.722-3.882,5.953-10.96,9.693-21.236c3.74-10.275,5.791-17.523,6.155-21.745c0.363-4.221-0.007-7.264-1.109-9.131
		C399.558,550.368,397.992,549.065,395.96,548.325z"/>
</g>
<path fill="none" stroke="#000000" stroke-width="10" stroke-miterlimit="10" d="M737.491,484.571
	c17.234-77.01,6.731-160.452-35.836-234.181"/>
<path fill="none" stroke="#000000" stroke-width="10" stroke-miterlimit="10" d="M100.999,484.571
	c-17.234-77.01-6.731-160.452,35.836-234.181"/>
</svg>
