<?xml version="1.0" encoding="utf-8"?>
<!-- Generator: Adobe Illustrator 16.0.0, SVG Export Plug-In . SVG Version: 6.00 Build 0)  -->
<!DOCTYPE svg PUBLIC "-//W3C//DTD SVG 1.1//EN" "http://www.w3.org/Graphics/SVG/1.1/DTD/svg11.dtd">
<svg version="1.1" id="Layer_1" xmlns="http://www.w3.org/2000/svg" xmlns:xlink="http://www.w3.org/1999/xlink" x="0px" y="0px"
	 width="830px" height="826px" viewBox="0 0 830 826" enable-background="new 0 0 830 826" xml:space="preserve">
<g>
	<path d="M94.392,553.341l6.285,9.477c-2.412,1.611-3.944,3.464-4.597,5.556c-0.654,2.092-0.478,4.14,0.527,6.143
		c1.079,2.152,2.804,3.555,5.174,4.208c2.37,0.652,4.94,0.285,7.71-1.104c2.622-1.314,4.346-3.062,5.173-5.24
		c0.826-2.179,0.731-4.282-0.286-6.311c-0.669-1.335-1.729-2.801-3.179-4.396l9.073-3.109c1.339,2.856,3.031,4.701,5.073,5.534
		c2.043,0.833,4.14,0.71,6.292-0.369c1.83-0.918,3.016-2.194,3.559-3.828c0.542-1.634,0.361-3.354-0.544-5.159
		c-0.893-1.78-2.274-2.992-4.144-3.633c-1.87-0.642-4.059-0.503-6.57,0.416l-3.186-10.428c3.624-0.981,6.758-1.292,9.4-0.93
		c2.642,0.361,5.13,1.467,7.465,3.313c2.334,1.848,4.252,4.267,5.753,7.26c2.567,5.12,2.994,10.044,1.28,14.773
		c-1.394,3.887-3.773,6.674-7.137,8.36c-4.773,2.395-9.892,1.694-15.353-2.098c0.895,3.451,0.648,6.693-0.74,9.727
		c-1.389,3.033-3.728,5.375-7.017,7.024c-4.774,2.394-9.717,2.69-14.83,0.89c-5.113-1.801-8.971-5.298-11.576-10.492
		c-2.468-4.922-3.099-9.713-1.891-14.373C87.314,559.892,90.076,556.154,94.392,553.341z"/>
	<path d="M137.101,652.398l44.287-41.723l28.602,30.36l-7.492,7.059l-20.178-21.419l-10.483,9.876l17.418,18.488l-7.492,7.058
		l-17.417-18.488l-18.82,17.731L137.101,652.398z"/>
	<path d="M177.9,693.572l36.995-47.677l9.706,7.531l-30.71,39.578l24.134,18.726l-6.285,8.1L177.9,693.572z"/>
	<path d="M224.291,727.908l28.988-53.495l39.666,21.494l-4.904,9.05l-28.864-15.642l-6.426,11.859l26.857,14.554l-4.884,9.014
		l-26.857-14.554l-7.89,14.56l29.886,16.194l-4.884,9.014L224.291,727.908z"/>
	<path d="M283.887,736.791l11.699,2.715c-0.6,4.031-0.157,7.29,1.327,9.775s3.996,4.324,7.536,5.517
		c3.75,1.263,6.842,1.422,9.278,0.476c2.435-0.946,4.011-2.481,4.726-4.605c0.459-1.363,0.45-2.658-0.027-3.885
		c-0.478-1.227-1.594-2.529-3.348-3.909c-1.205-0.931-4.03-2.816-8.474-5.657c-5.72-3.648-9.458-7.024-11.216-10.128
		c-2.471-4.365-2.938-8.829-1.401-13.392c0.989-2.937,2.747-5.403,5.273-7.399c2.526-1.995,5.581-3.134,9.166-3.416
		c3.583-0.282,7.591,0.323,12.023,1.816c7.237,2.438,12.15,5.859,14.74,10.264c2.589,4.405,3.083,9.287,1.483,14.646l-11.815-3.41
		c0.5-3.131,0.148-5.621-1.053-7.472c-1.202-1.85-3.441-3.326-6.719-4.431c-3.383-1.14-6.266-1.337-8.647-0.592
		c-1.533,0.477-2.551,1.462-3.054,2.957c-0.459,1.363-0.276,2.725,0.551,4.083c1.053,1.728,4.187,4.214,9.4,7.459
		s8.936,6.039,11.169,8.382c2.232,2.344,3.698,5.013,4.397,8.007c0.699,2.995,0.435,6.315-0.792,9.959
		c-1.113,3.305-3.073,6.09-5.88,8.355c-2.808,2.267-6.125,3.536-9.954,3.808c-3.829,0.271-8.248-0.436-13.256-2.122
		c-7.29-2.455-12.321-6.025-15.092-10.712C283.154,749.194,282.475,743.498,283.887,736.791z"/>
	<path d="M340.785,755.113l11.99,0.673c0.1,4.075,1.093,7.21,2.98,9.404c1.887,2.195,4.677,3.577,8.369,4.146
		c3.91,0.603,6.984,0.23,9.222-1.119c2.237-1.349,3.527-3.131,3.869-5.346c0.219-1.421-0.011-2.695-0.691-3.823
		c-0.681-1.126-2.003-2.22-3.967-3.278c-1.346-0.711-4.452-2.086-9.316-4.124c-6.26-2.617-10.521-5.304-12.783-8.061
		c-3.182-3.878-4.406-8.196-3.672-12.954c0.472-3.063,1.782-5.794,3.93-8.192c2.147-2.398,4.963-4.043,8.446-4.934
		s7.535-0.979,12.157-0.268c7.547,1.164,12.974,3.695,16.278,7.592c3.304,3.897,4.626,8.623,3.966,14.176l-12.224-1.339
		c-0.043-3.17-0.815-5.564-2.315-7.181c-1.5-1.617-3.959-2.689-7.378-3.217c-3.527-0.544-6.401-0.245-8.621,0.896
		c-1.429,0.731-2.263,1.877-2.503,3.436c-0.219,1.422,0.194,2.731,1.242,3.929c1.333,1.521,4.845,3.435,10.537,5.74
		s9.838,4.422,12.438,6.349c2.6,1.927,4.501,4.306,5.703,7.137c1.201,2.83,1.509,6.146,0.922,9.947
		c-0.531,3.446-1.986,6.525-4.364,9.238c-2.378,2.713-5.431,4.531-9.156,5.454c-3.726,0.923-8.201,0.982-13.423,0.177
		c-7.603-1.172-13.17-3.829-16.702-7.972C342.184,767.459,340.54,761.962,340.785,755.113z"/>
	<path d="M403.305,783.176l-0.986-60.836l45.109-0.731l0.167,10.291l-32.826,0.532l0.219,13.487l30.542-0.495l0.166,10.25
		l-30.542,0.495l0.269,16.558l33.987-0.551l0.166,10.25L403.305,783.176z"/>
	<path d="M466.547,780.709l-11.625-59.724l11.732-2.284l32.207,35.126l-7.764-39.884l11.204-2.181l11.625,59.724l-12.1,2.355
		l-31.658-34.261l7.581,38.947L466.547,780.709z"/>
	<path d="M569.187,730.507l9.835-6.892c2.6,3.14,5.32,4.986,8.161,5.543c2.841,0.556,5.887-0.085,9.14-1.923
		c3.444-1.946,5.628-4.141,6.552-6.586c0.923-2.443,0.833-4.642-0.27-6.593c-0.707-1.252-1.677-2.11-2.909-2.575
		c-1.231-0.464-2.946-0.504-5.145-0.12c-1.498,0.274-4.788,1.116-9.87,2.525c-6.537,1.818-11.547,2.346-15.03,1.58
		c-4.898-1.077-8.532-3.712-10.9-7.904c-1.524-2.697-2.186-5.653-1.982-8.866c0.202-3.213,1.396-6.247,3.58-9.103
		c2.185-2.854,5.313-5.433,9.384-7.733c6.649-3.756,12.478-5.126,17.485-4.11c5.007,1.017,8.97,3.91,11.888,8.681l-10.431,6.513
		c-1.996-2.463-4.084-3.865-6.263-4.208c-2.18-0.341-4.774,0.339-7.786,2.04c-3.107,1.756-5.18,3.77-6.217,6.039
		c-0.67,1.459-0.616,2.875,0.159,4.248c0.708,1.253,1.844,2.025,3.407,2.317c1.989,0.371,5.932-0.301,11.83-2.012
		c5.897-1.712,10.464-2.615,13.698-2.711c3.235-0.096,6.201,0.597,8.896,2.077c2.695,1.479,4.989,3.895,6.881,7.243
		c1.715,3.035,2.478,6.354,2.289,9.957c-0.189,3.603-1.462,6.92-3.817,9.95c-2.355,3.031-5.833,5.847-10.435,8.446
		c-6.697,3.784-12.715,5.142-18.053,4.074C577.926,739.338,573.233,736.038,569.187,730.507z"/>
	<path d="M646.1,705.274l-31.686-39.39l-14.067,11.316l-6.451-8.021l37.676-30.306l6.451,8.02l-14.035,11.29l31.685,39.391
		L646.1,705.274z"/>
	<path d="M654.97,659.561c-4.654-4.094-7.947-8.225-9.881-12.396c-1.413-3.085-2.253-6.339-2.521-9.764
		c-0.269-3.423,0.093-6.598,1.081-9.523c1.3-3.905,3.584-7.718,6.855-11.438c5.922-6.73,12.747-10.279,20.478-10.647
		c7.73-0.366,15.314,2.721,22.752,9.264c7.375,6.488,11.382,13.569,12.02,21.242c0.638,7.674-1.994,14.866-7.897,21.576
		c-5.977,6.793-12.801,10.372-20.472,10.735C669.712,668.974,662.241,665.958,654.97,659.561z M663.019,649.782
		c5.173,4.551,10.146,6.806,14.916,6.765c4.771-0.04,8.774-1.899,12.01-5.576c3.234-3.678,4.564-7.859,3.99-12.548
		c-0.575-4.688-3.511-9.362-8.809-14.022c-5.234-4.605-10.15-6.894-14.746-6.864c-4.595,0.03-8.565,1.945-11.909,5.747
		c-3.345,3.802-4.736,8.013-4.177,12.633C654.854,640.537,657.763,645.159,663.019,649.782z"/>
	<path d="M725.606,621.187l-51.619-31.259l6.363-10.508l42.851,25.948l15.823-26.129l8.769,5.31L725.606,621.187z"/>
	<path d="M752.847,572.905l-55.295-25.389l5.126-11.165l55.295,25.389L752.847,572.905z"/>
</g>
<path fill="none" stroke="#000000" stroke-width="15" stroke-miterlimit="10" d="M342.229,481.782h156.464 M339.271,672.121
	l1.743-217.113v-4.864l1.215-6.085l3.043-11.561l3.042-8.518l4.259-10.344c0,0,12.776-31.231,12.776-31.637
	c0,0,15.211-37.317,15.211-37.722c0,0,2.84-7.302,3.043-8.52l2.433-6.691l1.217-4.868l0.607-3.042c0,0,0.203-6.083,0-9.125
	c0-7.908,0.458-117.588,0.458-117.588l62.211,0.163V308.38l0.608,13.385l0.608,3.042c0,0,9.702,26.181,15.211,38.332
	c0,0.609,28.597,74.836,28.597,74.836l0.608,2.434l1.217,6.085l0.607,4.258l0.607,14.603v0.607l1.344,206.096 M387.861,321.156
	h63.277 M371.079,367.619c0,0,41.477,14.255,96.561,0 M356.352,400.712c0,0,54.03,26.03,125.786,0"/>
<path fill="none" stroke="#000000" stroke-width="10" stroke-miterlimit="10" d="M690.208,413.5
	c0,149.502-121.206,270.709-270.708,270.709c-149.509,0-270.708-121.207-270.708-270.709c0-149.509,121.2-270.708,270.708-270.708
	C569.002,142.792,690.208,263.991,690.208,413.5z"/>
<circle fill="none" stroke="#000000" stroke-width="10" stroke-miterlimit="10" cx="419.5" cy="413.5" r="400"/>
<g>
	<path d="M212.685,192.038l-8.809,10.051l-13.896-5.114l-16.03,18.291l7.084,12.886l-8.589,9.801l-30.139-57.926l8.563-9.77
		L212.685,192.038z M179.673,193.183l-22.506-8.576l11.563,21.062L179.673,193.183z"/>
	<path d="M233.009,148.291l11.734-4.296c2.616,6.371,3.23,12.13,1.84,17.278c-1.389,5.148-4.667,9.719-9.833,13.712
		c-6.393,4.941-13.335,6.818-20.826,5.632c-7.492-1.186-14.165-5.567-20.02-13.142c-6.193-8.012-8.934-15.834-8.223-23.465
		c0.711-7.631,4.438-14.053,11.181-19.265c5.889-4.552,12.018-6.509,18.386-5.871c3.779,0.366,7.706,2.052,11.779,5.059
		l-7.845,9.735c-2.499-2.056-5.209-3.108-8.132-3.157s-5.676,0.925-8.259,2.921c-3.568,2.758-5.474,6.277-5.716,10.556
		c-0.243,4.279,1.854,9.287,6.287,15.022c4.704,6.086,9.149,9.575,13.335,10.466c4.186,0.892,8.03-0.017,11.533-2.725
		c2.583-1.997,4.171-4.535,4.763-7.615C235.584,156.057,234.924,152.441,233.009,148.291z"/>
	<path d="M262.884,154.657l-27.227-54.413l10.986-5.498l10.716,21.417l21.528-10.772l-10.716-21.417l10.986-5.498l27.227,54.413
		l-10.986,5.498l-11.905-23.792l-21.528,10.772l11.905,23.792L262.884,154.657z"/>
	<path d="M316.442,130.011l-19.643-57.587l11.627-3.966l19.643,57.587L316.442,130.011z"/>
	<path d="M337.337,122.481l-12.134-59.623l44.208-8.997l2.053,10.086l-32.17,6.547l2.69,13.218l29.933-6.092l2.044,10.045
		l-29.933,6.092l3.302,16.228l33.309-6.779l2.044,10.045L337.337,122.481z"/>
	<path d="M406.141,112.22l-23.073-60.354l13.32-0.292l16.379,44.684l13.911-45.347l13.029-0.285l-20.454,61.307L406.141,112.22z"/>
	<path d="M444.748,112.227l9.438-60.108l44.568,6.999l-1.597,10.168l-32.432-5.093l-2.093,13.325l30.177,4.739l-1.59,10.127
		l-30.178-4.739l-2.568,16.36l33.58,5.273l-1.59,10.127L444.748,112.227z"/>
	<path d="M497.813,120.782l21.359-56.973l17.217,6.455l-4.232,42.738l24.79-35.03l17.255,6.469l-21.359,56.973l-10.687-4.007
		l16.813-44.847l-28.123,40.607l-11.075-4.152l5.543-49.073l-16.813,44.847L497.813,120.782z"/>
	<path d="M560.94,146.246l32.375-51.517l38.197,24.005l-5.477,8.715l-27.796-17.468l-7.178,11.421l25.864,16.253l-5.455,8.68
		l-25.863-16.253l-8.812,14.021l28.78,18.087l-5.455,8.68L560.94,146.246z"/>
	<path d="M606.459,175.703l41.35-44.635l8.769,8.124l-9.346,46.73l27.614-29.807l8.373,7.757l-41.351,44.635l-9.042-8.377
		l8.971-45.776l-26.965,29.107L606.459,175.703z"/>
	<path d="M656.85,227.459l40.384-30.408l-10.859-14.423l8.223-6.191l29.084,38.626l-8.223,6.191l-10.835-14.389l-40.383,30.408
		L656.85,227.459z"/>
</g>
<g>
	<path d="M383.964,602.303l17.293-2.098c0.55,4.408,2.035,7.778,4.451,10.108c2.416,2.332,5.341,3.497,8.774,3.497
		c3.688,0,6.792-1.398,9.314-4.196c2.521-2.797,3.783-6.569,3.783-11.316c0-4.492-1.208-8.053-3.624-10.682
		c-2.416-2.628-5.363-3.942-8.838-3.942c-2.289,0-5.023,0.445-8.202,1.336l1.971-14.56c4.832,0.127,8.52-0.922,11.063-3.147
		s3.814-5.182,3.814-8.869c0-3.137-0.933-5.637-2.797-7.503c-1.866-1.864-4.346-2.797-7.439-2.797c-3.052,0-5.659,1.06-7.82,3.179
		c-2.162,2.12-3.476,5.214-3.942,9.282l-16.467-2.797c1.144-5.637,2.871-10.141,5.182-13.511c2.31-3.37,5.531-6.019,9.664-7.947
		c4.132-1.929,8.763-2.893,13.892-2.893c8.774,0,15.81,2.797,21.108,8.392c4.365,4.578,6.549,9.75,6.549,15.514
		c0,8.181-4.473,14.709-13.415,19.582c5.34,1.145,9.61,3.71,12.811,7.693c3.2,3.984,4.801,8.796,4.801,14.433
		c0,8.181-2.988,15.153-8.965,20.917c-5.977,5.766-13.415,8.647-22.316,8.647c-8.435,0-15.429-2.427-20.981-7.28
		C388.075,616.492,384.854,610.145,383.964,602.303z"/>
</g>
<path fill="none" stroke="#000000" stroke-width="10" stroke-miterlimit="10" d="M733.336,501.099
	c21.24-76.002,15.119-159.88-23.531-235.736"/>
<path fill="none" stroke="#000000" stroke-width="10" stroke-miterlimit="10" d="M105.155,501.112
	c-21.241-76.003-15.119-159.88,23.531-235.736"/>
</svg>
