<?xml version="1.0" encoding="utf-8"?>
<!-- Generator: Adobe Illustrator 16.0.0, SVG Export Plug-In . SVG Version: 6.00 Build 0)  -->
<!DOCTYPE svg PUBLIC "-//W3C//DTD SVG 1.1//EN" "http://www.w3.org/Graphics/SVG/1.1/DTD/svg11.dtd">
<svg version="1.1" id="Layer_1" xmlns="http://www.w3.org/2000/svg" xmlns:xlink="http://www.w3.org/1999/xlink" x="0px" y="0px"
	 width="830px" height="826px" viewBox="0 0 830 826" enable-background="new 0 0 830 826" xml:space="preserve">
<g>
	<path d="M75.474,498.473l4.561,10.756c-2.416,1.089-4.118,2.639-5.106,4.65c-0.989,2.011-1.171,4.035-0.545,6.072
		c0.714,2.327,2.265,4.008,4.652,5.041c2.386,1.032,5.484,0.964,9.293-0.205c3.571-1.097,6.003-2.719,7.298-4.867
		c1.294-2.148,1.547-4.506,0.76-7.071c-0.983-3.2-3.279-5.636-6.889-7.307l-1.468-9.447l32.027-3.581l9.05,29.479l-10.435,3.204
		l-6.456-21.028l-10.416,1.287c2.006,2.104,3.408,4.452,4.204,7.045c1.519,4.946,1.006,9.691-1.535,14.234
		c-2.542,4.542-6.683,7.695-12.422,9.457c-4.788,1.47-9.486,1.393-14.094-0.231c-6.293-2.207-10.471-6.67-12.533-13.389
		c-1.648-5.37-1.551-10.189,0.293-14.46C67.555,503.841,70.81,500.628,75.474,498.473z"/>
	<path d="M89.018,579.782l52.38-29.969l6.101,10.664l-43.481,24.877l15.169,26.514l-8.898,5.091L89.018,579.782z"/>
	<path d="M117.985,626.987l49.051-36.001l7.269,9.903l-49.051,36.001L117.985,626.987z"/>
	<path d="M144.115,659.735l37.116-34.32l-12.257-13.256l7.557-6.987l32.827,35.501l-7.558,6.987l-12.229-13.225l-37.116,34.319
		L144.115,659.735z"/>
	<path d="M175.127,691.355l37.407-47.986l35.581,27.736l-6.328,8.118l-25.892-20.185l-8.292,10.639l24.091,18.78l-6.302,8.085
		l-24.092-18.78l-10.181,13.061l26.809,20.898l-6.303,8.085L175.127,691.355z"/>
	<path d="M226.023,729.15l28.345-53.839l22.88,12.045c5.753,3.029,9.68,5.714,11.778,8.054s3.28,5.159,3.545,8.456
		c0.264,3.299-0.44,6.539-2.116,9.722c-2.127,4.039-5.071,6.75-8.831,8.132c-3.761,1.382-8.185,1.172-13.27-0.631
		c1.628,2.609,2.776,5.136,3.443,7.582c0.666,2.445,1.195,6.445,1.586,11.998l1.044,13.965l-13.001-6.845l-1.691-15.854
		c-0.587-5.655-1.108-9.299-1.563-10.93c-0.455-1.631-1.151-2.952-2.089-3.961c-0.938-1.011-2.656-2.173-5.153-3.487l-2.204-1.16
		l-11.833,22.476L226.023,729.15z M253.251,703.804l8.042,4.234c5.215,2.745,8.587,4.239,10.117,4.482
		c1.529,0.242,2.945,0.019,4.247-0.673c1.301-0.69,2.377-1.844,3.229-3.459c0.954-1.813,1.24-3.529,0.86-5.152
		c-0.381-1.624-1.375-3.046-2.983-4.268c-0.817-0.587-3.429-2.04-7.836-4.36l-8.483-4.467L253.251,703.804z"/>
	<path d="M344.909,752.466l2.234-10.006l25.843,5.772l-5.283,23.655c-3.054,1.869-7.171,3.197-12.35,3.982
		c-5.18,0.784-10.213,0.632-15.101-0.46c-6.211-1.387-11.334-3.898-15.37-7.536s-6.673-8.139-7.913-13.505
		c-1.24-5.365-1.223-10.897,0.049-16.596c1.381-6.184,3.905-11.39,7.571-15.617c3.666-4.228,8.283-7.066,13.852-8.517
		c4.248-1.12,9.208-1.048,14.878,0.219c7.372,1.646,12.785,4.479,16.24,8.496c3.454,4.019,5.166,8.888,5.137,14.607l-12.406-0.432
		c-0.186-3.104-1.245-5.757-3.177-7.961c-1.932-2.203-4.626-3.69-8.083-4.463c-5.239-1.17-9.775-0.439-13.609,2.191
		c-3.834,2.631-6.48,7.214-7.94,13.749c-1.574,7.048-1.189,12.684,1.157,16.907c2.345,4.224,6.056,6.902,11.133,8.036
		c2.512,0.562,5.139,0.631,7.885,0.209c2.745-0.422,5.179-1.133,7.302-2.133l1.683-7.534L344.909,752.466z"/>
	<path d="M384.109,781.851l2.143-60.807l45.087,1.588l-0.362,10.287l-32.81-1.156l-0.475,13.48l30.528,1.075l-0.36,10.245
		l-30.528-1.075l-0.583,16.55l33.971,1.197l-0.361,10.245L384.109,781.851z"/>
	<path d="M438.685,722.41l22.234-3.132c5.014-0.706,8.891-0.86,11.629-0.464c3.681,0.544,6.969,1.967,9.864,4.269
		c2.895,2.303,5.271,5.287,7.128,8.951s3.184,8.318,3.979,13.962c0.698,4.96,0.684,9.321-0.044,13.084
		c-0.89,4.596-2.54,8.446-4.953,11.553c-1.82,2.353-4.444,4.356-7.871,6.013c-2.565,1.228-6.095,2.157-10.588,2.79l-22.892,3.225
		L438.685,722.41z M452.285,730.889l5.621,39.906l9.082-1.279c3.397-0.478,5.823-1.015,7.275-1.611
		c1.903-0.771,3.423-1.837,4.559-3.198c1.135-1.361,1.924-3.449,2.366-6.264c0.441-2.814,0.335-6.551-0.321-11.209
		c-0.656-4.657-1.57-8.175-2.744-10.553c-1.173-2.377-2.598-4.161-4.273-5.35c-1.677-1.189-3.687-1.87-6.03-2.043
		c-1.753-0.145-5.109,0.133-10.067,0.831L452.285,730.889z"/>
	<path d="M514.652,771.336l-19.48-57.642l24.495-8.279c6.16-2.081,10.812-3.076,13.953-2.984s5.998,1.178,8.57,3.258
		c2.572,2.081,4.435,4.825,5.586,8.232c1.462,4.325,1.397,8.327-0.192,12.004c-1.591,3.677-4.791,6.738-9.602,9.182
		c3.013,0.617,5.634,1.527,7.866,2.729c2.231,1.203,5.494,3.575,9.788,7.119l10.839,8.866l-13.919,4.704l-12.653-9.699
		c-4.504-3.472-7.503-5.605-8.998-6.399s-2.932-1.2-4.31-1.216c-1.379-0.017-3.404,0.427-6.078,1.331l-2.359,0.797l8.133,24.063
		L514.652,771.336z M515.049,734.139l8.611-2.91c5.583-1.888,8.989-3.302,10.22-4.243c1.229-0.94,2.043-2.121,2.439-3.54
		s0.303-2.994-0.282-4.724c-0.655-1.94-1.703-3.331-3.142-4.174s-3.154-1.103-5.147-0.779c-0.988,0.188-3.842,1.079-8.56,2.674
		l-9.083,3.069L515.049,734.139z"/>
	<path d="M562.016,722.935c-3.074-5.382-4.849-10.358-5.325-14.931c-0.335-3.376-0.074-6.728,0.782-10.054
		c0.856-3.325,2.228-6.211,4.112-8.657c2.496-3.273,5.895-6.139,10.195-8.595c7.785-4.446,15.393-5.589,22.824-3.429
		c7.431,2.16,13.604,7.542,18.516,16.143c4.872,8.53,6.364,16.528,4.479,23.993c-1.886,7.466-6.709,13.415-14.47,17.848
		c-7.856,4.486-15.473,5.658-22.848,3.513C572.906,736.621,566.818,731.344,562.016,722.935z M572.802,716.296
		c3.417,5.982,7.389,9.729,11.915,11.238c4.525,1.51,8.916,1.05,13.168-1.379c4.253-2.429,6.868-5.954,7.846-10.575
		c0.978-4.62-0.283-9.994-3.782-16.121c-3.458-6.055-7.366-9.813-11.722-11.277c-4.357-1.462-8.733-0.938-13.131,1.572
		c-4.396,2.512-7.08,6.044-8.049,10.596C568.078,704.902,569.33,710.218,572.802,716.296z"/>
	<path d="M641.739,709.555l-39.675-46.131l9.063-7.794l45.375,14.568l-26.494-30.807l8.653-7.442l39.674,46.131l-9.346,8.038
		l-44.469-14.089l25.872,30.083L641.739,709.555z"/>
	<path d="M692.311,663.689l-47.426-38.116l7.696-9.576l21.061,16.926l-5.513-36.271l10.348-12.876l4.121,32.704l44.086,4.441
		l-9.959,12.391l-32.734-4.851l1.686,14.134l14.331,11.519L692.311,663.689z"/>
	<path d="M733.333,609.628l-53.409-29.146l21.61-39.602l9.035,4.931l-15.726,28.817l11.84,6.462l14.633-26.814l8.999,4.91
		l-14.633,26.814l14.537,7.933l16.282-29.838l8.999,4.91L733.333,609.628z"/>
	<path d="M762.422,553.16l-57.742-19.18l3.768-11.344l46.411-10.824l-38.561-12.809l3.598-10.832l57.743,19.181l-3.886,11.698
		l-45.388,10.771l37.655,12.508L762.422,553.16z"/>
</g>
<path fill="none" stroke="#000000" stroke-width="10" stroke-miterlimit="10" d="M690.208,413.5
	c0,149.502-121.206,270.709-270.708,270.709c-149.509,0-270.708-121.207-270.708-270.709c0-149.509,121.2-270.708,270.708-270.708
	C569.002,142.792,690.208,263.991,690.208,413.5z"/>
<circle fill="none" stroke="#000000" stroke-width="10" stroke-miterlimit="10" cx="419.5" cy="413.5" r="400"/>
<g>
	<path d="M212.685,192.038l-8.809,10.051l-13.896-5.114l-16.03,18.291l7.084,12.886l-8.589,9.801l-30.139-57.926l8.563-9.77
		L212.685,192.038z M179.673,193.183l-22.506-8.576l11.563,21.062L179.673,193.183z"/>
	<path d="M233.009,148.291l11.734-4.296c2.616,6.371,3.23,12.13,1.84,17.278c-1.389,5.148-4.667,9.719-9.833,13.712
		c-6.393,4.941-13.335,6.818-20.826,5.632c-7.492-1.186-14.165-5.567-20.02-13.142c-6.193-8.012-8.934-15.834-8.223-23.465
		c0.711-7.631,4.438-14.053,11.181-19.265c5.889-4.552,12.018-6.509,18.386-5.871c3.779,0.366,7.706,2.052,11.779,5.059
		l-7.845,9.735c-2.499-2.056-5.209-3.108-8.132-3.157s-5.676,0.925-8.259,2.921c-3.568,2.758-5.474,6.277-5.716,10.556
		c-0.243,4.279,1.854,9.287,6.287,15.022c4.704,6.086,9.149,9.575,13.335,10.466c4.186,0.892,8.03-0.017,11.533-2.725
		c2.583-1.997,4.171-4.535,4.763-7.615C235.584,156.057,234.924,152.441,233.009,148.291z"/>
	<path d="M262.884,154.657l-27.227-54.413l10.986-5.498l10.716,21.417l21.528-10.772l-10.716-21.417l10.986-5.498l27.227,54.413
		l-10.986,5.498l-11.905-23.792l-21.528,10.772l11.905,23.792L262.884,154.657z"/>
	<path d="M316.442,130.011l-19.643-57.587l11.627-3.966l19.643,57.587L316.442,130.011z"/>
	<path d="M337.337,122.481l-12.134-59.623l44.208-8.997l2.053,10.086l-32.17,6.547l2.69,13.218l29.933-6.092l2.044,10.045
		l-29.933,6.092l3.302,16.228l33.309-6.779l2.044,10.045L337.337,122.481z"/>
	<path d="M406.141,112.22l-23.073-60.354l13.32-0.292l16.379,44.684l13.911-45.347l13.029-0.285l-20.454,61.307L406.141,112.22z"/>
	<path d="M444.748,112.227l9.438-60.108l44.568,6.999l-1.597,10.168l-32.432-5.093l-2.093,13.325l30.177,4.739l-1.59,10.127
		l-30.178-4.739l-2.568,16.36l33.58,5.273l-1.59,10.127L444.748,112.227z"/>
	<path d="M497.813,120.782l21.359-56.973l17.217,6.455l-4.232,42.738l24.79-35.03l17.255,6.469l-21.359,56.973l-10.687-4.007
		l16.813-44.847l-28.123,40.607l-11.075-4.152l5.543-49.073l-16.813,44.847L497.813,120.782z"/>
	<path d="M560.94,146.246l32.375-51.517l38.197,24.005l-5.477,8.715l-27.796-17.468l-7.178,11.421l25.864,16.253l-5.455,8.68
		l-25.863-16.253l-8.812,14.021l28.78,18.087l-5.455,8.68L560.94,146.246z"/>
	<path d="M606.459,175.703l41.35-44.635l8.769,8.124l-9.346,46.73l27.614-29.807l8.373,7.757l-41.351,44.635l-9.042-8.377
		l8.971-45.776l-26.965,29.107L606.459,175.703z"/>
	<path d="M656.85,227.459l40.384-30.408l-10.859-14.423l8.223-6.191l29.084,38.626l-8.223,6.191l-10.835-14.389l-40.383,30.408
		L656.85,227.459z"/>
</g>
<path fill="none" stroke="#000000" stroke-width="10" stroke-miterlimit="10" d="M742.828,454.001
	c8.595-68.142-4.184-139.543-41.173-203.611"/>
<path fill="none" stroke="#000000" stroke-width="10" stroke-miterlimit="10" d="M95.663,454.001
	c-8.595-68.142,4.183-139.543,41.172-203.611"/>
<path fill-rule="evenodd" clip-rule="evenodd" d="M531.851,412.674c13.04,0,24.747-0.091,36.455,0.019
	c25.264,0.237,40.423,15.516,40.588,41.037c0.132,20.633-0.306,41.276,0.188,61.897c0.191,8.063-1.945,11.881-10.481,10.689
	c-3.06-0.426-6.231-0.068-9.666-0.068c-1.054,4.76-1.663,9.019-2.943,13.066c-7.503,23.726-23.481,38.778-47.998,42.634
	c-24.829,3.905-45.176-5.232-59.225-26.334c-3.472-5.213-6.89-7.216-13.063-7.035c-15.176,0.447-30.381-0.077-45.559,0.343
	c-2.681,0.076-6.534,2.177-7.736,4.455c-13.187,24.979-36.657,35.4-60.617,26.446c-23.574-8.81-34.753-32.057-28.358-58.925
	c0.193-0.81,0.151-1.68,0.324-3.813c-3.164,0-6.141,0-9.118,0c-30.378,0-60.759-0.166-91.135,0.125
	c-6.81,0.066-9.684-1.525-9.596-9.004c0.22-18.927,4.338-23.495,23.123-23.495c30.665-0.003,61.331,0,91.996,0
	c3.086,0,6.173,0,10.33,0c0-9.644,0.001-18.437-0.001-27.228c-0.013-60.17-0.049-120.34-0.019-180.511
	c0.006-12.499,5.304-17.758,17.693-17.947c2.005-0.032,4.044,0.231,6.012-0.044c7.052-0.981,8.677,2.32,8.633,8.893
	c-0.257,38.115-0.126,76.231-0.126,114.35c0,32.344-0.065,64.688,0.107,97.032c0.016,3.029,1.532,6.049,2.351,9.074
	c1.535-2.657,3.899-5.146,4.484-7.999c10.684-52.144,21.162-104.332,31.665-156.517c3.786-18.809,9.185-23.2,28.703-23.2
	c25.219,0,50.439-0.047,75.66,0.027c12.428,0.037,16.979,4.695,17.035,17.213c0.124,28.078,0.201,56.159,0.296,84.238
	C531.859,405.189,531.851,408.287,531.851,412.674z M471.283,542.455c-0.079-1.549-0.014-2.412-0.18-3.229
	c-6.054-29.549,2.403-50.188,27.095-67.639c2.718-1.92,3.723-6.261,6.663-11.518c-6.181,0-9.26,0-12.337,0
	c-26.932-0.011-53.867-0.149-80.798,0.066c-6.288,0.053-8.049-1.881-6.647-8.099c8.806-39.078,17.372-78.21,26.022-117.323
	c1.579-7.146,5.882-10.753,13.363-10.709c17.478,0.101,34.955,0.092,52.434,0.021c7.946-0.032,11.427,3.911,11.385,11.679
	c-0.094,17.763-0.051,35.527-0.061,53.291c-0.003,7.634,0,15.267,0,22.634c16.854,2.632,16.878,2.601,16.921-12.466
	c0.074-26.925,0.219-53.851,0.233-80.776c0.006-10.051-1.386-11.368-11.507-11.388c-26.076-0.047-52.147-0.043-78.222-0.037
	c-12.7,0.003-16.471,3.232-19.061,16.001c-7.284,35.912-14.632,71.808-21.889,107.725c-4.005,19.82-7.879,39.67-11.808,59.481
	c23.532,10.038,34.063,27.344,32.688,52.285C434.123,542.455,452.366,542.455,471.283,542.455z M364.858,265.843
	c-15.863-2.672-19.452,0.168-19.455,14.991c-0.015,66.727-0.129,133.453,0.143,200.179c0.031,7.844-2.118,10.289-10.142,10.186
	c-33.217-0.434-66.442-0.187-99.665-0.172c-14.403,0.009-17.792,4.687-13.778,19.687c30.464,0,61.081-0.216,91.691,0.132
	c8.943,0.103,15.358-1.787,22.313-8.712c7.439-7.407,18.62-11.058,28.893-16.75C364.858,413.247,364.858,339.495,364.858,265.843z
	 M602.493,519.758c0-24.784,0.401-48.541-0.145-72.277c-0.353-15.313-13.793-27.921-29.209-28.35
	c-10.575-0.294-21.171,0.119-31.757,0.159c-10.763,0.039-21.526,0.009-32.498,0.009c0,15.992,0,31.174,0,47.07
	c19.474-4.903,37.188-3.405,53.4,7.676c16.132,11.025,23.798,27.115,26.499,45.713C593.665,519.758,597.574,519.758,602.493,519.758
	z M440.226,399.668c-2.996-3.447-5.485-6.309-8.274-9.516c7.69-2.182,20.728,7.816,24.805,19.392
	c-4.806-2.053-8.244-3.517-12.146-5.182c-4.444,6.092-8.957,12.273-13.792,18.898c4.411,4.058,8.316,7.65,10.859,9.994
	c6.49-3.118,11.479-6.672,16.975-7.84c5.934-1.258,12.34-0.283,19.008-0.283c0.315-4.567,0.695-7.658,0.716-10.75
	c0.079-12.299-0.131-24.603,0.107-36.898c0.217-11.192,6.564-19.742,16.877-23.496c2.328-0.848,4.684-1.631,7.18-2.496
	c0-4.224-0.356-7.977,0.072-11.639c0.948-8.12-2.596-10.419-10.379-10.152c-14.872,0.514-29.779,0.339-44.663,0.032
	c-6.544-0.136-9.732,2.064-11.126,8.803c-4.747,22.958-9.914,45.835-15.359,68.639c-1.238,5.187-0.38,8.227,5.647,10.367
	C431.087,411.775,435.644,405.739,440.226,399.668z M582.15,523.099c-0.096-29.422-24.526-53.804-53.692-53.584
	c-29.541,0.224-53.495,24.346-53.43,53.802c0.067,29.478,24.322,53.708,53.645,53.593
	C558.058,576.791,582.247,552.453,582.15,523.099z M368.888,494.497c-22.714-0.31-41.33,17.73-41.655,40.362
	c-0.33,22.983,18.137,41.882,41.067,42.026c22.287,0.139,41.184-18.611,41.33-41.008
	C409.775,513.296,391.569,494.803,368.888,494.497z M502.267,359.581c-11.358,0.976-17.718,7.545-17.971,19.206
	c-0.305,13.993-0.203,28.01,0.292,41.999c0.242,6.826-0.759,11.133-9.01,10.365c-5.091-0.472-10.27-0.042-15.408,0.06
	c-6.523,0.131-10.034,3.742-10.643,10c-0.372,3.86-0.066,7.784-0.066,12.476c15.449,0,30.271-0.268,45.076,0.129
	c6.038,0.165,7.981-1.717,7.867-7.753c-0.331-17.732-0.131-35.476-0.138-53.213C502.264,381.773,502.267,370.697,502.267,359.581z
	 M441.914,453.104c1.08-10.833-9.615-24.32-24.167-31.027c-2.128,10.316-4.211,20.422-6.397,31.027
	C422.244,453.104,431.864,453.104,441.914,453.104z"/>
<path fill-rule="evenodd" clip-rule="evenodd" d="M241.991,381.548c0-19.871,0.001-38.976-0.001-58.083
	c-0.001-12.339-0.002-12.333,11.918-12.329c18.325,0.003,36.656,0.24,54.974-0.127c6.511-0.131,8.365,2.138,8.264,8.438
	c-0.324,20.294-0.121,40.595-0.121,61.781c12.437-1.94,11.758,5.729,11.637,14.039c-0.342,23.473-0.337,46.96,0.041,70.434
	c0.11,6.796-1.927,8.857-8.757,8.768c-26.911-0.355-53.833-0.369-80.743,0.021c-6.957,0.101-8.785-2.174-8.692-8.833
	c0.334-24.04,0.347-48.092,0.007-72.129C230.41,385.742,230.794,379.556,241.991,381.548z M321.923,468.509
	c0-27.389,0-53.599,0-80.03c-10.072,0-19.611,0-27.208,0c-6.337,5.694,4.097,16.335-8.15,18.07
	c-5.542,0.785-13.491,1.817-16.491-1.156c-3.557-3.524-2.957-11.244-4.12-16.961c-9.68,0-19.222,0-29.439,0
	c0,25.414,0.097,49.988-0.072,74.56c-0.039,5.723,3.408,5.548,7.338,5.538c18.617-0.044,37.234-0.021,55.852-0.021
	C306.995,468.509,314.358,468.509,321.923,468.509z M310.185,381.266c0-21.681,0-42.417,0-63.337c-6.153,0-11.679,0-15.904,0
	c-5.434,5.509,4.724,17.287-9.262,17.339c-5.388,0.02-12.71,1.497-15.648-1.329c-3.18-3.061-2.27-10.369-3.169-15.984
	c-5.857,0-11.654,0-17.584,0c0,21.384,0,42.115,0,63.311C269.286,381.266,289.44,381.266,310.185,381.266z M273.721,328.618
	c4.158,0,7.923,0,11.94,0c0-3.799,0-7.085,0-10.624c-4.233,0-8,0-11.94,0C273.721,321.496,273.721,324.324,273.721,328.618z
	 M274.02,388.028c0,4.585,0,8.133,0,11.889c4.164,0,7.702,0,11.449,0c0-4.273,0-8.022,0-11.889
	C281.354,388.028,278.017,388.028,274.02,388.028z"/>
<path fill-rule="evenodd" clip-rule="evenodd" d="M564.808,523.411c-0.068,20.308-16.622,36.725-36.667,36.368
	c-19.888-0.354-35.852-16.503-35.925-36.342c-0.074-20.238,16.229-36.744,36.329-36.781
	C548.689,486.619,564.877,503.026,564.808,523.411z M528.537,553.457c16.941,0.022,30.627-13.773,30.422-30.664
	c-0.199-16.519-13.79-29.85-30.389-29.81c-16.991,0.04-30.771,13.886-30.5,30.641C498.34,540.147,511.908,553.434,528.537,553.457z"
	/>
<path fill-rule="evenodd" clip-rule="evenodd" d="M339.354,535.468c0.064-16.212,12.701-28.828,28.932-28.882
	c16.398-0.056,29.625,13.279,29.3,29.537c-0.316,15.838-13.783,28.892-29.531,28.628
	C351.975,564.482,339.29,551.542,339.354,535.468z M367.981,558.597c12.731,0.21,22.959-9.643,23.257-22.406
	c0.307-13.092-9.956-23.714-22.885-23.688c-12.572,0.023-22.857,10.276-22.957,22.884
	C345.295,548.008,355.396,558.389,367.981,558.597z"/>
</svg>
