<?xml version="1.0" encoding="utf-8"?>
<!-- Generator: Adobe Illustrator 16.0.0, SVG Export Plug-In . SVG Version: 6.00 Build 0)  -->
<!DOCTYPE svg PUBLIC "-//W3C//DTD SVG 1.1//EN" "http://www.w3.org/Graphics/SVG/1.1/DTD/svg11.dtd">
<svg version="1.1" id="Layer_1" xmlns="http://www.w3.org/2000/svg" xmlns:xlink="http://www.w3.org/1999/xlink" x="0px" y="0px"
	 width="830px" height="826px" viewBox="0 0 830 826" enable-background="new 0 0 830 826" xml:space="preserve">
<g>
	<path d="M208.736,655.362l6.6-8.589l31.627,24.302l-5.159,6.713c-4.584,0.561-10.07,2.207-16.461,4.938
		c-6.391,2.731-12.372,6.258-17.942,10.578c-5.571,4.321-9.981,8.618-13.229,12.892l-8.918-6.854
		c5.278-6.552,11.881-12.295,19.809-17.23c7.927-4.935,16.162-8.466,24.704-10.591L208.736,655.362z"/>
	<path d="M228.841,712.151l10.716,4.655c-1.001,2.453-1.167,4.749-0.499,6.889c0.668,2.139,1.93,3.731,3.787,4.777
		c2.121,1.194,4.402,1.345,6.844,0.45c2.441-0.896,4.64-3.079,6.596-6.55c1.833-3.255,2.479-6.106,1.938-8.556
		c-0.542-2.449-1.982-4.332-4.32-5.649c-2.917-1.644-6.259-1.827-10.026-0.551l-7.572-5.839l20.75-24.656l26.867,15.136
		l-5.358,9.511l-19.165-10.797l-6.664,8.107c2.904,0.144,5.538,0.881,7.9,2.212c4.508,2.539,7.405,6.331,8.692,11.375
		c1.286,5.044,0.457,10.183-2.491,15.413c-2.458,4.363-5.917,7.544-10.376,9.541c-6.083,2.734-12.185,2.377-18.308-1.072
		c-4.894-2.758-8.144-6.318-9.749-10.685C226.799,721.497,226.945,716.926,228.841,712.151z"/>
	<path d="M294.983,762.601l15.796-58.759l17.756,4.773l-0.114,42.947l21.316-37.247l17.796,4.784l-15.796,58.759l-11.022-2.964
		l12.435-46.253l-24.098,43.118l-11.423-3.071l0.811-49.378l-12.435,46.253L294.983,762.601z"/>
	<path d="M371.063,780.383l4.274-60.694l45.003,3.169l-0.723,10.268l-32.749-2.306l-0.948,13.455l30.472,2.146l-0.72,10.226
		l-30.472-2.146l-1.163,16.519l33.908,2.389l-0.72,10.226L371.063,780.383z"/>
	<path d="M434.178,783.378l-6.339-60.514l11.889-1.245l28.999,37.817l-4.232-40.412l11.352-1.188l6.338,60.514l-12.259,1.284
		l-28.529-36.906l4.134,39.461L434.178,783.378z"/>
	<path d="M493.008,756.271l11.154-4.453c1.811,3.651,4.034,6.074,6.672,7.267s5.75,1.267,9.337,0.225
		c3.799-1.104,6.428-2.74,7.888-4.908c1.458-2.167,1.875-4.327,1.249-6.479c-0.401-1.381-1.148-2.439-2.24-3.174
		c-1.093-0.733-2.753-1.166-4.98-1.297c-1.521-0.076-4.916-0.011-10.187,0.195c-6.779,0.271-11.776-0.364-14.991-1.908
		c-4.521-2.172-7.455-5.57-8.799-10.192c-0.865-2.976-0.831-6.005,0.104-9.086c0.934-3.081,2.791-5.76,5.572-8.038
		c2.78-2.278,6.417-4.07,10.907-5.376c7.333-2.132,13.32-2.129,17.961,0.009c4.642,2.137,7.835,5.862,9.581,11.175l-11.646,3.948
		c-1.378-2.855-3.089-4.7-5.132-5.532s-4.725-0.766-8.046,0.199c-3.427,0.997-5.906,2.481-7.437,4.453
		c-0.986,1.267-1.259,2.657-0.818,4.172c0.401,1.381,1.33,2.395,2.785,3.037c1.851,0.816,5.843,1.067,11.976,0.754
		s10.784-0.146,13.955,0.502c3.172,0.649,5.898,2.003,8.184,4.062c2.284,2.059,3.963,4.936,5.036,8.628
		c0.974,3.348,0.955,6.754-0.055,10.217c-1.011,3.464-3.009,6.4-5.997,8.811c-2.988,2.409-7.019,4.353-12.093,5.828
		c-7.387,2.147-13.556,2.09-18.507-0.174C499.489,766.87,495.679,762.582,493.008,756.271z"/>
	<path d="M561.661,755.239l-26.732-54.658l40.527-19.821l4.522,9.247l-29.492,14.423l5.927,12.117l27.44-13.42l4.504,9.209
		l-27.44,13.421l7.275,14.876l30.535-14.935l4.505,9.209L561.661,755.239z"/>
	<path d="M618.017,725.987l-35.979-49.068l9.64-7.067l44.108,18.043l-24.025-32.768l9.204-6.749l35.978,49.067l-9.94,7.289
		l-43.243-17.494l23.462,31.998L618.017,725.987z"/>
</g>
<path fill="none" stroke="#000000" stroke-width="10" stroke-miterlimit="10" d="M690.208,413.5
	c0,149.502-121.206,270.709-270.708,270.709c-149.509,0-270.708-121.207-270.708-270.709c0-149.509,121.2-270.708,270.708-270.708
	C569.002,142.792,690.208,263.991,690.208,413.5z"/>
<path fill="none" stroke="#000000" stroke-width="10" stroke-miterlimit="10" d="M182.879,640.003
	c-56.33-58.83-90.937-138.627-90.937-226.503c0-53.06,12.616-103.172,35.011-147.503"/>
<path fill="none" stroke="#000000" stroke-width="10" stroke-miterlimit="10" d="M712.044,265.995
	c22.396,44.331,35.013,94.444,35.013,147.505c0,87.876-34.608,167.673-90.938,226.503"/>
<circle fill="none" stroke="#000000" stroke-width="10" stroke-miterlimit="10" cx="419.5" cy="413.5" r="400"/>
<g>
	<path d="M212.685,192.038l-8.809,10.051l-13.896-5.114l-16.03,18.291l7.084,12.886l-8.589,9.801l-30.139-57.926l8.563-9.77
		L212.685,192.038z M179.673,193.183l-22.506-8.576l11.563,21.062L179.673,193.183z"/>
	<path d="M233.009,148.291l11.734-4.296c2.616,6.371,3.23,12.13,1.84,17.278c-1.389,5.148-4.667,9.719-9.833,13.712
		c-6.393,4.941-13.335,6.818-20.826,5.632c-7.492-1.186-14.165-5.567-20.02-13.142c-6.193-8.012-8.934-15.834-8.223-23.465
		c0.711-7.631,4.438-14.053,11.181-19.265c5.889-4.552,12.018-6.509,18.386-5.871c3.779,0.366,7.706,2.052,11.779,5.059
		l-7.845,9.735c-2.499-2.056-5.209-3.108-8.132-3.157s-5.676,0.925-8.259,2.921c-3.568,2.758-5.474,6.277-5.716,10.556
		c-0.243,4.279,1.854,9.287,6.287,15.022c4.704,6.086,9.149,9.575,13.335,10.466c4.186,0.892,8.03-0.017,11.533-2.725
		c2.583-1.997,4.171-4.535,4.763-7.615C235.584,156.057,234.924,152.441,233.009,148.291z"/>
	<path d="M262.884,154.657l-27.227-54.413l10.986-5.498l10.716,21.417l21.528-10.772l-10.716-21.417l10.986-5.498l27.227,54.413
		l-10.986,5.498l-11.905-23.792l-21.528,10.772l11.905,23.792L262.884,154.657z"/>
	<path d="M316.442,130.011l-19.643-57.587l11.627-3.966l19.643,57.587L316.442,130.011z"/>
	<path d="M337.337,122.481l-12.134-59.623l44.208-8.997l2.053,10.086l-32.17,6.547l2.69,13.218l29.933-6.092l2.044,10.045
		l-29.933,6.092l3.302,16.228l33.309-6.779l2.044,10.045L337.337,122.481z"/>
	<path d="M406.141,112.22l-23.073-60.354l13.32-0.292l16.379,44.684l13.911-45.347l13.029-0.285l-20.454,61.307L406.141,112.22z"/>
	<path d="M444.748,112.227l9.438-60.108l44.568,6.999l-1.597,10.168l-32.432-5.093l-2.093,13.325l30.177,4.739l-1.59,10.127
		l-30.178-4.739l-2.568,16.36l33.58,5.273l-1.59,10.127L444.748,112.227z"/>
	<path d="M497.813,120.782l21.359-56.973l17.217,6.455l-4.232,42.738l24.79-35.03l17.255,6.469l-21.359,56.973l-10.687-4.007
		l16.813-44.847l-28.123,40.607l-11.075-4.152l5.543-49.073l-16.813,44.847L497.813,120.782z"/>
	<path d="M560.94,146.246l32.375-51.517l38.197,24.005l-5.477,8.715l-27.796-17.468l-7.178,11.421l25.864,16.253l-5.455,8.68
		l-25.863-16.253l-8.812,14.021l28.78,18.087l-5.455,8.68L560.94,146.246z"/>
	<path d="M606.459,175.703l41.35-44.635l8.769,8.124l-9.346,46.73l27.614-29.807l8.373,7.757l-41.351,44.635l-9.042-8.377
		l8.971-45.776l-26.965,29.107L606.459,175.703z"/>
	<path d="M656.85,227.459l40.384-30.408l-10.859-14.423l8.223-6.191l29.084,38.626l-8.223,6.191l-10.835-14.389l-40.383,30.408
		L656.85,227.459z"/>
</g>
<path fill-rule="evenodd" clip-rule="evenodd" stroke="#FFFFFF" stroke-width="3" stroke-miterlimit="10" d="M323.776,378.816
	c7.979,6.406,14.991,6.556,22.864,0.36c6.883-5.417,14.583-9.946,22.361-14.031c9.65-5.066,19.752-5.281,30.005-0.913
	c2.155,0.918,5.705,0.793,7.656-0.405c13.585-8.345,27.266-9.71,42.095-3.133c13.472,5.978,27.309,11.171,41.165,16.214
	c3.347,1.218,7.574,1.253,11.1,0.476c6.584-1.452,12.95-3.898,19.9-6.086c-1.384-3.715-2.756-6.896-3.752-10.189
	c-1.494-4.939-0.142-8.287,5.15-10.309c17.271-6.602,34.398-13.578,51.601-20.362c7.709-3.041,10.1-2.024,13.132,5.583
	c17.44,43.766,34.864,87.537,52.262,131.321c2.733,6.878,1.584,9.487-5.285,12.209c-16.781,6.64-33.583,13.23-50.379,19.837
	c-8.837,3.478-10.907,2.568-14.474-6.244c-0.972-2.402-2.028-4.771-3.158-7.419c-1.616,0.398-2.902,0.601-4.102,1.038
	c-2.45,0.893-4.854,1.916-6.577,2.604c-0.358,6.229,0.409,12.222-1.234,17.458c-3.399,10.829-11.147,17.931-22.629,19.769
	c-4.838,0.773-7.83,2.384-10.614,6.862c-6.318,10.166-15.874,15.543-28.284,15.204c-1.789-0.049-4.29,0.867-5.32,2.211
	c-7.303,9.523-16.438,15.043-28.761,14.966c-1.681-0.011-3.865,1.685-4.983,3.204c-11.572,15.709-27.669,18.663-43.932,7.811
	c-4.204-2.804-8.29-5.786-12.76-8.918c-4.75,5.697-8.799,12.25-17.446,11.354c-1.315-0.135-2.946,0.23-3.902-0.417
	c-5.552-3.762-10.458-9.467-16.528-11.201c-6.463-1.847-13.953-1.411-18.707-6.697c-5.85-6.503-12.249-11.546-20.086-15.585
	c-4.172-2.148-6.411-7.968-9.664-12.017c-1.719-2.139-3.372-4.789-5.685-5.916c-12.593-6.138-16.987-13.523-15.541-27.847
	c-6.555-3.506-13.279-7.102-20.551-10.992c-1.538,3.036-2.882,5.509-4.063,8.059c-2.323,5.015-6.074,6.175-10.828,3.824
	c-17.581-8.698-35.117-17.49-52.648-26.287c-4.82-2.418-5.944-6.016-3.467-10.927c21.632-42.899,43.224-85.818,64.79-128.75
	c2.606-5.188,6.269-6.24,11.375-3.666c17.103,8.626,34.216,17.232,51.394,25.708c5.273,2.6,6.384,6.142,3.718,11.257
	C327.158,371.337,325.587,374.972,323.776,378.816z M477.979,540.038c-9.873-9.429-19.896-19.012-29.935-28.575
	c-3.601-3.43-6.794-7.274-2.084-11.727c4.256-4.021,7.931-1.245,11.31,2.21c8.954,9.157,18.045,18.182,27.081,27.258
	c8.603,8.644,16.96,8.087,24.571-1.393c3.028-3.774,3.091-6.534-0.681-10.089c-11.73-11.049-23.032-22.554-34.692-33.683
	c-3.691-3.525-4.732-7.492-1.369-10.953c3.391-3.489,7.3-2.382,10.876,1.217c12.13,12.195,24.442,24.216,36.813,36.17
	c5.38,5.201,12,4.422,17.978-1.727c5.612-5.772,5.755-11.874,0.393-17.27c-11.024-11.088-21.981-22.242-33.114-33.222
	c-4.187-4.129-8.208-8.988-13.295-11.543c-21.405-10.748-43.143-20.847-64.898-30.88c-2.066-0.952-6.227-0.804-7.481,0.583
	c-3.558,3.935-6.681,8.509-8.958,13.313c-6.658,14.056-19.435,18.898-32.256,12.704c-14.514-7.016-17.755-21.576-11.15-34.041
	c6.05-11.421,9.472-24.442,21.288-33.32c-8.672-1.29-14.641,2.054-20.438,5.648c-7.867,4.877-15.631,9.923-23.369,15.004
	c-5.047,3.314-9.992,3.8-15.461,0.826c-3.615-1.968-7.624-3.21-11.875-4.95c-14.264,28.47-28.321,56.526-42.552,84.931
	c7.058,3.867,13.929,7.742,20.924,11.377c1.65,0.859,3.925,1.667,5.561,1.22c12.458-3.417,20.482,3.495,28.466,11.753
	c10.188-3.078,19.244-0.999,25.841,8.105c15.001-9.037,32.754-0.27,32.913,19.239c14.398,6.263,17.1,10.746,16.223,26.184
	c-0.077,1.351,1.021,3.218,2.154,4.103c3.644,2.846,7.44,5.54,11.391,7.94c10.605,6.443,18.259,4.375,25.517-7.668
	c-7.231-6.912-14.707-14.07-22.197-21.213c-3.362-3.205-4.388-6.94-1.032-10.44c3.471-3.622,7.121-2.319,10.344,0.966
	c6.649,6.78,13.032,13.873,20.191,20.07c2.784,2.41,7.354,3.754,11.135,3.803C469.127,552.063,473.61,547.336,477.979,540.038z
	 M430.075,369.039c-2.519,0.664-4.479,1.01-6.316,1.69c-22.266,8.238-38.46,22.561-45.84,45.75
	c-1.784,5.604,0.112,10.67,5.324,13.439c6.511,3.46,11.921,1.539,15.235-6.324c3.759-8.923,8.11-16.782,17.554-21.186
	c4.605-2.148,8.207-2.9,12.913-0.613c21.997,10.687,44.137,21.079,66.212,31.607c2.571,1.228,5.533,2.153,7.498,4.06
	c10.743,10.422,21.537,20.823,31.688,31.813c5.727,6.198,10.897,10.478,20.009,6.705c5.084-2.102,7.063-3.896,4.795-9.454
	c-10.646-26.087-21.114-52.249-31.424-78.471c-1.435-3.647-3.041-4.026-6.436-2.885c-6.878,2.311-13.814,4.612-20.901,6.064
	c-3.83,0.783-8.378,0.774-11.989-0.549c-15.08-5.522-29.896-11.766-44.883-17.55C439.024,371.402,434.291,370.305,430.075,369.039z
	 M272.199,344.968c-20.262,40.294-40.168,79.88-60.22,119.754c14.841,7.396,28.739,14.321,43.13,21.492
	c20.078-40.266,39.818-79.859,59.797-119.928C300.408,359.051,286.529,352.124,272.199,344.968z M625.439,468.481
	c-16.495-41.532-32.876-82.771-49.462-124.528c-15.08,5.975-29.463,11.675-44.368,17.58c2.709,6.921,5.106,13.033,7.495,19.149
	c13.266,33.975,26.545,67.945,39.771,101.938c1.352,3.472,3.554,3.153,6.319,2.035C598.429,479.298,611.688,474.001,625.439,468.481
	z M375.61,525.119c-1.742-1.911-3.332-5.201-5.393-5.53c-2.671-0.424-6.762,0.629-8.415,2.589
	c-5.386,6.382-9.81,13.563-14.866,20.239c-3.047,4.021-1.105,6.594,2.053,8.769c3.145,2.164,6.352,4.121,9.489-0.56
	c4.539-6.77,9.505-13.252,14.206-19.918C373.674,529.308,374.303,527.65,375.61,525.119z M346.207,520.058
	c-2.098-2.648-3.339-5.758-5.224-6.213c-2.528-0.613-6.427-0.093-8.18,1.576c-3.432,3.268-6.14,7.479-8.387,11.707
	c-0.752,1.413,0.139,4.968,1.46,5.943c2.392,1.763,7.441,3.992,8.282,3.102C338.568,531.505,342.007,525.919,346.207,520.058z
	 M393.553,549.07c-2.459-2.708-3.943-5.708-6.135-6.374c-2.203-0.67-5.874,0.189-7.552,1.792c-3.274,3.13-5.97,7.049-8.15,11.051
	c-0.84,1.543-0.405,5.085,0.816,6.164c2.239,1.973,7.311,4.551,8.033,3.809C385.191,560.735,388.957,555.128,393.553,549.07z
	 M318.063,512.416c0.07-5.31-6.707-11.544-10.591-10.721c-2.054,0.436-4.603,2.667-5.255,4.642
	c-1.054,3.192,6.048,9.641,10.274,9.19C314.718,515.289,316.746,513.197,318.063,512.416z"/>
<path fill-rule="evenodd" clip-rule="evenodd" fill="#FFFFFF" d="M375.61,525.119c-1.307,2.531-1.937,4.188-2.925,5.589
	c-4.701,6.666-9.667,13.148-14.206,19.918c-3.137,4.681-6.344,2.724-9.489,0.56c-3.158-2.175-5.1-4.748-2.053-8.769
	c5.056-6.677,9.48-13.857,14.866-20.239c1.653-1.96,5.743-3.013,8.415-2.589C372.279,519.918,373.868,523.208,375.61,525.119z"/>
<path fill-rule="evenodd" clip-rule="evenodd" fill="#FFFFFF" d="M346.207,520.058c-4.2,5.861-7.639,11.447-12.049,16.115
	c-0.841,0.891-5.891-1.339-8.282-3.102c-1.321-0.976-2.212-4.53-1.46-5.943c2.247-4.228,4.955-8.439,8.387-11.707
	c1.752-1.669,5.651-2.189,8.18-1.576C342.868,514.3,344.109,517.409,346.207,520.058z"/>
<path fill-rule="evenodd" clip-rule="evenodd" fill="#FFFFFF" d="M393.553,549.07c-4.596,6.058-8.362,11.665-12.988,16.441
	c-0.723,0.742-5.794-1.836-8.033-3.809c-1.222-1.079-1.657-4.621-0.816-6.164c2.181-4.002,4.876-7.921,8.15-11.051
	c1.678-1.603,5.349-2.462,7.552-1.792C389.61,543.362,391.094,546.362,393.553,549.07z"/>
<path fill-rule="evenodd" clip-rule="evenodd" fill="#FFFFFF" d="M318.063,512.416c-1.317,0.781-3.346,2.873-5.572,3.111
	c-4.226,0.45-11.328-5.998-10.274-9.19c0.652-1.975,3.201-4.206,5.255-4.642C311.357,500.872,318.133,507.106,318.063,512.416z"/>
<path fill-rule="evenodd" clip-rule="evenodd" d="M252.843,453.746c-0.274,3.969-3.191,6.638-7.787,7.171
	c-4.438,0.513-8.151-3.572-8.167-8.294c-0.018-5.186,3.192-7.531,7.698-8.116C248.921,443.945,252.884,448.209,252.843,453.746z"/>
<path fill-rule="evenodd" clip-rule="evenodd" d="M601.604,452.501c0.178,5.227-2.97,8.072-7.529,8.313
	c-4.576,0.243-8.021-2.392-8.345-7.474c-0.285-4.458,3.866-9.185,7.954-8.835C598.361,444.903,601.396,447.445,601.604,452.501z"/>
<line fill="none" stroke="#000000" stroke-width="10" stroke-linecap="square" stroke-miterlimit="10" x1="257.772" y1="344.92" x2="175.296" y2="297.807"/>
<line fill="none" stroke="#000000" stroke-width="10" stroke-linecap="square" stroke-miterlimit="10" x1="204.433" y1="456.435" x2="150.762" y2="433.132"/>
<line fill="none" stroke="#000000" stroke-width="10" stroke-miterlimit="10" x1="583.197" y1="344.92" x2="665.674" y2="297.807"/>
<line fill="none" stroke="#000000" stroke-width="10" stroke-miterlimit="10" x1="633.537" y1="461.435" x2="687.208" y2="438.132"/>
</svg>
