<?xml version="1.0" encoding="utf-8"?>
<!-- Generator: Adobe Illustrator 16.0.0, SVG Export Plug-In . SVG Version: 6.00 Build 0)  -->
<!DOCTYPE svg PUBLIC "-//W3C//DTD SVG 1.1//EN" "http://www.w3.org/Graphics/SVG/1.1/DTD/svg11.dtd">
<svg version="1.1" id="Layer_1" xmlns="http://www.w3.org/2000/svg" xmlns:xlink="http://www.w3.org/1999/xlink" x="0px" y="0px"
	 width="830px" height="826px" viewBox="0 0 830 826" enable-background="new 0 0 830 826" xml:space="preserve">
<path fill="none" stroke="#000000" stroke-width="10" stroke-miterlimit="10" d="M690.208,413.5
	c0,149.502-121.206,270.709-270.708,270.709c-149.509,0-270.708-121.207-270.708-270.709c0-149.509,121.2-270.708,270.708-270.708
	C569.002,142.792,690.208,263.991,690.208,413.5z"/>
<circle fill="none" stroke="#000000" stroke-width="10" stroke-miterlimit="10" cx="419.5" cy="413.5" r="400"/>
<g>
	<path d="M212.685,192.038l-8.809,10.051l-13.896-5.114l-16.03,18.291l7.084,12.886l-8.589,9.801l-30.139-57.926l8.563-9.77
		L212.685,192.038z M179.673,193.183l-22.506-8.576l11.563,21.062L179.673,193.183z"/>
	<path d="M233.009,148.291l11.734-4.296c2.616,6.371,3.23,12.13,1.84,17.278c-1.389,5.148-4.667,9.719-9.833,13.712
		c-6.393,4.941-13.335,6.818-20.826,5.632c-7.492-1.186-14.165-5.567-20.02-13.142c-6.193-8.012-8.934-15.834-8.223-23.465
		c0.711-7.631,4.438-14.053,11.181-19.265c5.889-4.552,12.018-6.509,18.386-5.871c3.779,0.366,7.706,2.052,11.779,5.059
		l-7.845,9.735c-2.499-2.056-5.209-3.108-8.132-3.157s-5.676,0.925-8.259,2.921c-3.568,2.758-5.474,6.277-5.716,10.556
		c-0.243,4.279,1.854,9.287,6.287,15.022c4.704,6.086,9.149,9.575,13.335,10.466c4.186,0.892,8.03-0.017,11.533-2.725
		c2.583-1.997,4.171-4.535,4.763-7.615C235.584,156.057,234.924,152.441,233.009,148.291z"/>
	<path d="M262.884,154.657l-27.227-54.413l10.986-5.498l10.716,21.417l21.528-10.772l-10.716-21.417l10.986-5.498l27.227,54.413
		l-10.986,5.498l-11.905-23.792l-21.528,10.772l11.905,23.792L262.884,154.657z"/>
	<path d="M316.442,130.011l-19.643-57.587l11.627-3.966l19.643,57.587L316.442,130.011z"/>
	<path d="M337.337,122.481l-12.134-59.623l44.208-8.997l2.053,10.086l-32.17,6.547l2.69,13.218l29.933-6.092l2.044,10.045
		l-29.933,6.092l3.302,16.228l33.309-6.779l2.044,10.045L337.337,122.481z"/>
	<path d="M406.141,112.22l-23.073-60.354l13.32-0.292l16.379,44.684l13.911-45.347l13.029-0.285l-20.454,61.307L406.141,112.22z"/>
	<path d="M444.748,112.227l9.438-60.108l44.568,6.999l-1.597,10.168l-32.432-5.093l-2.093,13.325l30.177,4.739l-1.59,10.127
		l-30.178-4.739l-2.568,16.36l33.58,5.273l-1.59,10.127L444.748,112.227z"/>
	<path d="M497.813,120.782l21.359-56.973l17.217,6.455l-4.232,42.738l24.79-35.03l17.255,6.469l-21.359,56.973l-10.687-4.007
		l16.813-44.847l-28.123,40.607l-11.075-4.152l5.543-49.073l-16.813,44.847L497.813,120.782z"/>
	<path d="M560.94,146.246l32.375-51.517l38.197,24.005l-5.477,8.715l-27.796-17.468l-7.178,11.421l25.864,16.253l-5.455,8.68
		l-25.863-16.253l-8.812,14.021l28.78,18.087l-5.455,8.68L560.94,146.246z"/>
	<path d="M606.459,175.703l41.35-44.635l8.769,8.124l-9.346,46.73l27.614-29.807l8.373,7.757l-41.351,44.635l-9.042-8.377
		l8.971-45.776l-26.965,29.107L606.459,175.703z"/>
	<path d="M656.85,227.459l40.384-30.408l-10.859-14.423l8.223-6.191l29.084,38.626l-8.223,6.191l-10.835-14.389l-40.383,30.408
		L656.85,227.459z"/>
</g>
<path fill="none" stroke="#000000" stroke-width="10" stroke-miterlimit="10" d="M737.491,484.571
	c17.234-77.01,6.731-160.452-35.836-234.181"/>
<path fill="none" stroke="#000000" stroke-width="10" stroke-miterlimit="10" d="M100.999,484.571
	c-17.234-77.01-6.731-160.452,35.836-234.181"/>
<g>
	<path fill-rule="evenodd" clip-rule="evenodd" d="M365.331,440.329c-4.667,0-9.335-0.092-13.999,0.031
		c-3.391,0.088-5.795-1.141-7.124-4.328c-0.319-0.766-0.693-1.528-1.164-2.209c-0.726-1.049-1.154-3.096-2.443-2.743
		c-1.306,0.356-0.512,2.333-0.674,3.589c-0.127,0.988-0.053,2.001-0.178,2.989c-0.192,1.513-1.027,2.44-2.638,2.425
		c-1.52-0.015-2.545-0.789-2.894-2.26c-0.229-0.964-0.241-1.978-0.364-2.967c-0.587-4.709-3.697-7.922-8.451-8.326
		c-2.81-0.238-5.68-0.239-8.484,0.041c-5.543,0.555-8.259,3.396-8.986,8.939c-0.602,4.594-0.751,4.799-5.679,4.816
		c-12.5,0.045-24.999,0.041-37.499,0.002c-5.389-0.017-5.543-0.223-5.885-5.578c-0.032-0.499,0.026-1.012-0.072-1.495
		c-0.092-0.451-0.231-1.124-0.535-1.249c-0.504-0.209-0.83,0.379-1.064,0.807c-3.996,7.306-7.948,14.636-11.995,21.913
		c-1.303,2.344-0.169,3.697,1.55,5.042c6.953,5.436,13.948,10.82,20.798,16.382c5.164,4.192,10.849,7.753,15.393,12.709
		c3.033,3.309,3.654,7.005,2.068,11.104c-2.675,6.914-9.904,9.639-16.437,6.081c-2.179-1.187-4.129-2.806-6.134-4.294
		c-13.112-9.728-26.227-19.451-39.306-29.223c-6.89-5.148-8.347-12.809-4.109-20.369c12.458-22.227,24.823-44.506,37.355-66.691
		c2.52-4.46,4.642-9.191,8.542-12.834c3.267-3.051,6.898-5.25,11.169-6.315c4.688-1.169,9.442-2.021,14.313-1.998
		c6.667,0.03,13.333,0.071,19.999-0.011c3.879-0.049,7.619,0.702,11.358,1.546c7.346,1.657,12.871,5.601,16.974,12.093
		c7.121,11.268,14.709,22.239,22.104,33.333c0.647,0.971,1.246,1.982,1.979,2.885c1.554,1.913,2.22,1.891,3.842-0.095
		c0.63-0.771,1.147-1.637,1.702-2.469c6.193-9.291,12.235-18.688,18.646-27.826c2.646-3.772,3.151-6.845,0.401-10.839
		c-3.201-4.647-5.743-9.753-8.524-14.687c-3.012-5.342-2.438-6.75,3.386-9.272c4.585-1.985,9.099-4.134,13.666-6.16
		c5.605-2.486,6.972-1.942,8.834,3.72c2.082,6.33,3.982,12.721,6.059,19.054c0.828,2.526,1.703,5.078,2.926,7.426
		c2.281,4.376,2.246,8.571-0.133,12.854c-4.043,7.279-8.029,14.591-12.042,21.888c-5.136,9.339-10.408,18.606-15.338,28.054
		c-1.691,3.239-3.77,4.732-7.417,4.571c-4.491-0.198-8.998-0.048-13.498-0.048C365.331,440.335,365.331,440.331,365.331,440.329z"/>
	<path fill-rule="evenodd" clip-rule="evenodd" d="M568.9,507.345c-4.62-0.014-8.917-2.962-10.445-7.166
		c-1.639-4.508-0.139-10.226,3.885-13.598c2.427-2.035,4.762-4.158,7.13-6.253c6.851-6.063,13.816-11.996,20.727-17.992
		c0.88-0.764,1.684-1.614,2.548-2.396c1.871-1.691,2.175-3.597,0.992-5.834c-3.737-7.067-7.428-14.159-11.167-21.226
		c-0.204-0.385-0.687-0.622-1.039-0.927c-0.194,0.414-0.495,0.811-0.565,1.244c-0.343,2.083,0.669,4.593-1.161,6.175
		c-2.057,1.778-4.803,0.918-7.244,0.935c-10.831,0.076-21.663,0.056-32.494,0.025c-5.289-0.015-5.289-0.059-6.387-5.224
		c-1.01-4.755-4.895-8.31-9.729-8.63c-3.318-0.221-6.643-0.215-9.94,0.577c-3.967,0.953-6.463,3.249-7.354,7.253
		c-0.253,1.138-0.531,2.271-0.79,3.408c-0.457,2.012-1.876,2.582-3.735,2.518c-1.996-0.068-3.084-1.09-3.188-3.082
		c-0.087-1.664-0.096-3.33-0.167-4.995c-0.02-0.472-0.063-1.14-0.602-1.153c-0.343-0.008-0.796,0.502-1.034,0.883
		c-1.06,1.695-2.196,3.361-3.046,5.16c-1.156,2.451-3.015,3.311-5.608,3.297c-9.832-0.053-19.664-0.047-29.496-0.01
		c-2.412,0.009-4.083-0.924-5.256-3.07c-2.633-4.822-5.422-9.559-8.074-14.37c-6.592-11.959-13.107-23.96-19.724-35.903
		c-2.822-5.095-3.14-10.049,0.179-15.035c4.052-6.088,5.203-13.285,7.578-20.013c0.83-2.354,1.354-4.819,2.244-7.147
		c1.232-3.221,2.689-4.094,5.756-2.853c6.324,2.562,12.585,5.31,18.729,8.275c3.384,1.633,3.646,3.034,1.742,6.45
		c-3.161,5.673-6.314,11.361-9.78,16.848c-2.528,4.002-2.681,7.392,0.16,11.436c6.606,9.406,12.8,19.102,19.204,28.65
		c2.395,3.57,2.543,3.584,4.986-0.104c7.913-11.945,15.911-23.839,23.579-35.94c4.128-6.513,9.916-10.218,17.204-11.79
		c4.057-0.875,8.167-1.598,12.376-1.459c9.474,0.313,18.996-0.763,28.419,1.047c2.786,0.535,5.513,1.188,8.169,2.244
		c5.338,2.125,9.187,5.652,11.977,10.74c9.447,17.229,19.101,34.345,28.7,51.489c3.66,6.538,7.392,13.037,11.083,19.559
		c0.738,1.305,1.49,2.604,2.148,3.95c3.452,7.047,2.161,13.743-3.889,18.758c-12.044,9.982-24.175,19.862-36.305,29.741
		c-1.799,1.465-3.248,3.38-5.461,4.326C572.87,506.962,570.935,507.396,568.9,507.345z"/>
	<path fill-rule="evenodd" clip-rule="evenodd" d="M541.333,287.31c20.39-0.113,35.396,15.642,35.185,35.75
		c-0.215,20.549-16.06,35.113-35.594,35.15c-18.447,0.037-35.803-13.29-35.64-36.051C505.428,302.124,520.854,286.71,541.333,287.31
		z"/>
	<path fill-rule="evenodd" clip-rule="evenodd" d="M262.831,322.128c-1.598-18.559,17.792-35.473,35.229-35.089
		c18.672,0.412,35.723,14.83,35.607,35.556c-0.127,22.801-18.941,35.521-35.13,35.73
		C278.916,358.577,261.481,341.966,262.831,322.128z"/>
	<path fill-rule="evenodd" clip-rule="evenodd" d="M435.806,446.306c20.97,0,41.939-0.001,62.909,0.001
		c1.331,0,2.667-0.048,3.993,0.042c3.548,0.238,3.919,0.759,3.626,4.288c-0.288,3.476-0.28,6.986-0.738,10.438
		c-0.614,4.621-1.434,5.251-6.146,5.292c-6.989,0.061-13.979,0.02-20.97,0.02c-33.784,0.001-67.568,0-101.353,0.001
		c-0.666,0-1.332,0.001-1.997-0.001c-7.249-0.026-7.258-0.027-7.286-7.172c-0.014-3.492,0.183-6.989-1.587-10.232
		c-0.896-1.641-0.102-2.525,1.649-2.602c1.496-0.066,2.994-0.07,4.492-0.07C393.534,446.306,414.67,446.308,435.806,446.306z"/>
	<path fill-rule="evenodd" clip-rule="evenodd" d="M308.874,500.426c0-5.16,0.07-10.321-0.021-15.48
		c-0.079-4.404,0.626-8.628,2.468-12.628c2.697-5.857,3.671-11.965,3.654-18.426c-0.016-5.942,0.956-11.887,0.44-17.854
		c-0.233-2.701,1.25-3.422,3.57-3.65c6.541-0.646,7.783,0.741,7.579,7.307c-0.252,8.115-0.043,16.247,1.372,24.282
		c0.287,1.63,0.624,3.326,1.347,4.788c3.201,6.466,3.855,13.296,3.687,20.396c-0.229,9.649-0.022,19.309-0.076,28.963
		c-0.034,6.002-1.48,7.549-7.538,8.248c-3.605,0.417-7.159,1.41-10.858,0.17c-4.053-1.359-5.49-2.801-5.572-7.141
		c-0.119-6.323-0.031-12.65-0.031-18.976C308.889,500.426,308.881,500.426,308.874,500.426z"/>
	<path fill-rule="evenodd" clip-rule="evenodd" d="M507.858,500.065c0-4.994,0.163-9.995-0.046-14.98
		c-0.208-4.958,0.838-9.59,2.788-14.07c2.295-5.268,3.442-10.72,3.288-16.5c-0.163-6.121,1.136-12.217,0.523-18.355
		c-0.262-2.613,1.024-3.666,3.445-3.742c0.166-0.006,0.333-0.012,0.499-0.025c6.364-0.508,7.392,0.757,7.202,7.189
		c-0.352,11.966-0.414,23.936,4.887,35.15c1.076,2.277,1.444,4.757,1.441,7.294c-0.012,12.153,0.048,24.306-0.008,36.458
		c-0.025,5.598-1.72,7.463-7.385,7.813c-3.444,0.214-6.811,1.457-10.387,0.403c-4.681-1.38-6.129-2.798-6.208-7.656
		c-0.103-6.324-0.025-12.651-0.025-18.978C507.869,500.065,507.864,500.065,507.858,500.065z"/>
	<path fill-rule="evenodd" clip-rule="evenodd" d="M354.254,544.385c-2.324-0.05-4.659,0.104-6.949-0.474
		c-4.069-1.029-5.299-2.375-5.399-6.553c-0.123-5.152-0.054-10.311-0.059-15.466c-0.005-6.319,0.146-12.644-0.046-18.958
		c-0.145-4.774,0.77-9.267,2.664-13.578c2.449-5.576,3.847-11.359,3.354-17.455c-0.391-4.833,1.448-9.553,0.55-14.389
		c-0.054-0.291,0.046-0.75,0.251-0.928c2.607-2.254,5.671-1.207,8.544-0.973c2.237,0.184,1.969,2.006,2.042,3.789
		c0.292,7.119,0.758,14.231,1.303,21.336c0.271,3.523,1.701,6.771,3.138,9.947c1.686,3.725,2.308,7.561,2.273,11.629
		c-0.092,10.81-0.012,21.62-0.018,32.43c-0.004,7.96-1.605,9.545-9.653,9.639C355.584,544.389,354.919,544.382,354.254,544.385z"/>
	<path fill-rule="evenodd" clip-rule="evenodd" d="M555.701,466.378c-5.159,0.002-10.319,0.051-15.478-0.013
		c-4.666-0.057-5.442-0.688-6.088-5.366c-0.499-3.616-0.419-7.292-1.054-10.914c-0.375-2.145,0.73-3.514,3.016-3.676
		c0.995-0.07,1.994-0.097,2.992-0.098c12.316-0.006,24.633-0.02,36.948,0.011c1.959,0.005,4.222-0.48,5.619,1.308
		c1.844,2.357,3.292,5.025,3.815,8.025c0.252,1.445-0.8,2.51-1.807,3.387c-2.383,2.072-4.813,4.088-7.255,6.092
		c-1.526,1.252-3.395,1.235-5.231,1.239C566.021,466.384,560.861,466.377,555.701,466.378z"/>
	<path fill-rule="evenodd" clip-rule="evenodd" d="M286.107,466.372c-4.982-0.003-9.965-0.041-14.946,0.014
		c-2.459,0.027-4.475-0.732-6.283-2.458c-2.396-2.288-5.002-4.353-7.475-6.562c-1.416-1.264-2.639-2.725-1.58-4.764
		c1.257-2.42,1.72-5.594,5.188-6.119c1.142-0.172,2.318-0.165,3.478-0.166c12.456-0.012,24.911-0.008,37.367-0.004
		c0.83,0,1.667-0.03,2.488,0.067c2.785,0.333,3.699,1.134,3.304,3.844c-0.529,3.63-0.56,7.275-0.912,10.901
		c-0.413,4.252-1.449,5.151-5.683,5.229C296.073,466.444,291.089,466.375,286.107,466.372z"/>
	<path fill-rule="evenodd" clip-rule="evenodd" d="M191.868,446.329c5.655,0.002,11.313-0.089,16.965,0.035
		c3.527,0.078,4.003,0.779,2.558,3.857c-1.734,3.695-2.582,7.473-2.593,11.561c-0.011,3.986-0.634,4.529-4.772,4.565
		c-9.314,0.08-18.63,0.115-27.943-0.011c-6.3-0.084-10.077-3.926-10.129-9.9c-0.053-5.982,3.722-9.917,9.947-10.082
		C181.22,446.214,186.545,446.325,191.868,446.329z"/>
	<path fill-rule="evenodd" clip-rule="evenodd" d="M647.501,446.323c5.312,0,10.635,0.225,15.931-0.063
		c5.137-0.278,9.048,4.161,9.346,9.606c0.316,5.797-3.298,10.254-8.997,10.395c-9.953,0.246-19.916,0.072-29.875,0.123
		c-2.265,0.012-3.431-0.764-3.141-3.23c0.505-4.29-1.06-8.176-2.586-12.04c-1.873-4.739-1.903-4.758,3.388-4.796
		c5.312-0.039,10.623-0.009,15.935-0.009C647.501,446.313,647.501,446.319,647.501,446.323z"/>
	<path fill-rule="evenodd" clip-rule="evenodd" d="M415.87,305.354c0-2.991-0.003-5.982,0.001-8.975
		c0.002-0.83-0.018-1.664,0.042-2.492c0.259-3.619,2.233-6.214,4.612-6.099c2.232,0.107,4.125,2.549,4.276,5.903
		c0.149,3.316,0.05,6.646,0.062,9.969c0.018,4.658-1.19,9.215-1.072,13.896c0.06,2.335-1.35,3.653-3.771,3.711
		c-2.529,0.061-3.92-1.077-4.057-3.95c-0.188-3.979-0.047-7.975-0.047-11.963C415.9,305.354,415.885,305.354,415.87,305.354z"/>
	<path fill-rule="evenodd" clip-rule="evenodd" d="M396.725,329.069c-1.238-0.051-2.246-0.644-3.056-1.5
		c-5.471-5.783-10.946-11.564-16.346-17.414c-1.531-1.658-1.753-3.617-0.076-5.359c1.587-1.65,3.61-1.831,5.457-0.641
		c1.511,0.975,2.827,2.307,4.073,3.627c4.095,4.345,8.115,8.76,12.17,13.141c1.045,1.129,1.82,2.368,1.803,3.973
		C400.725,327.279,398.922,329.149,396.725,329.069z"/>
	<path fill-rule="evenodd" clip-rule="evenodd" d="M463.624,308.941c0.032,1.831-0.736,2.914-1.688,3.868
		c-5.161,5.178-10.339,10.34-15.521,15.497c-0.955,0.951-2.03,1.726-3.431,1.872c-1.588,0.166-2.979-0.244-3.996-1.531
		c-1.076-1.362-0.855-2.805-0.064-4.193c0.407-0.717,0.871-1.436,1.447-2.015c5.268-5.297,10.289-10.858,16.288-15.379
		c2.666-2.009,5.058-1.864,6.396,0.39C463.383,308.003,463.522,308.667,463.624,308.941z"/>
	<path fill-rule="evenodd" clip-rule="evenodd" d="M334.293,449.838c-0.145-1.473-0.002-2.698,1.355-3.101
		c1.92-0.57,3.919-0.826,5.784,0.205c0.275,0.151,0.477,1.003,0.308,1.307c-2.495,4.495-1.648,9.405-1.876,14.186
		c-0.069,1.446,0.039,3.299-2.029,3.389c-1.715,0.073-1.878-1.605-2.262-2.844C334.22,458.614,335.433,453.993,334.293,449.838z"/>
	<path fill-rule="evenodd" clip-rule="evenodd" d="M354.201,454.485c-2.08-0.4-5.092,0.387-5.066-1.561
		c0.036-2.662,3.079-1.451,4.8-1.525c1.657-0.071,4.682-0.85,4.713,1.154C358.691,455.269,355.484,453.679,354.201,454.485z"/>
</g>
<g>
	<path d="M172.391,601.764l16.427,17.936c3.252,3.55,5.528,6.333,6.831,8.349c1.302,2.016,2.114,4.142,2.438,6.379
		c0.323,2.237,0.124,4.529-0.596,6.877c-0.72,2.348-2.049,4.409-3.988,6.185c-2.102,1.925-4.548,3.125-7.34,3.6
		c-2.792,0.475-5.515,0.145-8.167-0.99c1.708,3.463,2.276,6.808,1.704,10.033c-0.572,3.227-2.154,6.026-4.746,8.399
		c-2.041,1.868-4.459,3.211-7.256,4.028c-2.797,0.817-5.525,0.933-8.182,0.346c-2.658-0.586-5.222-1.962-7.692-4.127
		c-1.546-1.36-4.984-4.909-10.313-10.646l-13.988-15.272L172.391,601.764z M155.377,634.006l-11.998,10.988l7.681,8.387
		c2.99,3.264,4.979,5.251,5.966,5.96c1.479,1.123,3.08,1.673,4.804,1.65c1.724-0.022,3.382-0.762,4.974-2.22
		c1.347-1.233,2.19-2.606,2.531-4.119c0.34-1.513,0.16-3.082-0.542-4.709c-0.703-1.627-2.941-4.501-6.716-8.623L155.377,634.006z
		 M173.221,617.663l-10.376,9.503l5.438,5.938c3.233,3.529,5.293,5.677,6.18,6.44c1.604,1.382,3.256,2.111,4.957,2.186
		s3.275-0.551,4.724-1.878c1.388-1.271,2.165-2.686,2.331-4.246c0.166-1.559-0.35-3.178-1.549-4.855
		c-0.721-0.992-3.034-3.62-6.939-7.884L173.221,617.663z"/>
	<path d="M190.893,666.643c3.694-4.977,7.539-8.601,11.535-10.873c2.958-1.663,6.131-2.771,9.521-3.321
		c3.389-0.551,6.583-0.455,9.581,0.288c4,0.972,7.989,2.933,11.966,5.885c7.198,5.344,11.3,11.852,12.307,19.525
		c1.006,7.673-1.443,15.487-7.347,23.44c-5.855,7.888-12.58,12.467-20.174,13.738c-7.595,1.271-14.98-0.757-22.156-6.084
		c-7.265-5.393-11.396-11.896-12.394-19.512C182.733,682.114,185.121,674.419,190.893,666.643z M201.305,673.854
		c-4.106,5.532-5.942,10.674-5.506,15.425c0.436,4.752,2.62,8.587,6.552,11.506c3.933,2.92,8.211,3.898,12.835,2.938
		c4.624-0.961,9.039-4.273,13.245-9.938c4.156-5.599,6.029-10.688,5.619-15.265c-0.41-4.577-2.647-8.375-6.713-11.393
		c-4.066-3.019-8.378-4.057-12.936-3.115C209.842,664.952,205.477,668.233,201.305,673.854z"/>
	<path d="M235.104,734.26l26.278-54.877l23.321,11.168c5.864,2.808,9.89,5.342,12.076,7.6c2.186,2.259,3.473,5.03,3.864,8.315
		c0.39,3.286-0.191,6.551-1.745,9.795c-1.972,4.117-4.811,6.938-8.516,8.462c-3.706,1.523-8.134,1.481-13.285-0.127
		c1.727,2.546,2.969,5.027,3.729,7.446c0.759,2.419,1.439,6.395,2.042,11.929l1.574,13.915l-13.251-6.346l-2.292-15.777
		c-0.801-5.63-1.46-9.25-1.977-10.863c-0.517-1.612-1.263-2.905-2.238-3.879c-0.976-0.974-2.736-2.069-5.282-3.288l-2.246-1.075
		l-10.97,22.909L235.104,734.26z M261.349,707.897l8.198,3.926c5.315,2.545,8.742,3.91,10.28,4.094
		c1.538,0.185,2.944-0.093,4.218-0.833c1.274-0.739,2.306-1.933,3.095-3.579c0.884-1.847,1.105-3.574,0.664-5.182
		c-0.442-1.607-1.49-2.991-3.143-4.151c-0.839-0.555-3.504-1.908-7.996-4.059l-8.647-4.141L261.349,707.897z"/>
	<path d="M297.51,762.142l15.666-58.793l24.985,6.657c6.283,1.674,10.708,3.419,13.274,5.233s4.345,4.3,5.336,7.456
		c0.991,3.157,1.024,6.473,0.098,9.948c-1.175,4.411-3.443,7.709-6.802,9.892c-3.359,2.184-7.719,2.962-13.078,2.336
		c2.167,2.182,3.848,4.391,5.042,6.626c1.193,2.237,2.599,6.019,4.214,11.346l4.123,13.383l-14.197-3.782l-5.174-15.08
		c-1.83-5.385-3.147-8.821-3.954-10.31c-0.806-1.489-1.778-2.622-2.917-3.397c-1.139-0.776-3.072-1.527-5.799-2.254l-2.406-0.642
		l-6.54,24.544L297.51,762.142z M318.421,731.376l8.783,2.341c5.695,1.517,9.314,2.224,10.86,2.12s2.875-0.637,3.991-1.6
		c1.116-0.962,1.909-2.326,2.379-4.091c0.527-1.979,0.424-3.717-0.308-5.215c-0.732-1.498-2.018-2.663-3.857-3.497
		c-0.927-0.39-3.797-1.227-8.609-2.509l-9.264-2.469L318.421,731.376z"/>
	<path d="M363.687,777.786l4.994-60.64l44.962,3.702l-0.845,10.259l-32.719-2.694l-1.107,13.443l30.444,2.507l-0.841,10.217
		l-30.444-2.507l-1.359,16.504l33.877,2.79l-0.841,10.217L363.687,777.786z"/>
	<path d="M426.432,781.24l-4.724-60.162l12.247-0.961l3.922,49.941l30.453-2.392l0.802,10.22L426.432,781.24z"/>
	<path d="M508.254,770.222l-18.93-57.825L501,708.574l7.45,22.759l22.878-7.488l-7.45-22.76l11.676-3.821l18.929,57.825
		l-11.676,3.821l-8.276-25.283l-22.878,7.488l8.276,25.284L508.254,770.222z"/>
	<path d="M572.262,747.248l-28.912-53.537l39.695-21.438l4.892,9.057l-28.887,15.601l6.41,11.868l26.878-14.515l4.871,9.02
		l-26.878,14.516l7.869,14.571l29.908-16.152l4.872,9.02L572.262,747.248z"/>
	<path d="M626.948,715.711l-36.927-47.729l9.716-7.518l30.654,39.621l24.16-18.692l6.273,8.108L626.948,715.711z"/>
	<path d="M627.185,638.207l15.189-16.537c3.425-3.729,6.321-6.31,8.688-7.742c3.189-1.917,6.633-2.905,10.331-2.966
		c3.698-0.059,7.429,0.737,11.19,2.389s7.741,4.405,11.939,8.261c3.688,3.388,6.446,6.767,8.273,10.135
		c2.231,4.116,3.4,8.14,3.509,12.07c0.087,2.974-0.667,6.188-2.263,9.644c-1.203,2.577-3.339,5.537-6.408,8.879l-15.638,17.025
		L627.185,638.207z M643.076,636.121l29.681,27.261l6.205-6.755c2.32-2.526,3.854-4.481,4.597-5.865
		c0.981-1.804,1.478-3.592,1.491-5.365c0.013-1.771-0.704-3.886-2.15-6.341c-1.445-2.455-3.9-5.273-7.364-8.456
		c-3.465-3.182-6.404-5.318-8.82-6.41s-4.649-1.564-6.699-1.419s-4.035,0.896-5.955,2.251c-1.446,1.002-3.863,3.347-7.251,7.034
		L643.076,636.121z"/>
</g>
</svg>
