<?xml version="1.0" encoding="utf-8"?>
<!-- Generator: Adobe Illustrator 16.0.0, SVG Export Plug-In . SVG Version: 6.00 Build 0)  -->
<!DOCTYPE svg PUBLIC "-//W3C//DTD SVG 1.1//EN" "http://www.w3.org/Graphics/SVG/1.1/DTD/svg11.dtd">
<svg version="1.1" id="Layer_1" xmlns="http://www.w3.org/2000/svg" xmlns:xlink="http://www.w3.org/1999/xlink" x="0px" y="0px"
	 width="830px" height="826px" viewBox="0 0 830 826" enable-background="new 0 0 830 826" xml:space="preserve">
<g>
	<path d="M219.467,649.668l18.218,13.125c4.108,2.96,7.013,5.531,8.716,7.712c2.281,2.94,3.669,6.242,4.167,9.908
		c0.496,3.665,0.147,7.464-1.048,11.395s-3.458,8.208-6.79,12.832c-2.928,4.063-5.956,7.202-9.085,9.415
		c-3.823,2.702-7.68,4.34-11.571,4.912c-2.942,0.438-6.223,0.069-9.843-1.106c-2.702-0.89-5.893-2.66-9.575-5.313l-18.756-13.514
		L219.467,649.668z M223.417,665.2l-23.558,32.698l7.442,5.361c2.784,2.006,4.906,3.296,6.368,3.871
		c1.907,0.761,3.742,1.043,5.504,0.846c1.761-0.197,3.776-1.158,6.043-2.885c2.266-1.726,4.774-4.497,7.524-8.313
		c2.75-3.816,4.523-6.989,5.322-9.518c0.798-2.527,1.004-4.801,0.617-6.819c-0.388-2.019-1.367-3.9-2.939-5.647
		c-1.166-1.317-3.78-3.439-7.843-6.367L223.417,665.2z"/>
	<path d="M250.866,709.485c2.596-5.628,5.617-9.963,9.063-13.006c2.554-2.234,5.434-3.968,8.639-5.201
		c3.205-1.233,6.35-1.794,9.437-1.681c4.114,0.132,8.419,1.233,12.917,3.309c8.141,3.756,13.489,9.285,16.046,16.59
		c2.557,7.305,1.76,15.454-2.389,24.448c-4.115,8.92-9.76,14.779-16.932,17.58c-7.173,2.8-14.817,2.328-22.932-1.416
		c-8.216-3.79-13.592-9.31-16.128-16.559C246.049,726.3,246.809,718.279,250.866,709.485z M262.535,714.411
		c-2.886,6.256-3.63,11.665-2.229,16.226c1.399,4.562,4.323,7.868,8.771,9.92c4.447,2.052,8.835,2.134,13.165,0.246
		c4.329-1.889,7.972-6.035,10.928-12.442c2.921-6.331,3.711-11.694,2.373-16.091c-1.339-4.396-4.308-7.655-8.905-9.776
		s-9.031-2.254-13.299-0.399C269.067,703.949,265.467,708.055,262.535,714.411z"/>
	<path d="M308.143,766.632l14.39-59.119l11.614,2.827l14.586,45.369l9.61-39.479l11.09,2.699l-14.39,59.119l-11.977-2.916
		l-14.449-44.353l-9.384,38.552L308.143,766.632z"/>
	<path d="M429.592,783.956l-13.345-0.721l-4.56-14.087l-24.286-1.311l-5.76,13.53l-13.013-0.702l26.943-59.479l12.972,0.7
		L429.592,783.956z M408.302,758.7l-7.155-22.998l-9.422,22.103L408.302,758.7z"/>
	<path d="M448.846,781.766l-4.785-50.325l-17.973,1.709l-0.975-10.246l48.135-4.577l0.975,10.247l-17.932,1.705l4.785,50.324
		L448.846,781.766z"/>
	<path d="M492.872,776.259l-15.574-58.817l43.612-11.548l2.635,9.95l-31.736,8.403l3.452,13.039l29.529-7.818l2.624,9.91
		l-29.529,7.818l4.239,16.008l32.859-8.7l2.624,9.91L492.872,776.259z"/>
	<path d="M527.89,703.512l11.126-5.21l13.976,29.844c2.218,4.735,3.793,7.741,4.726,9.015c1.532,2.033,3.515,3.313,5.945,3.839
		c2.432,0.527,5.2,0.063,8.308-1.393c3.157-1.479,5.235-3.238,6.235-5.28c0.999-2.041,1.222-4.078,0.667-6.11
		c-0.555-2.031-1.853-5.228-3.894-9.588l-14.275-30.482l11.126-5.21l13.553,28.941c3.098,6.615,4.986,11.43,5.664,14.442
		s0.648,5.837-0.088,8.474c-0.736,2.636-2.196,5.146-4.381,7.527c-2.184,2.383-5.456,4.595-9.815,6.637
		c-5.263,2.464-9.538,3.726-12.825,3.783c-3.288,0.059-6.176-0.515-8.664-1.717s-4.481-2.752-5.98-4.647
		c-2.205-2.816-4.751-7.308-7.638-13.472L527.89,703.512z"/>
	<path d="M614.891,727.964l-35.498-49.417l21-15.085c5.28-3.793,9.437-6.106,12.468-6.938s6.08-0.629,9.149,0.607
		c3.068,1.237,5.652,3.315,7.751,6.236c2.663,3.708,3.772,7.554,3.328,11.534c-0.444,3.982-2.609,7.846-6.494,11.59
		c3.062-0.291,5.835-0.188,8.321,0.309c2.485,0.497,6.3,1.811,11.442,3.942l12.959,5.306l-11.933,8.572l-14.938-5.571
		c-5.322-2.002-8.814-3.164-10.477-3.486s-3.155-0.289-4.478,0.099c-1.323,0.389-3.13,1.405-5.422,3.052l-2.022,1.453l14.819,20.629
		L614.891,727.964z M604.383,692.279l7.382-5.304c4.786-3.438,7.63-5.787,8.53-7.047c0.9-1.261,1.333-2.627,1.297-4.1
		c-0.036-1.474-0.587-2.951-1.652-4.435c-1.194-1.663-2.603-2.687-4.226-3.072c-1.622-0.384-3.339-0.131-5.15,0.762
		c-0.89,0.47-3.357,2.156-7.402,5.063l-7.786,5.593L604.383,692.279z"/>
</g>
<path fill="none" stroke="#000000" stroke-width="10" stroke-miterlimit="10" d="M690.208,413.5
	c0,149.502-121.206,270.709-270.708,270.709c-149.509,0-270.708-121.207-270.708-270.709c0-149.509,121.2-270.708,270.708-270.708
	C569.002,142.792,690.208,263.991,690.208,413.5z"/>
<circle fill="none" stroke="#000000" stroke-width="10" stroke-miterlimit="10" cx="419.5" cy="413.5" r="400"/>
<g>
	<path d="M212.685,192.038l-8.809,10.051l-13.896-5.114l-16.03,18.291l7.084,12.886l-8.589,9.801l-30.139-57.926l8.563-9.77
		L212.685,192.038z M179.673,193.183l-22.506-8.576l11.563,21.062L179.673,193.183z"/>
	<path d="M233.009,148.291l11.734-4.296c2.616,6.371,3.23,12.13,1.84,17.278c-1.389,5.148-4.667,9.719-9.833,13.712
		c-6.393,4.941-13.335,6.818-20.826,5.632c-7.492-1.186-14.165-5.567-20.02-13.142c-6.193-8.012-8.934-15.834-8.223-23.465
		c0.711-7.631,4.438-14.053,11.181-19.265c5.889-4.552,12.018-6.509,18.386-5.871c3.779,0.366,7.706,2.052,11.779,5.059
		l-7.845,9.735c-2.499-2.056-5.209-3.108-8.132-3.157s-5.676,0.925-8.259,2.921c-3.568,2.758-5.474,6.277-5.716,10.556
		c-0.243,4.279,1.854,9.287,6.287,15.022c4.704,6.086,9.149,9.575,13.335,10.466c4.186,0.892,8.03-0.017,11.533-2.725
		c2.583-1.997,4.171-4.535,4.763-7.615C235.584,156.057,234.924,152.441,233.009,148.291z"/>
	<path d="M262.884,154.657l-27.227-54.413l10.986-5.498l10.716,21.417l21.528-10.772l-10.716-21.417l10.986-5.498l27.227,54.413
		l-10.986,5.498l-11.905-23.792l-21.528,10.772l11.905,23.792L262.884,154.657z"/>
	<path d="M316.442,130.011l-19.643-57.587l11.627-3.966l19.643,57.587L316.442,130.011z"/>
	<path d="M337.337,122.481l-12.134-59.623l44.208-8.997l2.053,10.086l-32.17,6.547l2.69,13.218l29.933-6.092l2.044,10.045
		l-29.933,6.092l3.302,16.228l33.309-6.779l2.044,10.045L337.337,122.481z"/>
	<path d="M406.141,112.22l-23.073-60.354l13.32-0.292l16.379,44.684l13.911-45.347l13.029-0.285l-20.454,61.307L406.141,112.22z"/>
	<path d="M444.748,112.227l9.438-60.108l44.568,6.999l-1.597,10.168l-32.432-5.093l-2.093,13.325l30.177,4.739l-1.59,10.127
		l-30.178-4.739l-2.568,16.36l33.58,5.273l-1.59,10.127L444.748,112.227z"/>
	<path d="M497.813,120.782l21.359-56.973l17.217,6.455l-4.232,42.738l24.79-35.03l17.255,6.469l-21.359,56.973l-10.687-4.007
		l16.813-44.847l-28.123,40.607l-11.075-4.152l5.543-49.073l-16.813,44.847L497.813,120.782z"/>
	<path d="M560.94,146.246l32.375-51.517l38.197,24.005l-5.477,8.715l-27.796-17.468l-7.178,11.421l25.864,16.253l-5.455,8.68
		l-25.863-16.253l-8.812,14.021l28.78,18.087l-5.455,8.68L560.94,146.246z"/>
	<path d="M606.459,175.703l41.35-44.635l8.769,8.124l-9.346,46.73l27.614-29.807l8.373,7.757l-41.351,44.635l-9.042-8.377
		l8.971-45.776l-26.965,29.107L606.459,175.703z"/>
	<path d="M656.85,227.459l40.384-30.408l-10.859-14.423l8.223-6.191l29.084,38.626l-8.223,6.191l-10.835-14.389l-40.383,30.408
		L656.85,227.459z"/>
</g>
<path fill-rule="evenodd" clip-rule="evenodd" stroke="#010101" stroke-width="2" stroke-miterlimit="10" d="M358.967,401.981
	c1.96-0.096,46.7-0.093,62.276-0.21c2.838-0.022,3.774,0.513,3.574,3.663c-0.962,15.106-1.632,30.231-2.372,45.351
	c-0.284,5.817-0.5,11.64-0.706,17.461c-0.095,2.708-0.861,4.106-4.136,4.072c-17.377-0.182-34.756-0.115-52.135-0.049
	c-2.192,0.009-3.247-0.47-3.36-2.932c-0.984-21.364-2.082-42.723-3.134-64.083C358.923,404.229,358.967,403.198,358.967,401.981z
	 M366.609,425.82c-1.671,0.06-2.633,0.419-2.508,2.3c0.393,5.897,0.382,11.849,1.214,17.681c0.899,6.304,4.621,9.057,10.963,9.068
	c10.476,0.021,20.953,0.022,31.429-0.014c5.436-0.019,9.242-2.375,10.153-7.615c1.197-6.892,1.423-13.95,2.091-21.197
	C405.147,426.043,374.933,425.525,366.609,425.82z M362.915,405.593l0.784,18.563l56.209-0.15l0.97-18.412H362.915z M392.04,457.606
	c-6.35,0-12.7,0.001-19.049-0.001c-6.636-0.003-6.664,0.025-6.449,6.772c0.007,0.212,0.014,0.423,0.016,0.635
	c0.015,2.344,1.265,3.541,3.538,3.546c14.499,0.026,28.997,0.029,43.496-0.003c2.101-0.006,3.387-1.03,3.316-3.329
	c-0.036-1.163,0-2.328-0.005-3.492c-0.018-3.754-0.375-4.118-4.226-4.126C405.798,457.594,398.919,457.604,392.04,457.606z"/>
<path fill="none" stroke="#000000" stroke-width="6" stroke-miterlimit="10" d="M459.279,325.289h60.181 M458.576,471.318
	c-0.506-0.742-0.936-4.408-0.936-6.319v-4.213l1.17-145.795v-1.872l0.469-2.341l1.169-4.447l1.171-3.276l1.638-3.979
	c0,0,4.915-12.012,4.915-12.169c0,0,5.851-14.354,5.851-14.509c0,0,1.092-2.808,1.17-3.277l0.936-2.574l0.469-1.873l0.233-1.17
	c0,0,0.078-2.339,0-3.51c0-3.042,0.176-45.229,0.176-45.229l23.929,0.063v43.762l0.234,5.148l0.233,1.17
	c0,0,3.732,10.07,5.851,14.743c0,0.234,10.999,28.785,10.999,28.785l0.234,0.936l0.468,2.34l0.234,1.638l0.233,5.617v0.233
	l0.937,143.69l-0.234,7.255l-0.176,0.353 M457.641,449.085h62.718 M476.83,263.505h24.339 M470.375,281.377
	c0,0,15.953,5.483,37.141,0 M464.711,294.105c0,0,20.781,10.012,48.381,0"/>
<rect x="452.899" y="210.902" fill="none" width="71.2" height="270.399"/>
<path fill-rule="evenodd" clip-rule="evenodd" fill="none" stroke="#010101" stroke-width="6" stroke-miterlimit="10" d="
	M212.765,471.5h414.47c0,0-4.338,13-13.018,13c-8.681,0-26.042,0-26.042,0s-5.061,3.405-11.571,9.915
	c-6.51,6.51-13.021,12.085-33.274,12.085s-243.765,0-243.765,0s-25.676-4.477-35.44-14.241c-9.765-9.765-21.702-8.209-28.935-8.209
	C227.958,484.05,212.765,484.5,212.765,471.5z"/>
<line fill="none" stroke="#010101" stroke-width="6" stroke-miterlimit="10" x1="240.5" y1="484.5" x2="447.5" y2="484.5"/>
<line fill="none" stroke="#010101" stroke-width="4" stroke-miterlimit="10" x1="549.5" y1="483.5" x2="599.5" y2="483.5"/>
<path fill="none" stroke="#010101" stroke-width="6" stroke-miterlimit="10" d="M338.625,506.229c0,0-5.788,8.681,0,11.211
	c5.787,2.53,11.935,5.785,11.935,5.785s12.297,6.15,14.105,12.66s36.167,26.765,41.592,30.38"/>
<path fill="none" stroke="#010101" stroke-width="6" stroke-miterlimit="10" d="M487.254,648.663
	c-25.916-19.784-74.717-68.646-80.996-82.398c-7.595-16.636-34.36-44.845-42.678-50.635c-8.317-5.786-2.893-9.401-2.893-9.401"/>
<path fill="none" stroke="#010101" stroke-width="6" stroke-miterlimit="10" d="M429.439,547.459c0,0-3.707,3.615-10.189-3.254
	c-6.482-6.875-24.98-29.382-33.607-35.445c-5.527-3.885-4.268-1.531-4.268-1.531"/>
<path fill="none" stroke="#010101" stroke-width="6" stroke-linecap="round" stroke-miterlimit="10" d="M432.658,559.755
	c0,0-7.232-32.911-18.083-47.017c0,0-3.025-3.339-0.855-5.51"/>
<path fill="none" stroke="#010101" stroke-width="6" stroke-linecap="round" stroke-miterlimit="10" d="M428.957,507.229
	c0,0,15.553,14.467,20.615,36.526c2.772,9.862,6.511,11.214,16.998,18.81c10.487,7.595,17.723,10.485,15.19,39.42"/>
<path fill="none" stroke="#010101" stroke-width="6" stroke-miterlimit="10" d="M450.38,546.01c0,0,16.998,0,18.083-15.189
	c1.085-15.19,11.507-21.698,12.806-24.592"/>
<path fill="none" stroke="#010101" stroke-width="6" stroke-miterlimit="10" d="M505.355,506.475c0,0,1.92,4.58-4.228,8.558
	s-13.628,7.472-13.628,17.597c0,10.126,0,16.275,0,16.275s2.235,6.51,6.575,14.105c4.34,7.595,7.809,13.02,7.809,20.615
	c0,7.595,1.013,13.563-2.786,17.359"/>
<line fill="none" stroke="#010101" stroke-width="6" stroke-linecap="round" stroke-miterlimit="10" x1="554.898" y1="622.106" x2="499.035" y2="600.984"/>
<path fill="none" stroke="#010101" stroke-width="6" stroke-miterlimit="10" d="M507.141,642.702
	c2.961-13.209,4.005-34.254,1.018-37.511"/>
<path fill-rule="evenodd" clip-rule="evenodd" stroke="#010101" stroke-width="2" stroke-miterlimit="10" d="M278.124,401.981
	c1.961-0.097,46.7-0.093,62.276-0.21c2.838-0.022,3.774,0.512,3.574,3.662c-0.962,15.106-1.632,30.231-2.372,45.352
	c-0.284,5.817-0.5,11.64-0.706,17.461c-0.095,2.708-0.861,4.106-4.136,4.072c-17.377-0.182-34.757-0.115-52.135-0.049
	c-2.192,0.009-3.248-0.47-3.361-2.932c-0.984-21.364-2.081-42.723-3.134-64.083C278.081,404.229,278.124,403.198,278.124,401.981z
	 M285.766,425.82c-1.671,0.06-2.633,0.419-2.508,2.3c0.393,5.897,0.382,11.849,1.214,17.681c0.899,6.304,4.62,9.057,10.963,9.068
	c10.476,0.021,20.953,0.022,31.429-0.014c5.436-0.019,9.242-2.375,10.153-7.615c1.196-6.892,1.423-13.95,2.091-21.197
	C324.303,426.043,294.09,425.525,285.766,425.82z M282.072,405.593l0.784,18.563l56.209-0.15l0.97-18.412H282.072z M311.197,457.606
	c-6.35,0-12.7,0.001-19.05-0.001c-6.636-0.003-6.663,0.025-6.448,6.772c0.007,0.212,0.014,0.423,0.016,0.635
	c0.015,2.344,1.265,3.541,3.538,3.546c14.498,0.026,28.996,0.029,43.496-0.003c2.1-0.006,3.387-1.03,3.315-3.329
	c-0.036-1.163,0.001-2.328-0.005-3.492c-0.018-3.754-0.375-4.118-4.226-4.126C324.955,457.594,318.076,457.604,311.197,457.606z"/>
<g>
	<path fill="none" stroke="#000000" stroke-width="9" stroke-linecap="round" stroke-miterlimit="10" d="M730.671,290.432
		c16.923,41.433,25.298,87.125,23.029,134.774c-4.115,86.382-42.441,163.041-101.254,217.496"/>
	<g>
		<path fill-rule="evenodd" clip-rule="evenodd" fill="none" stroke="#000000" stroke-width="8" stroke-miterlimit="10" d="
			M738.599,307.641c0,0-26.119-40.374-55.26-3.951C683.339,303.689,709.309,328.898,738.599,307.641z"/>
		<path fill-rule="evenodd" clip-rule="evenodd" fill="none" stroke="#000000" stroke-width="8" stroke-miterlimit="10" d="
			M746.291,242.444c0,0,41.642,38.203-6.287,64.802C740.004,307.246,715.902,272.201,746.291,242.444z"/>
	</g>
	<g>
		<path fill-rule="evenodd" clip-rule="evenodd" fill="none" stroke="#000000" stroke-width="8" stroke-miterlimit="10" d="
			M750.574,372.522c0,0-9.34-47.171-49.881-24.103C700.693,348.419,715.502,381.443,750.574,372.522z"/>
		<path fill-rule="evenodd" clip-rule="evenodd" fill="none" stroke="#000000" stroke-width="8" stroke-miterlimit="10" d="
			M781.829,314.79c0,0,24.565,50.893-29.803,57.885C752.026,372.674,742.592,331.202,781.829,314.79z"/>
	</g>
	<g>
		<path fill-rule="evenodd" clip-rule="evenodd" fill="none" stroke="#000000" stroke-width="8" stroke-miterlimit="10" d="
			M752.139,437.667c0,0,5.195-47.804-40.391-37.92C711.748,399.747,716.001,435.689,752.139,437.667z"/>
		<path fill-rule="evenodd" clip-rule="evenodd" fill="none" stroke="#000000" stroke-width="8" stroke-miterlimit="10" d="
			M799.229,391.926c0,0,8.218,55.909-45.754,46.321C753.476,438.247,756.88,395.852,799.229,391.926z"/>
	</g>
	<g>
		<path fill-rule="evenodd" clip-rule="evenodd" fill="none" stroke="#000000" stroke-width="8" stroke-miterlimit="10" d="
			M740.679,497.422c0,0,16.108-45.306-30.526-46.231C710.152,451.19,705.978,487.14,740.679,497.422z"/>
		<path fill-rule="evenodd" clip-rule="evenodd" fill="none" stroke="#000000" stroke-width="8" stroke-miterlimit="10" d="
			M797.071,463.811c0,0-4.936,56.295-55.226,34.485C741.846,498.296,754.96,457.836,797.071,463.811z"/>
	</g>
	<g>
		<path fill-rule="evenodd" clip-rule="evenodd" fill="none" stroke="#000000" stroke-width="8" stroke-miterlimit="10" d="
			M718.076,552.422c0,0,26.092-40.392-19.081-52.013C698.995,500.409,686.669,534.438,718.076,552.422z"/>
		<path fill-rule="evenodd" clip-rule="evenodd" fill="none" stroke="#000000" stroke-width="8" stroke-miterlimit="10" d="
			M780.685,532.671c0,0-17.743,53.655-61.674,20.869C719.011,553.54,741.075,517.178,780.685,532.671z"/>
	</g>
	<g>
		<path fill-rule="evenodd" clip-rule="evenodd" fill="none" stroke="#000000" stroke-width="8" stroke-miterlimit="10" d="
			M684.226,606.582c0,0,26.572-40.077-18.458-52.236C665.768,554.346,653.035,588.226,684.226,606.582z"/>
		<path fill-rule="evenodd" clip-rule="evenodd" fill="none" stroke="#000000" stroke-width="8" stroke-miterlimit="10" d="
			M747.064,587.581c0,0-18.381,53.439-61.917,20.13C685.147,607.711,707.643,571.615,747.064,587.581z"/>
	</g>
</g>
<g>
	<path fill="none" stroke="#000000" stroke-width="9" stroke-linecap="round" stroke-miterlimit="10" d="M110.38,294.167
		c-16.508,40.416-24.677,84.985-22.464,131.465c4.014,84.26,41.399,159.037,98.768,212.155"/>
	<g>
		<path fill-rule="evenodd" clip-rule="evenodd" fill="none" stroke="#000000" stroke-width="8" stroke-miterlimit="10" d="
			M102.647,310.954c0,0,25.477-39.383,53.902-3.854C156.549,307.1,131.218,331.69,102.647,310.954z"/>
		<path fill-rule="evenodd" clip-rule="evenodd" fill="none" stroke="#000000" stroke-width="8" stroke-miterlimit="10" d="
			M95.143,247.358c0,0-40.619,37.265,6.133,63.211C101.276,310.569,124.785,276.385,95.143,247.358z"/>
	</g>
	<g>
		<path fill-rule="evenodd" clip-rule="evenodd" fill="none" stroke="#000000" stroke-width="8" stroke-miterlimit="10" d="
			M90.965,374.242c0,0,9.11-46.012,48.656-23.511C139.621,350.731,125.176,382.944,90.965,374.242z"/>
		<path fill-rule="evenodd" clip-rule="evenodd" fill="none" stroke="#000000" stroke-width="8" stroke-miterlimit="10" d="
			M60.478,317.928c0,0-23.962,49.643,29.071,56.463C89.549,374.391,98.752,333.937,60.478,317.928z"/>
	</g>
	<g>
		<path fill-rule="evenodd" clip-rule="evenodd" fill="none" stroke="#000000" stroke-width="8" stroke-miterlimit="10" d="
			M89.439,437.788c0,0-5.068-46.631,39.398-36.989C128.837,400.799,124.69,435.858,89.439,437.788z"/>
		<path fill-rule="evenodd" clip-rule="evenodd" fill="none" stroke="#000000" stroke-width="8" stroke-miterlimit="10" d="
			M43.505,393.169c0,0-8.017,54.537,44.63,45.184C88.135,438.354,84.814,396.999,43.505,393.169z"/>
	</g>
	<g>
		<path fill-rule="evenodd" clip-rule="evenodd" fill="none" stroke="#000000" stroke-width="8" stroke-miterlimit="10" d="
			M100.618,496.075c0,0-15.713-44.193,29.777-45.097C130.395,450.979,134.467,486.046,100.618,496.075z"/>
		<path fill-rule="evenodd" clip-rule="evenodd" fill="none" stroke="#000000" stroke-width="8" stroke-miterlimit="10" d="
			M45.61,463.289c0,0,4.814,54.913,53.87,33.638C99.479,496.927,86.688,457.461,45.61,463.289z"/>
	</g>
	<g>
		<path fill-rule="evenodd" clip-rule="evenodd" fill="none" stroke="#000000" stroke-width="8" stroke-miterlimit="10" d="
			M122.665,549.724c0,0-25.451-39.398,18.613-50.734C141.278,498.989,153.301,532.183,122.665,549.724z"/>
		<path fill-rule="evenodd" clip-rule="evenodd" fill="none" stroke="#000000" stroke-width="8" stroke-miterlimit="10" d="
			M61.594,530.459c0,0,17.307,52.337,60.16,20.356C121.754,550.815,100.231,515.346,61.594,530.459z"/>
	</g>
	<g>
		<path fill-rule="evenodd" clip-rule="evenodd" fill="none" stroke="#000000" stroke-width="8" stroke-miterlimit="10" d="
			M155.685,602.554c0,0-25.919-39.092,18.005-50.952C173.69,551.602,186.109,584.649,155.685,602.554z"/>
		<path fill-rule="evenodd" clip-rule="evenodd" fill="none" stroke="#000000" stroke-width="8" stroke-miterlimit="10" d="
			M94.388,584.021c0,0,17.93,52.127,60.397,19.636C154.785,603.656,132.842,568.447,94.388,584.021z"/>
	</g>
</g>
</svg>
