<?xml version="1.0" encoding="utf-8"?>
<!-- Generator: Adobe Illustrator 16.0.0, SVG Export Plug-In . SVG Version: 6.00 Build 0)  -->
<!DOCTYPE svg PUBLIC "-//W3C//DTD SVG 1.1//EN" "http://www.w3.org/Graphics/SVG/1.1/DTD/svg11.dtd">
<svg version="1.1" id="Layer_1" xmlns="http://www.w3.org/2000/svg" xmlns:xlink="http://www.w3.org/1999/xlink" x="0px" y="0px"
	 width="830px" height="826px" viewBox="0 0 830 826" enable-background="new 0 0 830 826" xml:space="preserve">
<g>
	<path d="M142.48,551.698l11.607,19.221c2.618,4.334,4.281,7.839,4.991,10.513c0.945,3.6,0.926,7.182-0.055,10.748
		c-0.982,3.566-2.793,6.924-5.434,10.069c-2.642,3.147-6.402,6.193-11.281,9.14c-4.288,2.589-8.304,4.288-12.05,5.096
		c-4.577,0.985-8.767,0.979-12.57-0.021c-2.878-0.751-5.751-2.378-8.62-4.88c-2.136-1.878-4.377-4.759-6.723-8.643l-11.95-19.79
		L142.48,551.698z M140.02,567.535l-34.498,20.833l4.742,7.852c1.773,2.937,3.219,4.957,4.338,6.059
		c1.456,1.448,3.033,2.427,4.731,2.938c1.697,0.51,3.928,0.416,6.69-0.282c2.762-0.698,6.156-2.264,10.183-4.695
		c4.026-2.432,6.903-4.653,8.629-6.665c1.726-2.013,2.807-4.022,3.243-6.031s0.273-4.125-0.488-6.348
		c-0.556-1.669-2.127-4.647-4.716-8.934L140.02,567.535z"/>
	<path d="M127.252,640.721l45.447-40.456l17.192,19.313c4.323,4.856,7.056,8.749,8.199,11.677c1.143,2.928,1.259,5.982,0.35,9.163
		c-0.911,3.181-2.708,5.967-5.395,8.358c-3.41,3.035-7.119,4.54-11.125,4.513c-4.006-0.026-8.075-1.777-12.204-5.251
		c0.609,3.015,0.795,5.784,0.561,8.309c-0.235,2.523-1.145,6.454-2.728,11.791l-3.927,13.441l-9.769-10.974l3.984-15.438
		c1.437-5.502,2.229-9.097,2.375-10.783s-0.042-3.168-0.565-4.442c-0.524-1.275-1.724-2.967-3.6-5.074l-1.656-1.86l-18.973,16.889
		L127.252,640.721z M161.647,626.551l6.043,6.789c3.919,4.401,6.551,6.984,7.899,7.749c1.347,0.765,2.75,1.052,4.212,0.862
		c1.461-0.189,2.874-0.892,4.238-2.105c1.529-1.361,2.4-2.869,2.615-4.522c0.213-1.653-0.218-3.334-1.294-5.043
		c-0.559-0.836-2.494-3.114-5.806-6.834l-6.375-7.161L161.647,626.551z"/>
	<path d="M172.549,688.242l39.953-45.889l9.266,8.066l-39.953,45.89L172.549,688.242z"/>
	<path d="M194.296,707.303l33.8-50.593l9.939,6.64l-1.865,47.62l22.572-33.786l9.49,6.341l-33.8,50.592l-10.25-6.848l1.646-46.618
		l-22.042,32.992L194.296,707.303z"/>
	<path d="M252.129,743.76l23.903-55.953l11.297,4.826l-10.614,24.847l33.438-15.097l15.19,6.49l-30.378,12.793l7.62,43.648
		l-14.618-6.245l-4.163-32.829l-13.155,5.438l-7.223,16.908L252.129,743.76z"/>
	<path d="M313.313,767.424l16.506-58.563l11.824,3.332l-16.506,58.563L313.313,767.424z"/>
	<path d="M341.17,775.367l8.853-60.197l11.826,1.739l18.725,43.823l5.912-40.2l11.292,1.661l-8.853,60.197l-12.195-1.794
		l-18.495-42.824l-5.773,39.255L341.17,775.367z"/>
	<path d="M436.167,760.104l-0.442-10.242l26.455-1.142l1.045,24.216c-2.463,2.599-6.094,4.951-10.891,7.055
		c-4.798,2.104-9.698,3.265-14.701,3.48c-6.359,0.274-11.959-0.82-16.801-3.284c-4.842-2.464-8.559-6.125-11.15-10.984
		c-2.592-4.859-4.013-10.205-4.265-16.038c-0.273-6.33,0.811-12.014,3.252-17.049c2.441-5.034,6.162-8.976,11.164-11.822
		c3.81-2.187,8.619-3.405,14.423-3.655c7.547-0.326,13.51,1.003,17.89,3.984c4.38,2.982,7.299,7.239,8.756,12.771l-12.092,2.807
		c-0.986-2.948-2.698-5.235-5.136-6.861c-2.438-1.625-5.427-2.362-8.965-2.21c-5.363,0.231-9.554,2.116-12.572,5.652
		c-3.019,3.537-4.383,8.65-4.094,15.34c0.311,7.215,2.148,12.558,5.51,16.026s7.642,5.092,12.839,4.867
		c2.571-0.111,5.127-0.727,7.668-1.848c2.541-1.12,4.707-2.438,6.497-3.956l-0.333-7.713L436.167,760.104z"/>
	<path d="M489.409,715.084l23.188-7.34c4.59-1.453,8.073-2.345,10.449-2.677c2.377-0.331,4.647-0.172,6.813,0.478
		c2.164,0.649,4.159,1.796,5.985,3.438c1.826,1.643,3.136,3.717,3.929,6.223c0.86,2.718,0.918,5.441,0.172,8.174
		s-2.192,5.063-4.34,6.989c3.86-0.09,7.133,0.805,9.817,2.683c2.685,1.879,4.557,4.493,5.617,7.843
		c0.835,2.638,1.034,5.397,0.597,8.278s-1.482,5.403-3.134,7.565c-1.652,2.163-3.98,3.909-6.984,5.236
		c-1.886,0.83-6.553,2.452-14.001,4.868l-19.744,6.25L489.409,715.084z M504.178,721.031l4.246,13.414l7.677-2.431
		c4.563-1.444,7.379-2.407,8.444-2.891c1.93-0.872,3.287-2.063,4.071-3.574s0.88-3.202,0.287-5.075
		c-0.568-1.794-1.524-3.095-2.868-3.902c-1.344-0.809-3.03-1.022-5.057-0.642c-1.203,0.236-4.561,1.226-10.074,2.972
		L504.178,721.031z M511.48,744.1l4.91,15.511l10.842-3.432c4.221-1.336,6.86-2.303,7.92-2.899c1.641-0.867,2.814-2.088,3.521-3.661
		c0.706-1.572,0.734-3.389,0.083-5.446c-0.552-1.74-1.441-3.084-2.669-4.03c-1.229-0.945-2.729-1.443-4.5-1.492
		s-5.321,0.771-10.649,2.457L511.48,744.1z"/>
	<path d="M543.491,697.182l10.824-5.81l15.585,29.036c2.474,4.607,4.21,7.522,5.211,8.743c1.641,1.946,3.689,3.115,6.146,3.508
		c2.456,0.394,5.195-0.222,8.219-1.844c3.072-1.649,5.051-3.52,5.938-5.613c0.886-2.093,0.997-4.139,0.333-6.137
		c-0.665-1.999-2.136-5.119-4.412-9.361l-15.919-29.657l10.824-5.811l15.114,28.158c3.454,6.437,5.603,11.141,6.443,14.111
		c0.842,2.972,0.967,5.794,0.375,8.466c-0.591,2.673-1.911,5.259-3.962,7.756c-2.051,2.498-5.197,4.886-9.439,7.163
		c-5.119,2.748-9.319,4.24-12.599,4.478c-3.28,0.238-6.195-0.176-8.745-1.241c-2.55-1.064-4.625-2.503-6.225-4.313
		c-2.356-2.692-5.144-7.037-8.362-13.034L543.491,697.182z"/>
	<path d="M593.487,669.498l17.501-14.067c3.946-3.172,7.197-5.288,9.753-6.349c3.44-1.417,6.994-1.876,10.659-1.38
		c3.666,0.497,7.234,1.845,10.705,4.042c3.471,2.198,6.991,5.519,10.563,9.961c3.138,3.903,5.356,7.657,6.657,11.263
		c1.587,4.404,2.14,8.558,1.656,12.461c-0.361,2.952-1.59,6.017-3.687,9.193c-1.576,2.367-4.133,4.973-7.669,7.815l-18.019,14.483
		L593.487,669.498z M609.512,669.824l25.248,31.41l7.149-5.747c2.674-2.149,4.483-3.852,5.427-5.107c1.24-1.636,2-3.329,2.279-5.08
		c0.278-1.751-0.112-3.948-1.173-6.593s-3.063-5.799-6.011-9.466c-2.947-3.666-5.533-6.22-7.758-7.663
		c-2.225-1.441-4.361-2.245-6.409-2.409c-2.049-0.163-4.125,0.28-6.227,1.331c-1.58,0.772-4.321,2.729-8.225,5.865L609.512,669.824z
		"/>
	<path d="M637.557,633.123l14.639-17.025c3.301-3.84,6.111-6.514,8.43-8.023c3.125-2.021,6.534-3.121,10.229-3.303
		c3.694-0.18,7.449,0.493,11.263,2.021s7.882,4.148,12.204,7.864c3.798,3.265,6.665,6.551,8.602,9.858
		c2.364,4.04,3.666,8.022,3.903,11.948c0.184,2.969-0.465,6.206-1.946,9.712c-1.117,2.616-3.155,5.644-6.113,9.085l-15.07,17.529
		L637.557,633.123z M653.371,630.518l30.56,26.273l5.979-6.956c2.236-2.601,3.704-4.604,4.402-6.012
		c0.921-1.836,1.359-3.639,1.313-5.411c-0.045-1.772-0.83-3.861-2.356-6.269c-1.525-2.405-4.071-5.142-7.639-8.209
		c-3.566-3.066-6.575-5.105-9.025-6.117s-4.697-1.412-6.742-1.198c-2.044,0.213-4.003,1.027-5.878,2.444
		c-1.412,1.049-3.751,3.472-7.016,7.269L653.371,630.518z"/>
	<path d="M734.716,606.232l-22.056-13.012l-41.674,1.292l7.318-12.404l28.009-0.102l-13.605-24.313l7.19-12.189l19.055,37.214
		l21.984,12.969L734.716,606.232z"/>
</g>
<path fill="none" stroke="#000000" stroke-width="10" stroke-miterlimit="10" d="M690.208,413.5
	c0,149.502-121.206,270.709-270.708,270.709c-149.509,0-270.708-121.207-270.708-270.709c0-149.509,121.2-270.708,270.708-270.708
	C569.002,142.792,690.208,263.991,690.208,413.5z"/>
<circle fill="none" stroke="#000000" stroke-width="10" stroke-miterlimit="10" cx="419.5" cy="413.5" r="400"/>
<g>
	<path d="M284,144.024l-21.827-45.597l-16.285,7.795l-4.444-9.284l43.613-20.877l4.444,9.284l-16.247,7.777l21.827,45.597
		L284,144.024z"/>
	<path d="M316.437,129.014L300.44,70.31l24.947-6.798c6.273-1.709,10.976-2.424,14.106-2.145c3.13,0.28,5.917,1.536,8.36,3.766
		c2.443,2.231,4.138,5.082,5.083,8.552c1.2,4.405,0.896,8.396-0.911,11.97c-1.808,3.576-5.186,6.439-10.134,8.59
		c2.97,0.797,5.533,1.862,7.689,3.196c2.156,1.334,5.271,3.898,9.344,7.692l10.289,9.5l-14.175,3.862l-12.05-10.438
		c-4.287-3.736-7.153-6.045-8.598-6.927s-2.855-1.373-4.229-1.472c-1.375-0.099-3.424,0.223-6.146,0.965l-2.403,0.655l6.678,24.507
		L316.437,129.014z M319.059,91.907l8.77-2.39c5.686-1.549,9.171-2.757,10.455-3.624c1.284-0.866,2.167-1.995,2.647-3.388
		c0.48-1.393,0.481-2.97,0.001-4.732c-0.539-1.976-1.5-3.427-2.886-4.354c-1.386-0.927-3.083-1.289-5.092-1.086
		c-0.998,0.129-3.899,0.847-8.704,2.157L315,77.011L319.059,91.907z"/>
	<path d="M368.67,84.521c-0.397-6.185,0.195-11.436,1.775-15.751c1.182-3.181,2.889-6.077,5.12-8.688
		c2.23-2.611,4.73-4.601,7.498-5.971c3.68-1.844,7.991-2.925,12.934-3.242c8.946-0.574,16.283,1.741,22.01,6.947
		c5.727,5.206,8.907,12.751,9.542,22.636c0.629,9.803-1.544,17.643-6.518,23.521c-4.974,5.878-11.92,9.104-20.839,9.676
		c-9.029,0.579-16.386-1.714-22.068-6.881C372.441,101.601,369.29,94.186,368.67,84.521z M381.276,83.296
		c0.441,6.875,2.363,11.986,5.767,15.33c3.403,3.345,7.549,4.86,12.436,4.546c4.887-0.313,8.785-2.331,11.693-6.053
		c2.908-3.722,4.136-9.103,3.684-16.144c-0.447-6.958-2.306-12.051-5.576-15.28c-3.271-3.228-7.433-4.68-12.486-4.356
		c-5.053,0.325-9.015,2.319-11.885,5.982C382.039,70.986,380.828,76.311,381.276,83.296z"/>
	<path d="M436.422,111.656l7.773-60.346l19.553,2.519c7.409,0.955,12.2,1.879,14.373,2.772c3.341,1.351,5.982,3.693,7.925,7.026
		c1.941,3.333,2.604,7.401,1.984,12.203c-0.477,3.705-1.551,6.733-3.221,9.084s-3.634,4.114-5.891,5.288
		c-2.258,1.174-4.486,1.856-6.688,2.047c-2.983,0.201-7.232-0.053-12.748-0.764l-7.945-1.023l-2.932,22.764L436.422,111.656z
		 M455.064,63.088l-2.206,17.124l6.669,0.859c4.802,0.619,8.054,0.717,9.754,0.294c1.7-0.422,3.097-1.247,4.189-2.473
		s1.754-2.731,1.983-4.515c0.283-2.195-0.129-4.089-1.234-5.683c-1.106-1.593-2.624-2.695-4.554-3.307
		c-1.42-0.461-4.324-0.976-8.715-1.541L455.064,63.088z"/>
	<path d="M489.983,119.257l18.9-57.834l11.678,3.816l-7.439,22.763l22.882,7.478l7.438-22.763l11.678,3.816l-18.901,57.834
		l-11.677-3.816l8.264-25.288l-22.881-7.478l-8.265,25.288L489.983,119.257z"/>
	<path d="M559.371,146.267l12.358-22.429l-2.517-41.618l12.614,6.95l0.925,27.994l23.903-14.314l12.396,6.83l-36.638,20.14
		l-12.318,22.356L559.371,146.267z"/>
</g>
<path fill="none" stroke="#000000" stroke-width="10" stroke-miterlimit="10" d="M737.491,484.571
	c17.234-77.01,6.731-160.452-35.836-234.181"/>
<path fill="none" stroke="#000000" stroke-width="10" stroke-miterlimit="10" d="M100.999,484.571
	c-17.234-77.01-6.731-160.452,35.836-234.181"/>
<g>
	
		<line fill="none" stroke="#000000" stroke-width="6" stroke-miterlimit="10" x1="585.831" y1="383.937" x2="616.121" y2="373.524"/>
	<path fill="none" stroke="#000000" stroke-width="6" stroke-miterlimit="10" d="M634.016,452.847l-2.432,0.969l-3.141,1.211
		l-2.591,0.891l-4.676,1.343l-1.689,0.449l-1.848,0.373l-2.322,0.139l-2.203,0.1l-1.105-0.146c0,0-0.884-0.334-1.267-0.618
		c-0.384-0.286-1.232-2.058-1.563-3.019c-0.33-0.962-0.729-2.122-0.729-2.122l-24.637-73.58l-0.323-0.942l-0.169-1.259l-0.18-2.44
		l0.022-1.851l0.136-2.286c0,0,0.395-6.896,0.368-6.975c0,0,0.46-8.236,0.434-8.314c0,0,0.064-1.603,0.022-1.852l0.025-1.457
		l-0.088-1.024l-0.085-0.63c0,0-0.364-1.19-0.608-1.766c-0.525-1.53-7.736-22.794-7.736-22.794l12.055-4.108l7.572,22.025
		l1.007,2.551l0.321,0.548c0,0,3.621,4.422,5.495,6.408c0.04,0.118,10.517,12.584,10.517,12.584l0.279,0.432l0.641,1.096l0.4,0.784
		l1.089,2.787l0.04,0.118l25.333,72.156l1.138,3.691l-0.111,0.829l-0.191,0.594l-1.674,2.024l-2.507,1.519L634.016,452.847z"/>
	
		<line fill="none" stroke="#000000" stroke-width="6" stroke-miterlimit="10" x1="606.426" y1="446.526" x2="637.991" y2="435.676"/>
	
		<line fill="none" stroke="#000000" stroke-width="6" stroke-miterlimit="10" x1="583.976" y1="349.804" x2="596.225" y2="345.594"/>
</g>
<g>
	
		<line fill="none" stroke="#000000" stroke-width="6" stroke-miterlimit="10" x1="413.609" y1="451.213" x2="445.639" y2="451.213"/>
	<path fill="none" stroke="#000000" stroke-width="6" stroke-miterlimit="10" d="M436.775,532.044l-2.615,0.126l-3.363,0.124h-2.739
		l-4.857-0.25l-1.745-0.124l-1.868-0.247l-2.242-0.623l-2.116-0.623l-0.997-0.498c0,0-0.728-0.603-0.997-0.996
		c-0.271-0.396-0.498-2.347-0.498-3.363c0-1.018,0-2.242,0-2.242l0.621-77.594v-0.996l0.25-1.246l0.623-2.367l0.623-1.743
		l0.872-2.117c0,0,2.615-6.393,2.615-6.477c0,0,3.113-7.638,3.113-7.721c0,0,0.582-1.496,0.623-1.745l0.499-1.368l0.249-0.998
		l0.124-0.623c0,0,0.042-1.244,0-1.867c0-1.618,0.094-24.072,0.094-24.072l12.735,0.034v23.292l0.123,2.739l0.126,0.623
		c0,0,1.986,5.358,3.113,7.847c0,0.124,5.854,15.32,5.854,15.32l0.124,0.499l0.249,1.244l0.124,0.871l0.124,2.989v0.124
		l0.499,76.473l-0.124,3.86l-0.375,0.749l-0.373,0.499l-2.241,1.37l-2.864,0.621L436.775,532.044z"/>
	
		<line fill="none" stroke="#000000" stroke-width="6" stroke-miterlimit="10" x1="412.738" y1="517.099" x2="446.116" y2="517.099"/>
	<line fill="none" stroke="#000000" stroke-width="6" stroke-miterlimit="10" x1="422.95" y1="418.332" x2="435.902" y2="418.332"/>
</g>
<g>
	
		<line fill="none" stroke="#000000" stroke-width="6" stroke-miterlimit="10" x1="220.827" y1="372.407" x2="250.593" y2="384.233"/>
	<path fill="none" stroke="#000000" stroke-width="6" stroke-miterlimit="10" d="M212.511,456.08l-2.477-0.85l-3.171-1.126
		l-2.546-1.013l-4.422-2.024l-1.576-0.76l-1.644-0.92l-1.854-1.407l-1.736-1.361l-0.743-0.829c0,0-0.453-0.829-0.558-1.295
		c-0.105-0.467,0.404-2.362,0.779-3.309c0.376-0.944,0.829-2.084,0.829-2.084l29.227-71.881l0.368-0.926l0.691-1.065l1.453-1.969
		l1.223-1.39l1.592-1.646c0,0,4.791-4.976,4.822-5.054c0,0,5.714-5.949,5.744-6.026c0,0,1.093-1.175,1.223-1.391l0.968-1.088
		l0.6-0.835l0.346-0.533c0,0,0.499-1.141,0.689-1.736c0.598-1.504,8.975-22.336,8.975-22.336l11.822,4.734l-8.599,21.645
		l-0.897,2.593l-0.113,0.625c0,0-0.133,5.712-0.004,8.441c-0.045,0.116-0.215,16.398-0.215,16.398l-0.069,0.509l-0.228,1.249
		l-0.207,0.856l-0.989,2.824l-0.045,0.115l-27.773,71.254l-1.541,3.542l-0.625,0.556l-0.532,0.327l-2.588,0.445l-2.892-0.479
		L212.511,456.08z"/>
	<line fill="none" stroke="#000000" stroke-width="6" stroke-miterlimit="10" x1="195.691" y1="433.315" x2="226.71" y2="445.64"/>
	
		<line fill="none" stroke="#000000" stroke-width="6" stroke-miterlimit="10" x1="241.649" y1="345.298" x2="253.686" y2="350.081"/>
</g>
<circle fill="none" stroke="#010101" stroke-width="6" stroke-miterlimit="10" cx="318.345" cy="410.739" r="55.772"/>
<ellipse transform="matrix(0.4776 -0.8786 0.8786 0.4776 -206.564 478.2272)" fill="#010101" stroke="#010101" stroke-width="1.498" stroke-miterlimit="10" cx="298.837" cy="412.804" rx="5.968" ry="3.672"/>
<ellipse transform="matrix(0.4776 -0.8786 0.8786 0.4776 -187.8582 509.6848)" fill="#010101" stroke="#010101" stroke-width="1.498" stroke-miterlimit="10" cx="334.641" cy="412.804" rx="5.968" ry="3.672"/>
<path fill="none" stroke="#010101" stroke-width="6" stroke-linecap="round" stroke-miterlimit="10" d="M293.329,432.078
	c0,0,21.805,17.899,43.838-0.919"/>
<path fill="none" stroke="#010101" stroke-width="6" stroke-linecap="square" stroke-miterlimit="10" d="M370.676,425.881
	l-12.394-29.149c0,0-1.148-5.049-5.738-5.049c-4.59,0-16.753,1.377-27.082-4.361c-10.328-5.738-30.526-9.64-40.625,0
	c-10.1,9.64-17.902,20.657-20.427,32.132"/>
<ellipse fill="none" stroke="#010101" stroke-width="6" stroke-miterlimit="10" cx="276.798" cy="565.654" rx="16.984" ry="11.017"/>
<ellipse fill="none" stroke="#010101" stroke-width="6" stroke-miterlimit="10" cx="350.707" cy="565.654" rx="16.984" ry="11.017"/>
<path fill="none" stroke="#010101" stroke-width="6" stroke-miterlimit="10" d="M343.364,460.673c0,0,8.263,38.853,10.328,53.312
	c2.066,14.461-12.165,13.516-12.165,13.516s-33.967,0-50.035,0c-16.065,0-12.049-12.022-12.049-12.022l9.066-56.403"/>
<polyline fill="none" stroke="#010101" stroke-width="6" stroke-miterlimit="10" points="299.5,464.5 299.5,497.26 279.844,499.855 
	"/>
<polyline fill="none" stroke="#010101" stroke-width="6" stroke-miterlimit="10" points="336.5,464.5 336.5,500.015 
	348.434,503.631 "/>
<polyline fill="none" stroke="#010101" stroke-width="6" stroke-miterlimit="10" points="309.5,468.5 309.5,481.5 323.5,481.5 
	323.5,468.5 "/>
<ellipse transform="matrix(0.8517 0.524 -0.524 0.8517 253.1841 -52.7938)" fill="none" stroke="#010101" stroke-width="6" stroke-miterlimit="10" cx="219.884" cy="421.004" rx="11.988" ry="14.056"/>
<ellipse transform="matrix(0.5671 0.8236 -0.8236 0.5671 581.0848 -106.6637)" fill="none" stroke="#010101" stroke-width="6" stroke-miterlimit="10" cx="392.02" cy="499.499" rx="11.987" ry="14.058"/>
<path fill="none" stroke="#010101" stroke-width="6" stroke-miterlimit="10" d="M232.475,428.865c0,0,18.624,15.148,53.969,32.82"/>
<path fill="none" stroke="#010101" stroke-width="6" stroke-miterlimit="10" d="M379.97,496.8c0,0-10.443-16.065-32.018-35.114"/>
<line fill="none" stroke="#010101" stroke-width="6" stroke-miterlimit="10" x1="293.5" y1="527.5" x2="293.5" y2="562.5"/>
<line fill="none" stroke="#010101" stroke-width="6" stroke-miterlimit="10" x1="333.5" y1="527.5" x2="333.5" y2="562.5"/>
<circle fill="none" stroke="#010101" stroke-width="6" stroke-miterlimit="10" cx="519.4" cy="419" r="55.771"/>
<ellipse transform="matrix(0.4775 -0.8786 0.8786 0.4775 -105.8965 664.053)" fill="#010101" stroke="#010101" stroke-width="1.498" stroke-miterlimit="10" cx="505.4" cy="421.066" rx="5.967" ry="3.672"/>
<ellipse transform="matrix(0.4775 -0.8787 0.8787 0.4775 -96.5241 679.8274)" fill="#010101" stroke="#010101" stroke-width="1.498" stroke-miterlimit="10" cx="523.303" cy="421.066" rx="5.967" ry="3.672"/>
<path fill="none" stroke="#010101" stroke-width="6" stroke-linecap="round" stroke-miterlimit="10" d="M494.385,440.34
	c0,0,21.804,17.902,43.837-0.918"/>
<path fill="none" stroke="#010101" stroke-width="6" stroke-linecap="round" stroke-miterlimit="10" d="M568.201,391.997
	c0,0-10.013,7.949-14.602,7.949c-4.591,0-16.755,1.377-27.083-4.361c-10.328-5.739-30.525-9.64-40.624,0
	c-10.1,9.64-17.902,20.657-20.428,32.132"/>
<ellipse fill="none" stroke="#010101" stroke-width="6" stroke-miterlimit="10" cx="477.4" cy="575.294" rx="16.985" ry="11.017"/>
<ellipse transform="matrix(0.8082 -0.589 0.589 0.8082 -220.1129 447.2995)" fill="none" stroke="#010101" stroke-width="6" stroke-miterlimit="10" cx="576.55" cy="561.524" rx="16.985" ry="9.639"/>
<path fill="none" stroke="#010101" stroke-width="6" stroke-miterlimit="10" d="M556.719,462.636c0,0,3.794,38.297,5.859,52.756
	c2.066,14.459-13.569,16.044-13.569,16.044s-40.394,1.629-56.462,1.629c-16.065,0-12.05-10.673-12.05-10.673l9.067-55.882"/>
<polyline fill="none" stroke="#010101" stroke-width="6" stroke-miterlimit="10" points="500.5,472.5 500.5,505.522 
	480.844,508.229 "/>
<polyline fill="none" stroke="#010101" stroke-width="6" stroke-miterlimit="10" points="543.138,469.474 544.878,507.973 
	559.567,511.49 "/>
<polyline fill="none" stroke="#010101" stroke-width="6" stroke-miterlimit="10" points="512.5,476.5 512.5,489.5 525.5,489.5 
	525.5,476.5 "/>
<ellipse transform="matrix(0.8517 -0.524 0.524 0.8517 -199.3252 299.2845)" fill="none" stroke="#010101" stroke-width="6" stroke-miterlimit="10" cx="429.202" cy="501.869" rx="11.988" ry="14.055"/>
<ellipse transform="matrix(-0.6882 0.7256 -0.7256 -0.6882 1345.8649 269.0754)" fill="none" stroke="#010101" stroke-width="6" stroke-miterlimit="10" cx="615.109" cy="423.758" rx="11.987" ry="14.059"/>
<path fill="none" stroke="#010101" stroke-width="6" stroke-miterlimit="10" d="M441.792,494.008c0,0,15.967-13.327,46.266-28.873"
	/>
<path fill="none" stroke="#010101" stroke-width="6" stroke-miterlimit="10" d="M557.154,462.636c0,0,20.239-8.737,46.49-30.003"/>
<line fill="none" stroke="#010101" stroke-width="6" stroke-miterlimit="10" x1="489.5" y1="536.5" x2="489.5" y2="570.5"/>
<line fill="none" stroke="#010101" stroke-width="6" stroke-miterlimit="10" x1="550.857" y1="533.118" x2="562.578" y2="560.034"/>
<path fill="none" stroke="#010101" stroke-width="6" stroke-linecap="square" stroke-miterlimit="10" d="M549.009,403.673
	c0,0,8.264,19.223,21.115,27.486"/>
<ellipse transform="matrix(0.8518 0.5239 -0.5239 0.8518 219.4243 -117.4088)" fill="none" stroke="#010101" stroke-width="6" stroke-miterlimit="10" cx="317.196" cy="329.06" rx="11.988" ry="14.057"/>
<path fill="none" stroke="#010101" stroke-width="6" stroke-miterlimit="10" d="M329.786,336.921c0,0,18.625,15.148,53.969,32.82"/>
<circle fill="none" stroke="#010101" stroke-width="6" stroke-miterlimit="10" cx="416.572" cy="311.909" r="55.772"/>
<ellipse transform="matrix(0.4775 -0.8786 0.8786 0.4775 -59.0412 528.6691)" fill="#010101" stroke="#010101" stroke-width="1.498" stroke-miterlimit="10" cx="414.967" cy="313.974" rx="5.968" ry="3.672"/>
<ellipse transform="matrix(0.4775 -0.8786 0.8786 0.4775 -49.6949 544.3817)" fill="#010101" stroke="#010101" stroke-width="1.498" stroke-miterlimit="10" cx="432.869" cy="313.974" rx="5.968" ry="3.673"/>
<path fill="none" stroke="#010101" stroke-width="6" stroke-linecap="round" stroke-miterlimit="10" d="M403.95,333.249
	c0,0,21.804,17.901,43.838-0.918"/>
<path fill="none" stroke="#010101" stroke-width="6" stroke-linecap="round" stroke-miterlimit="10" d="M465.374,284.905
	c0,0-10.013,7.95-14.603,7.95s-16.754,1.377-27.082-4.361c-10.329-5.738-30.526-9.64-40.625,0
	c-10.1,9.64-17.902,20.656-20.428,32.132"/>
<ellipse fill="none" stroke="#010101" stroke-width="6" stroke-miterlimit="10" cx="374.572" cy="468.202" rx="16.985" ry="11.017"/>
<path fill="none" stroke="#010101" stroke-width="6" stroke-miterlimit="10" d="M482.051,460.047
	c-0.817,0.755-1.702,1.484-2.65,2.175c-7.581,5.524-16.269,6.517-19.404,2.214s0.468-12.269,8.05-17.794
	c0.7-0.511,1.41-0.982,2.124-1.415"/>
<path fill="none" stroke="#010101" stroke-width="6" stroke-miterlimit="10" d="M420.581,425.271
	c-11.265,0.366-23.569,0.702-30.862,0.702c-16.065,0-12.049-10.673-12.049-10.673l9.067-55.881"/>
<path fill="none" stroke="#010101" stroke-width="6" stroke-miterlimit="10" d="M453.891,355.544c0,0,3.793,38.297,5.859,52.756
	c2.067,14.459-13.568,16.043-13.568,16.043s-3.133,0.127-8.001,0.308"/>
<polyline fill="none" stroke="#010101" stroke-width="6" stroke-miterlimit="10" points="397.5,365.5 397.5,398.431 
	377.844,401.184 "/>
<polyline fill="none" stroke="#010101" stroke-width="6" stroke-miterlimit="10" points="440.31,362.382 442.051,400.881 
	456.739,404.399 "/>
<polyline fill="none" stroke="#010101" stroke-width="6" stroke-miterlimit="10" points="409.5,369.5 409.5,382.5 422.5,382.5 
	422.5,369.5 "/>
<ellipse transform="matrix(-0.6882 0.7255 -0.7255 -0.6882 1094.5764 162.9038)" fill="none" stroke="#010101" stroke-width="6" stroke-miterlimit="10" cx="512.282" cy="316.666" rx="11.988" ry="14.057"/>
<path fill="none" stroke="#010101" stroke-width="6" stroke-miterlimit="10" d="M454.327,355.544c0,0,20.238-8.738,46.489-30.003"/>
<line fill="none" stroke="#010101" stroke-width="6" stroke-miterlimit="10" x1="387.5" y1="428.5" x2="387.5" y2="463.5"/>
<line fill="none" stroke="#010101" stroke-width="6" stroke-miterlimit="10" x1="448.03" y1="426.025" x2="459.75" y2="452.942"/>
<g>
	
		<line fill="none" stroke="#000000" stroke-width="6" stroke-miterlimit="10" x1="497.865" y1="264.775" x2="529.885" y2="265.578"/>
	<path fill="none" stroke="#000000" stroke-width="6" stroke-miterlimit="10" d="M518.995,346.161l-2.618,0.061l-3.364,0.039
		l-2.739-0.068l-4.851-0.372l-1.739-0.168l-1.862-0.295l-2.225-0.68l-2.1-0.675l-0.985-0.522c0,0-0.712-0.622-0.971-1.021
		c-0.261-0.403-0.438-2.358-0.413-3.375c0.026-1.016,0.057-2.243,0.057-2.243l2.568-77.552l0.025-0.996l0.279-1.239l0.684-2.351
		l0.666-1.727l0.925-2.095c0,0,2.774-6.326,2.776-6.409c0,0,3.305-7.559,3.307-7.641c0,0,0.619-1.479,0.666-1.728l0.533-1.356
		l0.274-0.991l0.14-0.62c0,0,0.073-1.243,0.047-1.868c0.04-1.617,0.697-24.061,0.697-24.061l12.73,0.354l-0.584,23.283l0.054,2.742
		l0.11,0.626c0,0,1.852,5.407,2.916,7.922c-0.004,0.125,5.468,15.462,5.468,15.462l0.111,0.502l0.218,1.25l0.103,0.874l0.048,2.992
		l-0.002,0.124l-1.421,76.461l-0.221,3.856l-0.394,0.738l-0.387,0.49l-2.273,1.314l-2.88,0.549L518.995,346.161z"/>
	
		<line fill="none" stroke="#000000" stroke-width="6" stroke-miterlimit="10" x1="495.341" y1="330.617" x2="528.708" y2="331.455"/>
	
		<line fill="none" stroke="#000000" stroke-width="6" stroke-miterlimit="10" x1="508.028" y1="232.138" x2="520.977" y2="232.463"/>
</g>
</svg>
