<?xml version="1.0" encoding="utf-8"?>
<!-- Generator: Adobe Illustrator 16.0.0, SVG Export Plug-In . SVG Version: 6.00 Build 0)  -->
<!DOCTYPE svg PUBLIC "-//W3C//DTD SVG 1.1//EN" "http://www.w3.org/Graphics/SVG/1.1/DTD/svg11.dtd">
<svg version="1.1" id="Layer_1" xmlns="http://www.w3.org/2000/svg" xmlns:xlink="http://www.w3.org/1999/xlink" x="0px" y="0px"
	 width="830px" height="826px" viewBox="0 0 830 826" enable-background="new 0 0 830 826" xml:space="preserve">
<g>
	<path d="M130.513,605.648l8.555-5.649l14.592,22.096l-20.226,13.357c-3.496-0.775-7.381-2.679-11.653-5.709
		c-4.273-3.031-7.79-6.636-10.549-10.814c-3.507-5.312-5.45-10.676-5.829-16.096c-0.379-5.419,0.848-10.49,3.681-15.213
		c2.833-4.723,6.685-8.692,11.557-11.91c5.287-3.491,10.718-5.485,16.292-5.983c5.573-0.497,10.867,0.665,15.882,3.488
		c3.835,2.143,7.354,5.638,10.556,10.486c4.163,6.304,6.092,12.1,5.789,17.39c-0.304,5.291-2.452,9.983-6.444,14.079l-8.629-8.924
		c2.021-2.363,3.101-5.008,3.24-7.935c0.139-2.927-0.767-5.868-2.718-8.823c-2.958-4.48-6.73-7.104-11.316-7.872
		s-9.672,0.693-15.26,4.383c-6.026,3.979-9.662,8.303-10.906,12.972c-1.244,4.668-0.434,9.172,2.434,13.514
		c1.418,2.146,3.26,4.021,5.529,5.624c2.268,1.603,4.514,2.78,6.736,3.534l6.442-4.254L130.513,605.648z"/>
	<path d="M157.983,631.691c4.399-4.366,8.744-7.373,13.035-9.02c3.174-1.201,6.478-1.82,9.912-1.856
		c3.433-0.036,6.576,0.538,9.429,1.723c3.809,1.56,7.458,4.097,10.948,7.612c6.315,6.362,9.395,13.413,9.239,21.15
		c-0.156,7.737-3.75,15.096-10.779,22.073c-6.972,6.92-14.308,10.438-22.006,10.557c-7.7,0.118-14.697-2.994-20.993-9.337
		c-6.374-6.422-9.483-13.473-9.328-21.15C147.596,645.764,151.11,638.514,157.983,631.691z M167.196,640.384
		c-4.89,4.854-7.476,9.661-7.757,14.425c-0.283,4.763,1.302,8.882,4.752,12.358c3.45,3.476,7.533,5.085,12.25,4.829
		c4.716-0.257,9.578-2.87,14.586-7.84c4.949-4.912,7.563-9.662,7.845-14.249c0.281-4.587-1.362-8.678-4.929-12.271
		s-7.675-5.267-12.322-5.02C176.972,632.862,172.164,635.452,167.196,640.384z"/>
	<path d="M206.272,679.089c3.454-5.146,7.123-8.949,11.006-11.408c2.875-1.802,5.993-3.058,9.353-3.769
		c3.359-0.711,6.554-0.767,9.583-0.166c4.042,0.78,8.119,2.55,12.231,5.311c7.444,4.996,11.85,11.303,13.219,18.92
		c1.369,7.617-0.707,15.538-6.227,23.763c-5.475,8.155-11.975,13.049-19.5,14.679c-7.526,1.63-15-0.046-22.42-5.026
		c-7.512-5.042-11.948-11.344-13.305-18.902C198.855,694.93,200.875,687.13,206.272,679.089z M217.015,685.799
		c-3.84,5.721-5.43,10.943-4.769,15.669c0.66,4.726,3.024,8.453,7.09,11.183s8.386,3.504,12.96,2.325
		c4.573-1.179,8.827-4.697,12.759-10.556c3.886-5.789,5.515-10.961,4.889-15.514c-0.627-4.552-3.042-8.239-7.246-11.062
		s-8.561-3.654-13.069-2.499C225.121,676.502,220.916,679.986,217.015,685.799z"/>
	<path d="M277.184,688.427l20.692,8.719c4.666,1.967,8.072,3.823,10.219,5.567c2.881,2.355,4.973,5.264,6.277,8.726
		c1.303,3.462,1.813,7.242,1.527,11.34c-0.286,4.099-1.535,8.773-3.749,14.026c-1.945,4.615-4.195,8.352-6.75,11.208
		c-3.122,3.488-6.515,5.947-10.179,7.375c-2.77,1.085-6.049,1.459-9.841,1.123c-2.833-0.263-6.339-1.275-10.521-3.037l-21.303-8.977
		L277.184,688.427z M284.508,702.683l-15.649,37.138l8.453,3.562c3.161,1.332,5.519,2.116,7.072,2.35
		c2.029,0.314,3.88,0.179,5.554-0.407c1.672-0.586,3.421-1.974,5.245-4.163c1.823-2.188,3.648-5.45,5.475-9.785
		s2.846-7.823,3.059-10.466s-0.095-4.904-0.924-6.785c-0.829-1.881-2.205-3.496-4.128-4.848c-1.431-1.022-4.454-2.507-9.068-4.451
		L284.508,702.683z"/>
	<path d="M343.128,776.153l7.702-60.355l18.238,2.328l5.697,42.567l16.082-39.789l18.279,2.333l-7.702,60.355l-11.322-1.445
		l6.063-47.51l-18.043,45.981l-11.733-1.497l-5.877-49.034l-6.063,47.511L343.128,776.153z"/>
	<path d="M416.394,754.053c-0.471-6.181,0.058-11.438,1.587-15.772c1.144-3.194,2.816-6.11,5.015-8.748
		c2.199-2.637,4.675-4.657,7.426-6.061c3.658-1.888,7.956-3.02,12.895-3.396c8.939-0.681,16.303,1.547,22.092,6.684
		c5.788,5.137,9.059,12.644,9.812,22.521c0.746,9.794-1.333,17.66-6.235,23.598c-4.904,5.938-11.812,9.245-20.723,9.924
		c-9.021,0.688-16.405-1.518-22.148-6.616C420.369,771.086,417.129,763.709,416.394,754.053z M428.984,752.677
		c0.523,6.87,2.506,11.957,5.949,15.26c3.442,3.304,7.606,4.77,12.489,4.397c4.884-0.372,8.757-2.437,11.62-6.192
		s4.027-9.152,3.491-16.188c-0.53-6.952-2.45-12.022-5.759-15.212c-3.31-3.188-7.488-4.591-12.537-4.206s-8.986,2.427-11.813,6.124
		C429.6,740.358,428.452,745.697,428.984,752.677z"/>
	<path d="M494.113,776.156l-16.139-58.665l24.931-6.858c6.269-1.725,10.97-2.451,14.101-2.179s5.921,1.521,8.37,3.745
		c2.448,2.226,4.149,5.071,5.104,8.539c1.211,4.402,0.917,8.394-0.882,11.973c-1.799,3.58-5.17,6.452-10.113,8.615
		c2.973,0.79,5.538,1.849,7.697,3.177c2.158,1.329,5.279,3.886,9.362,7.67l10.312,9.474l-14.166,3.897l-12.075-10.409
		c-4.296-3.726-7.168-6.027-8.615-6.907c-1.447-0.878-2.858-1.365-4.233-1.461c-1.375-0.095-3.423,0.231-6.144,0.98l-2.401,0.66
		l6.737,24.49L494.113,776.156z M496.645,739.043l8.764-2.411c5.683-1.563,9.165-2.779,10.447-3.648
		c1.281-0.869,2.161-2,2.639-3.395c0.478-1.394,0.474-2.972-0.011-4.732c-0.543-1.974-1.509-3.423-2.896-4.347
		s-3.086-1.282-5.095-1.074c-0.997,0.132-3.896,0.857-8.698,2.178l-9.244,2.543L496.645,739.043z"/>
	<path d="M559.602,756.241l-26.722-54.663l10.738-5.249l40.218,25.567l-17.845-36.504l10.254-5.013l26.721,54.663l-11.074,5.413
		l-39.462-24.874l17.426,35.646L559.602,756.241z"/>
	<path d="M617.512,725.417l-33.486-50.801l10.258-6.761l33.485,50.801L617.512,725.417z"/>
	<path d="M641.71,709.575l-39.67-46.134l9.063-7.794l45.373,14.573l-26.492-30.809l8.654-7.441l39.67,46.134l-9.346,8.037
		l-44.468-14.093l25.869,30.085L641.71,709.575z"/>
	<path d="M692.558,627.644l-8.036-6.365l16.441-20.757l19,15.049c0.354,3.563-0.242,7.849-1.788,12.853
		c-1.548,5.005-3.875,9.472-6.984,13.396c-3.952,4.989-8.442,8.509-13.474,10.56c-5.03,2.052-10.231,2.468-15.603,1.249
		c-5.37-1.218-10.344-3.64-14.921-7.265c-4.966-3.935-8.556-8.472-10.768-13.612c-2.211-5.14-2.758-10.532-1.641-16.177
		c0.84-4.313,3.063-8.746,6.671-13.301c4.689-5.922,9.595-9.563,14.716-10.926c5.121-1.361,10.249-0.785,15.387,1.73l-5.787,10.982
		c-2.875-1.183-5.725-1.384-8.549-0.604c-2.824,0.781-5.337,2.56-7.536,5.336c-3.333,4.208-4.648,8.61-3.948,13.206
		c0.701,4.598,3.676,8.975,8.925,13.132c5.661,4.483,10.903,6.589,15.727,6.314c4.823-0.273,8.85-2.449,12.08-6.527
		c1.598-2.018,2.804-4.353,3.618-7.008s1.233-5.156,1.257-7.503l-6.052-4.793L692.558,627.644z"/>
	<path d="M723.45,594.479l-28.198-12.945l-12.332-7.194l6.358-10.898l12.332,7.195l25.165,18.143L723.45,594.479z M735.725,604.572
		l-10.073-5.877l5.877-10.073l10.073,5.877L735.725,604.572z"/>
</g>
<path fill="none" stroke="#000000" stroke-width="15" stroke-miterlimit="10" d="M498.693,481.782 M342.229,481.782
	 M499.938,672.057 M339.271,672.121 M387.861,321.156 M467.64,367.619 M482.138,400.711 M356.352,400.712"/>
<path fill="none" stroke="#000000" stroke-width="10" stroke-miterlimit="10" d="M690.208,413.5
	c0,149.502-121.206,270.709-270.708,270.709c-149.509,0-270.708-121.207-270.708-270.709c0-149.509,121.2-270.708,270.708-270.708
	C569.002,142.792,690.208,263.991,690.208,413.5z"/>
<circle fill="none" stroke="#000000" stroke-width="10" stroke-miterlimit="10" cx="419.5" cy="413.5" r="400"/>
<g>
	<path d="M212.685,192.038l-8.809,10.051l-13.896-5.114l-16.03,18.291l7.084,12.886l-8.589,9.801l-30.139-57.926l8.563-9.77
		L212.685,192.038z M179.673,193.183l-22.506-8.576l11.563,21.062L179.673,193.183z"/>
	<path d="M233.009,148.291l11.734-4.296c2.616,6.371,3.23,12.13,1.84,17.278c-1.389,5.148-4.667,9.719-9.833,13.712
		c-6.393,4.941-13.335,6.818-20.826,5.632c-7.492-1.186-14.165-5.567-20.02-13.142c-6.193-8.012-8.934-15.834-8.223-23.465
		c0.711-7.631,4.438-14.053,11.181-19.265c5.889-4.552,12.018-6.509,18.386-5.871c3.779,0.366,7.706,2.052,11.779,5.059
		l-7.845,9.735c-2.499-2.056-5.209-3.108-8.132-3.157s-5.676,0.925-8.259,2.921c-3.568,2.758-5.474,6.277-5.716,10.556
		c-0.243,4.279,1.854,9.287,6.287,15.022c4.704,6.086,9.149,9.575,13.335,10.466c4.186,0.892,8.03-0.017,11.533-2.725
		c2.583-1.997,4.171-4.535,4.763-7.615C235.584,156.057,234.924,152.441,233.009,148.291z"/>
	<path d="M262.884,154.657l-27.227-54.413l10.986-5.498l10.716,21.417l21.528-10.772l-10.716-21.417l10.986-5.498l27.227,54.413
		l-10.986,5.498l-11.905-23.792l-21.528,10.772l11.905,23.792L262.884,154.657z"/>
	<path d="M316.442,130.011l-19.643-57.587l11.627-3.966l19.643,57.587L316.442,130.011z"/>
	<path d="M337.337,122.481l-12.134-59.623l44.208-8.997l2.053,10.086l-32.17,6.547l2.69,13.218l29.933-6.092l2.044,10.045
		l-29.933,6.092l3.302,16.228l33.309-6.779l2.044,10.045L337.337,122.481z"/>
	<path d="M406.141,112.22l-23.073-60.354l13.32-0.292l16.379,44.684l13.911-45.347l13.029-0.285l-20.454,61.307L406.141,112.22z"/>
	<path d="M444.748,112.227l9.438-60.108l44.568,6.999l-1.597,10.168l-32.432-5.093l-2.093,13.325l30.177,4.739l-1.59,10.127
		l-30.178-4.739l-2.568,16.36l33.58,5.273l-1.59,10.127L444.748,112.227z"/>
	<path d="M497.813,120.782l21.359-56.973l17.217,6.455l-4.232,42.738l24.79-35.03l17.255,6.469l-21.359,56.973l-10.687-4.007
		l16.813-44.847l-28.123,40.607l-11.075-4.152l5.543-49.073l-16.813,44.847L497.813,120.782z"/>
	<path d="M560.94,146.246l32.375-51.517l38.197,24.005l-5.477,8.715l-27.796-17.468l-7.178,11.421l25.864,16.253l-5.455,8.68
		l-25.863-16.253l-8.812,14.021l28.78,18.087l-5.455,8.68L560.94,146.246z"/>
	<path d="M606.459,175.703l41.35-44.635l8.769,8.124l-9.346,46.73l27.614-29.807l8.373,7.757l-41.351,44.635l-9.042-8.377
		l8.971-45.776l-26.965,29.107L606.459,175.703z"/>
	<path d="M656.85,227.459l40.384-30.408l-10.859-14.423l8.223-6.191l29.084,38.626l-8.223,6.191l-10.835-14.389l-40.383,30.408
		L656.85,227.459z"/>
</g>
<path fill="none" stroke="#000000" stroke-width="10" stroke-miterlimit="10" d="M726.245,522.876
	c26.489-74.335,26.235-158.437-7.03-236.803"/>
<path fill="none" stroke="#000000" stroke-width="10" stroke-miterlimit="10" d="M110.377,517.341
	c-25.19-74.787-23.466-158.87,11.161-236.645"/>
<g>
	<path fill-rule="evenodd" clip-rule="evenodd" fill="none" d="M219.342,210.599c134.371,0,268.741,0,403.113,0
		c0,127.299,0,254.598,0,381.896c-134.372,0-268.742,0-403.113,0C219.342,465.196,219.342,337.897,219.342,210.599z M283.31,416.042
		c-27.703,3.054-42.857,26.753-36.797,58.213c-2.588,3.75-5.444,7.77-8.172,11.872c-8.972,13.479-15.447,27.801-14.569,44.505
		c0.802,15.232,7.93,22.565,23.033,23.514c12.933,0.814,25.388-1.522,37.159-6.839c9.28-4.194,18.313-8.935,27.824-13.613
		c10.105,7.642,21.154,9.402,33.303,4.588c10.91,10.943,22.128,8.776,33.297,0.205c12.024,4.947,22.97,2.359,33.147-5.215
		c4.194,2.403,7.824,4.504,11.469,6.576c16.573,9.423,34.024,15.63,53.453,14.238c13.725-0.982,21.131-8.466,22.318-22.145
		c1.11-12.795-2.261-24.561-8.52-35.513c-4.533-7.936-9.593-15.571-14.719-23.827c8.652-17.668,2.138-31.899-10.961-44.443
		c-12.709-12.174-29.102-14.832-45.951-16.67c-3.609-15.212-12.711-24.95-26.558-30.06c-19.208-7.09-38.793-7.815-58.142-1.15
		c-24.427,8.414-33.037,24.015-28.262,49.504c2.492,13.302,8.487,25.427,13.104,38.009c6.658,18.145,13.489,36.224,20.008,53.692
		c-5.541,7.382-10.761,5.688-15.431,1.657c-19.527-16.845-39.182-33.565-58.147-51.029c-9.937-9.149-9.389-18.57-1.054-29.147
		c5.874-7.455,14.673-10.737,21.996-16.058C286.22,422.701,287.608,418.68,283.31,416.042z M553.166,336.563
		c0,35.5,0.455,69.733-0.236,103.944c-0.255,12.662-12.535,22.477-26.188,23.144c-7.053,0.344-14.132,0.153-21.199,0.146
		c-4.15-0.005-7.859,0.565-8.787,5.581c4.359,9.034,12.844,11.652,36.734,7.725c25.653-4.219,34.369-23.175,35.981-47.629
		c25.435-0.705,46.827-9.326,47.308-37.61c0.504-29.504-21.373-38.438-46.844-39.396c-2.917-9.979,0.535-19.443-3.19-29.481
		c-59.077,0-118.296,0-178.32,0c-2.416,12.915-2.263,24.627-0.354,35.755c3.841,3.273,7.099,5.097,11.793,3.427
		c3.328-7.718-0.8-16.691,3.493-25.605C452.607,336.563,502.15,336.563,553.166,336.563z M446.887,282.896
		c-0.412,8.294-8.601,10.664-8.033,17.454c5.437,6.684,7.873,7.154,13.464,2.64c10.77-8.698,12.118-23.586,2.304-34.696
		c-5.362-6.071-6.645-10.983-0.883-17.408c4.701-5.242,4.127-10.148-3.022-13.352c-7.871,1.676-11.634,7.368-14.556,14.05
		C430.061,265.521,441.037,273.768,446.887,282.896z M491.385,304.067c7.944,2.109,7.959,2.105,12.282-1.813
		c9.415-8.537,10.73-22.362,3.029-32.49c-2.515-3.307-6.383-5.727-6.791-11.371c-0.854-6.322,15.309-12.353,2.071-20.763
		c-8.176,0.963-11.972,6.479-14.857,12.63c-6.711,14.302,4.067,23.653,10.08,32.515
		C497.209,291.638,485.261,295.204,491.385,304.067z M517.556,508.826c17.098,0.225,35.138,1.289,52.177-0.514
		c3.975-4.811,3.657-8.19-0.571-12.398c-18.047-0.774-37.013-1.24-55.66,0.234C512.049,501.809,513.472,505.135,517.556,508.826z"/>
	<path fill-rule="evenodd" clip-rule="evenodd" d="M283.318,416.038c4.29,2.642,2.902,6.663,2.819,10.869
		c-7.322,5.32-16.122,8.603-21.996,16.058c-8.335,10.577-8.883,19.998,1.054,29.147c18.965,17.464,38.621,34.185,58.147,51.029
		c4.67,4.03,9.89,5.725,15.431-1.657c-6.519-17.469-13.35-35.548-20.008-53.692c-4.616-12.582-10.611-24.707-13.104-38.009
		c-4.775-25.489,3.835-41.09,28.262-49.504c19.349-6.666,38.935-5.94,58.142,1.15c13.847,5.109,22.949,14.847,26.558,30.06
		c16.849,1.838,33.242,4.496,45.951,16.67c13.099,12.544,19.613,26.775,10.961,44.443c5.126,8.256,10.186,15.892,14.719,23.827
		c6.259,10.952,9.63,22.718,8.52,35.513c-1.188,13.679-8.594,21.162-22.318,22.145c-19.429,1.392-36.88-4.815-53.453-14.238
		c-3.645-2.072-7.275-4.173-11.469-6.576c-10.177,7.574-21.123,10.162-33.147,5.215c-11.168,8.571-22.387,10.738-33.297-0.205
		c-12.148,4.814-23.197,3.054-33.303-4.588c-9.511,4.679-18.544,9.419-27.824,13.613c-11.771,5.316-24.226,7.653-37.159,6.839
		c-15.103-0.948-22.231-8.281-23.033-23.514c-0.878-16.704,5.597-31.025,14.569-44.505c2.729-4.103,5.584-8.122,8.172-11.872
		C240.452,442.795,255.607,419.096,283.318,416.038z M361.351,530.893c2.759-0.916,4.18-3.201,5.205-5.917
		c11.689-30.979,24.213-61.673,34.809-93.021c7.554-22.341-1.063-34.707-24.276-39.955c-9.45-2.138-18.847-2.603-28.306-0.75
		c-28.103,5.499-35.98,19.443-25.941,46.464c10.425,28.066,21.167,56.013,31.845,83.981
		C356.014,525.174,356.572,529.355,361.351,530.893z M419.183,426.94c-12.158,32.45-23.877,63.728-35.316,94.26
		c4.768,7.33,10.103,6.362,14.402,2.66c20.332-17.512,40.75-34.966,60.276-53.355c8.855-8.342,7.865-17.98-0.095-27.451
		C448.352,431.036,435.024,427.068,419.183,426.94z M423.068,522.314c19.444,12.108,37.035,21.121,57.99,16.17
		c7.128-15.206-1.136-39.789-17.164-51.897C450.979,497.891,437.872,509.359,423.068,522.314z M298.955,522.68
		c-14.214-13.727-27.116-25.802-41.448-36.031c-16.61,16.56-23.008,37.589-15.222,52.516
		C262.495,542.622,280.18,534.805,298.955,522.68z"/>
	<path fill-rule="evenodd" clip-rule="evenodd" d="M553.166,336.563c-51.016,0-100.559,0-149.809,0
		c-4.293,8.914-0.166,17.887-3.493,25.605c-4.695,1.67-7.952-0.153-11.793-3.427c-1.908-11.128-2.062-22.841,0.354-35.755
		c60.024,0,119.243,0,178.32,0c3.726,10.039,0.273,19.503,3.19,29.481c25.471,0.957,47.348,9.891,46.844,39.396
		c-0.48,28.284-21.873,36.905-47.308,37.61c-1.612,24.454-10.328,43.41-35.981,47.629c-23.891,3.928-32.375,1.31-36.741-7.734
		c0.935-5.006,4.644-5.576,8.794-5.571c7.067,0.008,14.146,0.198,21.199-0.146c13.652-0.667,25.933-10.481,26.188-23.144
		C553.621,406.296,553.166,372.063,553.166,336.563z M569.313,411.592c11.845,4.26,23.303,0.808,29.535-8.425
		c5.385-7.981,4.585-19.062-1.919-26.545c-7.148-8.228-17.45-10.378-27.616-5.6C569.313,384.562,569.313,398.211,569.313,411.592z"
		/>
	<path fill-rule="evenodd" clip-rule="evenodd" d="M446.887,282.896c-5.85-9.129-16.826-17.375-10.727-31.313
		c2.922-6.682,6.685-12.374,14.556-14.05c7.149,3.203,7.724,8.109,3.022,13.352c-5.762,6.425-4.479,11.337,0.883,17.408
		c9.814,11.11,8.466,25.999-2.304,34.696c-5.591,4.515-8.027,4.044-13.464-2.64C438.286,293.561,446.475,291.19,446.887,282.896z"/>
	<path fill-rule="evenodd" clip-rule="evenodd" d="M491.385,304.067c-6.124-8.864,5.824-12.43,5.814-21.291
		c-6.013-8.862-16.791-18.212-10.08-32.515c2.886-6.152,6.682-11.667,14.857-12.63c13.237,8.41-2.926,14.441-2.071,20.763
		c0.408,5.644,4.276,8.064,6.791,11.371c7.701,10.127,6.386,23.953-3.029,32.49C499.344,306.172,499.329,306.176,491.385,304.067z"
		/>
	<path fill-rule="evenodd" clip-rule="evenodd" d="M517.556,508.826c-4.084-3.691-5.507-7.018-4.055-12.678
		c18.647-1.475,37.613-1.009,55.66-0.234c4.229,4.208,4.546,7.588,0.571,12.398C552.693,510.115,534.653,509.051,517.556,508.826z"
		/>
	<path fill-rule="evenodd" clip-rule="evenodd" fill="none" d="M361.351,530.893c-4.779-1.537-5.336-5.719-6.665-9.197
		c-10.679-27.969-21.42-55.915-31.845-83.981c-10.039-27.021-2.161-40.966,25.941-46.464c9.458-1.853,18.855-1.388,28.306,0.75
		c23.214,5.248,31.831,17.614,24.276,39.955c-10.596,31.349-23.12,62.042-34.809,93.021
		C365.531,527.691,364.109,529.977,361.351,530.893z"/>
	<path fill-rule="evenodd" clip-rule="evenodd" fill="none" d="M419.183,426.94c15.841,0.128,29.168,4.096,39.267,16.113
		c7.96,9.471,8.95,19.109,0.095,27.451c-19.525,18.39-39.944,35.844-60.276,53.355c-4.299,3.702-9.634,4.67-14.402-2.66
		C395.306,490.668,407.025,459.391,419.183,426.94z"/>
	<path fill-rule="evenodd" clip-rule="evenodd" fill="none" d="M423.068,522.314c14.804-12.955,27.91-24.424,40.826-35.728
		c16.028,12.108,24.292,36.691,17.164,51.897C460.104,543.436,442.513,534.423,423.068,522.314z"/>
	<path fill-rule="evenodd" clip-rule="evenodd" fill="none" d="M298.955,522.68c-18.774,12.125-36.459,19.942-56.67,16.484
		c-7.786-14.927-1.388-35.956,15.222-52.516C271.838,496.878,284.74,508.953,298.955,522.68z"/>
	<path fill-rule="evenodd" clip-rule="evenodd" fill="none" d="M569.313,411.592c0-13.381,0-27.03,0-40.57
		c10.166-4.778,20.468-2.627,27.616,5.6c6.504,7.484,7.304,18.564,1.919,26.545C592.615,412.399,581.157,415.852,569.313,411.592z"
		/>
	
		<path fill-rule="evenodd" clip-rule="evenodd" fill="none" stroke="#000000" stroke-width="2" stroke-linecap="round" stroke-linejoin="round" stroke-miterlimit="10" d="
		M500.46,239.241c1.403,1.28-2.813,5.062,2.122,4.773"/>
</g>
</svg>
