<?xml version="1.0" encoding="utf-8"?>
<!-- Generator: Adobe Illustrator 16.0.0, SVG Export Plug-In . SVG Version: 6.00 Build 0)  -->
<!DOCTYPE svg PUBLIC "-//W3C//DTD SVG 1.1//EN" "http://www.w3.org/Graphics/SVG/1.1/DTD/svg11.dtd">
<svg version="1.1" id="Layer_1" xmlns="http://www.w3.org/2000/svg" xmlns:xlink="http://www.w3.org/1999/xlink" x="0px" y="0px"
	 width="830px" height="826px" viewBox="0 0 830 826" enable-background="new 0 0 830 826" xml:space="preserve">
<g>
	<path d="M66.056,522.866l56.63-20.85l4.245,11.528L79.92,530.853l10.554,28.666l-9.62,3.542L66.056,522.866z"/>
	<path d="M111.854,559.827c5.343-3.141,10.297-4.977,14.863-5.51c3.372-0.377,6.726-0.157,10.063,0.658
		c3.335,0.815,6.238,2.15,8.708,4.005c3.304,2.455,6.21,5.817,8.72,10.088c4.542,7.729,5.779,15.322,3.71,22.78
		c-2.068,7.457-7.373,13.695-15.913,18.714c-8.469,4.977-16.448,6.568-23.936,4.775c-7.489-1.794-13.497-6.543-18.025-14.248
		c-4.584-7.801-5.85-15.402-3.796-22.802C98.303,570.887,103.504,564.733,111.854,559.827z M118.625,570.53
		c-5.94,3.49-9.637,7.508-11.09,12.053c-1.454,4.545-0.939,8.929,1.542,13.151c2.481,4.222,6.039,6.793,10.671,7.714
		c4.633,0.919,9.991-0.407,16.074-3.982c6.012-3.532,9.721-7.486,11.131-11.86c1.409-4.374,0.831-8.744-1.735-13.109
		c-2.565-4.365-6.13-7.005-10.694-7.917C129.959,565.666,124.66,566.983,118.625,570.53z"/>
	<path d="M126.223,639.385l45.639-40.239l7.905,8.966l-14.009,45.551l30.478-26.872l7.548,8.561l-45.639,40.239l-8.152-9.246
		l13.54-44.639l-29.762,26.24L126.223,639.385z"/>
	<path d="M172.479,689.004l37.863-47.629l35.315,28.074l-6.405,8.058l-25.699-20.43l-8.394,10.559l23.912,19.009l-6.379,8.025
		l-23.912-19.009l-10.305,12.963l26.608,21.152l-6.379,8.024L172.479,689.004z"/>
	<path d="M222.955,726.892l29.379-52.712l10.731,5.981l-24.388,43.757l26.683,14.872l-4.991,8.954L222.955,726.892z"/>
	<path d="M280.985,756.07l9.206-23.896l-8.13-40.894l13.439,5.178l4.708,27.61l21.745-17.42l13.207,5.088l-33.572,24.917
		l-9.176,23.818L280.985,756.07z"/>
	<path d="M400.714,783.637l-13.249-1.752l-3.455-14.397l-24.111-3.188l-6.79,13.043l-12.92-1.708l31.47-57.213l12.879,1.702
		L400.714,783.637z M381.445,756.807l-5.352-23.481l-11.106,21.306L381.445,756.807z"/>
	<path d="M413.754,783.324l-2.196-60.307l12.277-0.447l1.823,50.063l30.526-1.112l0.373,10.245L413.754,783.324z"/>
	<path d="M505.157,750.158l12.433,1.254c-0.425,6.874-2.386,12.325-5.882,16.351c-3.496,4.026-8.439,6.708-14.831,8.047
		c-7.907,1.657-14.973,0.317-21.196-4.019s-10.316-11.188-12.279-20.559c-2.077-9.912-1.131-18.146,2.838-24.702
		c3.97-6.557,10.124-10.708,18.466-12.456c7.285-1.526,13.653-0.613,19.105,2.739c3.241,1.979,6.038,5.209,8.391,9.691
		l-11.306,5.337c-1.352-2.939-3.331-5.069-5.939-6.389c-2.609-1.318-5.512-1.644-8.707-0.974c-4.414,0.925-7.664,3.26-9.748,7.004
		c-2.085,3.744-2.384,9.164-0.897,16.26c1.577,7.528,4.055,12.607,7.433,15.234c3.377,2.629,7.232,3.488,11.566,2.581
		c3.194-0.67,5.73-2.262,7.607-4.774C504.086,758.271,505.068,754.729,505.157,750.158z"/>
	<path d="M524.493,737.611c-2.414-5.708-3.586-10.859-3.517-15.456c0.067-3.393,0.724-6.689,1.969-9.89s2.949-5.903,5.11-8.109
		c2.866-2.954,6.58-5.396,11.143-7.325c8.257-3.491,15.946-3.724,23.069-0.697c7.122,3.026,12.613,9.102,16.471,18.225
		c3.826,9.047,4.359,17.166,1.602,24.354c-2.758,7.19-8.253,12.525-16.484,16.006c-8.333,3.523-16.034,3.783-23.103,0.779
		C533.685,752.493,528.265,746.531,524.493,737.611z M535.99,732.3c2.684,6.345,6.183,10.536,10.499,12.571
		c4.314,2.036,8.729,2.1,13.239,0.192s7.524-5.098,9.044-9.57c1.518-4.472,0.903-9.957-1.845-16.456
		c-2.716-6.422-6.149-10.617-10.302-12.587c-4.152-1.969-8.561-1.968-13.224,0.004c-4.664,1.972-7.747,5.161-9.248,9.566
		C532.652,720.426,533.265,725.853,535.99,732.3z"/>
	<path d="M605.17,733.813l-33.972-50.479l10.192-6.859l13.37,19.868l19.972-13.44l-13.371-19.867l10.192-6.859l33.971,50.478
		l-10.191,6.859l-14.854-22.071l-19.971,13.44l14.854,22.071L605.17,733.813z"/>
	<path d="M638.119,674.659c-4.373-4.392-7.387-8.731-9.041-13.021c-1.206-3.172-1.83-6.475-1.872-9.908s0.527-6.578,1.707-9.432
		c1.554-3.812,4.085-7.466,7.595-10.961c6.353-6.325,13.397-9.416,21.136-9.273c7.737,0.144,15.102,3.725,22.091,10.744
		c6.931,6.96,10.462,14.29,10.592,21.988c0.131,7.7-2.97,14.702-9.303,21.009c-6.411,6.384-13.457,9.505-21.136,9.361
		S644.953,681.521,638.119,674.659z M646.796,665.433c4.862,4.882,9.675,7.46,14.438,7.734c4.764,0.274,8.881-1.317,12.352-4.772
		c3.47-3.456,5.073-7.542,4.809-12.258c-0.264-4.715-2.885-9.573-7.863-14.573c-4.92-4.94-9.674-7.547-14.262-7.821
		c-4.587-0.273-8.675,1.376-12.263,4.948c-3.588,3.573-5.255,7.685-5.001,12.331C639.26,655.669,641.857,660.473,646.796,665.433z"
		/>
	<path d="M711.127,641.036l-49.434-34.612l7.047-10.063l41.035,28.732l17.521-25.022l8.397,5.88L711.127,641.036z"/>
	<path d="M741.507,594.679l-53.479-29.019l5.859-10.798l53.479,29.019L741.507,594.679z"/>
	<path d="M748.518,524.996l7.814-9.751c5.537,4.096,9.044,8.705,10.521,13.828c1.477,5.123,1.039,10.73-1.313,16.822
		c-2.911,7.537-7.878,12.737-14.9,15.602c-7.023,2.865-15,2.572-23.932-0.876c-9.447-3.648-15.842-8.92-19.186-15.817
		c-3.343-6.896-3.479-14.319-0.41-22.27c2.682-6.943,6.911-11.791,12.689-14.543c3.423-1.644,7.655-2.234,12.696-1.771l-1.67,12.392
		c-3.202-0.465-6.065,0.038-8.591,1.51c-2.526,1.472-4.377,3.73-5.554,6.776c-1.624,4.207-1.433,8.204,0.576,11.989
		c2.008,3.786,6.395,6.985,13.156,9.597c7.176,2.771,12.785,3.453,16.827,2.048c4.043-1.404,6.861-4.172,8.456-8.302
		c1.176-3.046,1.22-6.04,0.131-8.981S752.305,527.557,748.518,524.996z"/>
</g>
<path fill="none" stroke="#000000" stroke-width="10" stroke-miterlimit="10" d="M690.208,413.5
	c0,149.502-121.206,270.709-270.708,270.709c-149.509,0-270.708-121.207-270.708-270.709c0-149.509,121.2-270.708,270.708-270.708
	C569.002,142.792,690.208,263.991,690.208,413.5z"/>
<circle fill="none" stroke="#000000" stroke-width="10" stroke-miterlimit="10" cx="419.5" cy="413.5" r="400"/>
<g>
	<path d="M212.685,192.038l-8.809,10.051l-13.896-5.114l-16.03,18.291l7.084,12.886l-8.589,9.801l-30.139-57.926l8.563-9.77
		L212.685,192.038z M179.673,193.183l-22.506-8.576l11.563,21.062L179.673,193.183z"/>
	<path d="M233.009,148.291l11.734-4.296c2.616,6.371,3.23,12.13,1.84,17.278c-1.389,5.148-4.667,9.719-9.833,13.712
		c-6.393,4.941-13.335,6.818-20.826,5.632c-7.492-1.186-14.165-5.567-20.02-13.142c-6.193-8.012-8.934-15.834-8.223-23.465
		c0.711-7.631,4.438-14.053,11.181-19.265c5.889-4.552,12.018-6.509,18.386-5.871c3.779,0.366,7.706,2.052,11.779,5.059
		l-7.845,9.735c-2.499-2.056-5.209-3.108-8.132-3.157s-5.676,0.925-8.259,2.921c-3.568,2.758-5.474,6.277-5.716,10.556
		c-0.243,4.279,1.854,9.287,6.287,15.022c4.704,6.086,9.149,9.575,13.335,10.466c4.186,0.892,8.03-0.017,11.533-2.725
		c2.583-1.997,4.171-4.535,4.763-7.615C235.584,156.057,234.924,152.441,233.009,148.291z"/>
	<path d="M262.884,154.657l-27.227-54.413l10.986-5.498l10.716,21.417l21.528-10.772l-10.716-21.417l10.986-5.498l27.227,54.413
		l-10.986,5.498l-11.905-23.792l-21.528,10.772l11.905,23.792L262.884,154.657z"/>
	<path d="M316.442,130.011l-19.643-57.587l11.627-3.966l19.643,57.587L316.442,130.011z"/>
	<path d="M337.337,122.481l-12.134-59.623l44.208-8.997l2.053,10.086l-32.17,6.547l2.69,13.218l29.933-6.092l2.044,10.045
		l-29.933,6.092l3.302,16.228l33.309-6.779l2.044,10.045L337.337,122.481z"/>
	<path d="M406.141,112.22l-23.073-60.354l13.32-0.292l16.379,44.684l13.911-45.347l13.029-0.285l-20.454,61.307L406.141,112.22z"/>
	<path d="M444.748,112.227l9.438-60.108l44.568,6.999l-1.597,10.168l-32.432-5.093l-2.093,13.325l30.177,4.739l-1.59,10.127
		l-30.178-4.739l-2.568,16.36l33.58,5.273l-1.59,10.127L444.748,112.227z"/>
	<path d="M497.813,120.782l21.359-56.973l17.217,6.455l-4.232,42.738l24.79-35.03l17.255,6.469l-21.359,56.973l-10.687-4.007
		l16.813-44.847l-28.123,40.607l-11.075-4.152l5.543-49.073l-16.813,44.847L497.813,120.782z"/>
	<path d="M560.94,146.246l32.375-51.517l38.197,24.005l-5.477,8.715l-27.796-17.468l-7.178,11.421l25.864,16.253l-5.455,8.68
		l-25.863-16.253l-8.812,14.021l28.78,18.087l-5.455,8.68L560.94,146.246z"/>
	<path d="M606.459,175.703l41.35-44.635l8.769,8.124l-9.346,46.73l27.614-29.807l8.373,7.757l-41.351,44.635l-9.042-8.377
		l8.971-45.776l-26.965,29.107L606.459,175.703z"/>
	<path d="M656.85,227.459l40.384-30.408l-10.859-14.423l8.223-6.191l29.084,38.626l-8.223,6.191l-10.835-14.389l-40.383,30.408
		L656.85,227.459z"/>
</g>
<path fill="none" stroke="#000000" stroke-width="10" stroke-miterlimit="10" d="M737.491,484.571
	c17.234-77.01,6.731-160.452-35.836-234.181"/>
<path fill="none" stroke="#000000" stroke-width="10" stroke-miterlimit="10" d="M100.999,484.571
	c-17.234-77.01-6.731-160.452,35.836-234.181"/>
<path fill-rule="evenodd" clip-rule="evenodd" d="M430.547,420.979c4.442-0.219,105.832-0.211,141.131-0.478
	c6.432-0.05,8.554,1.162,8.1,8.302c-2.18,34.233-3.698,68.51-5.374,102.774c-0.646,13.184-1.134,26.378-1.601,39.57
	c-0.217,6.138-1.953,9.307-9.374,9.229c-39.38-0.412-78.766-0.26-118.148-0.11c-4.967,0.02-7.358-1.064-7.615-6.644
	c-2.23-48.415-4.717-96.818-7.104-145.226C430.448,426.073,430.547,423.737,430.547,420.979z M447.866,475.004
	c-3.787,0.135-5.967,0.949-5.684,5.212c0.891,13.363,0.865,26.851,2.752,40.067c2.038,14.285,10.471,20.523,24.844,20.552
	c23.741,0.046,47.483,0.049,71.225-0.032c12.318-0.043,20.945-5.382,23.009-17.259c2.712-15.616,3.226-31.613,4.739-48.036
	 M439.494,429.163l1.776,42.067l127.381-0.341l2.198-41.727H439.494z M505.498,547.036c-14.391,0-28.78,0.003-43.17-0.002
	c-15.039-0.006-15.102,0.058-14.614,15.349c0.016,0.479,0.031,0.959,0.035,1.438c0.034,5.312,2.866,8.025,8.017,8.036
	c32.857,0.059,65.714,0.065,98.571-0.008c4.761-0.012,7.676-2.334,7.515-7.544c-0.082-2.636,0.001-5.276-0.011-7.914
	c-0.04-8.506-0.85-9.333-9.576-9.351C536.676,547.009,521.087,547.031,505.498,547.036z"/>
<g>
	<g>
		<defs>
			<rect id="SVGID_1_" x="295.344" y="184.851" width="118.667" height="450.666"/>
		</defs>
		<clipPath id="SVGID_2_">
			<use xlink:href="#SVGID_1_"  overflow="visible"/>
		</clipPath>
		<g clip-path="url(#SVGID_2_)">
			<defs>
				<rect id="SVGID_3_" x="295.344" y="184.851" width="118.667" height="450.666"/>
			</defs>
			<clipPath id="SVGID_4_">
				<use xlink:href="#SVGID_3_"  overflow="visible"/>
			</clipPath>
			<path clip-path="url(#SVGID_4_)" fill="none" stroke="#000000" stroke-width="10" stroke-miterlimit="10" d="M305.976,375.494
				h100.302 M378.522,628.627l-8.19,0.391l-10.532,0.39h-8.58l-15.212-0.78l-5.46-0.389l-5.851-0.781l-7.021-1.95l-6.629-1.95
				l-3.122-1.561c0,0-2.274-1.886-3.12-3.119c-0.844-1.236-1.56-7.347-1.56-10.531v-7.021l1.951-242.993v-3.119l0.78-3.901
				l1.949-7.411l1.951-5.46l2.73-6.631c0,0,8.191-20.021,8.191-20.281c0,0,9.751-23.923,9.751-24.183c0,0,1.82-4.68,1.95-5.461
				l1.56-4.29l0.781-3.121l0.389-1.95c0,0,0.13-3.899,0-5.85c0-5.069,0.293-75.381,0.293-75.381l39.881,0.104v72.937l0.39,8.581
				l0.39,1.949c0,0,6.22,16.783,9.751,24.572c0,0.391,18.332,47.976,18.332,47.976l0.39,1.56l0.78,3.9l0.39,2.729l0.39,9.361v0.39
				l1.56,239.482l-0.391,12.092l-1.169,2.341l-1.17,1.561l-7.021,4.29l-8.971,1.95L378.522,628.627z M303.245,581.822h104.53
				 M335.228,272.522h40.564 M324.469,302.309c0,0,26.589,9.139,61.902,0 M315.029,323.522c0,0,34.636,16.688,80.636,0"/>
		</g>
	</g>
</g>
</svg>
