<?xml version="1.0" encoding="utf-8"?>
<!-- Generator: Adobe Illustrator 16.0.0, SVG Export Plug-In . SVG Version: 6.00 Build 0)  -->
<!DOCTYPE svg PUBLIC "-//W3C//DTD SVG 1.1//EN" "http://www.w3.org/Graphics/SVG/1.1/DTD/svg11.dtd">
<svg version="1.1" id="Layer_1" xmlns="http://www.w3.org/2000/svg" xmlns:xlink="http://www.w3.org/1999/xlink" x="0px" y="0px"
	 width="830px" height="826px" viewBox="0 0 830 826" enable-background="new 0 0 830 826" xml:space="preserve">
<g>
	<path d="M112.748,621.396l47.478-38.052l11.499,14.347l-25.482,34.57l39.212-17.438l11.525,14.38l-47.478,38.052l-7.138-8.906
		l37.373-29.954l-44.926,20.529l-7.398-9.229l29.846-39.346l-37.373,29.954L112.748,621.396z"/>
	<path d="M180.915,656.541c3.947-4.778,7.974-8.198,12.083-10.261c3.04-1.508,6.267-2.449,9.681-2.823
		c3.413-0.374,6.598-0.112,9.553,0.785c3.944,1.177,7.826,3.342,11.645,6.497c6.912,5.709,10.671,12.421,11.278,20.137
		c0.607,7.715-2.244,15.392-8.552,23.028c-6.256,7.573-13.209,11.797-20.859,12.674c-7.651,0.876-14.921-1.532-21.811-7.224
		c-6.976-5.763-10.765-12.473-11.366-20.129C171.964,671.568,174.747,664.008,180.915,656.541z M190.938,664.283
		c-4.388,5.312-6.488,10.352-6.298,15.119c0.188,4.768,2.171,8.711,5.947,11.83s7.998,4.318,12.666,3.599
		c4.667-0.72,9.249-3.8,13.742-9.239c4.44-5.376,6.574-10.36,6.403-14.952c-0.173-4.593-2.21-8.501-6.114-11.726
		s-8.157-4.485-12.757-3.782C199.926,655.836,195.396,658.886,190.938,664.283z"/>
	<path d="M228.232,707.241l11.019,4.776c-1.315,3.858-1.467,7.144-0.454,9.854c1.012,2.713,3.152,4.974,6.419,6.783
		c3.46,1.918,6.474,2.631,9.04,2.139c2.566-0.492,4.392-1.718,5.479-3.679c0.697-1.258,0.921-2.533,0.673-3.826
		c-0.249-1.293-1.112-2.775-2.589-4.447c-1.018-1.134-3.457-3.497-7.317-7.091c-4.969-4.62-8.039-8.613-9.209-11.982
		c-1.645-4.738-1.3-9.214,1.033-13.426c1.501-2.71,3.674-4.82,6.519-6.328c2.844-1.508,6.055-2.078,9.631-1.71
		c3.576,0.368,7.409,1.686,11.5,3.952c6.68,3.701,10.896,7.951,12.65,12.75c1.753,4.8,1.36,9.69-1.179,14.673l-11.007-5.481
		c1.055-2.99,1.158-5.503,0.31-7.539c-0.849-2.036-2.786-3.893-5.812-5.568c-3.122-1.73-5.922-2.443-8.399-2.14
		c-1.594,0.192-2.772,0.979-3.537,2.358c-0.698,1.259-0.762,2.631-0.193,4.116c0.725,1.889,3.359,4.898,7.903,9.029
		s7.703,7.55,9.477,10.257c1.774,2.707,2.735,5.596,2.884,8.668c0.149,3.071-0.709,6.289-2.573,9.653
		c-1.69,3.05-4.12,5.436-7.289,7.159c-3.169,1.725-6.662,2.375-10.477,1.953c-3.815-0.422-8.034-1.913-12.657-4.475
		c-6.729-3.728-11.034-8.146-12.917-13.254C225.278,719.31,225.635,713.584,228.232,707.241z"/>
	<path d="M290.027,759.59l16.932-47.632l-17.011-6.048l3.447-9.698l45.559,16.195l-3.447,9.698l-16.972-6.033l-16.932,47.632
		L290.027,759.59z"/>
	<path d="M364.326,718.095l24.203,2.396c4.791,0.474,8.344,1.027,10.659,1.659c2.315,0.633,4.339,1.674,6.072,3.124
		c1.733,1.451,3.115,3.291,4.146,5.52c1.031,2.229,1.417,4.651,1.158,7.268c-0.281,2.836-1.302,5.362-3.065,7.579
		s-4.011,3.788-6.743,4.713c3.583,1.438,6.238,3.551,7.964,6.335c1.727,2.785,2.417,5.926,2.07,9.422
		c-0.272,2.754-1.178,5.368-2.715,7.844c-1.538,2.475-3.493,4.381-5.863,5.717c-2.371,1.337-5.198,2.023-8.482,2.06
		c-2.06,0.019-6.988-0.33-14.786-1.046l-20.61-2.04L364.326,718.095z M373.17,753.461l-1.603,16.19l11.317,1.12
		c4.405,0.437,7.212,0.589,8.421,0.458c1.85-0.15,3.409-0.81,4.679-1.977c1.269-1.167,2.011-2.824,2.223-4.973
		c0.18-1.817-0.108-3.402-0.864-4.757c-0.756-1.353-1.938-2.401-3.547-3.145s-5.194-1.391-10.756-1.94L373.17,753.461z
		 M375.554,729.382l-1.386,14.002l8.012,0.793c4.764,0.472,7.73,0.695,8.901,0.672c2.117-0.04,3.833-0.601,5.15-1.68
		s2.071-2.596,2.265-4.551c0.186-1.873-0.18-3.444-1.097-4.718c-0.917-1.272-2.382-2.133-4.395-2.583
		c-1.198-0.257-4.674-0.671-10.429-1.24L375.554,729.382z"/>
	<path d="M421.234,754.065c-0.559-6.172-0.104-11.437,1.364-15.792c1.099-3.211,2.729-6.15,4.891-8.818s4.608-4.723,7.34-6.165
		c3.631-1.938,7.912-3.132,12.846-3.578c8.929-0.807,16.322,1.316,22.184,6.371c5.86,5.055,9.236,12.515,10.128,22.38
		c0.885,9.782-1.083,17.678-5.901,23.683c-4.819,6.006-11.679,9.411-20.58,10.216c-9.011,0.814-16.425-1.286-22.239-6.303
		C425.449,771.042,422.106,763.711,421.234,754.065z M433.804,752.513c0.62,6.861,2.675,11.92,6.164,15.175s7.673,4.661,12.551,4.22
		c4.877-0.44,8.721-2.56,11.531-6.355c2.81-3.796,3.897-9.208,3.262-16.235c-0.627-6.944-2.618-11.986-5.972-15.129
		c-3.354-3.142-7.553-4.484-12.596-4.028c-5.043,0.455-8.952,2.553-11.725,6.29C434.245,740.187,433.174,745.541,433.804,752.513z"
		/>
	<path d="M511.84,771.279l-13.408-48.741l-17.407,4.789l-2.73-9.924l46.62-12.825l2.73,9.924l-17.368,4.778l13.409,48.741
		L511.84,771.279z"/>
	<path d="M566.417,752.545l-20.887-46.034l-16.441,7.46l-4.253-9.373l44.031-19.979l4.253,9.373l-16.402,7.442l20.887,46.035
		L566.417,752.545z"/>
	<path d="M606.223,732.854l-33.203-50.392l10.259-6.76l27.563,41.832l25.508-16.808l5.64,8.561L606.223,732.854z"/>
	<path d="M653.658,700.024l-41.266-44.712l33.152-30.598l6.981,7.563l-24.125,22.266l9.148,9.913l22.447-20.718l6.953,7.533
		l-22.448,20.718l11.231,12.169l24.979-23.054l6.952,7.533L653.658,700.024z"/>
	<path d="M681.3,646.516l6.368-10.182c3.619,1.877,6.845,2.518,9.677,1.921c2.833-0.595,5.388-2.373,7.666-5.334
		c2.413-3.136,3.568-6.008,3.465-8.619c-0.104-2.61-1.043-4.6-2.819-5.967c-1.14-0.877-2.368-1.289-3.684-1.236
		c-1.314,0.053-2.909,0.685-4.784,1.896c-1.272,0.837-3.973,2.896-8.104,6.176c-5.31,4.224-9.718,6.662-13.224,7.315
		c-4.931,0.919-9.305-0.09-13.12-3.026c-2.456-1.89-4.218-4.354-5.283-7.392c-1.067-3.037-1.151-6.297-0.253-9.777
		c0.897-3.481,2.772-7.074,5.625-10.78c4.657-6.053,9.489-9.587,14.497-10.604c5.007-1.017,9.784,0.103,14.332,3.356l-7.064,10.065
		c-2.799-1.489-5.269-1.967-7.408-1.433c-2.141,0.536-4.265,2.174-6.374,4.915c-2.177,2.828-3.3,5.491-3.369,7.985
		c-0.048,1.605,0.553,2.888,1.803,3.85c1.141,0.878,2.487,1.146,4.042,0.806c1.976-0.435,5.345-2.591,10.107-6.467
		c4.764-3.876,8.616-6.488,11.558-7.839c2.941-1.35,5.941-1.868,9.001-1.557s6.113,1.641,9.161,3.986
		c2.763,2.126,4.76,4.885,5.991,8.275c1.23,3.392,1.353,6.942,0.366,10.651c-0.987,3.71-3.092,7.658-6.314,11.847
		c-4.691,6.097-9.703,9.693-15.035,10.793C692.791,651.239,687.184,650.031,681.3,646.516z"/>
</g>
<path fill="none" stroke="#000000" stroke-width="15" stroke-miterlimit="10" d="M498.693,481.782 M342.229,481.782
	 M499.938,672.057 M339.271,672.121 M387.861,321.156 M467.64,367.619 M482.138,400.711 M356.352,400.712"/>
<path fill="none" stroke="#000000" stroke-width="10" stroke-miterlimit="10" d="M690.208,413.5
	c0,149.502-121.206,270.709-270.708,270.709c-149.509,0-270.708-121.207-270.708-270.709c0-149.509,121.2-270.708,270.708-270.708
	C569.002,142.792,690.208,263.991,690.208,413.5z"/>
<circle fill="none" stroke="#000000" stroke-width="10" stroke-miterlimit="10" cx="419.5" cy="413.5" r="400"/>
<g>
	<path d="M212.685,192.038l-8.809,10.051l-13.896-5.114l-16.03,18.291l7.084,12.886l-8.589,9.801l-30.139-57.926l8.563-9.77
		L212.685,192.038z M179.673,193.183l-22.506-8.576l11.563,21.062L179.673,193.183z"/>
	<path d="M233.009,148.291l11.734-4.296c2.616,6.371,3.23,12.13,1.84,17.278c-1.389,5.148-4.667,9.719-9.833,13.712
		c-6.393,4.941-13.335,6.818-20.826,5.632c-7.492-1.186-14.165-5.567-20.02-13.142c-6.193-8.012-8.934-15.834-8.223-23.465
		c0.711-7.631,4.438-14.053,11.181-19.265c5.889-4.552,12.018-6.509,18.386-5.871c3.779,0.366,7.706,2.052,11.779,5.059
		l-7.845,9.735c-2.499-2.056-5.209-3.108-8.132-3.157s-5.676,0.925-8.259,2.921c-3.568,2.758-5.474,6.277-5.716,10.556
		c-0.243,4.279,1.854,9.287,6.287,15.022c4.704,6.086,9.149,9.575,13.335,10.466c4.186,0.892,8.03-0.017,11.533-2.725
		c2.583-1.997,4.171-4.535,4.763-7.615C235.584,156.057,234.924,152.441,233.009,148.291z"/>
	<path d="M262.884,154.657l-27.227-54.413l10.986-5.498l10.716,21.417l21.528-10.772l-10.716-21.417l10.986-5.498l27.227,54.413
		l-10.986,5.498l-11.905-23.792l-21.528,10.772l11.905,23.792L262.884,154.657z"/>
	<path d="M316.442,130.011l-19.643-57.587l11.627-3.966l19.643,57.587L316.442,130.011z"/>
	<path d="M337.337,122.481l-12.134-59.623l44.208-8.997l2.053,10.086l-32.17,6.547l2.69,13.218l29.933-6.092l2.044,10.045
		l-29.933,6.092l3.302,16.228l33.309-6.779l2.044,10.045L337.337,122.481z"/>
	<path d="M406.141,112.22l-23.073-60.354l13.32-0.292l16.379,44.684l13.911-45.347l13.029-0.285l-20.454,61.307L406.141,112.22z"/>
	<path d="M444.748,112.227l9.438-60.108l44.568,6.999l-1.597,10.168l-32.432-5.093l-2.093,13.325l30.177,4.739l-1.59,10.127
		l-30.178-4.739l-2.568,16.36l33.58,5.273l-1.59,10.127L444.748,112.227z"/>
	<path d="M497.813,120.782l21.359-56.973l17.217,6.455l-4.232,42.738l24.79-35.03l17.255,6.469l-21.359,56.973l-10.687-4.007
		l16.813-44.847l-28.123,40.607l-11.075-4.152l5.543-49.073l-16.813,44.847L497.813,120.782z"/>
	<path d="M560.94,146.246l32.375-51.517l38.197,24.005l-5.477,8.715l-27.796-17.468l-7.178,11.421l25.864,16.253l-5.455,8.68
		l-25.863-16.253l-8.812,14.021l28.78,18.087l-5.455,8.68L560.94,146.246z"/>
	<path d="M606.459,175.703l41.35-44.635l8.769,8.124l-9.346,46.73l27.614-29.807l8.373,7.757l-41.351,44.635l-9.042-8.377
		l8.971-45.776l-26.965,29.107L606.459,175.703z"/>
	<path d="M656.85,227.459l40.384-30.408l-10.859-14.423l8.223-6.191l29.084,38.626l-8.223,6.191l-10.835-14.389l-40.383,30.408
		L656.85,227.459z"/>
</g>
<path fill="none" stroke="#000000" stroke-width="10" stroke-miterlimit="10" d="M726.245,522.876
	c26.489-74.335,26.235-158.437-7.03-236.803"/>
<path fill="none" stroke="#000000" stroke-width="10" stroke-miterlimit="10" d="M110.377,517.341
	c-25.19-74.787-23.466-158.87,11.161-236.645"/>
<path fill-rule="evenodd" clip-rule="evenodd" d="M411.915,303.106c13.828,0,27.307,0,42.256,0
	c0.762,48.41-0.333,96.642,0.341,145.762c14.616,0,28.347,0,43.644,0c0.156,14.53,0.024,28.17-0.108,42.599
	c-47.424,0-94.323,0-141.89,0c0-13.866,0-27.581,0-42.282c15.132,0,29.855,0,46.056,0c0.085-28.428,0.014-55.858-0.997-84.796
	c-13.647,3.907-26.122,7.48-39.484,11.304c0-13.694,0-26.886,0-40.367C380.569,327.854,400.617,322.171,411.915,303.106z"/>
<path fill-rule="evenodd" clip-rule="evenodd" d="M398.667,554.205c6.693-12.541,20.499-38.406,20.499-38.406l18.624,39.767
	l41.198,7.924l-24.887,25.041c8.793,3.106,16.817,6.105,22.438,15.172c-8.968,1.629-16.876,1.091-26.064-0.967l4.207,33.018
	l-38.02-20.903l-39.01,18.998c0,0,3.387-19.258,5.142-29.229c-7.507,0-14.611,0-23.092,0c4.867-10.135,13.228-12.933,22.585-15.967
	l-25.815-28.947C356.472,559.704,384.208,556.09,398.667,554.205z"/>
<path fill-rule="evenodd" clip-rule="evenodd" d="M512.565,252.275c-7.001-3.531-12.528-6.321-18.583-9.375
	c-5.55,2.644-11.39,5.427-18.73,8.926c0.926-7.538,1.698-13.82,2.498-20.328c-4.63-4.839-9.115-9.523-14.377-15.02
	c7.27-1.32,13.54-2.457,20.643-3.744c2.776-5.329,5.783-11.095,9.662-18.535c3.72,6.944,6.855,12.792,9.962,18.594
	c6.773,1.192,13.17,2.319,21.384,3.767c-6.058,4.918-11.107,9.018-15.491,12.578C510.657,237.722,511.5,244.143,512.565,252.275z"/>
<path fill-rule="evenodd" clip-rule="evenodd" d="M522.692,255.087c7.42-1.34,13.74-2.481,20.391-3.681
	c3.093-5.854,6.126-11.595,9.77-18.488c3.537,6.599,6.632,12.378,9.949,18.571c6.354,1.083,12.679,2.161,21.674,3.692
	c-6.999,5.198-12.171,9.036-16.053,11.917c1.182,9.406,1.985,15.79,2.973,23.634c-6.821-3.423-12.273-6.165-18.196-9.14
	c-5.943,2.841-12.003,5.741-19.109,9.14c1.074-7.231,1.972-13.27,3.018-20.318C532.969,266.014,528.321,261.072,522.692,255.087z"/>
<path fill-rule="evenodd" clip-rule="evenodd" d="M435.197,217.879c0.926,6.823,1.791,13.207,2.854,21.043
	c-7.077-3.479-12.823-6.301-18.755-9.217c-5.968,2.92-11.783,5.763-18.587,9.091c0.899-7.304,1.683-13.68,2.536-20.588
	c-4.305-4.622-8.668-9.308-14.04-15.075c7.615-1.328,13.934-2.429,20.277-3.537c3.062-5.832,5.925-11.282,9.72-18.507
	c3.56,6.607,6.516,12.094,9.912,18.401c5.848,1.064,12.154,2.215,20.517,3.74C444.29,208.653,440.115,212.889,435.197,217.879z"/>
<path fill-rule="evenodd" clip-rule="evenodd" d="M285.631,232.827c3.8,7.192,6.661,12.605,9.792,18.529
	c6.179,1.127,12.497,2.278,20.365,3.712c-5.298,5.6-9.64,10.187-14.177,14.981c0.911,6.469,1.812,12.857,2.941,20.882
	c-6.786-3.395-12.419-6.209-18.825-9.414c-5.472,2.717-11.25,5.584-18.573,9.219c0.949-7.757,1.75-14.308,2.721-22.249
	c-4.303-3.747-8.956-7.795-15.18-13.215c8.368-1.537,14.898-2.739,21.276-3.911C279.113,245.333,281.958,239.875,285.631,232.827z"
	/>
<path fill-rule="evenodd" clip-rule="evenodd" d="M363.369,251.936c-6.997-3.419-12.421-6.071-18.534-9.058
	c-5.685,2.845-11.774,5.891-18.838,9.424c1.047-7.225,1.967-13.583,3.005-20.744c-4.294-4.544-8.926-9.446-14.362-15.199
	c7.215-1.269,13.205-2.325,20.227-3.56c2.882-5.32,6.101-11.268,9.924-18.328c3.657,6.766,6.804,12.585,9.913,18.332
	c6.719,1.157,13.096,2.258,21.818,3.761c-6.527,4.912-11.741,8.833-16.953,12.754C359.955,230.229,362.329,244.11,363.369,251.936z"
	/>
<path fill-rule="evenodd" clip-rule="evenodd" d="M253.778,317.653c1.242,16.232-5.311,26.984-17.41,29.402
	C232.031,336.361,238.239,325.499,253.778,317.653z"/>
<path fill-rule="evenodd" clip-rule="evenodd" d="M599.816,347.472c-12.935-3.497-19.467-15.001-17.209-29.352
	C596.749,324.147,603.673,335.518,599.816,347.472z"/>
<path fill-rule="evenodd" clip-rule="evenodd" d="M537.059,530.279c5.562,14.594,1.425,27.696-9.736,32.477
	C520.426,553.962,523.681,542.623,537.059,530.279z"/>
<path fill-rule="evenodd" clip-rule="evenodd" d="M618.991,411.096c-6.489-10.413-2.183-23.944,10.058-31.602
	C634.078,393.852,629.754,407.44,618.991,411.096z"/>
<path fill-rule="evenodd" clip-rule="evenodd" d="M613.52,337.15c9.17,15.475,9.18,25.928,0.038,34.167
	C603.643,363.044,603.626,348.678,613.52,337.15z"/>
<path fill-rule="evenodd" clip-rule="evenodd" d="M251.823,378.032c-5.273,16.722-13.198,23.942-25.166,22.875
	c-2.271-5.659,0.735-10.007,4.366-13.605C236.634,381.742,242.899,376.998,251.823,378.032z"/>
<path fill-rule="evenodd" clip-rule="evenodd" d="M582.543,511.949c-10.408-7.641-11.958-17.907-5.49-33.395
	C588.219,487.211,590.706,500.986,582.543,511.949z"/>
<path fill-rule="evenodd" clip-rule="evenodd" d="M222.735,337.228c9.367,11.883,9.54,24.436,0.466,33.892
	C213.219,364.677,213.048,352.246,222.735,337.228z"/>
<path fill-rule="evenodd" clip-rule="evenodd" d="M217.148,411.563c-11.003-4.863-14.434-15.615-10.704-31.88
	C218.443,385.5,223.373,399.432,217.148,411.563z"/>
<path fill-rule="evenodd" clip-rule="evenodd" d="M253.569,511.966c-7.965-10.336-6.292-21.798,4.364-33.521
	C265.977,489.301,264.281,503.852,253.569,511.966z"/>
<path fill-rule="evenodd" clip-rule="evenodd" d="M244.896,411.96c0.629,15.669-4.521,25.025-16.194,29.411
	C222.22,431.125,230.178,416.672,244.896,411.96z"/>
<path fill-rule="evenodd" clip-rule="evenodd" d="M586.267,445.29c12.519,6.205,17.624,16.902,14.202,30.097
	c-4.365,1.915-7.014-0.971-9.428-3.829C586.063,465.669,584.346,455.636,586.267,445.29z"/>
<path fill-rule="evenodd" clip-rule="evenodd" d="M207.943,463.857c17.07,4.916,24.013,12.612,23.307,25.082
	C219.702,490.695,212.018,482.689,207.943,463.857z"/>
<path fill-rule="evenodd" clip-rule="evenodd" d="M628.342,464.215c-5.005,18.774-11.523,25.683-23.111,25.199
	C603.374,476.865,611.264,467.976,628.342,464.215z"/>
<path fill-rule="evenodd" clip-rule="evenodd" d="M221.947,503.445c17.89,1.317,27.115,8.354,27.813,20.513
	C238.121,526.496,228.222,519.377,221.947,503.445z"/>
<path fill-rule="evenodd" clip-rule="evenodd" d="M298.765,530.196c12.446,11.034,16.142,22.101,11.118,32.192
	C298.344,560.274,293.363,546.657,298.765,530.196z"/>
<path fill-rule="evenodd" clip-rule="evenodd" d="M201.124,422.719c15.786,6.841,22.571,18.301,17.647,28.917
	C207.075,449.102,200.77,439.093,201.124,422.719z"/>
<path fill-rule="evenodd" clip-rule="evenodd" d="M557.069,552.394c4.855-11.648,17.002-16.207,31.441-11.797
	C581.014,553.571,567.563,558.615,557.069,552.394z"/>
<path fill-rule="evenodd" clip-rule="evenodd" d="M608.433,441.328c-12.263-3.539-16.931-11.479-17.574-28.929
	C603.968,414.872,612.216,427.961,608.433,441.328z"/>
<path fill-rule="evenodd" clip-rule="evenodd" d="M235.145,475.444c-2.469-14.172,1.934-23.143,14.305-30.224
	C253.342,461.165,247.462,474.096,235.145,475.444z"/>
<path fill-rule="evenodd" clip-rule="evenodd" d="M614.238,503.648c-6.935,15.849-15.546,22.212-27.366,20.765
	C585.692,512.591,596.409,504.203,614.238,503.648z"/>
<path fill-rule="evenodd" clip-rule="evenodd" d="M279.025,552.329c-9.992,6.071-20.795,2.392-31.8-10.831
	C259.669,535.433,273.807,540.247,279.025,552.329z"/>
<path fill-rule="evenodd" clip-rule="evenodd" d="M634.824,422.706c0.533,15.414-4.94,24.838-16.546,29.313
	C611.328,442.991,618.447,429.935,634.824,422.706z"/>
<path fill-rule="evenodd" clip-rule="evenodd" d="M555.359,569.687c-10.788,10.926-23.357,13.349-33.339,6.429
	C528.158,564.614,541.209,562.096,555.359,569.687z"/>
<path fill-rule="evenodd" clip-rule="evenodd" d="M262.474,354.089c-7.351,14.689-18.53,20.815-29.441,16.135
	C236.668,357.347,247.618,351.348,262.474,354.089z"/>
<path fill-rule="evenodd" clip-rule="evenodd" d="M573.643,354.171c14.625-2.884,25.586,3.086,29.36,15.99
	C592.198,374.935,581.172,368.931,573.643,354.171z"/>
<path fill-rule="evenodd" clip-rule="evenodd" d="M583.98,377.963c15.749,1.212,25.013,9.489,25.728,22.111
	C599.137,403.497,590.232,396.017,583.98,377.963z"/>
<path fill-rule="evenodd" clip-rule="evenodd" d="M326.437,549.5c15.379,5.233,22.69,14.488,21.153,26.781
	C335.365,576.604,326.799,565.759,326.437,549.5z"/>
<path fill-rule="evenodd" clip-rule="evenodd" d="M488.572,577.041c-1.665-13.068,5.73-22.439,20.915-27.417
	C509.179,565.142,501.836,575.011,488.572,577.041z"/>
<path fill-rule="evenodd" clip-rule="evenodd" d="M314.217,576.343c-11.12,6.392-21.963,4.181-33.566-6.376
	C293.446,562.076,307.46,564.524,314.217,576.343z"/>
<path fill-rule="evenodd" clip-rule="evenodd" d="M274.754,506.479c11.044,11.26,13.147,23.393,6.239,33.131
	C270.283,535.183,267.622,522.098,274.754,506.479z"/>
<path fill-rule="evenodd" clip-rule="evenodd" d="M560.883,507.092c7.458,12.569,5.316,26.32-5.101,32.749
	C547.67,530.983,549.711,517.877,560.883,507.092z"/>
<path fill-rule="evenodd" clip-rule="evenodd" d="M482.525,588.68c10.017-8.802,24.07-7.07,33.671,3.615
	C502.641,599.223,490.311,598.065,482.525,588.68z"/>
<path fill-rule="evenodd" clip-rule="evenodd" d="M319.099,592.66c11.224-11.341,24.93-12.769,33.937-4.154
	C346.878,597.74,335.728,599.251,319.099,592.66z"/>
</svg>
