<?xml version="1.0" encoding="utf-8"?>
<!-- Generator: Adobe Illustrator 16.0.0, SVG Export Plug-In . SVG Version: 6.00 Build 0)  -->
<!DOCTYPE svg PUBLIC "-//W3C//DTD SVG 1.1//EN" "http://www.w3.org/Graphics/SVG/1.1/DTD/svg11.dtd">
<svg version="1.1" id="Layer_1" xmlns="http://www.w3.org/2000/svg" xmlns:xlink="http://www.w3.org/1999/xlink" x="0px" y="0px"
	 width="830px" height="826px" viewBox="0 0 830 826" enable-background="new 0 0 830 826" xml:space="preserve">
<g>
	<path d="M76.211,552.256l54.768-26.506l5.207,10.76l-25.726,40.115l36.574-17.7l4.972,10.272l-54.769,26.506l-5.369-11.096
		l25.028-39.363l-35.715,17.284L76.211,552.256z"/>
	<path d="M130.095,593.148c4.961-3.715,9.681-6.091,14.159-7.127c3.31-0.75,6.667-0.905,10.073-0.465
		c3.404,0.438,6.438,1.442,9.1,3.012c3.556,2.073,6.819,5.091,9.788,9.057c5.373,7.177,7.446,14.585,6.22,22.227
		c-1.227,7.641-5.805,14.431-13.732,20.367c-7.863,5.888-15.616,8.354-23.258,7.406c-7.642-0.95-14.141-5.003-19.497-12.156
		c-5.423-7.242-7.525-14.655-6.307-22.238C117.857,605.646,122.342,598.953,130.095,593.148z M138.014,603.032
		c-5.515,4.13-8.743,8.533-9.681,13.212c-0.939,4.679,0.059,8.978,2.994,12.897s6.756,6.08,11.462,6.479
		c4.706,0.399,9.883-1.515,15.53-5.744c5.582-4.179,8.829-8.521,9.743-13.022c0.914-4.504-0.146-8.783-3.181-12.836
		c-3.035-4.055-6.871-6.28-11.508-6.68S143.617,598.838,138.014,603.032z"/>
	<path d="M170.649,686.521l40.27-45.612l9.209,8.131l-40.27,45.612L170.649,686.521z"/>
	<path d="M192.251,706.181l33.433-50.836l15.362,10.104l-13.582,40.743l31.926-28.679l15.396,10.126l-33.435,50.836l-9.536-6.272
		l26.318-40.017l-36.409,33.381l-9.883-6.5l16.262-46.631l-26.317,40.017L192.251,706.181z"/>
	<path d="M293.803,737.036l3.754-9.539l24.64,9.698l-8.877,22.555c-3.306,1.375-7.58,2.051-12.816,2.024
		c-5.238-0.025-10.188-0.955-14.849-2.789c-5.922-2.331-10.595-5.604-14.02-9.822c-3.425-4.218-5.335-9.071-5.73-14.564
		s0.478-10.956,2.615-16.39c2.321-5.896,5.619-10.648,9.896-14.259c4.274-3.609,9.274-5.7,15.002-6.271
		c4.369-0.45,9.258,0.389,14.665,2.517c7.029,2.768,11.938,6.401,14.73,10.905s3.73,9.579,2.816,15.226l-12.19-2.346
		c0.296-3.095-0.34-5.88-1.908-8.354c-1.567-2.476-4-4.362-7.295-5.659c-4.995-1.966-9.589-1.945-13.783,0.061
		c-4.195,2.007-7.519,6.126-9.972,12.356c-2.645,6.72-3.136,12.348-1.471,16.883c1.664,4.535,4.916,7.756,9.757,9.661
		c2.396,0.941,4.98,1.418,7.757,1.425c2.777,0.009,5.292-0.317,7.544-0.978l2.828-7.185L293.803,737.036z"/>
	<path d="M405.02,783.825l-13.268-1.598l-3.622-14.356l-24.147-2.907l-6.638,13.12l-12.939-1.558l30.804-57.575l12.897,1.553
		L405.02,783.825z M385.44,757.222l-5.624-23.419l-10.858,21.434L385.44,757.222z"/>
	<path d="M426.493,782.858l-23.938-60.017l13.313-0.482l17.021,44.444l13.258-45.543l13.023-0.474l-19.569,61.596L426.493,782.858z"
		/>
	<path d="M521.081,770.023l-13.111,2.583l-7.884-12.533l-23.862,4.7l-2.257,14.531l-12.786,2.519l11.492-64.277l12.745-2.512
		L521.081,770.023z M494.236,750.776l-12.59-20.531l-3.699,23.74L494.236,750.776z"/>
	<path d="M531.273,765.701l-19.337-57.689l11.648-3.904l19.336,57.69L531.273,765.701z"/>
	<path d="M558.355,756.431l-25.594-54.65l11.126-5.21l21.245,45.366l27.664-12.955l4.348,9.284L558.355,756.431z"/>
	<path d="M655.36,699.379l-10.964,7.642l-12.261-8.301l-19.953,13.905l3.782,14.211l-10.691,7.451l-15.349-63.468l10.658-7.428
		L655.36,699.379z M623.038,692.563l-19.788-13.729l6.169,23.223L623.038,692.563z"/>
	<path d="M622.028,647.518l17.075-17.319c3.38-3.428,6.044-5.844,7.99-7.246s4.028-2.322,6.246-2.76
		c2.218-0.436,4.518-0.354,6.898,0.245c2.381,0.6,4.508,1.822,6.38,3.667c2.029,2.001,3.353,4.384,3.969,7.146
		c0.616,2.766,0.426,5.502-0.572,8.207c3.371-1.882,6.683-2.618,9.934-2.213c3.251,0.408,6.127,1.847,8.629,4.313
		c1.972,1.941,3.437,4.29,4.395,7.042c0.959,2.752,1.213,5.47,0.763,8.152c-0.451,2.685-1.694,5.314-3.729,7.893
		c-1.28,1.614-4.649,5.229-10.107,10.843l-14.54,14.747L622.028,647.518z M637.864,645.881l10.021,9.878l5.652-5.733
		c3.36-3.409,5.399-5.575,6.117-6.5c1.298-1.672,1.942-3.359,1.931-5.062c-0.013-1.702-0.718-3.243-2.116-4.622
		c-1.34-1.321-2.792-2.025-4.358-2.112c-1.564-0.086-3.156,0.512-4.771,1.795c-0.953,0.771-3.46,3.214-7.521,7.332L637.864,645.881z
		 M655.095,662.867l11.586,11.423l7.983-8.098c3.107-3.152,4.99-5.24,5.648-6.262c1.046-1.534,1.514-3.161,1.404-4.882
		c-0.11-1.722-0.935-3.341-2.472-4.854c-1.301-1.282-2.715-2.055-4.241-2.318c-1.528-0.262-3.088-0.002-4.677,0.782
		c-1.59,0.784-4.346,3.166-8.27,7.146L655.095,662.867z"/>
	<path d="M711.618,640.406L662.111,605.9l7.024-10.079l41.098,28.646l17.467-25.062l8.41,5.861L711.618,640.406z"/>
	<path d="M743.535,592.313l-54.919-26.192l19.421-40.721l9.291,4.432l-14.133,29.633l12.176,5.807l13.149-27.572l9.253,4.413
		l-13.15,27.572l14.947,7.129l14.633-30.682l9.254,4.413L743.535,592.313z"/>
</g>
<path fill="none" stroke="#000000" stroke-width="10" stroke-miterlimit="10" d="M690.207,413.5
	c0,149.503-121.205,270.709-270.707,270.709c-149.51,0-270.708-121.207-270.708-270.709c0-149.509,121.2-270.708,270.708-270.708
	C569.002,142.792,690.207,263.991,690.207,413.5z"/>
<circle fill="none" stroke="#000000" stroke-width="10" stroke-miterlimit="10" cx="419.5" cy="413.5" r="400"/>
<g>
	<path d="M212.685,192.038l-8.809,10.051l-13.896-5.113l-16.029,18.291l7.084,12.886l-8.59,9.801l-30.139-57.926l8.563-9.771
		L212.685,192.038z M179.673,193.183l-22.506-8.576l11.563,21.062L179.673,193.183z"/>
	<path d="M233.009,148.291l11.734-4.296c2.615,6.371,3.229,12.13,1.84,17.278c-1.39,5.147-4.667,9.719-9.833,13.712
		c-6.394,4.941-13.335,6.818-20.826,5.632c-7.492-1.186-14.165-5.567-20.021-13.142c-6.192-8.013-8.934-15.834-8.223-23.465
		c0.711-7.632,4.438-14.054,11.181-19.266c5.89-4.552,12.019-6.509,18.387-5.871c3.778,0.366,7.706,2.053,11.778,5.06l-7.845,9.734
		c-2.499-2.056-5.209-3.107-8.132-3.156c-2.923-0.05-5.676,0.925-8.259,2.921c-3.568,2.758-5.475,6.276-5.716,10.556
		c-0.243,4.279,1.854,9.287,6.286,15.022c4.704,6.086,9.149,9.574,13.335,10.466c4.187,0.892,8.03-0.018,11.533-2.726
		c2.583-1.997,4.171-4.535,4.764-7.614C235.584,156.057,234.924,152.441,233.009,148.291z"/>
	<path d="M262.884,154.657l-27.228-54.413l10.986-5.498l10.716,21.417l21.528-10.771l-10.716-21.417l10.985-5.498l27.228,54.413
		l-10.986,5.498l-11.904-23.792l-21.528,10.771l11.905,23.792L262.884,154.657z"/>
	<path d="M316.442,130.011l-19.643-57.588l11.627-3.966l19.643,57.587L316.442,130.011z"/>
	<path d="M337.337,122.481l-12.135-59.623l44.208-8.997l2.054,10.086l-32.17,6.547l2.689,13.218l29.933-6.092l2.045,10.045
		l-29.934,6.092l3.302,16.229l33.31-6.779l2.044,10.045L337.337,122.481z"/>
	<path d="M406.141,112.22l-23.073-60.354l13.32-0.292l16.379,44.684l13.911-45.347l13.029-0.285l-20.454,61.308L406.141,112.22z"/>
	<path d="M444.747,112.227l9.438-60.108l44.568,6.999l-1.598,10.168l-32.432-5.093l-2.093,13.325l30.177,4.738l-1.59,10.127
		l-30.178-4.738l-2.568,16.359l33.58,5.273l-1.59,10.127L444.747,112.227z"/>
	<path d="M497.813,120.782l21.359-56.973l17.217,6.455l-4.232,42.737l24.79-35.029l17.255,6.469l-21.358,56.973l-10.688-4.007
		l16.813-44.847l-28.123,40.606l-11.075-4.151l5.543-49.073L508.5,124.789L497.813,120.782z"/>
	<path d="M560.94,146.246l32.375-51.517l38.197,24.005l-5.478,8.715l-27.796-17.468l-7.178,11.421l25.864,16.253l-5.455,8.68
		l-25.863-16.253l-8.812,14.021l28.779,18.087l-5.455,8.68L560.94,146.246z"/>
	<path d="M606.459,175.703l41.35-44.635l8.769,8.124l-9.346,46.729l27.614-29.807l8.373,7.757l-41.352,44.635l-9.042-8.377
		l8.972-45.775l-26.966,29.106L606.459,175.703z"/>
	<path d="M656.85,227.459l40.384-30.407l-10.858-14.424l8.223-6.19l29.084,38.626l-8.223,6.19l-10.836-14.389l-40.383,30.408
		L656.85,227.459z"/>
</g>
<path fill="none" stroke="#000000" stroke-width="10" stroke-miterlimit="10" d="M737.49,484.571
	c17.234-77.01,6.731-160.452-35.836-234.181"/>
<path fill="none" stroke="#000000" stroke-width="10" stroke-miterlimit="10" d="M100.999,484.571
	c-17.234-77.01-6.731-160.452,35.836-234.181"/>
<path fill-rule="evenodd" clip-rule="evenodd" d="M528.83,558.149c4.513-2.842,18.609-16.505,21.009-20.356
	c-0.324-0.321-0.648-0.682-1.013-0.997c-0.935-0.811-1.87-1.621-2.834-2.396c-6.131-4.932-9.623-11.434-11.078-19.043
	c-1.789-9.35-0.646-18.381,3.45-27.005c0.318-0.669,0.642-1.346,1.05-1.96c1.063-1.601,2.746-2.094,4.547-1.367
	c0.457,0.184,0.883,0.445,1.317,0.68c2.465,1.333,4.935,2.657,7.392,4.003c8.507,4.655,13.275,11.84,14.483,21.43
	c0.082,0.654,0.168,1.309,0.271,1.96c0.024,0.155,0.124,0.299,0.247,0.58c0.254-0.238,0.53-0.408,0.681-0.654
	c4.863-7.958,9.095-16.234,12.674-24.987c-0.479-0.301-0.85-0.608-1.274-0.786c-1.444-0.603-2.903-1.171-4.364-1.731
	c-4.888-1.876-8.951-4.903-12.261-8.923c-5.115-6.209-8.006-13.381-9.068-21.33c-0.495-3.705-0.51-7.396,0.026-11.094
	c0.06-0.407,0.071-0.825,0.162-1.226c0.496-2.219,2.087-3.376,4.346-3.054c2.282,0.326,4.552,0.75,6.825,1.145
	c1.704,0.295,3.432,0.508,5.104,0.938c8.439,2.17,14.383,7.381,18.22,15.121c0.349,0.704,0.447,1.579,1.201,2.122
	c1.788-4.796,4.517-24.096,4.042-28.692c-0.422-0.072-0.886-0.191-1.354-0.225c-1.48-0.104-2.962-0.22-4.445-0.256
	c-5.867-0.14-11.171-2.023-15.961-5.312c-8.717-5.983-14.309-14.209-17.104-24.367c-0.328-1.19-0.595-2.403-0.798-3.62
	c-0.38-2.261,0.704-4.021,2.894-4.417c4.053-0.734,8.109-1.575,12.203-1.93c8.47-0.735,15.691,2.21,21.751,8.112
	c0.696,0.679,1.406,1.346,2.117,2.025c0.49-3.523-3.206-23.536-5.307-28.566c-0.579,0.097-1.215,0.149-1.818,0.315
	c-1.985,0.545-3.936,1.239-5.943,1.68c-5.69,1.251-11.328,0.849-16.823-1.006c-10.266-3.467-18.092-9.972-23.596-19.289
	c-0.125-0.213-0.253-0.426-0.363-0.646c-1.127-2.24-0.691-4.038,1.473-5.253c3.375-1.896,6.739-3.842,10.246-5.472
	c7.986-3.711,15.978-3.342,23.863,0.447c0.74,0.355,1.471,0.732,2.209,1.091c0.064,0.031,0.156,0.004,0.259,0.004
	c0.396-0.416-0.016-0.769-0.159-1.085c-3.383-7.434-10.88-20.24-14.156-24.183c-0.393,0.195-0.847,0.356-1.23,0.621
	c-1.355,0.938-2.681,1.919-4.028,2.87c-4.782,3.375-10.163,5.1-15.952,5.384c-11.199,0.549-21.092-2.941-29.733-10.043
	c-0.57-0.47-1.141-0.958-1.63-1.511c-1.227-1.387-1.289-2.997-0.234-4.531c0.14-0.203,0.303-0.392,0.471-0.573
	c2.583-2.777,5.083-5.64,7.775-8.307c4.106-4.068,9.103-6.413,14.831-7.282c5.457-0.827,10.666,0.043,15.759,1.98
	c0.83,0.316,1.658,0.642,2.574,0.996c0.206-0.893-0.171-1.558-0.375-2.235c-1.609-5.328-2.497-10.753-2.251-16.334
	c0.312-7.084,2.514-13.396,7.542-18.576c1.722-1.775,3.361-3.63,5.041-5.446c0.336-0.364,0.658-0.743,1.026-1.072
	c1.526-1.366,3.296-1.407,4.933-0.131c0.195,0.152,0.379,0.32,0.557,0.492c7.027,6.764,12.269,14.637,14.862,24.123
	c1.661,6.077,1.954,12.203,0.223,18.317c-1.509,5.329-4.47,9.695-8.98,12.964c-1.402,1.016-2.818,2.013-4.217,3.033
	c-0.323,0.235-0.601,0.532-1.015,0.904c1.15,1.768,2.279,3.467,3.373,5.189c1.104,1.74,2.194,3.49,3.252,5.258
	c1.016,1.698,2.005,3.412,2.962,5.143c0.996,1.804,1.931,3.641,2.907,5.456c0.96,1.787,1.733,3.678,2.943,5.788
	c0.467-2.107,0.808-3.776,1.209-5.43c0.859-3.545,2.167-6.917,4.027-10.062c2.492-4.211,5.829-7.547,10.172-9.853
	c2.402-1.275,4.783-2.59,7.179-3.877c0.507-0.273,1.018-0.552,1.556-0.749c1.613-0.59,3.147-0.125,4.153,1.262
	c0.336,0.463,0.591,0.99,0.854,1.502c3.666,7.142,5.817,14.708,6.104,22.742c0.214,6.004-0.697,11.84-3.254,17.34
	c-3.31,7.115-8.588,11.981-16.231,14.134c-1.656,0.467-3.295,0.997-5.074,1.539c0.071,0.647,0.062,1.212,0.203,1.736
	c2.015,7.492,3.483,15.093,4.572,22.77c0.262,1.851,0.474,3.709,0.705,5.545c0.708,0.025,0.773-0.459,0.985-0.781
	c1.451-2.2,2.825-4.455,4.369-6.587c1.602-2.211,3.564-4.111,5.725-5.788c3.514-2.728,7.42-4.555,11.859-5.204
	c2.527-0.37,5.034-0.867,7.553-1.292c0.65-0.109,1.308-0.202,1.965-0.235c2.098-0.105,3.453,0.902,3.931,2.962
	c0.186,0.799,0.232,1.63,0.332,2.449c0.896,7.373,0.48,14.652-1.656,21.788c-1.849,6.174-4.756,11.763-9.399,16.328
	c-5.32,5.231-11.66,7.917-19.19,7.563c-1.399-0.065-2.799-0.155-4.2-0.196c-0.469-0.014-0.939,0.094-1.425,0.148
	c-0.595,5.183-1.071,10.257-1.786,15.297c-0.702,4.96-1.646,9.887-2.53,15.089c0.53-0.354,0.934-0.554,1.252-0.846
	c2.625-2.408,5.47-4.51,8.605-6.204c4.974-2.687,10.245-4.161,15.925-3.493c3.68,0.433,7.34,1.061,10.982,1.739
	c2.307,0.43,3.471,2.093,3.077,4.296c-1.973,11.073-6.399,20.931-14.618,28.834c-3.923,3.772-8.462,6.545-13.771,7.948
	c-4.841,1.279-9.626,1.133-14.339-0.598c-2.085-0.766-4.156-1.567-6.34-2.393c-0.28,0.454-0.587,0.833-0.771,1.265
	c-3.641,8.591-7.849,16.891-12.704,24.859c-0.203,0.333-0.347,0.7-0.515,1.046c0.723,0.476,1.201-0.053,1.68-0.254
	c3.667-1.541,7.447-2.642,11.402-3.133c5.635-0.698,11.012,0.077,16.053,2.781c2.542,1.363,5.075,2.743,7.608,4.123
	c0.435,0.235,0.877,0.467,1.271,0.76c1.445,1.071,1.872,2.707,1.173,4.392c-0.095,0.229-0.205,0.451-0.326,0.666
	c-4.921,8.728-11.443,15.896-20.292,20.785c-3.635,2.008-7.479,3.441-11.6,4.076c-7.727,1.189-14.752-0.295-20.817-5.454
	c-1.44-1.227-2.9-2.43-4.459-3.732c-0.416,0.341-0.826,0.594-1.134,0.939c-6.209,6.973-12.918,13.426-20.073,19.42
	c-0.285,0.238-0.744,0.388-0.68,1.032c0.628,0,1.257,0.027,1.883-0.004c4.725-0.232,9.393,0.046,13.953,1.419
	c4.682,1.411,8.733,3.818,12.021,7.477c1.765,1.962,3.575,3.883,5.362,5.823c0.335,0.364,0.689,0.716,0.986,1.107
	c1.271,1.678,1.188,3.378-0.229,4.919c-0.222,0.243-0.474,0.459-0.722,0.677c-6.858,6.046-14.6,10.429-23.585,12.424
	c-5.884,1.307-11.781,1.446-17.617-0.225c-6.28-1.798-11.232-5.404-14.603-11.077c-1.004-1.689-1.966-3.409-3.045-4.986
	c-0.957,0.014-1.524,0.543-2.149,0.89c-13.167,7.326-27.024,12.956-41.557,16.93c-0.795,0.218-1.583,0.478-2.392,0.624
	c-1.98,0.36-3.675-0.709-4.183-2.582c-0.5-1.847,0.455-3.575,2.393-4.281c0.541-0.197,1.105-0.33,1.662-0.479
	c13.913-3.733,27.176-9.08,39.8-16.013c0.786-0.432,1.546-0.911,2.435-1.438c-0.228-0.526-0.373-0.979-0.606-1.381
	c-0.827-1.426-1.696-2.827-2.531-4.249c-2.467-4.205-3.835-8.743-4.012-13.615c-0.458-12.591,4.092-23.185,12.864-32.077
	c0.347-0.352,0.711-0.693,1.109-0.983c1.435-1.044,3.2-0.979,4.554,0.17c0.375,0.318,0.7,0.698,1.036,1.061
	c2.017,2.18,4.059,4.335,6.037,6.548c6.467,7.232,8.483,15.627,6.469,25.056c-0.138,0.645-0.3,1.284-0.441,1.929
	C528.73,557.775,528.772,557.858,528.83,558.149z M565.287,262.287c-1.319,1.425-2.586,2.81-3.871,4.176
	c-2.136,2.271-3.52,4.939-4.319,7.94c-1.235,4.64-1.055,9.295-0.203,13.959c1.212,6.641,3.741,12.773,7.211,18.536
	c0.242,0.4,0.563,0.752,0.932,1.241c1.723-1.223,3.325-2.357,4.924-3.496c3.354-2.391,5.479-5.617,6.577-9.57
	c1.131-4.068,1.038-8.154,0.159-12.227c-1.641-7.592-5.361-14.104-10.526-19.837C565.957,262.775,565.675,262.602,565.287,262.287z
	 M629.15,458.807c-1.699-0.277-3.251-0.46-4.771-0.791c-4.562-0.993-8.828-0.118-12.931,1.917c-3.277,1.626-6.163,3.8-8.791,6.325
	c-4.811,4.623-8.514,10.034-11.401,16.022c-0.204,0.422-0.329,0.881-0.525,1.419c2.096,1.058,4.193,1.779,6.269,2.532
	c3.271,1.188,6.605,1.249,9.963,0.327c2.324-0.64,4.477-1.649,6.491-2.96c2.505-1.629,4.692-3.619,6.626-5.893
	c4.463-5.245,7.331-11.299,9.064-17.924C629.201,459.557,629.15,459.304,629.15,458.807z M604.928,526.103
	c-2.304-1.223-4.356-2.449-6.527-3.414c-1.407-0.626-2.964-0.98-4.49-1.258c-4.077-0.741-8.047-0.016-11.911,1.251
	c-8.243,2.703-15.104,7.574-21.103,13.742c-0.16,0.165-0.234,0.416-0.39,0.702c1.411,1.508,3.05,2.75,4.628,4.053
	c4.05,3.344,8.728,4.433,13.873,3.759c3.978-0.521,7.645-1.926,11.086-3.945c5.865-3.439,10.502-8.163,14.292-13.76
	C604.564,526.969,604.667,526.653,604.928,526.103z M601.926,423.399c1.832,0.091,3.393,0.114,4.943,0.253
	c5.735,0.517,10.496-1.521,14.536-5.478c2.265-2.218,4.015-4.808,5.374-7.656c3.275-6.862,4.349-14.13,3.885-21.666
	c-0.028-0.451-0.248-0.889-0.405-1.425c-1.858,0.312-3.549,0.646-5.254,0.872c-3.458,0.456-6.447,1.928-9.129,4.091
	c-2.134,1.722-3.908,3.778-5.477,6.019c-2.815,4.024-4.81,8.443-6.234,13.124C603.013,415.321,602.163,419.172,601.926,423.399z
	 M608.321,319.323c-1.776,0.962-3.272,1.811-4.803,2.593c-3.412,1.744-5.926,4.382-7.8,7.682c-1.685,2.964-2.736,6.156-3.434,9.475
	c-1.269,6.035-1.246,12.103-0.329,18.171c0.266,1.759,0.382,3.582,1.232,5.332c0.437-0.075,0.838-0.106,1.217-0.216
	c1.264-0.366,2.508-0.803,3.779-1.135c5.764-1.502,9.58-5.21,11.986-10.523c1.372-3.031,2.116-6.221,2.365-9.532
	c0.51-6.773-0.656-13.28-3.143-19.572C609.124,320.92,608.773,320.276,608.321,319.323z M560.24,581.903
	c-1.48-1.604-2.769-2.978-4.032-4.372c-2.214-2.443-4.942-4.069-8.058-5.064c-3.486-1.113-7.077-1.534-10.722-1.355
	c-7.679,0.378-14.895,2.508-21.75,5.924c-0.408,0.204-0.756,0.529-1.226,0.865c1.14,1.908,2.172,3.678,3.245,5.424
	c1.776,2.89,4.257,4.992,7.325,6.409c2.572,1.187,5.281,1.815,8.106,1.967c3.905,0.208,7.711-0.334,11.452-1.447
	C550.255,588.565,555.337,585.783,560.24,581.903z M513.266,530.954c-0.558,0.589-0.857,0.864-1.109,1.179
	c-4.451,5.528-7.109,11.824-7.85,18.877c-0.518,4.925,0.115,9.706,2.508,14.127c0.979,1.808,2.091,3.543,3.166,5.297
	c0.154,0.251,0.442,0.422,0.62,0.586c0.287-0.105,0.465-0.126,0.586-0.221c5.468-4.308,9.366-9.681,11.005-16.521
	c1.435-5.994,0.517-11.607-3.08-16.686C517.443,535.236,515.281,533.315,513.266,530.954z M594.178,422.901
	c0-0.823,0.074-1.483-0.012-2.12c-0.762-5.666-2.729-10.841-6.353-15.322c-1.778-2.2-3.875-4.042-6.344-5.439
	c-3.538-2.002-7.34-2.922-11.393-2.539c-2.128,0.202-4.239,0.601-6.35,0.96c-0.521,0.088-1.006,0.371-1.597,0.598
	c2.3,7.636,6.38,13.851,12.545,18.69C580.371,422.199,586.878,423.562,594.178,422.901z M558.731,312.434
	c-3.542-3.969-7.578-6.858-12.355-8.701c-2.556-0.985-5.196-1.554-7.939-1.652c-6.1-0.219-11.31,1.788-15.556,6.201
	c-1.198,1.246-2.364,2.526-3.517,3.814c-0.301,0.336-0.5,0.764-0.787,1.215c0.807,0.557,1.466,1.047,2.158,1.484
	c4.74,2.994,9.896,4.737,15.475,5.416C544.908,321.269,552.202,318.415,558.731,312.434z M554.551,532.01
	c0.219-0.234,0.478-0.439,0.645-0.701c3.795-5.955,5.654-12.417,4.849-19.493c-0.61-5.366-2.915-9.911-7.112-13.398
	c-2.615-2.172-5.709-3.517-8.834-5.15c-0.337,0.798-0.657,1.443-0.889,2.121c-1.957,5.717-2.399,11.549-1.491,17.53
	C542.99,521.289,547.53,527.409,554.551,532.01z M561.017,447.63c-0.079,0.998-0.183,1.65-0.174,2.301
	c0.09,6.646,1.802,12.824,5.215,18.559c3.949,6.636,9.956,10.311,17.209,12.275c0.071,0.019,0.16-0.029,0.336-0.066
	c0.161-0.494,0.382-1.025,0.504-1.578c0.756-3.405,0.958-6.857,0.576-10.316c-0.409-3.72-1.468-7.258-3.405-10.493
	c-2.886-4.821-7.01-8.028-12.474-9.411c-1.591-0.402-3.236-0.596-4.86-0.864C563.066,447.89,562.181,447.79,561.017,447.63z
	 M585.629,364.772c-0.009-0.181,0.018-0.354-0.031-0.502c-0.101-0.312-0.228-0.618-0.367-0.915c-1.457-3.07-3.296-5.886-5.626-8.367
	c-2.565-2.731-5.507-4.946-8.98-6.4c-3.24-1.356-6.602-1.998-10.123-1.642c-4.83,0.488-8.784,3.007-12.959,5.409
	c0.441,0.683,0.75,1.251,1.143,1.752c4.149,5.311,9.355,9.172,15.649,11.635C571.606,368.589,578.656,367.795,585.629,364.772z"/>
<path fill-rule="evenodd" clip-rule="evenodd" d="M321.784,581.41c-0.985,1.618-1.91,3.074-2.774,4.566
	c-4.642,8.014-11.797,11.939-20.828,12.735c-8.028,0.709-15.551-1.192-22.718-4.689c-4.545-2.217-8.683-5.061-12.467-8.416
	c-0.37-0.327-0.751-0.651-1.069-1.027c-1.123-1.326-1.187-3.156-0.154-4.562c0.34-0.464,0.753-0.874,1.144-1.298
	c1.731-1.882,3.495-3.732,5.194-5.644c4.425-4.974,10.077-7.554,16.541-8.612c3.442-0.563,6.895-0.566,10.361-0.366
	c0.383,0.022,0.769,0.003,1.465,0.003c-0.888-1.145-1.883-1.724-2.704-2.477c-0.791-0.725-1.62-1.405-2.423-2.115
	c-0.865-0.764-1.727-1.532-2.579-2.312c-0.852-0.779-1.694-1.569-2.531-2.364c-0.778-0.738-1.55-1.482-2.314-2.234
	c-0.823-0.81-1.64-1.625-2.448-2.449s-1.606-1.659-2.4-2.498c-0.737-0.778-1.463-1.566-2.191-2.354
	c-0.779-0.843-1.553-1.69-2.433-2.648c-0.461,0.301-0.878,0.521-1.235,0.813c-1.273,1.049-2.518,2.131-3.789,3.184
	c-4.421,3.659-9.502,5.473-15.244,5.573c-5.141,0.09-9.959-1.145-14.576-3.297c-5.53-2.579-10.268-6.241-14.421-10.682
	c-3-3.205-5.567-6.73-7.743-10.542c-0.205-0.358-0.425-0.71-0.596-1.083c-0.937-2.039-0.466-3.717,1.38-4.932
	c0.343-0.226,0.713-0.411,1.076-0.607c2.463-1.337,4.924-2.676,7.392-4.002c5.118-2.751,10.568-3.535,16.291-2.792
	c3.871,0.502,7.575,1.568,11.157,3.095c0.503,0.215,1.027,0.379,1.871,0.687c-0.477-1.506-1.284-2.437-1.85-3.482
	c-0.628-1.16-1.318-2.284-1.967-3.434c-0.609-1.076-1.21-2.156-1.794-3.246c-0.624-1.162-1.231-2.333-1.832-3.507
	c-0.563-1.101-1.117-2.206-1.657-3.318s-1.067-2.23-1.581-3.355c-0.549-1.199-1.078-2.407-1.613-3.612
	c-0.499-1.124-0.994-2.251-1.552-3.513c-0.511,0.102-0.989,0.134-1.42,0.294c-1.467,0.543-2.917,1.135-4.375,1.702
	c-6.131,2.388-12.236,2.239-18.324-0.176c-4.123-1.635-7.705-4.091-10.873-7.166c-6.25-6.064-10.277-13.447-12.75-21.726
	c-0.542-1.813-0.937-3.672-1.359-5.519c-0.146-0.639-0.231-1.305-0.242-1.959c-0.03-1.78,0.809-3.031,2.534-3.494
	c1.506-0.404,3.068-0.602,4.609-0.865c1.462-0.25,2.938-0.429,4.393-0.707c5.522-1.059,10.825-0.357,15.945,1.908
	c3.882,1.718,7.327,4.101,10.504,6.893c0.541,0.476,1.092,0.94,2.01,1.73c-0.697-3.76-1.36-7.028-1.896-10.318
	c-0.557-3.415-1.045-6.843-1.462-10.277c-0.406-3.34-0.684-6.693-1.03-10.166c-0.601-0.04-1.077-0.111-1.55-0.095
	c-1.566,0.055-3.129,0.159-4.696,0.212c-6.204,0.211-11.666-1.771-16.475-5.632c-3.459-2.778-6.137-6.21-8.217-10.104
	c-2.912-5.452-4.52-11.292-5.167-17.43c-0.426-4.043-0.359-8.067,0.087-12.096c0.099-0.9,0.225-1.801,0.406-2.688
	c0.483-2.358,1.804-3.356,4.236-3.114c1.556,0.154,3.101,0.437,4.646,0.69c1.463,0.24,2.915,0.564,4.382,0.77
	c5.781,0.809,10.568,3.54,14.695,7.55c2.681,2.604,4.858,5.6,6.742,8.816c0.41,0.7,0.806,1.406,1.391,2.429
	c0.809-2.28,0.698-4.336,1.062-6.301c0.36-1.944,0.606-3.909,0.937-5.858c0.345-2.031,0.699-4.062,1.11-6.08
	c0.395-1.938,0.854-3.862,1.308-5.787c0.473-2.003,0.974-3.999,1.5-6.149c-0.483-0.242-0.948-0.552-1.46-0.718
	c-1.566-0.508-3.151-0.959-4.728-1.436c-5.514-1.669-9.783-5.008-12.982-9.75c-2.673-3.962-4.243-8.361-4.98-13.064
	c-1.474-9.395,0.088-18.385,3.703-27.083c0.631-1.52,1.383-2.992,2.116-4.467c0.254-0.51,0.556-1.03,0.951-1.432
	c1.001-1.017,2.219-1.414,3.611-0.912c0.616,0.222,1.208,0.524,1.787,0.835c2.325,1.245,4.626,2.534,6.962,3.758
	c4.672,2.449,8.176,6.06,10.737,10.637c2.199,3.929,3.519,8.158,4.347,12.56c0.09,0.481,0.213,0.958,0.335,1.433
	c0.016,0.062,0.123,0.102,0.181,0.146c0.075,0,0.151,0.019,0.212-0.004c0.073-0.028,0.161-0.077,0.192-0.142
	c3.151-6.353,6.449-12.626,10.242-18.626c1.537-2.431,3.108-4.841,4.732-7.368c-0.395-0.368-0.716-0.728-1.095-1.007
	c-1.327-0.979-2.679-1.923-4.013-2.894c-5.725-4.164-8.823-9.87-9.875-16.787c-1.036-6.807,0.217-13.306,2.717-19.605
	c2.906-7.323,7.424-13.564,13.097-18.994c0.297-0.284,0.6-0.57,0.937-0.804c1.38-0.96,3.055-0.92,4.357,0.125
	c0.447,0.359,0.834,0.797,1.226,1.22c1.904,2.058,3.794,4.129,5.702,6.185c3.961,4.27,6.006,9.385,6.72,15.102
	c0.791,6.333-0.108,12.489-1.842,18.571c-0.24,0.843-0.712,1.659-0.612,2.581c0.714,0.284,1.167-0.175,1.656-0.376
	c2.912-1.196,5.9-2.064,9.04-2.424c9.014-1.036,16.791,1.532,23.191,7.995c2.436,2.46,4.751,5.042,7.061,7.622
	c1.801,2.013,1.672,3.979-0.382,5.814c-5.585,4.991-12.051,8.306-19.361,9.942c-5.708,1.278-11.426,1.438-17.155,0.066
	c-3.734-0.895-7.174-2.415-10.307-4.631c-1.611-1.14-3.216-2.287-4.911-3.493c-0.394,0.421-0.771,0.731-1.034,1.119
	c-5.103,7.517-9.595,15.385-13.494,23.591c-0.067,0.142-0.06,0.319-0.091,0.501c0.382,0.466,0.726,0.069,1.03-0.1
	c2.906-1.606,5.958-2.787,9.243-3.368c5.787-1.025,11.35-0.335,16.611,2.27c3.248,1.608,6.415,3.384,9.578,5.157
	c2.417,1.355,2.983,3.21,1.597,5.593c-6.38,10.966-15.622,18.141-28.125,20.823c-5.086,1.091-10.159,0.809-15.144-0.761
	c-1.636-0.515-3.295-0.958-5.077-1.473c-0.254,0.571-0.502,0.98-0.624,1.425c-1.678,6.127-2.955,12.34-3.924,18.617
	c-0.302,1.955-0.583,3.914-0.828,5.876c-0.106,0.853-0.327,1.728,0.006,2.881c0.749-0.736,1.323-1.288,1.883-1.852
	c3.679-3.706,7.982-6.34,13.07-7.64c3.563-0.91,7.158-1.1,10.789-0.504c3.171,0.52,6.341,1.049,9.511,1.58
	c0.486,0.081,0.995,0.123,1.445,0.305c1.423,0.576,2.274,1.621,2.295,3.2c0.009,0.655-0.052,1.325-0.188,1.965
	c-2.275,10.752-7.662,19.566-16.476,26.195c-4.014,3.02-8.492,5.088-13.481,5.829c-2.439,0.362-4.927,0.384-7.392,0.57
	c-0.723,0.056-1.442,0.148-2.286,0.238c-0.058,3.749,0.397,7.334,0.842,10.906c0.742,5.949,1.652,11.875,3.179,17.931
	c0.73-0.556,0.869-1.186,1.123-1.731c1.796-3.866,4.237-7.249,7.488-10.029c3.928-3.359,8.499-5.299,13.563-6.148
	c3.007-0.504,6.017-0.99,9.024-1.495c0.916-0.153,1.798-0.149,2.651,0.289c0.931,0.48,1.584,1.198,1.839,2.209
	c0.201,0.797,0.355,1.615,0.435,2.432c0.933,9.645-0.822,18.72-5.845,27.073c-3.955,6.578-9.36,11.443-16.685,14.032
	c-1.465,0.517-2.894,1.141-4.305,1.703c0.328,2.217,1.75,5.505,5.756,13.416c3.469,6.85,5.83,10.865,7.346,12.49
	c0.567-0.293,0.366-0.847,0.399-1.29c0.194-2.65,0.75-5.227,1.656-7.713c2.197-6.028,6.014-10.772,11.553-14.031
	c3.124-1.838,6.337-3.528,9.549-5.209c2.419-1.268,4.238-0.663,5.543,1.78c2.074,3.885,3.454,8.021,4.229,12.349
	c1.227,6.859,0.86,13.632-1.278,20.28c-1.836,5.71-4.966,10.563-9.621,14.397c-1.146,0.943-2.276,1.905-3.4,2.875
	c-0.3,0.26-0.548,0.579-0.804,0.854c3.332,4.706,17.259,18.091,21.173,20.311c-0.109-0.588-0.173-1.057-0.286-1.514
	c-1.061-4.304-1.272-8.628-0.387-12.99c0.974-4.802,3.119-9.016,6.386-12.649c2.15-2.393,4.352-4.737,6.538-7.097
	c0.335-0.361,0.68-0.726,1.075-1.016c1.235-0.907,2.901-0.929,4.163-0.045c0.468,0.328,0.888,0.735,1.295,1.142
	c7.014,6.985,11.238,15.354,12.571,25.188c0.56,4.138,0.41,8.218-0.524,12.281c-0.689,3-1.847,5.804-3.428,8.439
	c-1.015,1.69-2.012,3.395-3.105,5.242c0.788,0.472,1.467,0.905,2.17,1.296c12.663,7.046,26.013,12.396,39.987,16.207
	c0.715,0.195,1.451,0.343,2.135,0.617c1.737,0.697,2.617,2.476,2.152,4.224c-0.453,1.702-2.176,2.855-3.987,2.577
	c-0.891-0.138-1.759-0.428-2.633-0.666c-14.536-3.968-28.392-9.604-41.554-16.943C323.237,582.144,322.647,581.857,321.784,581.41z
	 M269.871,581.753c0.308,0.396,0.395,0.538,0.511,0.65c0.178,0.17,0.37,0.326,0.567,0.475c4.647,3.5,9.732,6.139,15.361,7.654
	c4.663,1.255,9.387,1.685,14.161,0.666c3.877-0.827,7.328-2.496,9.981-5.504c2.022-2.29,3.458-4.981,4.832-7.696
	c0.031-0.061-0.013-0.16-0.035-0.363c-0.354-0.209-0.748-0.509-1.19-0.694c-2.652-1.108-5.262-2.354-7.986-3.251
	c-6.387-2.104-12.922-3.201-19.678-2.258c-3.809,0.532-7.383,1.679-10.451,4.065C273.666,577.269,271.908,579.556,269.871,581.753z
	 M201.004,458.849c-0.091,0.266-0.184,0.417-0.188,0.57c-0.005,0.245,0.019,0.499,0.083,0.734
	c2.216,8.11,6.008,15.299,12.348,20.979c2.099,1.881,4.439,3.415,7.047,4.496c2.612,1.083,5.328,1.736,8.179,1.53
	c3.853-0.278,7.24-1.992,10.767-3.426c-0.154-0.463-0.225-0.783-0.362-1.071c-2.964-6.229-6.789-11.849-11.811-16.611
	c-2.887-2.738-6.069-5.061-9.734-6.662c-2.748-1.201-5.602-1.925-8.629-1.755C206.075,457.779,203.511,458.32,201.004,458.849z
	 M269.49,537.2c-0.136-0.281-0.181-0.445-0.279-0.566c-0.207-0.255-0.435-0.494-0.665-0.729c-3.779-3.841-7.987-7.125-12.694-9.755
	c-2.957-1.652-6.041-3.015-9.32-3.892c-3.038-0.811-6.106-1.268-9.278-1.027c-4.536,0.344-8.26,2.583-11.97,4.896
	c-0.052,0.033-0.057,0.141-0.106,0.274c0.074,0.178,0.133,0.422,0.263,0.619c3.826,5.794,8.604,10.605,14.636,14.106
	c3.455,2.004,7.146,3.357,11.126,3.854c4.051,0.506,7.896-0.149,11.417-2.252C265.176,541.203,267.265,539.085,269.49,537.2z
	 M221.76,319.467c-0.312,0.34-0.464,0.44-0.524,0.581c-3.346,7.71-4.87,15.692-3.466,24.078c0.548,3.271,1.626,6.375,3.388,9.209
	c2.351,3.782,5.599,6.419,9.9,7.698c1.418,0.422,2.836,0.845,4.26,1.248c0.452,0.127,0.922,0.188,1.497,0.302
	c0.192-0.57,0.396-1.015,0.493-1.483c1.427-6.915,1.752-13.869,0.576-20.851c-0.605-3.588-1.68-7.038-3.432-10.25
	c-1.355-2.485-3.047-4.702-5.34-6.392C226.858,321.946,224.326,320.77,221.76,319.467z M264.925,308.198
	c0.431-0.612,0.736-0.995,0.986-1.411c2.302-3.822,4.177-7.845,5.55-12.091c1.713-5.301,2.579-10.722,2.085-16.302
	c-0.411-4.645-1.976-8.809-5.277-12.218c-0.859-0.887-1.668-1.823-2.526-2.711c-0.384-0.397-0.832-0.732-1.249-1.093
	c-0.289,0.236-0.502,0.371-0.665,0.551c-4.057,4.521-7.257,9.563-9.291,15.313c-1.588,4.49-2.291,9.097-1.718,13.844
	c0.563,4.668,2.41,8.723,6.125,11.735C260.795,305.314,262.785,306.639,264.925,308.198z M199.544,387.4
	c-0.103,0.802-0.239,1.365-0.236,1.929c0.009,2.472-0.08,4.955,0.122,7.413c0.408,4.973,1.697,9.732,3.946,14.207
	c1.495,2.973,3.398,5.649,5.868,7.897c3.288,2.991,7.114,4.764,11.594,4.876c1.891,0.047,3.789-0.129,5.682-0.232
	c0.474-0.025,0.941-0.162,1.481-0.26c-0.004-2.423-0.516-4.677-0.991-6.925c-1.22-5.769-3.249-11.233-6.38-16.256
	c-1.8-2.887-3.926-5.5-6.573-7.663c-2.269-1.855-4.797-3.224-7.671-3.828C204.217,388.102,202.013,387.811,199.544,387.4z
	 M267.708,398.856c-2.391-0.674-4.602-0.877-6.783-1.247c-2.745-0.466-5.423-0.173-8.066,0.574
	c-5.062,1.432-8.898,4.555-11.875,8.793c-3.204,4.561-4.845,9.692-5.359,15.208c-0.021,0.216,0.108,0.445,0.193,0.768
	c1.492,0.278,2.967,0.006,4.432,0.025c5.864,0.078,10.96-1.998,15.473-5.615c5.554-4.453,9.378-10.116,11.614-16.86
	C267.488,400.042,267.553,399.552,267.708,398.856z M319.534,571.112c1.049-1.563,1.959-3.215,2.949-4.814
	c2.369-3.829,3.391-8.055,3.299-12.491c-0.173-8.273-3.014-15.605-8.27-21.998c-0.195-0.237-0.468-0.409-0.78-0.677
	c-1.853,1.638-3.419,3.433-4.946,5.246c-4.083,4.849-5.401,10.493-4.285,16.648c1.342,7.395,5.428,13.143,11.225,17.764
	C318.903,570.93,319.162,570.969,319.534,571.112z M271.276,312.594c1.168,1.139,2.608,1.946,3.897,2.943
	c4.487,3.472,9.652,4.932,15.231,4.874c7.269-0.077,13.927-2.244,19.932-6.358c0.374-0.256,0.648-0.658,1.087-1.116
	c-1.979-2.064-3.775-4.104-5.75-5.956c-2.319-2.174-5.112-3.557-8.214-4.327c-2.597-0.645-5.212-0.678-7.85-0.422
	C283.152,302.854,275.22,307.306,271.276,312.594z M285.751,493.255c-1.805,0.972-3.473,1.859-5.132,2.763
	c-7.171,3.91-10.604,10.125-10.911,18.121c-0.234,6.106,1.636,11.684,4.831,16.841c0.244,0.394,0.397,0.928,1.243,0.943
	c1.123-0.941,2.359-2.019,3.637-3.044c4.067-3.26,6.622-7.486,8.011-12.461c1.892-6.774,1.666-13.508-0.416-20.203
	C286.721,495.277,286.47,494.325,285.751,493.255z M282.402,352.32c-3.339-1.848-6.505-3.935-10.224-4.868
	c-2.246-0.563-4.535-0.785-6.856-0.483c-3.743,0.488-7.16,1.817-10.263,3.952c-4.737,3.258-8.128,7.63-10.506,12.821
	c-0.153,0.333-0.141,0.743-0.218,1.199c1.703,0.533,3.268,1.019,4.83,1.511c4.439,1.399,8.895,1.417,13.381,0.216
	c8.03-2.149,14.361-6.744,19.309-13.345C282.046,353.068,282.165,352.758,282.402,352.32z M268.877,447.814
	c-0.649,0-1.221-0.072-1.768,0.013c-1.79,0.277-3.587,0.538-5.348,0.95c-1.354,0.316-2.706,0.74-3.976,1.305
	c-5.341,2.374-8.814,6.521-10.873,11.891c-2.029,5.292-2.319,10.75-1.221,16.286c0.17,0.856,0.087,1.835,0.958,2.622
	c1.404-0.521,2.849-1.076,4.307-1.595c5.509-1.956,9.625-5.592,12.71-10.486c3.14-4.978,4.842-10.433,5.34-16.27
	C269.138,450.99,269.256,449.427,268.877,447.814z"/>
<path fill-rule="evenodd" clip-rule="evenodd" d="M372.302,388.736c0.028-1.315,0.067-2.293,0.067-3.271
	c0.003-14.925,0.001-29.85,0.003-44.775c0-0.825-0.03-1.654,0.044-2.472c0.165-1.817,1.344-3.047,3.131-3.285
	c0.568-0.076,1.152-0.048,1.729-0.049c24.821-0.002,49.642-0.002,74.462,0.001c0.658,0,1.328-0.028,1.973,0.076
	c1.647,0.266,2.817,1.516,2.974,3.175c0.077,0.818,0.039,1.648,0.039,2.472c0.002,23.831,0,47.662,0.007,71.493
	c0,0.973-0.116,1.962,0.145,2.85c0.84,0.58,1.689,0.388,2.495,0.394c3.134,0.022,6.268,0.009,9.401,0.009
	c19.79,0,39.58,0,59.371,0.002c0.823,0,1.652-0.031,2.472,0.037c1.993,0.169,3.167,1.335,3.343,3.299
	c0.059,0.656,0.035,1.318,0.035,1.979c0,22.924,0,45.848-0.001,68.771c0,0.742,0.029,1.488-0.047,2.224
	c-0.188,1.805-1.412,2.98-3.239,3.136c-0.655,0.055-1.318,0.028-1.978,0.028c-76.11,0.001-152.221,0.001-228.332,0
	c-0.659,0-1.322,0.025-1.978-0.026c-1.757-0.141-2.921-1.148-3.237-2.86c-0.133-0.723-0.141-1.476-0.143-2.215
	c-0.013-4.04-0.007-8.081-0.007-12.122c0-27.542,0-55.082,0.003-82.625c0-0.988-0.032-1.987,0.089-2.963
	c0.246-1.975,1.477-3.096,3.442-3.219c0.739-0.046,1.483-0.018,2.226-0.018c22.759,0,45.518,0,68.276-0.002
	C370.047,388.779,371.026,388.753,372.302,388.736z M449.476,487.622c0.271-1.174,0.17-2.242,0.17-3.295
	c0.005-46.255,0.004-92.511,0.004-138.768c0-0.659,0.024-1.32-0.014-1.978c-0.027-0.463-0.141-0.921-0.238-1.522
	c-1.111-0.026-2.088-0.067-3.064-0.067c-21.19-0.004-42.38-0.003-63.57-0.002c-0.577,0-1.158-0.033-1.73,0.017
	c-0.47,0.041-0.93,0.182-1.526,0.307c0,48.15,0,96.212,0.006,144.275c0,0.31,0.104,0.62,0.152,0.888
	c2.244,0.405,44.274,0.574,67.819,0.286C448.12,487.755,448.756,487.674,449.476,487.622z M302.432,487.701
	c1.115,0.023,2.089,0.063,3.063,0.063c21.184,0.004,42.367,0.004,63.551,0.003c0.577,0,1.155,0.021,1.73-0.01
	c0.464-0.025,0.925-0.111,1.336-0.164c0.309-2.049,0.518-85.273,0.242-90.396c-0.021-0.393-0.153-0.78-0.262-1.31
	c-1.05-0.017-2.025-0.047-3-0.047c-21.184-0.003-42.367-0.002-63.551-0.002c-0.577,0-1.156-0.027-1.73,0.012
	c-0.469,0.032-0.934,0.143-1.362,0.213C302.175,398.12,302.143,485.037,302.432,487.701z M456.851,487.563
	c1.079,0.307,2.064,0.2,3.032,0.2c21.264,0.006,42.527,0.005,63.791,0.004c0.576,0,1.156,0.034,1.729-0.016
	c0.462-0.04,0.916-0.181,1.482-0.3c0-0.767-0.001-1.42-0.001-2.074c0.001-20.109,0.001-40.219,0-60.329
	c0-0.329,0.022-0.661-0.01-0.988c-0.048-0.469-0.139-0.934-0.231-1.537c-1.087-0.021-2.063-0.056-3.039-0.056
	c-21.181-0.003-42.361-0.003-63.543-0.003c-0.576,0-1.155-0.021-1.729,0.013c-0.469,0.026-0.934,0.121-1.352,0.179
	c-0.403,2.689-0.558,45.035-0.25,63.161C456.74,486.375,456.806,486.93,456.851,487.563z"/>
<path fill-rule="evenodd" clip-rule="evenodd" d="M411.986,360.682c-0.744,0.624-1.382,1.239-2.099,1.746
	c-1.776,1.257-4.063,0.794-5.148-1.012c-0.75-1.249-0.725-2.523,0.065-3.727c0.355-0.542,0.854-0.998,1.325-1.454
	c2.189-2.116,4.391-4.22,6.592-6.324c0.357-0.34,0.708-0.697,1.112-0.975c2.192-1.514,5.022-0.408,5.586,2.194
	c0.119,0.555,0.105,1.145,0.106,1.719c0.006,9.464,0.006,18.929-0.001,28.394c0,0.573-0.002,1.163-0.128,1.716
	c-0.388,1.7-1.938,2.881-3.592,2.806c-1.697-0.077-3.09-1.319-3.338-3.074c-0.115-0.809-0.098-1.641-0.099-2.462
	c-0.006-5.679,0.008-11.357-0.006-17.036C412.359,362.402,412.563,361.56,411.986,360.682z"/>
<path fill-rule="evenodd" clip-rule="evenodd" d="M333.639,433.312c0.989,0.069,1.623,0.15,2.256,0.153
	c3.295,0.014,6.591,0,9.886,0.013c0.656,0.002,1.328-0.001,1.965,0.131c1.736,0.36,2.939,1.852,2.916,3.509
	c-0.022,1.578-1.127,2.971-2.766,3.371c-0.631,0.154-1.303,0.191-1.957,0.193c-5.354,0.015-10.71,0.008-16.065,0.007
	c-0.165,0-0.33,0.003-0.494-0.005c-3.007-0.146-4.398-1.686-4.04-4.626c0.672-5.52,3.465-9.707,8.228-12.526
	c1.405-0.831,2.967-1.413,4.491-2.024c1.24-0.496,2.404-1.076,3.333-2.054c1.006-1.059,1.58-2.29,1.526-3.784
	c-0.05-1.373-0.69-2.375-1.92-2.926c-1.732-0.776-3.513-0.816-5.282-0.089c-1.146,0.471-1.868,1.371-2.207,2.516
	c-0.278,0.938-0.374,1.929-0.561,2.894c-0.305,1.572-1.471,2.746-2.925,2.962c-2.153,0.319-3.918-1.085-4.099-3.259
	c-0.498-6.023,3.935-11.681,9.92-12.533c2.038-0.29,4.089-0.232,6.13,0.285c6.321,1.602,9.601,7.807,7.496,14.086
	c-1.222,3.643-3.69,6.18-7.106,7.822c-0.961,0.463-1.998,0.763-2.986,1.17C337.137,429.521,335.14,430.758,333.639,433.312z"/>
<path fill-rule="evenodd" clip-rule="evenodd" d="M501.283,446.702c1.641,1.831,2.729,3.723,3.135,5.992
	c0.677,3.779-0.224,7.113-3.057,9.682c-4.328,3.925-9.445,5.002-14.938,3.057c-5.547-1.963-7.063-6.796-6.9-10.869
	c0.088-2.181,1.636-3.611,3.638-3.583c1.562,0.023,2.881,0.98,3.289,2.504c0.188,0.706,0.187,1.464,0.282,2.195
	c0.245,1.872,1.083,2.935,2.831,3.291c2.273,0.463,4.396,0.049,6.353-1.283c2.285-1.557,2.006-5.444-0.807-6.378
	c-1.002-0.334-2.078-0.469-3.13-0.617c-0.729-0.102-1.493,0.014-2.214-0.117c-1.729-0.314-2.924-1.792-2.922-3.489
	c0.002-1.727,1.169-3.115,2.94-3.447c0.563-0.106,1.148-0.103,1.72-0.171c0.736-0.09,1.484-0.138,2.2-0.313
	c1.709-0.419,2.454-1.358,2.433-2.941c-0.022-1.61-0.791-2.511-2.479-2.908c-3.137-0.735-5.338,0.527-6.264,3.613
	c-0.189,0.631-0.275,1.295-0.492,1.914c-0.615,1.752-2.38,2.741-4.11,2.352c-1.74-0.393-3.014-2.028-2.768-3.856
	c0.963-7.138,6.52-12.599,14.319-11.183c0.162,0.029,0.321,0.075,0.483,0.105c8.736,1.669,9.769,10.097,7.277,15.022
	C501.885,445.708,501.619,446.121,501.283,446.702z"/>
</svg>
