<?xml version="1.0" encoding="utf-8"?>
<!-- Generator: Adobe Illustrator 16.0.0, SVG Export Plug-In . SVG Version: 6.00 Build 0)  -->
<!DOCTYPE svg PUBLIC "-//W3C//DTD SVG 1.1//EN" "http://www.w3.org/Graphics/SVG/1.1/DTD/svg11.dtd">
<svg version="1.1" id="Layer_1" xmlns="http://www.w3.org/2000/svg" xmlns:xlink="http://www.w3.org/1999/xlink" x="0px" y="0px"
	 width="830px" height="826px" viewBox="0 0 830 826" enable-background="new 0 0 830 826" xml:space="preserve">
<g>
	<path d="M76.211,552.255l54.768-26.506l5.207,10.76l-25.726,40.115l36.574-17.7l4.972,10.273l-54.768,26.506l-5.37-11.096
		l25.029-39.363l-35.715,17.284L76.211,552.255z"/>
	<path d="M130.095,593.148c4.961-3.715,9.681-6.091,14.159-7.127c3.31-0.75,6.667-0.905,10.073-0.465
		c3.405,0.439,6.438,1.443,9.1,3.012c3.556,2.073,6.819,5.091,9.788,9.056c5.373,7.177,7.446,14.585,6.22,22.227
		c-1.227,7.641-5.805,14.431-13.733,20.367c-7.863,5.888-15.616,8.355-23.257,7.406c-7.642-0.95-14.141-5.002-19.497-12.156
		c-5.423-7.242-7.526-14.655-6.307-22.238C117.857,605.646,122.342,598.953,130.095,593.148z M138.014,603.032
		c-5.515,4.13-8.743,8.533-9.681,13.212c-0.939,4.678,0.059,8.977,2.994,12.897c2.936,3.92,6.756,6.08,11.462,6.479
		c4.706,0.399,9.883-1.515,15.531-5.744c5.582-4.179,8.829-8.521,9.743-13.023c0.914-4.504-0.146-8.783-3.181-12.836
		c-3.035-4.054-6.871-6.28-11.508-6.679C148.738,596.938,143.617,598.837,138.014,603.032z"/>
	<path d="M170.649,686.521l40.269-45.612l9.209,8.131l-40.269,45.612L170.649,686.521z"/>
	<path d="M192.251,706.181l33.433-50.836l15.362,10.104l-13.582,40.743l31.926-28.679l15.396,10.126l-33.434,50.836l-9.536-6.272
		l26.318-40.017l-36.409,33.381l-9.883-6.5l16.262-46.631l-26.318,40.017L192.251,706.181z"/>
	<path d="M293.803,737.036l3.754-9.539l24.64,9.698l-8.877,22.555c-3.306,1.374-7.58,2.05-12.817,2.024
		c-5.238-0.025-10.188-0.955-14.848-2.789c-5.922-2.331-10.595-5.604-14.02-9.822s-5.335-9.072-5.73-14.565
		c-0.396-5.493,0.477-10.956,2.615-16.389c2.321-5.896,5.619-10.649,9.895-14.259c4.275-3.61,9.275-5.701,15.002-6.272
		c4.37-0.45,9.258,0.389,14.666,2.517c7.029,2.767,11.938,6.401,14.73,10.905c2.792,4.504,3.73,9.579,2.816,15.226l-12.19-2.346
		c0.296-3.095-0.34-5.88-1.908-8.355c-1.568-2.475-4-4.362-7.295-5.659c-4.995-1.966-9.589-1.945-13.784,0.061
		c-4.195,2.007-7.518,6.126-9.971,12.356c-2.645,6.72-3.136,12.348-1.471,16.883c1.664,4.535,4.916,7.756,9.757,9.661
		c2.395,0.942,4.98,1.418,7.757,1.425c2.777,0.009,5.292-0.317,7.544-0.978l2.828-7.184L293.803,737.036z"/>
	<path d="M405.02,783.825l-13.268-1.598l-3.622-14.356l-24.147-2.908l-6.638,13.121l-12.939-1.558l30.803-57.575l12.898,1.553
		L405.02,783.825z M385.44,757.222l-5.624-23.419l-10.858,21.434L385.44,757.222z"/>
	<path d="M426.494,782.858l-23.939-60.017l13.314-0.482l17.021,44.444l13.258-45.543l13.023-0.473l-19.569,61.595L426.494,782.858z"
		/>
	<path d="M521.082,770.023l-13.112,2.583l-7.884-12.533l-23.862,4.7l-2.257,14.531l-12.786,2.519l11.492-64.278l12.746-2.511
		L521.082,770.023z M494.236,750.776l-12.59-20.531l-3.699,23.74L494.236,750.776z"/>
	<path d="M531.273,765.701l-19.337-57.69l11.648-3.904l19.336,57.69L531.273,765.701z"/>
	<path d="M558.355,756.431l-25.594-54.65l11.126-5.21l21.245,45.366l27.664-12.955l4.348,9.284L558.355,756.431z"/>
	<path d="M655.36,699.378l-10.964,7.642l-12.261-8.301l-19.953,13.906l3.782,14.21l-10.691,7.452l-15.349-63.468l10.658-7.428
		L655.36,699.378z M623.039,692.563l-19.788-13.729l6.168,23.222L623.039,692.563z"/>
	<path d="M622.028,647.518l17.075-17.319c3.38-3.428,6.044-5.844,7.99-7.246c1.947-1.403,4.029-2.323,6.246-2.76
		c2.218-0.436,4.518-0.354,6.899,0.245c2.381,0.6,4.508,1.822,6.38,3.667c2.029,2.001,3.352,4.384,3.968,7.147
		c0.617,2.765,0.426,5.501-0.572,8.207c3.371-1.882,6.683-2.619,9.934-2.213c3.251,0.408,6.127,1.846,8.629,4.313
		c1.971,1.942,3.436,4.29,4.394,7.042c0.959,2.752,1.213,5.47,0.763,8.153c-0.451,2.684-1.694,5.314-3.73,7.892
		c-1.28,1.614-4.649,5.229-10.107,10.843l-14.54,14.747L622.028,647.518z M637.864,645.88l10.02,9.878l5.653-5.733
		c3.36-3.409,5.399-5.575,6.117-6.5c1.298-1.672,1.942-3.359,1.93-5.062c-0.012-1.702-0.717-3.243-2.116-4.622
		c-1.34-1.321-2.792-2.025-4.358-2.112c-1.565-0.086-3.156,0.512-4.771,1.795c-0.953,0.771-3.46,3.214-7.52,7.332L637.864,645.88z
		 M655.095,662.867l11.586,11.423l7.984-8.098c3.107-3.152,4.99-5.24,5.648-6.262c1.046-1.534,1.514-3.161,1.404-4.882
		c-0.11-1.721-0.934-3.34-2.471-4.854c-1.301-1.282-2.715-2.055-4.242-2.318c-1.528-0.262-3.087-0.002-4.676,0.782
		c-1.59,0.784-4.346,3.166-8.27,7.146L655.095,662.867z"/>
	<path d="M711.619,640.406L662.111,605.9l7.024-10.079l41.098,28.645l17.467-25.061l8.41,5.861L711.619,640.406z"/>
	<path d="M743.536,592.313l-54.919-26.192l19.421-40.721l9.291,4.432l-14.133,29.632l12.175,5.807l13.15-27.572l9.253,4.413
		l-13.15,27.572l14.947,7.129l14.633-30.682l9.253,4.413L743.536,592.313z"/>
</g>
<path fill="none" stroke="#000000" stroke-width="15" stroke-miterlimit="10" d="M323.535,451.236l147.028,53.514 M255.655,629.084
	l75.895-203.423l1.664-4.571l3.223-5.303l6.813-9.822l5.771-6.964l7.54-8.263c0,0,22.688-24.978,22.827-25.359
	c0,0,27.057-29.864,27.195-30.245c0,0,5.166-5.89,5.774-6.965l4.575-5.456l2.809-4.159l1.611-2.651c0,0,2.271-5.647,3.121-8.575
	c2.705-7.431,40.647-110.341,40.647-110.341l58.403,21.431l-38.913,106.914l-4.007,12.786l-0.468,3.066
	c0,0,0.162,27.92,1.183,41.222c-0.208,0.572,1.277,80.104,1.277,80.104l-0.261,2.495l-0.938,6.134l-0.885,4.209l-4.424,13.93
	l-0.208,0.57l-69.226,194.126 M421.353,315.904l59.461,21.642 M389.691,353.825c0,0,34.1,27.582,90.738,33.026 M364.534,379.885
	c0,0,41.868,42.94,118.2,43.021"/>
<path fill="none" stroke="#000000" stroke-width="10" stroke-miterlimit="10" d="M690.208,413.5
	c0,149.502-121.206,270.709-270.708,270.709c-149.509,0-270.708-121.207-270.708-270.709c0-149.509,121.2-270.708,270.708-270.708
	C569.002,142.792,690.208,263.991,690.208,413.5z"/>
<circle fill="none" stroke="#000000" stroke-width="10" stroke-miterlimit="10" cx="419.5" cy="413.5" r="400"/>
<g>
	<path d="M212.685,192.038l-8.809,10.051l-13.896-5.114l-16.03,18.291l7.084,12.886l-8.589,9.801l-30.139-57.926l8.563-9.77
		L212.685,192.038z M179.673,193.183l-22.506-8.576l11.563,21.062L179.673,193.183z"/>
	<path d="M233.009,148.291l11.734-4.296c2.616,6.371,3.23,12.13,1.84,17.278c-1.389,5.148-4.667,9.719-9.833,13.712
		c-6.393,4.941-13.335,6.818-20.826,5.632c-7.492-1.186-14.165-5.567-20.02-13.142c-6.193-8.012-8.934-15.834-8.223-23.465
		c0.711-7.631,4.438-14.053,11.181-19.265c5.889-4.552,12.018-6.509,18.386-5.871c3.779,0.366,7.706,2.052,11.779,5.059
		l-7.845,9.735c-2.499-2.056-5.209-3.108-8.132-3.157s-5.676,0.925-8.259,2.921c-3.568,2.758-5.474,6.277-5.716,10.556
		c-0.243,4.279,1.854,9.287,6.287,15.022c4.704,6.086,9.149,9.575,13.335,10.466c4.186,0.892,8.03-0.017,11.533-2.725
		c2.583-1.997,4.171-4.535,4.763-7.615C235.584,156.057,234.924,152.441,233.009,148.291z"/>
	<path d="M262.884,154.657l-27.227-54.413l10.986-5.498l10.716,21.417l21.528-10.772l-10.716-21.417l10.986-5.498l27.227,54.413
		l-10.986,5.498l-11.905-23.792l-21.528,10.772l11.905,23.792L262.884,154.657z"/>
	<path d="M316.442,130.011l-19.643-57.587l11.627-3.966l19.643,57.587L316.442,130.011z"/>
	<path d="M337.337,122.481l-12.134-59.623l44.208-8.997l2.053,10.086l-32.17,6.547l2.69,13.218l29.933-6.092l2.044,10.045
		l-29.933,6.092l3.302,16.228l33.309-6.779l2.044,10.045L337.337,122.481z"/>
	<path d="M406.141,112.22l-23.073-60.354l13.32-0.292l16.379,44.684l13.911-45.347l13.029-0.285l-20.454,61.307L406.141,112.22z"/>
	<path d="M444.748,112.227l9.438-60.108l44.568,6.999l-1.597,10.168l-32.432-5.093l-2.093,13.325l30.177,4.739l-1.59,10.127
		l-30.178-4.739l-2.568,16.36l33.58,5.273l-1.59,10.127L444.748,112.227z"/>
	<path d="M497.813,120.782l21.359-56.973l17.217,6.455l-4.232,42.738l24.79-35.03l17.255,6.469l-21.359,56.973l-10.687-4.007
		l16.813-44.847l-28.123,40.607l-11.075-4.152l5.543-49.073l-16.813,44.847L497.813,120.782z"/>
	<path d="M560.94,146.246l32.375-51.517l38.197,24.005l-5.477,8.715l-27.796-17.468l-7.178,11.421l25.864,16.253l-5.455,8.68
		l-25.863-16.253l-8.812,14.021l28.78,18.087l-5.455,8.68L560.94,146.246z"/>
	<path d="M606.459,175.703l41.35-44.635l8.769,8.124l-9.346,46.73l27.614-29.807l8.373,7.757l-41.351,44.635l-9.042-8.377
		l8.971-45.776l-26.965,29.107L606.459,175.703z"/>
	<path d="M656.85,227.459l40.384-30.408l-10.859-14.423l8.223-6.191l29.084,38.626l-8.223,6.191l-10.835-14.389l-40.383,30.408
		L656.85,227.459z"/>
</g>
<path fill="none" stroke="#000000" stroke-width="10" stroke-miterlimit="10" d="M737.491,484.571
	c17.234-77.01,6.731-160.452-35.836-234.181"/>
<path fill="none" stroke="#000000" stroke-width="10" stroke-miterlimit="10" d="M100.999,484.571
	c-17.234-77.01-6.731-160.452,35.836-234.181"/>
</svg>
