<?xml version="1.0" encoding="utf-8"?>
<!-- Generator: Adobe Illustrator 16.0.0, SVG Export Plug-In . SVG Version: 6.00 Build 0)  -->
<!DOCTYPE svg PUBLIC "-//W3C//DTD SVG 1.1//EN" "http://www.w3.org/Graphics/SVG/1.1/DTD/svg11.dtd">
<svg version="1.1" id="Layer_1" xmlns="http://www.w3.org/2000/svg" xmlns:xlink="http://www.w3.org/1999/xlink" x="0px" y="0px"
	 width="830px" height="826px" viewBox="0 0 830 826" enable-background="new 0 0 830 826" xml:space="preserve">
<g>
	<path d="M103.431,540.656c5.527-2.805,10.584-4.333,15.174-4.583c3.389-0.169,6.724,0.257,10.003,1.276
		c3.278,1.02,6.094,2.531,8.445,4.534c3.146,2.653,5.84,6.188,8.082,10.605c4.057,7.994,4.824,15.649,2.3,22.965
		c-2.524,7.316-8.202,13.216-17.035,17.699c-8.759,4.445-16.821,5.542-24.184,3.291c-7.364-2.251-13.068-7.361-17.113-15.331
		c-4.095-8.068-4.89-15.732-2.384-22.992C89.225,550.86,94.795,545.039,103.431,540.656z M109.53,551.757
		c-6.144,3.118-10.082,6.9-11.812,11.347c-1.73,4.446-1.487,8.854,0.729,13.221c2.216,4.367,5.608,7.152,10.175,8.356
		c4.567,1.203,9.997,0.209,16.288-2.984c6.218-3.155,10.164-6.873,11.84-11.152c1.675-4.279,1.368-8.676-0.924-13.191
		s-5.688-7.369-10.186-8.561C121.143,547.6,115.772,548.589,109.53,551.757z"/>
	<path d="M112.872,620.935l48.015-37.372l7.342,9.433l-16.769,44.608l32.064-24.957l7.01,9.007l-48.015,37.372l-7.571-9.728
		l16.245-43.728l-31.311,24.371L112.872,620.935z"/>
	<path d="M162.979,680.453l27.953-55.962l9.638,8.078l-19.819,37.923l35.373-24.885l11.196,9.385l-19.127,39.423l34.458-26.571
		l9.479,7.944l-50.41,37.139l-9.988-8.372l19.934-42.646l-38.478,27.104L162.979,680.453z"/>
	<path d="M224.159,727.099l31.376-52.13l10.525,6.335l-31.376,52.131L224.159,727.099z"/>
	<path d="M293.798,695.387l11.104,5.158l-16.225,34.931c-2.122,4.568-4.155,7.895-6.1,9.98c-2.571,2.711-5.727,4.381-9.465,5.008
		c-3.74,0.628-7.93-0.137-12.572-2.293c-5.446-2.529-8.928-6-10.448-10.412c-1.52-4.413-0.923-9.574,1.791-15.482l11.062,3.673
		c-1.343,3.221-1.917,5.67-1.719,7.348c0.284,2.542,1.655,4.384,4.115,5.526c2.484,1.153,4.57,1.261,6.257,0.32
		c1.687-0.939,3.568-3.643,5.644-8.11L293.798,695.387z"/>
	<path d="M299.365,742.862l11.815,2.151c-0.406,4.057,0.192,7.29,1.793,9.701c1.601,2.412,4.198,4.128,7.791,5.149
		c3.806,1.083,6.902,1.094,9.29,0.031c2.387-1.061,3.888-2.67,4.5-4.825c0.394-1.384,0.322-2.677-0.213-3.88
		c-0.536-1.202-1.713-2.45-3.531-3.744c-1.248-0.872-4.159-2.62-8.734-5.245c-5.888-3.371-9.784-6.564-11.688-9.58
		c-2.677-4.242-3.357-8.679-2.041-13.31c0.848-2.98,2.485-5.528,4.913-7.643c2.428-2.114,5.425-3.397,8.992-3.851
		c3.566-0.453,7.598-0.04,12.096,1.239c7.345,2.089,12.417,5.271,15.213,9.547c2.797,4.276,3.524,9.13,2.182,14.559l-11.964-2.842
		c0.35-3.151-0.12-5.622-1.409-7.412c-1.289-1.791-3.597-3.159-6.923-4.105c-3.433-0.976-6.322-1.035-8.666-0.177
		c-1.509,0.549-2.478,1.582-2.909,3.099c-0.394,1.385-0.146,2.735,0.746,4.053c1.134,1.675,4.383,4.008,9.746,7
		c5.363,2.992,9.215,5.605,11.557,7.839c2.342,2.234,3.934,4.83,4.776,7.788c0.842,2.957,0.736,6.286-0.315,9.985
		c-0.954,3.354-2.779,6.229-5.474,8.627c-2.696,2.397-5.949,3.824-9.761,4.279c-3.812,0.454-8.259-0.041-13.342-1.486
		c-7.399-2.104-12.595-5.43-15.587-9.978C299.227,755.286,298.275,749.629,299.365,742.862z"/>
	<path d="M384.109,781.851l2.143-60.807l19.702,0.693c7.466,0.264,12.322,0.739,14.568,1.428c3.452,1.035,6.299,3.122,8.542,6.26
		c2.242,3.139,3.278,7.128,3.108,11.967c-0.132,3.732-0.92,6.848-2.364,9.344c-1.445,2.497-3.236,4.434-5.375,5.812
		c-2.14,1.378-4.295,2.265-6.469,2.658c-2.952,0.478-7.207,0.618-12.765,0.423l-8.005-0.282l-0.808,22.938L384.109,781.851z
		 M398.167,731.763l-0.608,17.255l6.719,0.236c4.839,0.171,8.085-0.032,9.74-0.611c1.654-0.578,2.967-1.529,3.942-2.852
		c0.974-1.322,1.493-2.882,1.556-4.68c0.078-2.212-0.508-4.06-1.757-5.544c-1.249-1.483-2.862-2.439-4.841-2.87
		c-1.456-0.327-4.396-0.569-8.82-0.726L398.167,731.763z"/>
	<path d="M440.617,753.438c-0.908-6.131-0.753-11.412,0.465-15.845c0.914-3.268,2.375-6.295,4.382-9.082
		c2.007-2.786,4.333-4.977,6.979-6.571c3.514-2.143,7.721-3.577,12.621-4.303c8.868-1.313,16.371,0.388,22.509,5.101
		c6.139,4.713,9.934,11.97,11.384,21.768c1.439,9.718-0.077,17.711-4.547,23.98c-4.47,6.271-11.125,10.06-19.966,11.369
		c-8.95,1.325-16.472-0.352-22.563-5.03C445.79,770.146,442.035,763.018,440.617,753.438z M453.078,751.173
		c1.01,6.815,3.348,11.749,7.017,14.8c3.668,3.051,7.925,4.218,12.77,3.5c4.845-0.717,8.562-3.051,11.151-7
		c2.59-3.95,3.368-9.415,2.335-16.395c-1.021-6.897-3.296-11.819-6.822-14.766c-3.527-2.945-7.795-4.048-12.804-3.307
		c-5.009,0.742-8.792,3.058-11.349,6.946C452.818,738.841,452.053,744.248,453.078,751.173z"/>
	<path d="M519.397,769.892L499.5,712.393l18.63-6.447c7.061-2.443,11.762-3.747,14.104-3.915c3.594-0.277,7.001,0.645,10.224,2.765
		c3.223,2.121,5.626,5.469,7.209,10.044c1.222,3.53,1.607,6.72,1.159,9.568c-0.448,2.85-1.423,5.302-2.922,7.357
		c-1.499,2.057-3.191,3.659-5.077,4.81c-2.582,1.509-6.5,3.172-11.756,4.99l-7.569,2.62l7.506,21.689L519.397,769.892z
		 M514.476,718.102l5.646,16.316l6.354-2.198c4.576-1.584,7.531-2.942,8.866-4.078c1.334-1.136,2.218-2.495,2.65-4.08
		c0.433-1.584,0.355-3.226-0.233-4.926c-0.724-2.092-1.936-3.604-3.635-4.539c-1.7-0.935-3.55-1.246-5.55-0.935
		c-1.477,0.219-4.307,1.051-8.49,2.499L514.476,718.102z"/>
	<path d="M548.927,694.738l10.711-6.019l16.143,28.73c2.562,4.559,4.354,7.439,5.379,8.641c1.678,1.914,3.749,3.044,6.212,3.389
		c2.464,0.347,5.191-0.321,8.183-2.003c3.039-1.707,4.981-3.615,5.827-5.726c0.846-2.109,0.917-4.157,0.215-6.143
		c-0.703-1.985-2.233-5.077-4.592-9.274l-16.488-29.345l10.71-6.018l15.654,27.861c3.578,6.368,5.817,11.029,6.715,13.984
		c0.899,2.954,1.078,5.773,0.539,8.457c-0.539,2.683-1.81,5.294-3.813,7.83c-2.002,2.537-5.102,4.985-9.299,7.344
		c-5.065,2.847-9.236,4.42-12.51,4.721c-3.275,0.301-6.197-0.057-8.768-1.072s-4.673-2.413-6.307-4.192
		c-2.408-2.646-5.278-6.937-8.612-12.871L548.927,694.738z"/>
	<path d="M637.076,712.643l-38.041-46.847l9.537-7.744l31.578,38.889l23.714-19.256l6.462,7.958L637.076,712.643z"/>
	<path d="M717.456,633.925l-8.806,10.054l-13.897-5.11l-16.025,18.295l7.088,12.884l-8.587,9.804l-30.154-57.917l8.56-9.772
		L717.456,633.925z M684.443,635.079l-22.508-8.57l11.569,21.059L684.443,635.079z"/>
	<path d="M722.883,624.331l-50.49-33.953l6.855-10.194l50.49,33.952L722.883,624.331z"/>
	<path d="M739.089,600.416l-54.415-27.223l11.568-23.125c2.909-5.814,5.512-9.796,7.808-11.942c2.296-2.146,5.09-3.386,8.381-3.72
		c3.292-0.332,6.547,0.305,9.763,1.914c4.083,2.043,6.854,4.931,8.313,8.661c1.46,3.731,1.342,8.158-0.355,13.28
		c2.575-1.683,5.078-2.882,7.509-3.6c2.432-0.717,6.42-1.328,11.963-1.835l13.94-1.333l-6.574,13.14l-15.814,2.02
		c-5.643,0.704-9.274,1.301-10.896,1.789c-1.62,0.488-2.927,1.212-3.917,2.171s-2.116,2.7-3.379,5.224l-1.114,2.228l22.717,11.364
		L739.089,600.416z M713.184,573.719l4.066-8.129c2.637-5.271,4.061-8.673,4.271-10.207s-0.042-2.945-0.76-4.232
		s-1.894-2.339-3.526-3.156c-1.831-0.916-3.554-1.166-5.169-0.753c-1.615,0.415-3.017,1.438-4.205,3.071
		c-0.569,0.829-1.968,3.471-4.196,7.925l-4.289,8.574L713.184,573.719z"/>
</g>
<path fill="none" stroke="#000000" stroke-width="10" stroke-miterlimit="10" d="M690.208,413.5
	c0,149.502-121.206,270.709-270.708,270.709c-149.509,0-270.708-121.207-270.708-270.709c0-149.509,121.2-270.708,270.708-270.708
	C569.002,142.792,690.208,263.991,690.208,413.5z"/>
<circle fill="none" stroke="#000000" stroke-width="10" stroke-miterlimit="10" cx="419.5" cy="413.5" r="400"/>
<g>
	<path d="M284,144.024l-21.827-45.597l-16.285,7.795l-4.444-9.284l43.613-20.877l4.444,9.284l-16.247,7.777l21.827,45.597
		L284,144.024z"/>
	<path d="M316.437,129.014L300.44,70.31l24.947-6.798c6.273-1.709,10.976-2.424,14.106-2.145c3.13,0.28,5.917,1.536,8.36,3.766
		c2.443,2.231,4.138,5.082,5.083,8.552c1.2,4.405,0.896,8.396-0.911,11.97c-1.808,3.576-5.186,6.439-10.134,8.59
		c2.97,0.797,5.533,1.862,7.689,3.196c2.156,1.334,5.271,3.898,9.344,7.692l10.289,9.5l-14.175,3.862l-12.05-10.438
		c-4.287-3.736-7.153-6.045-8.598-6.927s-2.855-1.373-4.229-1.472c-1.375-0.099-3.424,0.223-6.146,0.965l-2.403,0.655l6.678,24.507
		L316.437,129.014z M319.059,91.907l8.77-2.39c5.686-1.549,9.171-2.757,10.455-3.624c1.284-0.866,2.167-1.995,2.647-3.388
		c0.48-1.393,0.481-2.97,0.001-4.732c-0.539-1.976-1.5-3.427-2.886-4.354c-1.386-0.927-3.083-1.289-5.092-1.086
		c-0.998,0.129-3.899,0.847-8.704,2.157L315,77.011L319.059,91.907z"/>
	<path d="M368.67,84.521c-0.397-6.185,0.195-11.436,1.775-15.751c1.182-3.181,2.889-6.077,5.12-8.688
		c2.23-2.611,4.73-4.601,7.498-5.971c3.68-1.844,7.991-2.925,12.934-3.242c8.946-0.574,16.283,1.741,22.01,6.947
		c5.727,5.206,8.907,12.751,9.542,22.636c0.629,9.803-1.544,17.643-6.518,23.521c-4.974,5.878-11.92,9.104-20.839,9.676
		c-9.029,0.579-16.386-1.714-22.068-6.881C372.441,101.601,369.29,94.186,368.67,84.521z M381.276,83.296
		c0.441,6.875,2.363,11.986,5.767,15.33c3.403,3.345,7.549,4.86,12.436,4.546c4.887-0.313,8.785-2.331,11.693-6.053
		c2.908-3.722,4.136-9.103,3.684-16.144c-0.447-6.958-2.306-12.051-5.576-15.28c-3.271-3.228-7.433-4.68-12.486-4.356
		c-5.053,0.325-9.015,2.319-11.885,5.982C382.039,70.986,380.828,76.311,381.276,83.296z"/>
	<path d="M436.422,111.656l7.773-60.346l19.553,2.519c7.409,0.955,12.2,1.879,14.373,2.772c3.341,1.351,5.982,3.693,7.925,7.026
		c1.941,3.333,2.604,7.401,1.984,12.203c-0.477,3.705-1.551,6.733-3.221,9.084s-3.634,4.114-5.891,5.288
		c-2.258,1.174-4.486,1.856-6.688,2.047c-2.983,0.201-7.232-0.053-12.748-0.764l-7.945-1.023l-2.932,22.764L436.422,111.656z
		 M455.064,63.088l-2.206,17.124l6.669,0.859c4.802,0.619,8.054,0.717,9.754,0.294c1.7-0.422,3.097-1.247,4.189-2.473
		s1.754-2.731,1.983-4.515c0.283-2.195-0.129-4.089-1.234-5.683c-1.106-1.593-2.624-2.695-4.554-3.307
		c-1.42-0.461-4.324-0.976-8.715-1.541L455.064,63.088z"/>
	<path d="M489.983,119.257l18.9-57.834l11.678,3.816l-7.439,22.763l22.882,7.478l7.438-22.763l11.678,3.816l-18.901,57.834
		l-11.677-3.816l8.264-25.288l-22.881-7.478l-8.265,25.288L489.983,119.257z"/>
	<path d="M559.371,146.267l12.358-22.429l-2.517-41.618l12.614,6.95l0.925,27.994l23.903-14.314l12.396,6.83l-36.638,20.14
		l-12.318,22.356L559.371,146.267z"/>
</g>
<path fill="none" stroke="#000000" stroke-width="10" stroke-miterlimit="10" d="M737.491,484.571
	c17.234-77.01,6.731-160.452-35.836-234.181"/>
<path fill="none" stroke="#000000" stroke-width="10" stroke-miterlimit="10" d="M100.999,484.571
	c-17.234-77.01-6.731-160.452,35.836-234.181"/>
<path fill-rule="evenodd" clip-rule="evenodd" d="M439.763,327.113c14.323,10.079,18.865,25.02,20.494,41.437
	c0.461,4.632-1.334,7.117-4.804,7.379c-3.261,0.246-5.077-2.298-6.024-6.676c-1.514-6.984-3.015-14.069-5.536-20.694
	c-3.057-8.032-9.485-12.738-17.463-15.002c-2.893-0.821-5.24-1.937-5.368-5.565c-0.124-3.582,2.101-4.923,4.871-6.102
	c9.762-4.152,15.443-12.603,15.376-22.587c-0.071-10.478-5.716-18.996-15.091-22.772c-11.731-4.727-25.009,1.211-29.825,13.34
	c-4.823,12.149,0.486,26.038,12.007,31.385c0.806,0.374,1.642,0.683,2.471,1.002c2.47,0.952,4.083,2.55,3.984,5.512
	c-0.103,3.098-1.787,4.738-4.538,5.474c-12.757,3.413-19.144,12.824-22.027,25.409c-0.903,3.941-1.36,7.989-2.135,11.964
	c-0.739,3.791-3.259,5.787-6.331,5.202c-3.122-0.595-4.74-3.249-4.297-7.119c1.23-10.769,3.342-21.327,9.602-30.28
	c2.983-4.269,6.898-7.836,10.406-11.735c-19.169-19.649-12.016-43.352-0.53-54.002c13.276-12.313,33.703-11.812,46.88,0.982
	C453.582,285.021,457.96,310.101,439.763,327.113z"/>
<path fill-rule="evenodd" clip-rule="evenodd" d="M234.697,456.987c-8.793-8.333-14.736-17.503-17.287-28.893
	c-6.126-27.371,7.914-53.329,34.009-62.633c23.795-8.483,51.301,4.127,61.505,28.992c2.63,6.407,3.244,13.888,3.744,20.953
	c0.171,2.428-2.286,6.323-4.502,7.375c-3.544,1.686-7.53,0.224-9.521-3.795c-0.985-1.99-1.369-4.422-1.564-6.696
	c-1.419-16.564-15.063-31.121-30.443-32.334c-17.995-1.421-33.692,9.861-37.643,27.055c-3.93,17.105,4.339,34.576,19.621,41.426
	c1.716,0.77,4.027,0.981,5.073,2.297c1.847,2.327,4.078,5.342,4.002,8.002c-0.07,2.443-2.599,6.433-4.682,6.945
	c-26.842,6.598-33.532,28.167-36.904,52.37c-0.214,1.535-0.291,3.113-0.688,4.597c-1.28,4.783-4.352,7.331-9.154,6.563
	c-4.875-0.777-7.219-4.448-6.653-9.218C206.53,495.354,212.34,472.114,234.697,456.987z"/>
<path fill-rule="evenodd" clip-rule="evenodd" d="M608.49,457.504c23.036,15.582,29.01,38.532,32.051,62.947
	c0.705,5.656-2.268,9.536-6.977,10.117c-4.625,0.57-7.822-2.659-9.063-8.223c-2.269-10.167-4.095-20.55-7.547-30.293
	c-4.55-12.845-14.307-20.661-26.976-24.17c-4.494-1.244-7.723-3.304-7.958-8.313c-0.239-5.108,3.158-7.279,7.32-9.008
	c15.416-6.407,23.714-19.839,22.757-36.343c-0.859-14.783-11.127-27.689-25.489-32.04c-20.49-6.208-41.991,9.665-43.696,32.232
	c-0.145,1.92-0.067,4.011-0.788,5.704c-1.619,3.801-4.761,5.457-8.702,4.71c-4.582-0.869-6.646-4.149-6.516-8.794
	c0.528-18.627,8.213-33.351,23.321-43.371c21.844-14.484,50.526-9.686,66.444,10.656c16.582,21.191,15.357,50.902-2.993,70.593
	C612.418,455.263,610.606,456.064,608.49,457.504z"/>
<path fill-rule="evenodd" clip-rule="evenodd" d="M556.342,522.634c23.055,15.633,29.145,38.307,32.291,62.522
	c0.717,5.521-1.947,9.818-6.408,10.601c-4.957,0.869-8.266-2.254-9.583-8.137c-2.232-9.967-4.117-20.115-7.459-29.696
	c-4.473-12.82-13.813-20.874-26.562-24.616c-2.272-0.667-4.778-1.636-6.407-3.282c-4.468-4.518-2.03-11.24,4.768-13.878
	c18.21-7.068,27.462-26.464,21.532-45.142c-7.621-24.012-36.111-32.585-54.91-16.513c-1.153,0.983-2.193,2.108-3.311,3.141
	c-4.101,3.786-8.672,3.924-11.917,0.374c-3.172-3.472-3.109-7.927,0.458-11.951c8.043-9.077,18.174-14.328,29.804-16.013
	c30.783-4.46,58.327,20.77,57.756,52.972c-0.242,13.659-4.762,25.833-14.217,35.666
	C560.758,520.155,558.758,521.028,556.342,522.634z"/>
<path fill-rule="evenodd" clip-rule="evenodd" d="M283.683,522.131c-9.915-8.749-15.64-19.329-18.091-31.926
	c-5.145-26.444,11.965-53.613,37.236-59.899c17.589-4.374,32.83-0.228,46.576,11.404c6.286,5.319,7.341,10.797,2.903,15.181
	c-3.628,3.584-8.321,3.332-12.276-1.386c-8.999-10.733-20.849-12.268-32.86-9.568c-12.735,2.861-21.253,12.157-24.853,25.199
	c-3.547,12.85-0.976,24.896,8.3,34.372c3.989,4.074,9.815,6.143,14.353,9.737c2.548,2.02,5.246,5.033,5.941,8.074
	c0.894,3.906-1.951,6.947-5.86,7.947c-23.805,6.095-31.657,24.998-35.371,47.247c-0.478,2.868-0.688,5.789-1.28,8.629
	c-1.105,5.298-4.533,8.017-9.085,7.459c-4.352-0.534-7.3-4.246-6.692-9.714C255.353,560.355,261.497,537.509,283.683,522.131z"/>
<path fill-rule="evenodd" clip-rule="evenodd" d="M328.775,248.271l-0.403-21.902h178.474l0.071,23.183
	c2.668-0.669,4.921-1.005,7.007-1.788c26.513-9.986,50.001-4.228,64.187,15.809c16.002,22.602,16.23,51.841-4.388,70.937
	c-18.655,17.275-41.609,29.904-62.655,44.597c-5.865,4.095-11.687,8.247-18.203,12.849c2.813,2.053,3.777,3.059,4.04,2.901
	c6.85-4.138,14.764-8.106,18.77,1.94c3.869,9.691-1.587,17.887-10.884,21.438c-12.56,4.796-22.91,0.011-30.214-10.518
	c-1.573,0.251-2.639,0.126-3.342,0.576c-8.978,5.76-27.762,3.825-28.164,31.027l-0.051,28.658c0,8.934,6.728,15.145,10.166,17.817
	c9.926,7.715,21.088,14.037,29.934,22.883c11.204,11.207,1.268,20.81-8.47,20.81l-115.646-0.068
	c-22.989,0-11.033-16.539-7.854-19.414c9.628-8.712,19.798-17.122,30.848-23.857c6.991-4.263,8.76-8.66,9.84-16.563l-0.094-25.591
	c0-19.752-0.766-24.387-20.512-30.88c-6.905-2.271-10.99-4.116-17.287,1.352c-4.06,3.526-11.746,5.99-16.651,4.662
	c-6.415-1.736-12.819-6.818-16.964-12.202c-1.989-2.585,0.06-12.488,2.309-13.277c5.19-1.814,11.621-0.084,20.943,0.373
	c-4.966-4.354-8.341-7.961-12.319-10.694c-22.73-15.611-47.228-29.139-67.929-47.066c-17.359-15.034-21.603-36.983-12.772-59.593
	c8.161-20.887,23.771-32.815,46.004-33.661C306.929,242.611,317.447,246.287,328.775,248.271z M350.455,244.014
	c0,0-0.229,68.57,0.366,95.814c0.668,30.543,19.279,57.157,48.916,65.605l7.742,3.654l0.47,69.475h19.536v-70.543l13.168-5.644
	c26.215-8.063,43.326-34.57,43.895-61.802c0.576-27.716,0.077-96.545,0.077-96.545L350.455,244.014z M504.485,358.257
	c22.574-10.417,42.916-21.02,56.554-40.487c16.106-22.993,5.897-48.998-20.421-54.114c-10.912-2.123-20.768,0.598-25.088,10.49
	c-2.744,6.28-2.708,15.826,0.139,22.051c4.892,10.688,14.566,6.219,23.408,3.879c3.535-0.937,10.171,0.854,11.642,3.497
	c1.654,2.968,0.542,9.923-2.011,12.232c-4.188,3.792-10.411,6.975-15.946,7.278c-9.047,0.496-18.234-1.53-28.276-2.588
	C504.485,332.035,504.485,343.937,504.485,358.257z M331.041,358.615c-0.634-13.689-1.181-25.497-1.626-35.089
	c-13.217-1.024-24.981-0.496-35.778-3.477c-4.412-1.218-12.041-7.324-9.992-15.401c2.049-8.077,11.306-2.312,16.934-3.574
	c6.675-1.493,16.641-1.058,19.167-5.158c3.358-5.456,3.829-16.738,0.223-21.417c-4.573-5.93-14.654-11.1-22.061-10.722
	c-24.974,1.265-38.139,27.341-26.038,49.485C284.581,336.527,307.951,345.93,331.041,358.615z M365.643,515.938h104.404
	C439.789,485.682,394.8,485.615,365.643,515.938z"/>
<path fill-rule="evenodd" clip-rule="evenodd" d="M307.283,600.633l0.233-54.224c0.003-10.405,5.13-9.082,15.596-9.088
	c63.482-0.033,126.963-0.042,190.443-0.196c10.987-0.027,16.247,0.351,16.247,8.452l-0.388,55.056H307.283z M509.313,583.968
	v-30.186H327.772v30.191L509.313,583.968z"/>
</svg>
