<?xml version="1.0" encoding="utf-8"?>
<!-- Generator: Adobe Illustrator 16.0.0, SVG Export Plug-In . SVG Version: 6.00 Build 0)  -->
<!DOCTYPE svg PUBLIC "-//W3C//DTD SVG 1.1//EN" "http://www.w3.org/Graphics/SVG/1.1/DTD/svg11.dtd">
<svg version="1.1" id="Layer_1" xmlns="http://www.w3.org/2000/svg" xmlns:xlink="http://www.w3.org/1999/xlink" x="0px" y="0px"
	 width="830px" height="826px" viewBox="0 0 830 826" enable-background="new 0 0 830 826" xml:space="preserve">
<g>
	<path d="M72.439,462.688l3.65,11.441c-3.771,1.547-6.345,3.594-7.722,6.14c-1.377,2.546-1.672,5.646-0.887,9.297
		c0.832,3.868,2.277,6.606,4.336,8.216s4.184,2.178,6.375,1.707c1.406-0.303,2.514-0.973,3.325-2.011
		c0.81-1.037,1.359-2.663,1.647-4.875c0.184-1.512,0.36-4.903,0.528-10.176c0.21-6.781,1.2-11.72,2.968-14.817
		c2.487-4.356,6.084-7.041,10.791-8.053c3.029-0.652,6.048-0.403,9.055,0.747c3.007,1.15,5.548,3.193,7.623,6.129
		c2.075,2.936,3.604,6.689,4.588,11.261c1.606,7.466,1.179,13.438-1.282,17.916c-2.461,4.478-6.404,7.398-11.827,8.764
		l-3.111-11.896c2.946-1.172,4.907-2.748,5.882-4.726c0.976-1.979,1.099-4.659,0.372-8.04c-0.751-3.49-2.056-6.068-3.914-7.733
		c-1.193-1.074-2.561-1.444-4.103-1.113c-1.407,0.303-2.483,1.156-3.227,2.563c-0.946,1.788-1.479,5.752-1.602,11.892
		s-0.62,10.769-1.492,13.885c-0.872,3.117-2.416,5.742-4.631,7.874c-2.216,2.133-5.204,3.604-8.964,4.412
		c-3.408,0.733-6.804,0.474-10.187-0.779c-3.383-1.254-6.171-3.456-8.362-6.607c-2.192-3.151-3.844-7.31-4.956-12.477
		c-1.618-7.521-1.123-13.669,1.486-18.447C61.406,468.4,65.953,464.903,72.439,462.688z"/>
	<path d="M95.209,517.938c5.713-2.403,10.867-3.567,15.462-3.489c3.393,0.073,6.688,0.734,9.887,1.985
		c3.198,1.251,5.898,2.959,8.1,5.125c2.949,2.871,5.385,6.589,7.306,11.154c3.477,8.263,3.696,15.953,0.658,23.071
		c-3.039,7.116-9.124,12.597-18.253,16.439c-9.054,3.81-17.173,4.329-24.357,1.56c-7.185-2.771-12.51-8.274-15.977-16.512
		c-3.509-8.34-3.756-16.042-0.739-23.104C80.312,527.104,86.283,521.694,95.209,517.938z M100.502,529.444
		c-6.351,2.673-10.547,6.165-12.59,10.477c-2.043,4.312-2.115,8.725-0.215,13.239c1.9,4.514,5.084,7.534,9.554,9.061
		c4.47,1.525,9.956,0.921,16.459-1.816c6.427-2.704,10.628-6.131,12.605-10.279c1.976-4.149,1.983-8.558,0.019-13.225
		c-1.964-4.667-5.148-7.755-9.55-9.265C112.381,526.126,106.954,526.729,100.502,529.444z"/>
	<path d="M139.112,618.47l3.497,11.997c-6.532,2.182-12.32,2.406-17.363,0.674c-5.043-1.732-9.382-5.311-13.019-10.734
		c-4.5-6.71-5.906-13.763-4.218-21.157c1.688-7.396,6.507-13.758,14.458-19.09c8.411-5.64,16.4-7.849,23.966-6.625
		c7.566,1.223,13.722,5.373,18.468,12.451c4.146,6.182,5.686,12.429,4.62,18.739c-0.62,3.746-2.566,7.551-5.84,11.412l-9.186-8.482
		c2.219-2.354,3.451-4.988,3.697-7.9c0.246-2.913-0.541-5.727-2.359-8.438c-2.512-3.746-5.894-5.884-10.147-6.413
		c-4.253-0.53-9.39,1.225-15.411,5.262c-6.389,4.283-10.169,8.483-11.339,12.6c-1.171,4.116-0.523,8.014,1.942,11.69
		c1.818,2.712,4.244,4.467,7.278,5.265C131.19,620.517,134.842,620.101,139.112,618.47z"/>
	<path d="M137.283,651.881l45.822-40.03l8.083,9.252l-45.822,40.03L137.283,651.881z"/>
	<path d="M197.182,710.042l-9.997-8.869l5.198-13.864l-18.193-16.141l-12.929,7.006l-9.749-8.648l58.107-29.787l9.718,8.621
		L197.182,710.042z M196.237,677.023l8.712-22.453l-21.131,11.436L196.237,677.023z"/>
	<path d="M255.388,745.888l-11.452-6.889l2.572-14.581l-20.841-12.537l-11.428,9.254l-11.167-6.718l51.672-39.922l11.132,6.696
		L255.388,745.888z M248.414,713.601l4.455-23.669l-18.681,15.111L248.414,713.601z"/>
	<path d="M267.774,750.927l21.835-56.258l11.453,4.445l-18.125,46.701l28.477,11.053l-3.709,9.557L267.774,750.927z"/>
	<path d="M323.053,750.555l11.938,1.301c-0.114,4.074,0.713,7.257,2.483,9.548c1.769,2.291,4.482,3.816,8.139,4.579
		c3.874,0.807,6.962,0.597,9.269-0.634c2.305-1.229,3.687-2.941,4.144-5.135c0.293-1.408,0.13-2.693-0.49-3.854
		c-0.621-1.161-1.884-2.321-3.79-3.481c-1.307-0.781-4.336-2.317-9.087-4.607c-6.114-2.941-10.228-5.848-12.343-8.72
		c-2.974-4.039-3.97-8.416-2.987-13.13c0.632-3.033,2.083-5.691,4.354-7.974c2.27-2.283,5.168-3.777,8.693-4.484
		c3.524-0.707,7.576-0.583,12.154,0.371c7.476,1.558,12.762,4.369,15.858,8.435c3.095,4.064,4.167,8.854,3.217,14.364l-12.137-1.979
		c0.123-3.168-0.522-5.599-1.935-7.293c-1.414-1.693-3.813-2.893-7.199-3.599c-3.494-0.729-6.38-0.58-8.656,0.443
		c-1.465,0.655-2.358,1.755-2.68,3.299c-0.294,1.409,0.051,2.738,1.034,3.989c1.251,1.589,4.659,3.684,10.222,6.285
		c5.563,2.601,9.592,4.932,12.088,6.991c2.496,2.062,4.269,4.536,5.32,7.426c1.051,2.891,1.184,6.219,0.4,9.983
		c-0.711,3.413-2.326,6.411-4.843,8.996c-2.518,2.585-5.661,4.24-9.429,4.966c-3.77,0.727-8.241,0.551-13.415-0.527
		c-7.531-1.569-12.951-4.515-16.261-8.837C323.803,762.956,322.449,757.382,323.053,750.555z"/>
	<path d="M397.538,782.272l2.137-50.507l-18.038-0.764l0.435-10.283l48.309,2.044l-0.435,10.284l-17.997-0.762l-2.137,50.506
		L397.538,782.272z"/>
	<path d="M441.607,782.877l-7.19-60.419l44.799-5.331l1.216,10.221l-32.6,3.88l1.595,13.394l30.333-3.609l1.211,10.18l-30.333,3.609
		l1.957,16.444l33.754-4.018l1.212,10.18L441.607,782.877z"/>
	<path d="M507.803,710.24l20.943-8.096c4.723-1.826,8.463-2.856,11.22-3.092c3.708-0.306,7.232,0.334,10.575,1.919
		c3.342,1.586,6.334,3.952,8.974,7.1c2.641,3.146,4.988,7.379,7.044,12.695c1.806,4.671,2.781,8.922,2.927,12.751
		c0.177,4.679-0.557,8.804-2.202,12.376c-1.239,2.704-3.339,5.252-6.301,7.643c-2.221,1.777-5.446,3.484-9.679,5.12l-21.563,8.336
		L507.803,710.24z M522.973,715.411l14.531,37.59l8.555-3.308c3.2-1.237,5.44-2.311,6.721-3.221
		c1.678-1.183,2.916-2.565,3.713-4.149c0.797-1.583,1.091-3.796,0.883-6.638c-0.209-2.841-1.161-6.455-2.857-10.843
		c-1.695-4.388-3.385-7.605-5.066-9.655c-1.683-2.049-3.475-3.463-5.377-4.24s-4.015-0.984-6.337-0.621
		c-1.739,0.258-4.945,1.289-9.616,3.095L522.973,715.411z"/>
	<path d="M592.866,740.65l-32.029-51.731l21.984-13.611c5.527-3.423,9.833-5.445,12.913-6.067c3.081-0.622,6.109-0.211,9.087,1.232
		c2.977,1.444,5.411,3.695,7.305,6.753c2.403,3.882,3.247,7.794,2.531,11.735c-0.717,3.942-3.141,7.648-7.273,11.117
		c3.074-0.08,5.835,0.212,8.28,0.878c2.446,0.666,6.162,2.238,11.146,4.717l12.565,6.182l-12.492,7.734l-14.521-6.581
		c-5.173-2.362-8.577-3.762-10.213-4.196s-3.128-0.505-4.474-0.208c-1.347,0.296-3.219,1.188-5.618,2.673l-2.117,1.311
		l13.371,21.597L592.866,740.65z M584.828,704.33l7.728-4.785c5.011-3.103,8.009-5.251,8.993-6.446s1.51-2.529,1.574-4.002
		c0.065-1.472-0.383-2.984-1.345-4.537c-1.077-1.74-2.412-2.858-4.005-3.354c-1.592-0.494-3.322-0.359-5.19,0.407
		c-0.92,0.407-3.497,1.921-7.731,4.543l-8.151,5.047L584.828,704.33z"/>
	<path d="M647.487,704.188l-38.35-47.237l9.537-7.743l38.351,47.237L647.487,704.188z"/>
	<path d="M669.994,686.035l-44.029-41.994l8.249-8.649l46.591,10.023l-29.403-28.044l7.878-8.259l44.029,41.994l-8.508,8.92
		l-45.642-9.635l28.712,27.385L669.994,686.035z"/>
	<path d="M715.81,635.397l-50.964-33.237l6.711-10.29l22.631,14.76l-9.073-35.549l9.024-13.836l7.335,32.136l44.309,0.059
		l-8.684,13.315l-33.055-1.589l3.076,13.897l15.4,10.044L715.81,635.397z"/>
	<path d="M751.282,577.529l-56.05-23.676l17.555-41.56l9.482,4.005l-12.774,30.243l12.426,5.248l11.886-28.14l9.443,3.989
		l-11.886,28.14l15.255,6.443l13.227-31.313l9.443,3.989L751.282,577.529z"/>
	<path d="M774.581,518.485l-59.373-13.303l5.653-25.231c1.422-6.345,2.988-10.836,4.699-13.473c1.711-2.636,4.123-4.513,7.237-5.63
		c3.114-1.116,6.427-1.282,9.936-0.496c4.455,0.999,7.841,3.133,10.156,6.401c2.316,3.27,3.269,7.595,2.856,12.975
		c2.093-2.253,4.232-4.021,6.42-5.303c2.187-1.282,5.909-2.837,11.168-4.665l13.207-4.654l-3.213,14.337l-14.861,5.772
		c-5.307,2.044-8.688,3.498-10.143,4.362c-1.455,0.865-2.549,1.883-3.278,3.052c-0.73,1.169-1.403,3.13-2.021,5.885l-0.544,2.43
		l24.785,5.554L774.581,518.485z M743.004,498.82l1.987-8.869c1.289-5.751,1.851-9.396,1.685-10.937
		c-0.165-1.539-0.751-2.848-1.758-3.924c-1.006-1.076-2.4-1.813-4.183-2.213c-1.997-0.448-3.73-0.275-5.198,0.516
		c-1.467,0.791-2.581,2.122-3.34,3.993c-0.353,0.942-1.074,3.843-2.163,8.703l-2.096,9.355L743.004,498.82z"/>
</g>
<path fill="none" stroke="#000000" stroke-width="10" stroke-miterlimit="10" d="M690.208,413.5
	c0,149.502-121.206,270.709-270.708,270.709c-149.509,0-270.708-121.207-270.708-270.709c0-149.509,121.2-270.708,270.708-270.708
	C569.002,142.792,690.208,263.991,690.208,413.5z"/>
<path fill="none" stroke="#000000" stroke-width="10" stroke-miterlimit="10" d="M95.247,433.354
	c-0.396-6.567-0.597-13.188-0.597-19.854c0-110.878,55.549-208.781,140.336-267.398"/>
<path fill="none" stroke="#000000" stroke-width="10" stroke-miterlimit="10" d="M601.123,144.129
	C687.534,202.507,744.35,301.368,744.35,413.5c0,6.667-0.201,13.287-0.598,19.855"/>
<circle fill="none" stroke="#000000" stroke-width="10" stroke-miterlimit="10" cx="419.5" cy="413.5" r="400"/>
<g>
	<path d="M284,144.024l-21.827-45.597l-16.285,7.795l-4.444-9.284l43.613-20.877l4.444,9.284l-16.247,7.777l21.827,45.597
		L284,144.024z"/>
	<path d="M316.437,129.014L300.44,70.31l24.947-6.798c6.273-1.709,10.976-2.424,14.106-2.145c3.13,0.28,5.917,1.536,8.36,3.766
		c2.443,2.231,4.138,5.082,5.083,8.552c1.2,4.405,0.896,8.396-0.911,11.97c-1.808,3.576-5.186,6.439-10.134,8.59
		c2.97,0.797,5.533,1.862,7.689,3.196c2.156,1.334,5.271,3.898,9.344,7.692l10.289,9.5l-14.175,3.862l-12.05-10.438
		c-4.287-3.736-7.153-6.045-8.598-6.927s-2.855-1.373-4.229-1.472c-1.375-0.099-3.424,0.223-6.146,0.965l-2.403,0.655l6.678,24.507
		L316.437,129.014z M319.059,91.907l8.77-2.39c5.686-1.549,9.171-2.757,10.455-3.624c1.284-0.866,2.167-1.995,2.647-3.388
		c0.48-1.393,0.481-2.97,0.001-4.732c-0.539-1.976-1.5-3.427-2.886-4.354c-1.386-0.927-3.083-1.289-5.092-1.086
		c-0.998,0.129-3.899,0.847-8.704,2.157L315,77.011L319.059,91.907z"/>
	<path d="M368.67,84.521c-0.397-6.185,0.195-11.436,1.775-15.751c1.182-3.181,2.889-6.077,5.12-8.688
		c2.23-2.611,4.73-4.601,7.498-5.971c3.68-1.844,7.991-2.925,12.934-3.242c8.946-0.574,16.283,1.741,22.01,6.947
		c5.727,5.206,8.907,12.751,9.542,22.636c0.629,9.803-1.544,17.643-6.518,23.521c-4.974,5.878-11.92,9.104-20.839,9.676
		c-9.029,0.579-16.386-1.714-22.068-6.881C372.441,101.601,369.29,94.186,368.67,84.521z M381.276,83.296
		c0.441,6.875,2.363,11.986,5.767,15.33c3.403,3.345,7.549,4.86,12.436,4.546c4.887-0.313,8.785-2.331,11.693-6.053
		c2.908-3.722,4.136-9.103,3.684-16.144c-0.447-6.958-2.306-12.051-5.576-15.28c-3.271-3.228-7.433-4.68-12.486-4.356
		c-5.053,0.325-9.015,2.319-11.885,5.982C382.039,70.986,380.828,76.311,381.276,83.296z"/>
	<path d="M436.422,111.656l7.773-60.346l19.553,2.519c7.409,0.955,12.2,1.879,14.373,2.772c3.341,1.351,5.982,3.693,7.925,7.026
		c1.941,3.333,2.604,7.401,1.984,12.203c-0.477,3.705-1.551,6.733-3.221,9.084s-3.634,4.114-5.891,5.288
		c-2.258,1.174-4.486,1.856-6.688,2.047c-2.983,0.201-7.232-0.053-12.748-0.764l-7.945-1.023l-2.932,22.764L436.422,111.656z
		 M455.064,63.088l-2.206,17.124l6.669,0.859c4.802,0.619,8.054,0.717,9.754,0.294c1.7-0.422,3.097-1.247,4.189-2.473
		s1.754-2.731,1.983-4.515c0.283-2.195-0.129-4.089-1.234-5.683c-1.106-1.593-2.624-2.695-4.554-3.307
		c-1.42-0.461-4.324-0.976-8.715-1.541L455.064,63.088z"/>
	<path d="M489.983,119.257l18.9-57.834l11.678,3.816l-7.439,22.763l22.882,7.478l7.438-22.763l11.678,3.816l-18.901,57.834
		l-11.677-3.816l8.264-25.288l-22.881-7.478l-8.265,25.288L489.983,119.257z"/>
	<path d="M559.371,146.267l12.358-22.429l-2.517-41.618l12.614,6.95l0.925,27.994l23.903-14.314l12.396,6.83l-36.638,20.14
		l-12.318,22.356L559.371,146.267z"/>
</g>
<path fill-rule="evenodd" clip-rule="evenodd" fill="#010101" d="M556.718,570.61c4.715-2.97,19.443-17.245,21.951-21.27
	c-0.339-0.336-0.678-0.713-1.059-1.042c-0.977-0.847-1.953-1.693-2.961-2.503c-6.405-5.152-10.054-11.946-11.574-19.896
	c-1.869-9.77-0.675-19.205,3.604-28.216c0.333-0.7,0.67-1.407,1.097-2.049c1.111-1.672,2.87-2.188,4.751-1.429
	c0.477,0.192,0.922,0.466,1.377,0.711c2.575,1.393,5.155,2.776,7.723,4.182c8.888,4.864,13.87,12.372,15.133,22.392
	c0.086,0.684,0.176,1.367,0.283,2.048c0.026,0.162,0.131,0.313,0.259,0.606c0.265-0.249,0.554-0.427,0.711-0.684
	c5.081-8.315,9.502-16.964,13.242-26.109c-0.501-0.313-0.888-0.635-1.331-0.82c-1.51-0.63-3.034-1.224-4.561-1.81
	c-5.107-1.96-9.353-5.123-12.811-9.322c-5.345-6.488-8.365-13.981-9.475-22.287c-0.518-3.871-0.532-7.729,0.027-11.591
	c0.062-0.426,0.075-0.862,0.169-1.28c0.519-2.319,2.181-3.528,4.541-3.191c2.385,0.34,4.756,0.783,7.131,1.195
	c1.78,0.31,3.586,0.53,5.332,0.979c8.819,2.268,15.028,7.712,19.037,15.799c0.364,0.737,0.468,1.651,1.256,2.219
	c1.867-5.012,4.719-25.177,4.224-29.979c-0.442-0.076-0.926-0.2-1.416-0.234c-1.547-0.11-3.095-0.23-4.645-0.268
	c-6.13-0.146-11.672-2.114-16.677-5.55c-9.107-6.252-14.95-14.847-17.872-25.46c-0.342-1.243-0.621-2.51-0.834-3.782
	c-0.396-2.362,0.736-4.201,3.023-4.615c4.234-0.768,8.474-1.645,12.751-2.017c8.85-0.768,16.396,2.31,22.727,8.476
	c0.728,0.71,1.469,1.405,2.212,2.116c0.513-3.681-3.35-24.592-5.545-29.848c-0.604,0.102-1.269,0.155-1.899,0.33
	c-2.075,0.569-4.112,1.294-6.21,1.756c-5.945,1.307-11.836,0.886-17.578-1.052c-10.727-3.623-18.902-10.419-24.653-20.154
	c-0.131-0.223-0.265-0.444-0.38-0.675c-1.177-2.34-0.723-4.218,1.538-5.488c3.527-1.981,7.042-4.015,10.706-5.718
	c8.345-3.877,16.694-3.492,24.935,0.467c0.772,0.373,1.535,0.766,2.308,1.141c0.066,0.032,0.162,0.004,0.271,0.004
	c0.413-0.435-0.017-0.804-0.167-1.133c-3.534-7.768-11.367-21.148-14.79-25.268c-0.411,0.204-0.886,0.372-1.286,0.649
	c-1.417,0.98-2.802,2.005-4.21,2.999c-4.997,3.526-10.619,5.329-16.667,5.626c-11.701,0.573-22.037-3.073-31.066-10.494
	c-0.597-0.491-1.192-1.001-1.703-1.579c-1.282-1.45-1.348-3.131-0.245-4.734c0.146-0.212,0.315-0.41,0.492-0.599
	c2.698-2.902,5.311-5.893,8.123-8.68c4.291-4.25,9.511-6.701,15.497-7.608c5.701-0.864,11.145,0.045,16.465,2.069
	c0.868,0.331,1.733,0.67,2.69,1.041c0.216-0.934-0.179-1.628-0.393-2.335c-1.682-5.566-2.608-11.235-2.352-17.067
	c0.325-7.402,2.627-13.997,7.88-19.409c1.8-1.854,3.513-3.793,5.268-5.691c0.351-0.38,0.688-0.776,1.072-1.12
	c1.595-1.427,3.443-1.47,5.154-0.137c0.203,0.159,0.395,0.335,0.581,0.514c7.343,7.067,12.819,15.292,15.529,25.205
	c1.734,6.349,2.042,12.75,0.232,19.138c-1.577,5.568-4.67,10.13-9.383,13.546c-1.466,1.062-2.945,2.103-4.406,3.169
	c-0.338,0.247-0.628,0.556-1.061,0.945c1.202,1.847,2.382,3.623,3.524,5.422c1.154,1.818,2.293,3.646,3.397,5.494
	c1.062,1.774,2.096,3.565,3.095,5.374c1.041,1.884,2.018,3.804,3.038,5.701c1.003,1.866,1.811,3.842,3.075,6.046
	c0.487-2.202,0.844-3.946,1.263-5.674c0.898-3.704,2.265-7.226,4.209-10.513c2.604-4.4,6.091-7.886,10.628-10.294
	c2.51-1.332,4.998-2.706,7.501-4.051c0.529-0.285,1.063-0.576,1.625-0.782c1.686-0.616,3.288-0.131,4.339,1.318
	c0.352,0.484,0.618,1.034,0.893,1.569c3.832,7.462,6.079,15.367,6.378,23.762c0.224,6.273-0.729,12.372-3.4,18.118
	c-3.457,7.435-8.973,12.519-16.958,14.768c-1.73,0.487-3.443,1.042-5.303,1.607c0.075,0.676,0.064,1.266,0.212,1.813
	c2.106,7.828,3.64,15.77,4.777,23.792c0.274,1.933,0.495,3.875,0.737,5.794c0.74,0.025,0.809-0.479,1.029-0.816
	c1.517-2.298,2.952-4.655,4.565-6.882c1.674-2.31,3.725-4.295,5.981-6.047c3.671-2.85,7.752-4.76,12.392-5.438
	c2.64-0.386,5.26-0.905,7.892-1.349c0.68-0.115,1.365-0.212,2.052-0.247c2.192-0.109,3.609,0.943,4.107,3.096
	c0.194,0.834,0.243,1.704,0.348,2.558c0.935,7.703,0.502,15.31-1.73,22.766c-1.932,6.45-4.97,12.289-9.822,17.061
	c-5.558,5.466-12.183,8.271-20.051,7.9c-1.462-0.067-2.925-0.162-4.388-0.204c-0.49-0.015-0.982,0.098-1.489,0.154
	c-0.622,5.415-1.119,10.718-1.866,15.983c-0.733,5.183-1.721,10.33-2.644,15.766c0.554-0.37,0.976-0.579,1.308-0.884
	c2.743-2.517,5.715-4.712,8.991-6.482c5.197-2.808,10.705-4.348,16.64-3.649c3.845,0.451,7.669,1.107,11.475,1.817
	c2.41,0.448,3.626,2.186,3.216,4.488c-2.062,11.57-6.688,21.869-15.274,30.127c-4.099,3.942-8.842,6.839-14.389,8.305
	c-5.059,1.336-10.058,1.184-14.982-0.624c-2.178-0.8-4.342-1.638-6.624-2.5c-0.293,0.474-0.614,0.87-0.806,1.321
	c-3.803,8.976-8.2,17.647-13.273,25.975c-0.212,0.347-0.362,0.731-0.537,1.092c0.755,0.498,1.254-0.054,1.755-0.265
	c3.831-1.61,7.781-2.76,11.913-3.273c5.888-0.729,11.506,0.081,16.773,2.906c2.655,1.425,5.302,2.866,7.949,4.308
	c0.453,0.246,0.917,0.487,1.329,0.794c1.51,1.119,1.955,2.828,1.225,4.589c-0.099,0.238-0.214,0.471-0.341,0.696
	c-5.142,9.118-11.956,16.608-21.202,21.717c-3.798,2.098-7.814,3.596-12.12,4.259c-8.072,1.243-15.413-0.308-21.75-5.699
	c-1.506-1.281-3.031-2.538-4.659-3.899c-0.436,0.356-0.863,0.621-1.185,0.981c-6.488,7.285-13.497,14.028-20.975,20.291
	c-0.297,0.25-0.776,0.405-0.709,1.079c0.656,0,1.313,0.028,1.968-0.004c4.936-0.243,9.813,0.047,14.578,1.482
	c4.892,1.474,9.125,3.989,12.561,7.811c1.844,2.051,3.735,4.058,5.603,6.086c0.351,0.38,0.721,0.747,1.031,1.157
	c1.328,1.752,1.24,3.529-0.239,5.139c-0.231,0.254-0.495,0.479-0.754,0.707c-7.166,6.317-15.255,10.896-24.644,12.981
	c-6.146,1.365-12.309,1.512-18.407-0.234c-6.561-1.879-11.735-5.647-15.257-11.575c-1.049-1.765-2.054-3.562-3.181-5.21
	c-1.001,0.015-1.593,0.567-2.247,0.931c-13.758,7.654-28.236,13.537-43.42,17.688c-0.831,0.228-1.654,0.499-2.498,0.652
	c-2.07,0.376-3.84-0.741-4.37-2.698c-0.522-1.93,0.475-3.735,2.499-4.474c0.565-0.206,1.155-0.345,1.737-0.501
	c14.536-3.899,28.395-9.486,41.585-16.73c0.82-0.451,1.614-0.952,2.543-1.502c-0.237-0.55-0.39-1.023-0.634-1.442
	c-0.864-1.49-1.772-2.954-2.645-4.439c-2.577-4.394-4.007-9.136-4.192-14.227c-0.478-13.155,4.276-24.224,13.441-33.516
	c0.362-0.367,0.743-0.725,1.159-1.027c1.499-1.091,3.344-1.021,4.758,0.178c0.393,0.333,0.732,0.729,1.083,1.107
	c2.106,2.277,4.241,4.53,6.308,6.842c6.757,7.557,8.864,16.328,6.759,26.179c-0.144,0.675-0.313,1.342-0.461,2.016
	C556.613,570.22,556.656,570.306,556.718,570.61z M594.81,261.479c-1.378,1.489-2.701,2.936-4.045,4.364
	c-2.231,2.373-3.678,5.161-4.513,8.296c-1.291,4.848-1.103,9.712-0.212,14.585c1.267,6.938,3.908,13.346,7.534,19.367
	c0.253,0.418,0.587,0.787,0.974,1.297c1.8-1.277,3.475-2.462,5.145-3.653c3.505-2.498,5.725-5.869,6.872-10
	c1.182-4.25,1.085-8.52,0.166-12.775c-1.714-7.933-5.602-14.737-10.999-20.727C595.51,261.989,595.215,261.808,594.81,261.479z
	 M661.537,466.813c-1.776-0.29-3.398-0.481-4.986-0.827c-4.766-1.037-9.224-0.123-13.511,2.003c-3.424,1.699-6.439,3.97-9.186,6.609
	c-5.025,4.83-8.895,10.483-11.912,16.74c-0.214,0.441-0.344,0.921-0.549,1.482c2.189,1.105,4.381,1.859,6.55,2.646
	c3.417,1.242,6.901,1.305,10.409,0.342c2.429-0.668,4.678-1.723,6.782-3.093c2.617-1.702,4.903-3.781,6.924-6.156
	c4.662-5.48,7.659-11.806,9.471-18.729C661.59,467.597,661.537,467.332,661.537,466.813z M636.229,537.127
	c-2.407-1.277-4.552-2.56-6.82-3.567c-1.47-0.653-3.097-1.024-4.691-1.314c-4.261-0.774-8.408-0.016-12.445,1.308
	c-8.613,2.824-15.781,7.914-22.049,14.358c-0.168,0.173-0.245,0.435-0.407,0.733c1.475,1.575,3.187,2.874,4.835,4.234
	c4.231,3.494,9.119,4.632,14.495,3.928c4.156-0.544,7.987-2.013,11.584-4.122c6.128-3.595,10.973-8.529,14.933-14.377
	C635.848,538.031,635.956,537.701,636.229,537.127z M633.092,429.817c1.914,0.094,3.545,0.118,5.165,0.264
	c5.992,0.54,10.967-1.59,15.188-5.724c2.365-2.316,4.194-5.023,5.615-7.998c3.421-7.171,4.543-14.765,4.059-22.638
	c-0.029-0.471-0.26-0.929-0.424-1.489c-1.941,0.326-3.708,0.676-5.489,0.911c-3.613,0.477-6.737,2.014-9.538,4.275
	c-2.23,1.799-4.084,3.946-5.723,6.288c-2.941,4.205-5.025,8.821-6.514,13.713C634.228,421.377,633.34,425.4,633.092,429.817z
	 M639.773,321.073c-1.856,1.006-3.42,1.893-5.019,2.71c-3.564,1.822-6.191,4.579-8.149,8.026c-1.76,3.097-2.858,6.432-3.587,9.9
	c-1.327,6.305-1.303,12.646-0.345,18.986c0.278,1.837,0.399,3.742,1.287,5.571c0.457-0.08,0.877-0.111,1.271-0.226
	c1.321-0.382,2.62-0.839,3.949-1.185c6.022-1.569,10.01-5.445,12.524-10.996c1.434-3.167,2.211-6.5,2.471-9.959
	c0.533-7.078-0.686-13.876-3.283-20.45C640.613,322.742,640.246,322.069,639.773,321.073z M589.535,595.429
	c-1.547-1.675-2.892-3.111-4.212-4.567c-2.313-2.553-5.164-4.252-8.42-5.292c-3.643-1.163-7.395-1.603-11.202-1.416
	c-8.023,0.396-15.563,2.621-22.726,6.189c-0.427,0.213-0.789,0.553-1.281,0.904c1.191,1.993,2.27,3.843,3.391,5.667
	c1.856,3.02,4.449,5.216,7.655,6.696c2.687,1.24,5.518,1.897,8.469,2.055c4.08,0.218,8.058-0.349,11.966-1.512
	C579.104,602.391,584.413,599.483,589.535,595.429z M540.455,542.195c-0.582,0.615-0.896,0.903-1.159,1.231
	c-4.65,5.776-7.428,12.354-8.201,19.724c-0.541,5.146,0.12,10.141,2.62,14.76c1.022,1.889,2.185,3.702,3.308,5.534
	c0.161,0.264,0.463,0.442,0.647,0.613c0.301-0.11,0.486-0.132,0.612-0.23c5.714-4.501,9.787-10.115,11.499-17.263
	c1.5-6.264,0.54-12.128-3.218-17.434C544.819,546.669,542.562,544.662,540.455,542.195z M624.996,429.297
	c0-0.86,0.078-1.55-0.012-2.217c-0.796-5.919-2.853-11.326-6.639-16.008c-1.857-2.298-4.048-4.224-6.627-5.684
	c-3.696-2.091-7.669-3.052-11.904-2.652c-2.224,0.211-4.43,0.628-6.634,1.004c-0.544,0.093-1.052,0.388-1.669,0.626
	c2.403,7.978,6.666,14.472,13.107,19.527C610.57,428.563,617.369,429.988,624.996,429.297z M587.959,313.875
	c-3.701-4.147-7.918-7.166-12.909-9.091c-2.671-1.03-5.43-1.623-8.296-1.727c-6.373-0.229-11.817,1.868-16.253,6.479
	c-1.253,1.302-2.47,2.64-3.675,3.986c-0.313,0.351-0.521,0.798-0.822,1.27c0.843,0.582,1.532,1.094,2.256,1.55
	c4.952,3.128,10.339,4.95,16.168,5.658C573.518,323.106,581.139,320.124,587.959,313.875z M583.593,543.299
	c0.229-0.244,0.498-0.458,0.673-0.732c3.965-6.222,5.908-12.974,5.066-20.367c-0.639-5.606-3.046-10.355-7.433-14
	c-2.731-2.27-5.964-3.674-9.229-5.38c-0.352,0.833-0.687,1.508-0.928,2.215c-2.046,5.974-2.508,12.067-1.559,18.316
	C571.513,532.098,576.255,538.491,583.593,543.299z M590.348,455.135c-0.082,1.042-0.19,1.724-0.181,2.402
	c0.094,6.945,1.882,13.4,5.448,19.392c4.126,6.934,10.402,10.773,17.98,12.825c0.074,0.021,0.167-0.029,0.352-0.068
	c0.168-0.517,0.398-1.071,0.526-1.648c0.789-3.559,1-7.165,0.602-10.78c-0.428-3.886-1.533-7.583-3.558-10.964
	c-3.016-5.036-7.325-8.388-13.033-9.832c-1.663-0.421-3.381-0.623-5.078-0.903C592.488,455.407,591.564,455.302,590.348,455.135z
	 M616.063,368.561c-0.009-0.189,0.019-0.369-0.031-0.524c-0.106-0.326-0.238-0.646-0.385-0.956c-1.522-3.207-3.443-6.15-5.878-8.742
	c-2.681-2.853-5.754-5.167-9.383-6.687c-3.387-1.417-6.897-2.087-10.578-1.716c-5.046,0.509-9.178,3.142-13.539,5.651
	c0.461,0.714,0.783,1.307,1.193,1.832c4.335,5.548,9.775,9.583,16.352,12.156C601.412,372.548,608.778,371.719,616.063,368.561z"/>
<path fill-rule="evenodd" clip-rule="evenodd" fill="#010101" d="M305.387,594.914c-1.03,1.691-1.996,3.212-2.898,4.771
	c-4.851,8.373-12.326,12.475-21.762,13.307c-8.389,0.74-16.249-1.246-23.737-4.899c-4.75-2.317-9.072-5.289-13.026-8.794
	c-0.387-0.342-0.785-0.682-1.117-1.073c-1.173-1.386-1.24-3.299-0.161-4.767c0.355-0.484,0.787-0.913,1.195-1.355
	c1.809-1.967,3.652-3.9,5.427-5.896c4.624-5.197,10.53-7.893,17.283-8.999c3.596-0.589,7.204-0.592,10.825-0.383
	c0.4,0.023,0.803,0.003,1.53,0.003c-0.928-1.195-1.967-1.801-2.825-2.588c-0.826-0.757-1.692-1.468-2.532-2.21
	c-0.904-0.798-1.805-1.601-2.694-2.415c-0.89-0.814-1.77-1.64-2.645-2.471c-0.813-0.771-1.619-1.548-2.417-2.334
	c-0.86-0.846-1.714-1.697-2.559-2.56c-0.844-0.861-1.678-1.732-2.507-2.609c-0.77-0.813-1.529-1.637-2.289-2.46
	c-0.814-0.881-1.623-1.767-2.542-2.768c-0.482,0.313-0.917,0.544-1.29,0.851c-1.331,1.095-2.631,2.226-3.958,3.325
	c-4.619,3.823-9.928,5.718-15.928,5.823c-5.372,0.094-10.407-1.195-15.23-3.444c-5.778-2.695-10.728-6.521-15.068-11.16
	c-3.134-3.35-5.816-7.033-8.09-11.016c-0.213-0.374-0.444-0.742-0.623-1.132c-0.979-2.13-0.487-3.883,1.441-5.151
	c0.359-0.236,0.746-0.431,1.124-0.636c2.574-1.396,5.146-2.796,7.724-4.182c5.347-2.874,11.042-3.693,17.021-2.917
	c4.044,0.524,7.914,1.64,11.657,3.233c0.526,0.225,1.073,0.396,1.954,0.718c-0.498-1.574-1.341-2.547-1.933-3.639
	c-0.656-1.212-1.378-2.387-2.056-3.588c-0.636-1.124-1.264-2.253-1.875-3.392c-0.651-1.214-1.286-2.438-1.914-3.664
	c-0.588-1.15-1.167-2.305-1.731-3.467c-0.564-1.163-1.115-2.331-1.652-3.507c-0.573-1.253-1.126-2.515-1.685-3.773
	c-0.521-1.175-1.039-2.352-1.622-3.67c-0.534,0.105-1.034,0.14-1.484,0.307c-1.533,0.567-3.048,1.186-4.572,1.778
	c-6.406,2.495-12.785,2.34-19.146-0.184c-4.308-1.708-8.05-4.274-11.36-7.487c-6.531-6.337-10.738-14.051-13.322-22.7
	c-0.566-1.895-0.978-3.836-1.419-5.767c-0.153-0.667-0.241-1.362-0.253-2.047c-0.031-1.859,0.846-3.166,2.648-3.649
	c1.573-0.423,3.205-0.629,4.816-0.905c1.528-0.261,3.069-0.447,4.59-0.738c5.77-1.105,11.31-0.373,16.66,1.994
	c4.056,1.794,7.655,4.285,10.975,7.202c0.565,0.496,1.141,0.981,2.1,1.807c-0.728-3.928-1.421-7.343-1.981-10.78
	c-0.582-3.568-1.092-7.149-1.528-10.738c-0.424-3.489-0.714-6.993-1.077-10.622c-0.628-0.041-1.125-0.116-1.62-0.1
	c-1.636,0.059-3.27,0.167-4.906,0.222c-6.482,0.221-12.189-1.85-17.214-5.884c-3.615-2.902-6.412-6.489-8.585-10.558
	c-3.042-5.696-4.722-11.799-5.398-18.212c-0.445-4.224-0.375-8.429,0.09-12.638c0.104-0.941,0.235-1.882,0.425-2.809
	c0.504-2.463,1.885-3.507,4.426-3.254c1.626,0.162,3.24,0.457,4.854,0.722c1.529,0.25,3.045,0.588,4.579,0.803
	c6.041,0.845,11.042,3.699,15.355,7.888c2.8,2.722,5.076,5.852,7.044,9.212c0.428,0.73,0.842,1.47,1.453,2.538
	c0.845-2.382,0.729-4.531,1.109-6.584c0.376-2.03,0.633-4.083,0.979-6.121c0.361-2.121,0.731-4.244,1.16-6.352
	c0.412-2.025,0.892-4.036,1.366-6.046c0.494-2.093,1.018-4.178,1.567-6.425c-0.505-0.252-0.991-0.577-1.525-0.75
	c-1.637-0.531-3.293-1.003-4.94-1.501c-5.762-1.743-10.222-5.232-13.564-10.186c-2.793-4.14-4.433-8.736-5.204-13.649
	c-1.541-9.817,0.092-19.21,3.869-28.298c0.66-1.588,1.445-3.126,2.211-4.667c0.266-0.533,0.581-1.076,0.994-1.496
	c1.045-1.063,2.318-1.477,3.772-0.953c0.644,0.232,1.262,0.548,1.867,0.873c2.429,1.301,4.834,2.647,7.275,3.927
	c4.881,2.559,8.542,6.332,11.218,11.114c2.297,4.104,3.676,8.523,4.542,13.123c0.095,0.502,0.223,1,0.351,1.497
	c0.017,0.064,0.127,0.105,0.189,0.153c0.079,0,0.158,0.019,0.222-0.005c0.076-0.029,0.168-0.081,0.201-0.148
	c3.292-6.638,6.738-13.193,10.702-19.462c1.606-2.54,3.247-5.059,4.944-7.698c-0.413-0.384-0.748-0.761-1.144-1.053
	c-1.386-1.023-2.799-2.01-4.192-3.023c-5.982-4.35-9.219-10.312-10.319-17.54c-1.082-7.112,0.228-13.902,2.84-20.485
	c3.037-7.651,7.757-14.172,13.685-19.845c0.311-0.297,0.627-0.597,0.978-0.841c1.442-1.003,3.192-0.961,4.553,0.131
	c0.467,0.375,0.872,0.833,1.28,1.274c1.99,2.15,3.965,4.314,5.958,6.462c4.139,4.461,6.275,9.805,7.021,15.779
	c0.826,6.616-0.113,13.049-1.925,19.404c-0.251,0.881-0.745,1.733-0.639,2.697c0.746,0.296,1.219-0.184,1.73-0.394
	c3.042-1.25,6.165-2.156,9.445-2.533c9.418-1.082,17.544,1.601,24.231,8.354c2.545,2.57,4.964,5.268,7.377,7.963
	c1.882,2.104,1.748,4.158-0.399,6.075c-5.836,5.215-12.591,8.678-20.229,10.388c-5.964,1.336-11.938,1.503-17.925,0.068
	c-3.901-0.935-7.495-2.522-10.769-4.838c-1.683-1.191-3.36-2.39-5.131-3.65c-0.412,0.44-0.806,0.764-1.08,1.169
	c-5.332,7.854-10.025,16.074-14.1,24.649c-0.07,0.147-0.063,0.333-0.095,0.522c0.399,0.488,0.758,0.073,1.076-0.104
	c3.037-1.678,6.226-2.911,9.658-3.52c6.046-1.07,11.858-0.35,17.356,2.371c3.393,1.681,6.702,3.537,10.007,5.389
	c2.524,1.416,3.117,3.354,1.668,5.843c-6.667,11.458-16.323,18.955-29.387,21.757c-5.315,1.14-10.615,0.845-15.823-0.795
	c-1.709-0.538-3.443-1.001-5.304-1.538c-0.266,0.597-0.525,1.024-0.652,1.488c-1.753,6.402-3.087,12.894-4.1,19.453
	c-0.315,2.042-0.608,4.089-0.864,6.139c-0.111,0.891-0.341,1.805,0.006,3.01c0.783-0.77,1.382-1.345,1.967-1.935
	c3.845-3.873,8.341-6.625,13.656-7.983c3.723-0.951,7.479-1.149,11.272-0.527c3.313,0.544,6.625,1.096,9.938,1.65
	c0.508,0.085,1.04,0.128,1.51,0.318c1.487,0.602,2.375,1.693,2.397,3.344c0.009,0.685-0.054,1.384-0.196,2.053
	c-2.377,11.234-8.005,20.444-17.215,27.37c-4.193,3.154-8.873,5.315-14.086,6.09c-2.548,0.379-5.148,0.401-7.723,0.596
	c-0.755,0.059-1.507,0.155-2.389,0.249c-0.061,3.917,0.415,7.663,0.88,11.396c0.775,6.217,1.726,12.407,3.322,18.735
	c0.763-0.581,0.908-1.239,1.173-1.81c1.876-4.039,4.427-7.574,7.824-10.479c4.104-3.51,8.88-5.536,14.171-6.424
	c3.142-0.526,6.287-1.034,9.429-1.563c0.957-0.16,1.879-0.156,2.77,0.303c0.973,0.501,1.655,1.251,1.921,2.308
	c0.21,0.833,0.372,1.688,0.454,2.541c0.975,10.077-0.858,19.559-6.107,28.288c-4.133,6.872-9.78,11.956-17.434,14.66
	c-1.531,0.541-3.023,1.192-4.498,1.779c0.343,2.316,1.828,5.753,6.015,14.018c3.625,7.157,6.091,11.354,7.675,13.051
	c0.593-0.306,0.382-0.885,0.417-1.348c0.203-2.769,0.784-5.461,1.73-8.059c2.295-6.299,6.284-11.256,12.071-14.661
	c3.264-1.92,6.621-3.686,9.977-5.442c2.528-1.324,4.429-0.692,5.792,1.86c2.167,4.06,3.609,8.38,4.418,12.902
	c1.282,7.167,0.899,14.243-1.335,21.189c-1.918,5.966-5.188,11.038-10.052,15.044c-1.197,0.985-2.378,1.99-3.552,3.004
	c-0.314,0.271-0.573,0.605-0.84,0.892c3.48,4.917,18.033,18.902,22.122,21.222c-0.114-0.614-0.181-1.104-0.299-1.581
	c-1.108-4.497-1.329-9.016-0.404-13.573c1.018-5.018,3.259-9.42,6.673-13.218c2.247-2.499,4.547-4.949,6.831-7.414
	c0.35-0.377,0.711-0.759,1.123-1.062c1.291-0.948,3.031-0.971,4.35-0.047c0.489,0.343,0.928,0.769,1.354,1.193
	c7.328,7.298,11.742,16.043,13.134,26.317c0.585,4.322,0.429,8.585-0.547,12.831c-0.721,3.135-1.93,6.063-3.582,8.818
	c-1.06,1.767-2.102,3.546-3.245,5.477c0.823,0.493,1.533,0.946,2.269,1.355c13.23,7.361,27.18,12.951,41.78,16.934
	c0.748,0.203,1.516,0.357,2.231,0.645c1.815,0.728,2.735,2.586,2.249,4.412c-0.473,1.779-2.274,2.983-4.165,2.693
	c-0.931-0.144-1.838-0.447-2.751-0.696c-15.188-4.146-29.666-10.034-43.417-17.702C306.904,595.682,306.287,595.382,305.387,594.914
	z M251.145,595.271c0.321,0.413,0.412,0.563,0.534,0.68c0.186,0.178,0.387,0.342,0.593,0.496c4.856,3.657,10.169,6.415,16.05,7.998
	c4.872,1.312,9.808,1.76,14.797,0.695c4.051-0.863,7.656-2.607,10.429-5.75c2.112-2.394,3.613-5.205,5.049-8.041
	c0.032-0.064-0.014-0.168-0.037-0.381c-0.369-0.218-0.782-0.531-1.244-0.725c-2.771-1.158-5.498-2.459-8.344-3.396
	c-6.673-2.198-13.501-3.345-20.56-2.359c-3.979,0.556-7.714,1.754-10.92,4.247C255.11,590.588,253.273,592.978,251.145,595.271z
	 M179.188,466.857c-0.095,0.277-0.192,0.436-0.195,0.596c-0.005,0.256,0.019,0.521,0.086,0.768
	c2.315,8.474,6.278,15.984,12.902,21.919c2.193,1.966,4.638,3.568,7.363,4.698c2.729,1.131,5.567,1.814,8.546,1.599
	c4.025-0.291,7.565-2.082,11.25-3.579c-0.161-0.484-0.235-0.818-0.378-1.12c-3.097-6.507-7.093-12.38-12.34-17.356
	c-3.016-2.861-6.341-5.287-10.17-6.961c-2.872-1.255-5.853-2.011-9.016-1.834C184.487,465.738,181.809,466.304,179.188,466.857z
	 M250.746,548.722c-0.142-0.295-0.189-0.465-0.292-0.592c-0.216-0.267-0.454-0.517-0.694-0.762
	c-3.948-4.013-8.346-7.444-13.263-10.192c-3.089-1.726-6.312-3.149-9.738-4.065c-3.174-0.848-6.38-1.324-9.694-1.073
	c-4.739,0.358-8.631,2.698-12.507,5.115c-0.054,0.035-0.059,0.147-0.11,0.287c0.077,0.186,0.139,0.441,0.275,0.647
	c3.997,6.053,8.989,11.08,15.292,14.738c3.61,2.094,7.467,3.509,11.626,4.027c4.232,0.528,8.249-0.156,11.928-2.354
	C246.239,552.904,248.422,550.69,250.746,548.722z M200.876,321.223c-0.326,0.355-0.484,0.459-0.548,0.606
	c-3.496,8.055-5.088,16.396-3.621,25.158c0.572,3.417,1.699,6.66,3.54,9.622c2.456,3.952,5.85,6.708,10.344,8.044
	c1.482,0.439,2.963,0.883,4.451,1.303c0.472,0.133,0.963,0.197,1.563,0.316c0.201-0.596,0.414-1.061,0.515-1.55
	c1.491-7.226,1.831-14.492,0.601-21.787c-0.631-3.748-1.755-7.353-3.585-10.709c-1.416-2.596-3.184-4.914-5.58-6.679
	C206.202,323.813,203.557,322.585,200.876,321.223z M245.977,309.45c0.45-0.64,0.769-1.039,1.03-1.474
	c2.405-3.994,4.364-8.197,5.799-12.634c1.791-5.539,2.694-11.203,2.178-17.034c-0.429-4.853-2.064-9.204-5.514-12.766
	c-0.898-0.927-1.743-1.904-2.639-2.833c-0.401-0.415-0.87-0.765-1.305-1.142c-0.301,0.247-0.525,0.387-0.694,0.576
	c-4.238,4.724-7.583,9.991-9.707,15.999c-1.659,4.692-2.393,9.505-1.795,14.466c0.588,4.878,2.518,9.114,6.4,12.261
	C241.662,306.436,243.741,307.82,245.977,309.45z M177.664,392.203c-0.107,0.838-0.25,1.427-0.247,2.016
	c0.009,2.583-0.083,5.177,0.127,7.745c0.426,5.196,1.773,10.169,4.123,14.845c1.562,3.106,3.55,5.902,6.131,8.251
	c3.435,3.126,7.433,4.978,12.114,5.095c1.976,0.05,3.959-0.135,5.937-0.243c0.495-0.026,0.984-0.169,1.548-0.271
	c-0.004-2.531-0.539-4.886-1.035-7.234c-1.275-6.028-3.395-11.737-6.667-16.985c-1.881-3.017-4.102-5.746-6.867-8.007
	c-2.371-1.938-5.012-3.368-8.016-4C182.546,392.938,180.244,392.633,177.664,392.203z M248.885,404.173
	c-2.498-0.704-4.809-0.916-7.088-1.303c-2.867-0.486-5.667-0.18-8.427,0.601c-5.289,1.496-9.298,4.759-12.409,9.188
	c-3.347,4.765-5.062,10.127-5.6,15.89c-0.021,0.227,0.113,0.466,0.202,0.803c1.559,0.291,3.1,0.006,4.63,0.025
	c6.127,0.083,11.452-2.086,16.167-5.867c5.803-4.651,9.799-10.568,12.134-17.615C248.655,405.411,248.723,404.9,248.885,404.173z
	 M303.035,584.154c1.097-1.633,2.047-3.358,3.082-5.03c2.475-4,3.543-8.416,3.446-13.051c-0.181-8.646-3.149-16.306-8.641-22.985
	c-0.204-0.247-0.489-0.428-0.815-0.707c-1.936,1.711-3.572,3.586-5.168,5.481c-4.267,5.066-5.644,10.963-4.477,17.396
	c1.402,7.726,5.672,13.731,11.729,18.56C302.375,583.965,302.646,584.005,303.035,584.154z M252.612,314.042
	c1.22,1.19,2.725,2.034,4.072,3.075c4.688,3.628,10.085,5.153,15.915,5.092c7.595-0.081,14.552-2.345,20.826-6.644
	c0.391-0.268,0.677-0.688,1.135-1.166c-2.067-2.157-3.944-4.289-6.007-6.223c-2.424-2.272-5.342-3.716-8.583-4.521
	c-2.714-0.674-5.445-0.708-8.202-0.441C265.021,303.866,256.733,308.518,252.612,314.042z M267.736,502.805
	c-1.886,1.016-3.628,1.943-5.362,2.888c-7.493,4.085-11.08,10.578-11.4,18.933c-0.245,6.381,1.709,12.208,5.047,17.598
	c0.255,0.41,0.415,0.969,1.298,0.985c1.173-0.984,2.464-2.11,3.8-3.182c4.25-3.405,6.918-7.821,8.37-13.02
	c1.977-7.078,1.741-14.113-0.435-21.108C268.751,504.919,268.488,503.924,267.736,502.805z M264.237,355.549
	c-3.489-1.931-6.797-4.111-10.682-5.086c-2.347-0.588-4.739-0.82-7.164-0.504c-3.91,0.509-7.48,1.899-10.723,4.129
	c-4.95,3.404-8.493,7.972-10.978,13.396c-0.16,0.348-0.146,0.776-0.228,1.252c1.78,0.557,3.415,1.064,5.047,1.58
	c4.638,1.462,9.293,1.48,13.981,0.226c8.39-2.246,15.005-7.047,20.175-13.944C263.865,356.332,263.99,356.007,264.237,355.549z
	 M250.105,455.326c-0.678,0-1.275-0.074-1.847,0.015c-1.87,0.289-3.748,0.562-5.588,0.992c-1.415,0.33-2.827,0.773-4.154,1.363
	c-5.581,2.48-9.209,6.813-11.36,12.424c-2.12,5.529-2.423,11.232-1.276,17.017c0.178,0.895,0.091,1.917,1.001,2.739
	c1.467-0.544,2.977-1.124,4.5-1.666c5.756-2.044,10.057-5.843,13.281-10.956c3.28-5.201,5.059-10.901,5.579-17
	C250.379,458.646,250.502,457.013,250.105,455.326z"/>
<path fill-rule="evenodd" clip-rule="evenodd" d="M363.474,451.488l-0.239-13.008h105.99l0.043,13.768
	c1.584-0.396,2.922-0.597,4.16-1.062c15.746-5.931,29.695-2.511,38.119,9.389c9.502,13.422,9.639,30.786-2.605,42.127
	c-11.08,10.259-24.711,17.759-37.209,26.484c-3.484,2.432-6.941,4.897-10.811,7.631c1.67,1.219,2.242,1.816,2.398,1.724
	c4.068-2.458,8.768-4.815,11.146,1.151c2.299,5.756-0.941,10.623-6.463,12.731c-7.459,2.849-13.605,0.007-17.943-6.246
	c-0.934,0.149-1.566,0.075-1.984,0.343c-5.332,3.42-16.486,2.271-16.725,18.426l-0.031,17.02c0,5.305,3.996,8.993,6.037,10.581
	c5.895,4.581,12.523,8.336,17.777,13.589c6.654,6.656,0.752,12.358-5.029,12.358l-68.68-0.041c-13.652,0-6.552-9.821-4.664-11.529
	c5.718-5.174,11.758-10.168,18.319-14.168c4.152-2.531,5.202-5.143,5.844-9.836l-0.056-15.198c0-11.729-0.455-14.482-12.182-18.338
	c-4.1-1.349-6.526-2.444-10.266,0.802c-2.411,2.095-6.976,3.558-9.889,2.77c-3.81-1.031-7.612-4.05-10.074-7.246
	c-1.181-1.536,0.036-7.417,1.371-7.885c3.083-1.078,6.901-0.051,12.438,0.221c-2.949-2.586-4.953-4.728-7.315-6.352
	c-13.499-9.271-28.047-17.305-40.341-27.95c-10.309-8.929-12.829-21.964-7.585-35.391c4.846-12.403,14.117-19.488,27.32-19.99
	C350.5,448.126,356.747,450.31,363.474,451.488z M376.349,448.959c0,0-0.136,40.722,0.218,56.901
	c0.396,18.139,11.449,33.943,29.049,38.961l4.598,2.17l0.28,41.259h11.6v-41.894l7.82-3.352c15.568-4.788,25.73-20.53,26.068-36.702
	c0.342-16.46,0.045-57.335,0.045-57.335L376.349,448.959z M467.822,516.806c13.406-6.187,25.488-12.483,33.586-24.045
	c9.566-13.654,3.502-29.098-12.127-32.137c-6.48-1.261-12.334,0.355-14.898,6.229c-1.631,3.73-1.609,9.398,0.082,13.096
	c2.904,6.348,8.65,3.693,13.9,2.304c2.1-0.556,6.041,0.507,6.914,2.077c0.982,1.762,0.322,5.893-1.193,7.264
	c-2.486,2.252-6.184,4.142-9.471,4.322c-5.373,0.294-10.828-0.909-16.793-1.537C467.822,501.232,467.822,508.3,467.822,516.806z
	 M364.82,517.018c-0.377-8.13-0.701-15.142-0.966-20.839c-7.849-0.607-14.836-0.294-21.248-2.064c-2.62-0.724-7.15-4.35-5.934-9.146
	s6.714-1.373,10.057-2.122c3.964-0.888,9.882-0.629,11.383-3.063c1.994-3.24,2.273-9.94,0.132-12.719
	c-2.715-3.521-8.702-6.592-13.101-6.367c-14.832,0.751-22.649,16.236-15.463,29.387C337.229,503.9,351.108,509.484,364.82,517.018z
	 M385.369,610.447h62.002C429.402,592.479,402.684,592.438,385.369,610.447z"/>
<path fill="none" stroke="#010101" stroke-width="6" stroke-miterlimit="10" d="M324.407,351.342
	c4.067-6.615,2.792-14.787-2.847-18.254c-5.64-3.47-13.509-0.92-17.576,5.691c-4.067,6.613-2.792,14.786,2.847,18.254
	C312.471,360.504,320.339,357.953,324.407,351.342z"/>
<path fill="none" stroke="#010101" stroke-width="6" stroke-miterlimit="10" d="M326.786,352.922c0,0,18.625,15.147,53.969,32.819"
	/>
<circle fill="none" stroke="#010101" stroke-width="6" stroke-miterlimit="10" cx="413.572" cy="327.908" r="55.772"/>
<ellipse transform="matrix(0.4775 -0.8786 0.8786 0.4775 -74.6701 534.3856)" fill="#010101" stroke="#010101" stroke-width="1.498" stroke-miterlimit="10" cx="411.967" cy="329.974" rx="5.968" ry="3.673"/>
<ellipse transform="matrix(0.4775 -0.8786 0.8786 0.4775 -65.3159 550.1154)" fill="#010101" stroke="#010101" stroke-width="1.498" stroke-miterlimit="10" cx="429.869" cy="329.974" rx="5.968" ry="3.673"/>
<path fill="none" stroke="#010101" stroke-width="6" stroke-linecap="round" stroke-miterlimit="10" d="M400.95,349.248
	c0,0,21.804,17.901,43.838-0.918"/>
<path fill="none" stroke="#010101" stroke-width="6" stroke-linecap="round" stroke-miterlimit="10" d="M462.374,300.904
	c0,0-10.013,7.95-14.603,7.95s-16.754,1.377-27.082-4.361c-10.329-5.738-30.526-9.64-40.625,0
	c-10.1,9.64-17.902,20.656-20.428,32.132"/>
<path fill="none" stroke="#010101" stroke-width="6" stroke-miterlimit="10" d="M417.581,441.271
	c-11.265,0.366-23.569,0.702-30.862,0.702c-16.064,0-12.049-10.673-12.049-10.673l9.066-55.881"/>
<path fill="none" stroke="#010101" stroke-width="6" stroke-miterlimit="10" d="M450.891,371.545c0,0,3.793,38.297,5.859,52.756
	c2.067,14.459-13.568,16.043-13.568,16.043s-3.133,0.127-8.001,0.308"/>
<polyline fill="none" stroke="#010101" stroke-width="6" stroke-miterlimit="10" points="394.5,381.5 394.5,414.431 
	374.844,417.184 "/>
<polyline fill="none" stroke="#010101" stroke-width="6" stroke-miterlimit="10" points="437.31,378.382 439.051,416.881 
	453.739,420.398 "/>
<polyline fill="none" stroke="#010101" stroke-width="6" stroke-miterlimit="10" points="406.5,385.5 406.5,398.5 419.5,398.5 
	419.5,385.5 "/>
<ellipse transform="matrix(-0.6882 0.7255 -0.7255 -0.6882 1101.1226 192.0991)" fill="none" stroke="#010101" stroke-width="6" stroke-miterlimit="10" cx="509.282" cy="332.666" rx="11.987" ry="14.058"/>
<path fill="none" stroke="#010101" stroke-width="6" stroke-miterlimit="10" d="M451.327,371.545c0,0,20.238-8.738,46.489-30.004"/>
<g>
	<line fill="none" stroke="#000000" stroke-width="6" stroke-miterlimit="10" x1="482.38" y1="285.272" x2="513.48" y2="277.616"/>
	<path fill="none" stroke="#000000" stroke-width="6" stroke-miterlimit="10" d="M524.192,358.222l-2.51,0.748l-3.235,0.923
		l-2.66,0.655l-4.777,0.918l-1.723,0.296l-1.874,0.206l-2.325-0.07l-2.203-0.098l-1.088-0.245c0,0-0.851-0.413-1.205-0.73
		c-0.357-0.319-1.044-2.159-1.287-3.147c-0.242-0.987-0.536-2.178-0.536-2.178l-17.942-75.493l-0.237-0.968l-0.057-1.268l0.04-2.448
		l0.188-1.841l0.341-2.264c0,0,1.011-6.833,0.99-6.914c0,0,1.198-8.162,1.178-8.243c0,0,0.209-1.589,0.188-1.841l0.157-1.45
		l0.004-1.027l-0.029-0.635c0,0-0.256-1.218-0.446-1.814c-0.387-1.571-5.662-23.395-5.662-23.395l12.374-3.011l5.567,22.615
		l0.773,2.631l0.271,0.575c0,0,3.21,4.729,4.899,6.875c0.028,0.121,9.346,13.477,9.346,13.477l0.239,0.455l0.539,1.148l0.329,0.817
		l0.834,2.873l0.031,0.121l18.762,74.137l0.802,3.779l-0.185,0.815l-0.244,0.574l-1.848,1.866l-2.634,1.288L524.192,358.222z"/>
	<line fill="none" stroke="#000000" stroke-width="6" stroke-miterlimit="10" x1="497.28" y1="349.455" x2="529.69" y2="341.478"/>
	<line fill="none" stroke="#000000" stroke-width="6" stroke-miterlimit="10" x1="483.59" y1="251.11" x2="496.167" y2="248.015"/>
</g>
<path fill-rule="evenodd" clip-rule="evenodd" fill="#010101" d="M412.938,488.064c-0.88,0.738-1.636,1.467-2.483,2.066
	c-2.102,1.487-4.807,0.939-6.092-1.197c-0.889-1.478-0.858-2.985,0.077-4.41c0.421-0.641,1.011-1.181,1.568-1.72
	c2.591-2.504,5.195-4.994,7.801-7.483c0.422-0.402,0.838-0.824,1.315-1.154c2.594-1.791,5.943-0.481,6.609,2.598
	c0.142,0.656,0.125,1.354,0.126,2.033c0.007,11.199,0.008,22.399-0.001,33.599c0,0.679-0.002,1.376-0.151,2.03
	c-0.458,2.012-2.293,3.41-4.25,3.32c-2.008-0.09-3.656-1.561-3.95-3.637c-0.136-0.958-0.116-1.942-0.117-2.914
	c-0.007-6.721,0.009-13.439-0.008-20.16C413.38,490.1,413.622,489.104,412.938,488.064z"/>
</svg>
