<?xml version="1.0" encoding="utf-8"?>
<!-- Generator: Adobe Illustrator 16.0.0, SVG Export Plug-In . SVG Version: 6.00 Build 0)  -->
<!DOCTYPE svg PUBLIC "-//W3C//DTD SVG 1.1//EN" "http://www.w3.org/Graphics/SVG/1.1/DTD/svg11.dtd">
<svg version="1.1" id="Layer_1" xmlns="http://www.w3.org/2000/svg" xmlns:xlink="http://www.w3.org/1999/xlink" x="0px" y="0px"
	 width="830px" height="826px" viewBox="0 0 830 826" enable-background="new 0 0 830 826" xml:space="preserve">
<rect x="236.333" y="198" fill="none" width="147.719" height="561"/>
<g>
	<path d="M194.908,682.569l10.378,6.044c-1.762,3.676-2.299,6.92-1.614,9.732s2.543,5.31,5.574,7.493
		c3.21,2.313,6.118,3.376,8.725,3.19c2.606-0.186,4.564-1.188,5.874-3.007c0.841-1.167,1.214-2.407,1.12-3.72
		c-0.095-1.313-0.777-2.888-2.046-4.723c-0.876-1.245-3.02-3.88-6.429-7.904c-4.389-5.174-6.966-9.502-7.73-12.985
		c-1.074-4.899-0.204-9.303,2.61-13.21c1.811-2.514,4.218-4.353,7.221-5.515s6.257-1.349,9.765-0.562
		c3.507,0.787,7.159,2.548,10.953,5.281c6.196,4.464,9.882,9.182,11.057,14.154c1.175,4.973,0.208,9.783-2.902,14.432l-10.284-6.743
		c1.401-2.844,1.8-5.327,1.197-7.449s-2.307-4.194-5.113-6.216c-2.896-2.086-5.593-3.125-8.088-3.115
		c-1.605,0.003-2.869,0.645-3.791,1.925c-0.841,1.167-1.067,2.522-0.677,4.064c0.497,1.961,2.758,5.26,6.783,9.898
		c4.025,4.639,6.758,8.406,8.2,11.304s2.056,5.88,1.841,8.947s-1.447,6.162-3.694,9.282c-2.038,2.829-4.732,4.912-8.083,6.25
		c-3.351,1.338-6.896,1.572-10.634,0.703c-3.739-0.87-7.752-2.849-12.041-5.938c-6.242-4.496-9.996-9.391-11.262-14.686
		C190.55,694.205,191.581,688.562,194.908,682.569z"/>
	<path d="M250.053,741.847l22.475-45.281l-16.172-8.026l4.576-9.22l43.311,21.497l-4.576,9.22l-16.135-8.009l-22.475,45.281
		L250.053,741.847z"/>
	<path d="M336.309,774.746l-12.735-4.052l-0.872-14.781l-23.176-7.375l-8.977,11.647l-12.418-3.952l41.033-50.794l12.379,3.939
		L336.309,774.746z M322.054,744.948l-1.143-24.057l-14.677,19.022L322.054,744.948z"/>
	<path d="M349.978,777.52l6.565-60.489l18.279,1.983l6.498,42.453l15.33-40.084l18.32,1.988l-6.565,60.489l-11.347-1.231
		l5.168-47.616l-17.175,46.313l-11.759-1.276l-6.798-48.915l-5.167,47.616L349.978,777.52z"/>
	<path d="M454.207,758.784l-0.971-10.205l26.36-2.507l2.295,24.13c-2.326,2.723-5.831,5.259-10.513,7.607
		c-4.683,2.349-9.517,3.761-14.502,4.235c-6.336,0.602-11.984-0.201-16.947-2.412c-4.963-2.21-8.864-5.675-11.703-10.395
		c-2.84-4.719-4.535-9.984-5.088-15.796c-0.6-6.308,0.189-12.039,2.368-17.193c2.178-5.154,5.69-9.282,10.538-12.384
		c3.692-2.38,8.431-3.846,14.215-4.396c7.521-0.715,13.544,0.304,18.072,3.056c4.527,2.752,7.662,6.853,9.403,12.301l-11.931,3.428
		c-1.138-2.894-2.965-5.089-5.483-6.587c-2.52-1.497-5.542-2.079-9.067-1.744c-5.344,0.509-9.432,2.606-12.263,6.294
		c-2.833,3.688-3.931,8.865-3.297,15.531c0.683,7.189,2.793,12.43,6.33,15.72c3.537,3.291,7.895,4.69,13.073,4.198
		c2.562-0.244,5.082-0.99,7.563-2.241c2.479-1.25,4.574-2.679,6.284-4.287l-0.731-7.685L454.207,758.784z"/>
	<path d="M553.524,759.144l-12.816,3.79l-9.013-11.748l-23.323,6.896l-0.897,14.678l-12.497,3.695l5.474-65.067l12.458-3.684
		L553.524,759.144z M525.007,742.474l-14.441-19.274l-1.479,23.981L525.007,742.474z"/>
	<path d="M553.93,737.282l10.153-6.414c2.446,3.26,5.076,5.235,7.887,5.927s5.885,0.196,9.221-1.484
		c3.533-1.779,5.819-3.867,6.858-6.265s1.055-4.598,0.046-6.599c-0.646-1.285-1.574-2.188-2.782-2.712
		c-1.208-0.521-2.92-0.644-5.133-0.365c-1.51,0.202-4.836,0.887-9.98,2.052c-6.616,1.504-11.645,1.791-15.088,0.859
		c-4.842-1.31-8.346-4.115-10.511-8.415c-1.394-2.768-1.914-5.751-1.558-8.951c0.355-3.199,1.693-6.173,4.012-8.921
		c2.318-2.747,5.565-5.173,9.742-7.276c6.82-3.435,12.708-4.524,17.661-3.271s8.773,4.334,11.46,9.238l-10.729,6.008
		c-1.876-2.556-3.895-4.057-6.055-4.503c-2.161-0.445-4.785,0.11-7.874,1.666c-3.188,1.605-5.354,3.518-6.499,5.735
		c-0.738,1.425-0.753,2.842-0.043,4.25c0.646,1.285,1.744,2.112,3.292,2.479c1.969,0.465,5.939-0.018,11.912-1.445
		s10.577-2.112,13.813-2.054c3.236,0.06,6.165,0.892,8.787,2.499s4.798,4.129,6.527,7.563c1.568,3.114,2.172,6.466,1.811,10.056
		c-0.36,3.59-1.79,6.842-4.287,9.757c-2.498,2.915-6.106,5.561-10.826,7.938c-6.871,3.46-12.946,4.529-18.228,3.208
		C562.237,746.521,557.707,743.001,553.93,737.282z"/>
	<path d="M631.983,715.727l-29.784-40.846l-14.588,10.637l-6.064-8.316l39.068-28.488l6.064,8.316l-14.555,10.613l29.784,40.846
		L631.983,715.727z"/>
</g>
<path fill="none" stroke="#000000" stroke-width="10" stroke-miterlimit="10" d="M690.208,413.5
	c0,149.502-121.206,270.709-270.708,270.709c-149.509,0-270.708-121.207-270.708-270.709c0-149.509,121.2-270.708,270.708-270.708
	C569.002,142.792,690.208,263.991,690.208,413.5z"/>
<circle fill="none" stroke="#000000" stroke-width="10" stroke-miterlimit="10" cx="419.5" cy="413.5" r="400"/>
<g>
	<path d="M284,144.024l-21.827-45.597l-16.285,7.795l-4.444-9.284l43.613-20.877l4.444,9.284l-16.247,7.777l21.827,45.597
		L284,144.024z"/>
	<path d="M316.437,129.014L300.44,70.31l24.947-6.798c6.273-1.709,10.976-2.424,14.106-2.145c3.13,0.28,5.917,1.536,8.36,3.766
		c2.443,2.231,4.138,5.082,5.083,8.552c1.2,4.405,0.896,8.396-0.911,11.97c-1.808,3.576-5.186,6.439-10.134,8.59
		c2.97,0.797,5.533,1.862,7.689,3.196c2.156,1.334,5.271,3.898,9.344,7.692l10.289,9.5l-14.175,3.862l-12.05-10.438
		c-4.287-3.736-7.153-6.045-8.598-6.927s-2.855-1.373-4.229-1.472c-1.375-0.099-3.424,0.223-6.146,0.965l-2.403,0.655l6.678,24.507
		L316.437,129.014z M319.059,91.907l8.77-2.39c5.686-1.549,9.171-2.757,10.455-3.624c1.284-0.866,2.167-1.995,2.647-3.388
		c0.48-1.393,0.481-2.97,0.001-4.732c-0.539-1.976-1.5-3.427-2.886-4.354c-1.386-0.927-3.083-1.289-5.092-1.086
		c-0.998,0.129-3.899,0.847-8.704,2.157L315,77.011L319.059,91.907z"/>
	<path d="M368.67,84.521c-0.397-6.185,0.195-11.436,1.775-15.751c1.182-3.181,2.889-6.077,5.12-8.688
		c2.23-2.611,4.73-4.601,7.498-5.971c3.68-1.844,7.991-2.925,12.934-3.242c8.946-0.574,16.283,1.741,22.01,6.947
		c5.727,5.206,8.907,12.751,9.542,22.636c0.629,9.803-1.544,17.643-6.518,23.521c-4.974,5.878-11.92,9.104-20.839,9.676
		c-9.029,0.579-16.386-1.714-22.068-6.881C372.441,101.601,369.29,94.186,368.67,84.521z M381.276,83.296
		c0.441,6.875,2.363,11.986,5.767,15.33c3.403,3.345,7.549,4.86,12.436,4.546c4.887-0.313,8.785-2.331,11.693-6.053
		c2.908-3.722,4.136-9.103,3.684-16.144c-0.447-6.958-2.306-12.051-5.576-15.28c-3.271-3.228-7.433-4.68-12.486-4.356
		c-5.053,0.325-9.015,2.319-11.885,5.982C382.039,70.986,380.828,76.311,381.276,83.296z"/>
	<path d="M436.422,111.656l7.773-60.346l19.553,2.519c7.409,0.955,12.2,1.879,14.373,2.772c3.341,1.351,5.982,3.693,7.925,7.026
		c1.941,3.333,2.604,7.401,1.984,12.203c-0.477,3.705-1.551,6.733-3.221,9.084s-3.634,4.114-5.891,5.288
		c-2.258,1.174-4.486,1.856-6.688,2.047c-2.983,0.201-7.232-0.053-12.748-0.764l-7.945-1.023l-2.932,22.764L436.422,111.656z
		 M455.064,63.088l-2.206,17.124l6.669,0.859c4.802,0.619,8.054,0.717,9.754,0.294c1.7-0.422,3.097-1.247,4.189-2.473
		s1.754-2.731,1.983-4.515c0.283-2.195-0.129-4.089-1.234-5.683c-1.106-1.593-2.624-2.695-4.554-3.307
		c-1.42-0.461-4.324-0.976-8.715-1.541L455.064,63.088z"/>
	<path d="M489.983,119.257l18.9-57.834l11.678,3.816l-7.439,22.763l22.882,7.478l7.438-22.763l11.678,3.816l-18.901,57.834
		l-11.677-3.816l8.264-25.288l-22.881-7.478l-8.265,25.288L489.983,119.257z"/>
	<path d="M559.371,146.267l12.358-22.429l-2.517-41.618l12.614,6.95l0.925,27.994l23.903-14.314l12.396,6.83l-36.638,20.14
		l-12.318,22.356L559.371,146.267z"/>
</g>
<path fill="none" stroke="#000000" stroke-width="10" stroke-miterlimit="10" d="M612.775,137.998
	c86.279,61.109,142.6,161.729,142.6,275.503c0,87.172-33.065,166.625-87.338,226.501"/>
<path fill="none" stroke="#000000" stroke-width="10" stroke-miterlimit="10" d="M167.96,640.002
	c-54.271-59.876-87.335-139.329-87.335-226.501c0-113.774,56.318-214.394,142.597-275.503"/>
<polyline fill="none" stroke="#000000" stroke-width="11" stroke-linecap="round" stroke-linejoin="round" stroke-miterlimit="10" points="
	375.281,565.748 540.467,565.748 599.107,508.367 "/>
<polyline fill="none" stroke="#000000" stroke-width="11" stroke-linecap="round" stroke-linejoin="round" stroke-miterlimit="10" points="
	571.363,565.748 615.503,565.748 621.178,558.812 621.178,283.339 614.241,280.107 364.542,280.107 359.498,283.339 
	359.498,367.754 "/>
<circle fill="none" stroke="#000000" stroke-width="10" stroke-linecap="round" stroke-linejoin="round" stroke-miterlimit="10" cx="420.818" cy="312.423" r="14.66"/>
<circle fill="none" stroke="#000000" stroke-width="10" stroke-linecap="round" stroke-linejoin="round" stroke-miterlimit="10" cx="558.002" cy="312.423" r="14.661"/>
<path fill="none" stroke="#000000" stroke-width="11" stroke-linecap="round" stroke-linejoin="round" stroke-miterlimit="10" d="
	M359.498,346h261.68 M362.005,369.055c4.277,2.164,12.894,6.266,16.724,6.266c5.202,0,7.331-4.966,10.641-5.438
	c3.311-0.473,5.675,3.547,10.168,4.02c4.492,0.473,7.33-6.148,11.822-8.512c4.493-2.365,7.874-0.237,11.587,1.655
	c3.713,1.892,10.877,6.384,12.531,6.384c1.656,0,2.838,0.473,5.912,0c3.074-0.473,8.275-7.094,11.113-8.04
	c2.838-0.946,17.498,8.985,20.099,9.931c2.602,0.946,8.045-5.557,12.06-6.148c4.016-0.591,9.222,4.493,10.168,4.493
	s8.258-2.704,10.404-2.128c2.146,0.576,7.094,0.946,9.694,2.602c2.602,1.655,16.315-2.602,16.315-2.602s4.54,0.946,6.385,0
	c1.845-0.945,5.675-4.256,9.222-4.729s6.935,2.838,11.152,3.547c4.218,0.709,8.71-4.02,11.312-4.965
	c2.601-0.946,16.078,4.965,17.97,4.965c1.893,0,6.006,0.946,7.804,0c1.797-0.946,1.655-1.418,4.493-2.364
	c2.837-0.946,8.347,0.069,10.167,0.709c1.819,0.64,11.43,4.02,11.43,4.02 M359.498,367.754c0,0,0.976,0.526,2.507,1.301"/>
<g>
	<path stroke="#000000" stroke-width="4" stroke-miterlimit="10" d="M448.93,518.692h-6.074v-98.468
		c-7.833,8.312-18.543,12.947-29.572,14.066v-5.275c12.788-1.918,23.658-9.431,30.211-20.62h5.436V518.692z"/>
	<path stroke="#000000" stroke-width="4" stroke-miterlimit="10" d="M529.331,406.477c17.104,0,34.049,6.874,34.049,27.654
		c0,12.309-6.874,21.58-20.302,24.138v0.319c15.026,1.759,24.457,12.789,24.457,28.454c0,22.858-17.104,33.568-38.204,33.568
		s-38.204-10.71-38.204-33.568c0-15.665,9.431-26.695,24.457-28.454v-0.319c-13.428-2.558-20.301-11.829-20.301-24.138
		C495.283,413.351,512.228,406.477,529.331,406.477z M529.331,461.306c-17.264,0-32.13,7.354-32.13,25.736
		c0,19.502,15.186,28.294,32.13,28.294s32.13-8.792,32.13-28.294C561.461,468.659,546.595,461.306,529.331,461.306z
		 M529.331,411.752c-14.546,0-27.974,5.595-27.974,22.379c0,15.666,13.747,21.9,27.974,21.9s27.974-6.234,27.974-21.9
		C557.305,417.347,543.878,411.752,529.331,411.752z"/>
</g>
<line fill="none" stroke="#000000" stroke-width="10" stroke-miterlimit="10" x1="249.568" y1="435.318" x2="374.427" y2="435.318"/>
<line fill="none" stroke="#000000" stroke-width="10" stroke-miterlimit="10" x1="246.889" y1="626.684" x2="246.926" y2="622.074"/>
<line fill="none" stroke="#000000" stroke-width="10" stroke-miterlimit="10" x1="375.281" y1="565.748" x2="376.03" y2="680.732"/>
<path fill="none" stroke="#000000" stroke-width="10" stroke-miterlimit="10" d="M246.926,622.074l1.671-208.121v-3.883l0.971-4.856
	l2.426-9.226l2.429-6.797l3.398-8.254c0,0,10.196-24.922,10.196-25.247c0,0,12.138-29.78,12.138-30.103c0,0,2.266-5.826,2.427-6.798
	l1.942-5.34l0.973-3.885l0.483-2.427c0,0,0.163-4.854,0-7.282c0-6.311,0.366-93.836,0.366-93.836l49.645,0.13v90.793l0.486,10.682
	l0.485,2.426c0,0,7.743,20.892,12.138,30.588c0,0.486,22.82,59.721,22.82,59.721l0.485,1.941l0.971,4.855l0.486,3.398l0.486,11.653
	v0.485l0.932,143.056"/>
<line fill="none" stroke="#000000" stroke-width="10" stroke-miterlimit="10" x1="285.981" y1="307.137" x2="336.478" y2="307.137"/>
<path fill="none" stroke="#000000" stroke-width="10" stroke-miterlimit="10" d="M272.589,344.215c0,0,33.099,11.376,77.057,0"/>
<path fill="none" stroke="#000000" stroke-width="10" stroke-miterlimit="10" d="M260.838,370.623c0,0,43.115,20.773,100.377,0"/>
<rect x="236.333" y="198" fill="none" width="147.719" height="561"/>
</svg>
