<?xml version="1.0" encoding="utf-8"?>
<!-- Generator: Adobe Illustrator 16.0.0, SVG Export Plug-In . SVG Version: 6.00 Build 0)  -->
<!DOCTYPE svg PUBLIC "-//W3C//DTD SVG 1.1//EN" "http://www.w3.org/Graphics/SVG/1.1/DTD/svg11.dtd">
<svg version="1.1" id="Layer_1" xmlns="http://www.w3.org/2000/svg" xmlns:xlink="http://www.w3.org/1999/xlink" x="0px" y="0px"
	 width="830px" height="826px" viewBox="0 0 830 826" enable-background="new 0 0 830 826" xml:space="preserve">
<g>
	<path d="M143.051,628.953l8.874,8.092c-2.496,3.223-3.704,6.281-3.626,9.175c0.078,2.894,1.369,5.727,3.872,8.498
		c2.652,2.937,5.271,4.588,7.858,4.955c2.586,0.366,4.712-0.201,6.375-1.703c1.067-0.964,1.693-2.098,1.877-3.401
		c0.183-1.304-0.152-2.985-1.007-5.047c-0.595-1.401-2.136-4.429-4.622-9.08c-3.203-5.981-4.811-10.755-4.825-14.321
		c-0.02-5.016,1.758-9.138,5.331-12.364c2.299-2.077,5.04-3.368,8.219-3.872c3.18-0.505,6.401-0.003,9.665,1.506
		c3.263,1.508,6.462,3.997,9.596,7.467c5.118,5.668,7.729,11.057,7.831,16.164c0.103,5.109-1.856,9.608-5.874,13.498l-8.634-8.756
		c1.968-2.485,2.88-4.829,2.738-7.03c-0.143-2.202-1.373-4.586-3.691-7.152c-2.393-2.649-4.81-4.232-7.252-4.748
		c-1.57-0.335-2.94,0.026-4.11,1.084c-1.068,0.965-1.574,2.241-1.517,3.831c0.073,2.021,1.589,5.723,4.548,11.104
		c2.958,5.381,4.837,9.64,5.638,12.775c0.8,3.137,0.772,6.181-0.083,9.135s-2.711,5.72-5.565,8.298
		c-2.587,2.336-5.66,3.806-9.216,4.408c-3.558,0.603-7.072,0.086-10.544-1.55c-3.473-1.638-6.98-4.416-10.522-8.338
		c-5.156-5.709-7.796-11.284-7.92-16.727C136.342,639.41,138.538,634.11,143.051,628.953z"/>
	<path d="M184.426,698.482l31.546-39.501l-14.107-11.267l6.423-8.043l37.782,30.174l-6.423,8.043l-14.075-11.24l-31.546,39.5
		L184.426,698.482z"/>
	<path d="M230.988,697.205c2.978-5.436,6.289-9.553,9.936-12.351c2.702-2.054,5.694-3.585,8.977-4.595
		c3.282-1.011,6.458-1.353,9.53-1.026c4.095,0.414,8.315,1.81,12.659,4.189c7.862,4.307,12.817,10.191,14.866,17.655
		c2.048,7.463,0.692,15.538-4.066,24.226c-4.719,8.615-10.753,14.072-18.102,16.372c-7.349,2.301-14.942,1.304-22.78-2.99
		c-7.936-4.347-12.919-10.224-14.951-17.63C225.025,713.648,226.335,705.698,230.988,697.205z M242.29,702.922
		c-3.31,6.043-4.424,11.388-3.341,16.035c1.082,4.646,3.771,8.146,8.067,10.499c4.295,2.354,8.667,2.736,13.116,1.151
		s8.369-5.472,11.758-11.66c3.35-6.115,4.508-11.411,3.475-15.89c-1.034-4.478-3.77-7.934-8.211-10.366s-8.855-2.87-13.241-1.313
		C249.527,692.935,245.653,696.783,242.29,702.922z"/>
	<path d="M283.967,757.76l19.117-57.239l11.653,3.893l-15.87,47.515l28.974,9.677l-3.248,9.724L283.967,757.76z"/>
	<path d="M337.081,773.685l12.547-59.537l12.021,2.533l-12.548,59.537L337.081,773.685z"/>
	<path d="M391.877,782.454l0.986-60.836l12.284,0.198l-0.438,27.016l25.253-26.613l16.517,0.269l-23.291,23.324l23.55,37.532
		l-15.894-0.258l-16.261-28.822l-10.125,10.006l-0.298,18.384L391.877,782.454z"/>
	<path d="M451.854,752.571c-1.111-6.097-1.132-11.381-0.062-15.851c0.806-3.297,2.165-6.371,4.079-9.223
		c1.912-2.852,4.165-5.118,6.756-6.8c3.441-2.258,7.598-3.831,12.471-4.719c8.82-1.606,16.375-0.156,22.667,4.351
		c6.291,4.507,10.324,11.634,12.1,21.379c1.761,9.663,0.511,17.703-3.749,24.117c-4.26,6.415-10.785,10.424-19.577,12.025
		c-8.901,1.621-16.475,0.195-22.717-4.278C457.578,769.1,453.589,762.1,451.854,752.571z M464.232,749.895
		c1.235,6.778,3.736,11.632,7.504,14.559c3.768,2.928,8.061,3.953,12.879,3.075s8.455-3.333,10.913-7.367
		c2.457-4.033,3.054-9.521,1.789-16.462c-1.249-6.86-3.687-11.703-7.309-14.531c-3.623-2.827-7.925-3.787-12.906-2.88
		s-8.686,3.348-11.112,7.318C463.563,737.578,462.979,743.008,464.232,749.895z"/>
	<path d="M531.58,766.403l-22.211-56.646l11.128-4.364l38.017,28.738l-14.832-37.828l10.625-4.167l22.212,56.646l-11.477,4.5
		l-37.32-27.985l14.484,36.939L531.58,766.403z"/>
	<path d="M591.805,740.353l-29.291-53.33l10.768-5.914l29.291,53.329L591.805,740.353z"/>
	<path d="M617.195,726.51l-35.85-49.162l9.658-7.043l44.062,18.158l-23.94-32.83l9.223-6.725l35.849,49.162l-9.96,7.263
		l-43.197-17.607l23.378,32.06L617.195,726.51z"/>
	<path d="M674.424,648.919l-7.501-6.988l18.05-19.374l17.734,16.521c0.068,3.58-0.869,7.804-2.811,12.668
		c-1.943,4.865-4.621,9.131-8.034,12.795c-4.338,4.656-9.096,7.806-14.275,9.447c-5.179,1.642-10.396,1.641-15.652-0.004
		c-5.256-1.644-10.02-4.456-14.291-8.436c-4.636-4.319-7.851-9.129-9.644-14.43s-1.907-10.719-0.341-16.257
		c1.182-4.231,3.752-8.473,7.713-12.725c5.149-5.526,10.33-8.764,15.543-9.712c5.214-0.948,10.279,0.037,15.199,2.956l-6.647,10.484
		c-2.771-1.409-5.596-1.838-8.474-1.286c-2.878,0.553-5.524,2.124-7.938,4.716c-3.659,3.928-5.323,8.21-4.992,12.848
		c0.33,4.639,2.946,9.239,7.845,13.804c5.284,4.922,10.341,7.44,15.171,7.553c4.83,0.113,9.018-1.733,12.563-5.54
		c1.754-1.883,3.144-4.114,4.168-6.696c1.024-2.581,1.643-5.04,1.854-7.377l-5.648-5.263L674.424,648.919z"/>
</g>
<path fill="none" stroke="#000000" stroke-width="10" stroke-miterlimit="10" d="M690.208,413.5
	c0,149.502-121.206,270.709-270.708,270.709c-149.509,0-270.708-121.207-270.708-270.709c0-149.509,121.2-270.708,270.708-270.708
	C569.002,142.792,690.208,263.991,690.208,413.5z"/>
<circle fill="none" stroke="#000000" stroke-width="10" stroke-miterlimit="10" cx="419.5" cy="413.5" r="400"/>
<g>
	<path d="M284,144.024l-21.827-45.597l-16.285,7.795l-4.444-9.284l43.613-20.877l4.444,9.284l-16.247,7.777l21.827,45.597
		L284,144.024z"/>
	<path d="M316.437,129.014L300.44,70.31l24.947-6.798c6.273-1.709,10.976-2.424,14.106-2.145c3.13,0.28,5.917,1.536,8.36,3.766
		c2.443,2.231,4.138,5.082,5.083,8.552c1.2,4.405,0.896,8.396-0.911,11.97c-1.808,3.576-5.186,6.439-10.134,8.59
		c2.97,0.797,5.533,1.862,7.689,3.196c2.156,1.334,5.271,3.898,9.344,7.692l10.289,9.5l-14.175,3.862l-12.05-10.438
		c-4.287-3.736-7.153-6.045-8.598-6.927s-2.855-1.373-4.229-1.472c-1.375-0.099-3.424,0.223-6.146,0.965l-2.403,0.655l6.678,24.507
		L316.437,129.014z M319.059,91.907l8.77-2.39c5.686-1.549,9.171-2.757,10.455-3.624c1.284-0.866,2.167-1.995,2.647-3.388
		c0.48-1.393,0.481-2.97,0.001-4.732c-0.539-1.976-1.5-3.427-2.886-4.354c-1.386-0.927-3.083-1.289-5.092-1.086
		c-0.998,0.129-3.899,0.847-8.704,2.157L315,77.011L319.059,91.907z"/>
	<path d="M368.67,84.521c-0.397-6.185,0.195-11.436,1.775-15.751c1.182-3.181,2.889-6.077,5.12-8.688
		c2.23-2.611,4.73-4.601,7.498-5.971c3.68-1.844,7.991-2.925,12.934-3.242c8.946-0.574,16.283,1.741,22.01,6.947
		c5.727,5.206,8.907,12.751,9.542,22.636c0.629,9.803-1.544,17.643-6.518,23.521c-4.974,5.878-11.92,9.104-20.839,9.676
		c-9.029,0.579-16.386-1.714-22.068-6.881C372.441,101.601,369.29,94.186,368.67,84.521z M381.276,83.296
		c0.441,6.875,2.363,11.986,5.767,15.33c3.403,3.345,7.549,4.86,12.436,4.546c4.887-0.313,8.785-2.331,11.693-6.053
		c2.908-3.722,4.136-9.103,3.684-16.144c-0.447-6.958-2.306-12.051-5.576-15.28c-3.271-3.228-7.433-4.68-12.486-4.356
		c-5.053,0.325-9.015,2.319-11.885,5.982C382.039,70.986,380.828,76.311,381.276,83.296z"/>
	<path d="M436.422,111.656l7.773-60.346l19.553,2.519c7.409,0.955,12.2,1.879,14.373,2.772c3.341,1.351,5.982,3.693,7.925,7.026
		c1.941,3.333,2.604,7.401,1.984,12.203c-0.477,3.705-1.551,6.733-3.221,9.084s-3.634,4.114-5.891,5.288
		c-2.258,1.174-4.486,1.856-6.688,2.047c-2.983,0.201-7.232-0.053-12.748-0.764l-7.945-1.023l-2.932,22.764L436.422,111.656z
		 M455.064,63.088l-2.206,17.124l6.669,0.859c4.802,0.619,8.054,0.717,9.754,0.294c1.7-0.422,3.097-1.247,4.189-2.473
		s1.754-2.731,1.983-4.515c0.283-2.195-0.129-4.089-1.234-5.683c-1.106-1.593-2.624-2.695-4.554-3.307
		c-1.42-0.461-4.324-0.976-8.715-1.541L455.064,63.088z"/>
	<path d="M489.983,119.257l18.9-57.834l11.678,3.816l-7.439,22.763l22.882,7.478l7.438-22.763l11.678,3.816l-18.901,57.834
		l-11.677-3.816l8.264-25.288l-22.881-7.478l-8.265,25.288L489.983,119.257z"/>
	<path d="M559.371,146.267l12.358-22.429l-2.517-41.618l12.614,6.95l0.925,27.994l23.903-14.314l12.396,6.83l-36.638,20.14
		l-12.318,22.356L559.371,146.267z"/>
</g>
<path fill="none" stroke="#000000" stroke-width="10" stroke-miterlimit="10" d="M737.491,484.571
	c17.234-77.01,6.731-160.452-35.836-234.181"/>
<path fill="none" stroke="#000000" stroke-width="10" stroke-miterlimit="10" d="M100.999,484.571
	c-17.234-77.01-6.731-160.452,35.836-234.181"/>
<path fill-rule="evenodd" clip-rule="evenodd" d="M354.636,616.272c0,4.506,0.125,10.125-0.06,15.732
	c-0.078,2.35-0.316,4.956-1.415,6.925c-0.839,1.501-3.15,2.183-4.805,3.23c-0.741-1.798-2.084-3.58-2.128-5.396
	c-0.337-13.895-0.422-27.795-0.586-41.695c-0.684,0.005-1.369,0.012-2.053,0.017c-2.176,8.318-4.406,16.623-6.505,24.96
	c-1.224,4.863-3.052,8.621-8.511,6.272c2.436-12.026,4.89-24.312,7.426-36.578c1.163-5.624,0.546-10.037-4.392-14.345
	c-7.104-6.199-8.859-15.209-8.903-24.374c-0.079-16.521,0.098-33.046-0.14-49.565c-0.029-2.031-1.444-5.16-3.059-5.873
	c-10.546-4.653-17.3-11.97-16.712-23.905c0.566-11.496,6.514-19.517,17.835-23.04c0.396-0.123,0.732-0.442,1.764-1.088
	c-28.21-23.656-27.415-52.325-13.823-82.803c-11.597-5.914-15.51-13.009-12.38-22.818c0.891-2.791,2.382-6.593,4.609-7.535
	c7.499-3.166,6.624-9.149,6.611-15.206c-0.043-20.182-0.052-40.365,0.068-60.547c0.042-7.117,1.304-8.13,8.194-6.134
	c5.774,1.673,11.345,4.051,18.556,6.684c0-7.243,0.675-13.51-0.297-19.511c-0.455-2.809-3.907-5.295-6.323-7.59
	c-5.327-5.06-5.896-15.356-0.914-20.32c7.456-7.428,16.702-7.654,22.603-0.557c7.753,9.327,6.721,16.493-4.108,25.467
	c9.375,6.009,18.587,11.913,28.454,18.236c10.693-15.378,21.158-30.43,31.597-45.444c-13.165-10.593-15.303-20.85-6.8-30.572
	c6.604-7.55,18.626-7.786,26.287-0.515c8.658,8.219,6.986,19.383-5.004,30.665c10.143,14.663,20.342,29.409,30.899,44.674
	c8.694-5.55,17.023-10.869,25.246-16.119c-1.855-3.679-4.111-6.729-4.962-10.13c-1.928-7.709,2.713-15.902,9.814-18.496
	c6.67-2.437,14.868,0.535,18.735,6.791c4.193,6.786,3.447,16.537-3.765,20.183c-7.704,3.894-6.727,9.437-6.719,15.547
	c0.005,2.364,0.001,4.729,0.001,8.23c6.997-2.49,13.258-4.573,19.407-6.941c8.629-3.324,9.926-2.561,9.915,6.514
	c-0.024,22.828-0.112,45.653-0.059,68.479c0.005,2.258,0.194,4.919,1.355,6.704c8.048,12.37,6.97,19.802-5.011,29.284
	c14.717,30.647,19.702,60.032-14.679,83.147c14.274,4.202,23.807,11.808,22.483,27.266c-1.103,12.854-8.954,19.702-25.596,23.297
	c0,17.423,0.384,35.002-0.2,52.549c-0.218,6.527-2.482,13.039-4.269,19.43c-0.606,2.166-2.181,4.642-4.044,5.773
	c-8,4.856-7.326,11.763-5.302,19.222c2.21,8.147,4.527,16.274,6.394,24.503c0.415,1.827-0.858,4.039-1.355,6.074
	c-1.772-1.069-4.532-1.746-5.144-3.278c-2.467-6.185-4.271-12.633-6.32-18.984c-0.575-0.035-1.151-0.072-1.727-0.108
	c-0.113,9.979-0.102,19.959-0.43,29.929c-0.078,2.396-1.285,4.753-1.974,7.129c-1.771-2.014-4.99-3.977-5.064-6.051
	c-0.33-9.291,0.366-18.613,0.418-27.925c0.021-3.818-0.191-7.753-1.11-11.432c-1.279-5.12-4.581-8.063-10.41-7.771
	c-6.052,0.302-12.131,0.067-18.479,1.119c4.303,1.894,8.713,3.581,12.886,5.728c6.116,3.145,11.615,7.227,13.301,14.316
	c0.466,1.962-1.191,4.428-1.874,6.664c-1.672-1.527-3.393-3.006-5.004-4.594c-3.44-3.393-6.213-8.251-10.331-10.037
	c-24.712-10.718-49.805-10.564-74.701-0.375c-5.238,2.144-9.719,5.434-11.208,11.812
	C360.398,613.066,357.146,614.306,354.636,616.272z M489.337,458.464c0-14.48,0.229-24.701-0.181-34.894
	c-0.088-2.194-1.956-5.238-3.883-6.296c-20.505-11.258-41.156-22.254-61.861-33.143c-2.564-1.349-5.665-2.303-8.533-2.344
	c-15.632-0.223-31.271-0.241-46.902,0.029c-2.769,0.048-5.887,1.241-8.192,2.842c-8.557,5.941-16.712,12.462-25.293,18.366
	c-3.263,2.244-4.559,4.616-4.443,8.523c0.688,23.159,1.127,46.325,1.784,69.485c0.116,4.088,0.603,8.206,1.36,12.228
	c4.9,26.021,9.998,52.003,14.859,78.03c1.497,8.018,4.206,9.142,12.081,6.059c8.632-3.381,17.474-6.982,26.546-8.339
	c25.683-3.842,51.059-3.287,74.92,9.24c6.161,3.234,9.682,0.853,10.807-5.889c1.894-11.341,4.034-22.642,5.954-33.979
	C483.087,510.461,493.025,483.214,489.337,458.464z M333.232,356.937c0.208-1.896,0.347-3.584,0.585-5.258
	c0.391-2.735-1.169-7.094,3.565-6.639c1.375,0.132,2.518,4.439,3.429,6.956c0.553,1.529,0.457,3.293,0.637,4.823
	c3.184,0,5.866,0,9.172,0c0-2.918-0.452-5.395,0.145-7.585c0.465-1.707,2.233-3.06,3.421-4.569c1.196,1.502,2.954,2.839,3.452,4.545
	c0.693,2.375,0.445,5.025,0.59,7.406c9.108,1.456,8.93,1.44,9.649-6.493c0.173-1.906,1.968-3.663,3.017-5.488
	c1.293,1.824,3.516,3.551,3.718,5.489c0.816,7.837,0.586,7.861,9.606,6.582c0.137-1.984-0.13-4.237,0.539-6.166
	c0.73-2.106,2.327-3.913,3.545-5.852c1.102,1.779,2.571,3.438,3.208,5.37c0.712,2.165,0.671,4.577,0.981,7.076
	c3.109,0,5.622,0,8.733,0c0.144-3.09-0.102-5.946,0.545-8.582c0.364-1.484,2.199-2.608,3.372-3.894
	c1.161,1.312,3.021,2.48,3.329,3.969c0.548,2.647,0.153,5.488,0.153,8.887c3.688-0.174,6.359-0.302,9.375-0.446
	c0.279-3.196,0.174-5.853,0.85-8.294c0.41-1.479,2.031-2.622,3.105-3.917c1.221,1.249,3.103,2.31,3.518,3.783
	c0.732,2.595,0.566,5.442,0.786,8.294c3.648,0,6.778,0,10.721,0c0-2.984-0.388-5.621,0.14-8.061
	c0.339-1.567,2.024-2.842,3.105-4.249c1.354,1.393,3.387,2.572,3.904,4.226c0.793,2.53,0.541,5.388,0.722,7.959
	c8.877,1.009,8.88,1.009,9.193-6.489c0.027-0.651-0.263-1.517,0.055-1.917c1.069-1.348,2.348-2.53,3.545-3.775
	c1.11,1.116,2.883,2.071,3.197,3.378c0.685,2.846,0.627,5.871,0.876,8.875c3.132,0,5.81,0,9.168,0c0-2.831-0.429-5.287,0.137-7.485
	c0.448-1.744,2.117-3.174,3.243-4.744c1.335,1.611,3.246,3.032,3.861,4.881c0.762,2.294,0.452,4.944,0.633,7.905
	c3.441-0.188,6.109-0.335,9.187-0.503c0-3.192-0.461-5.695,0.152-7.898c0.462-1.658,2.303-2.935,3.529-4.38
	c1.122,1.352,2.813,2.545,3.238,4.089c0.716,2.593,0.625,5.41,0.867,8.067c3.288,0,5.955,0,8.034,0
	c2.905-4.092-2.125-10.77,4.714-11.694c1.451-0.196,3.729,5.703,6.455,10.146c0.774-3.586,2.652-7.154,1.853-9.953
	c-0.874-3.051-3.85-5.963-6.645-7.836c-1.886-1.264-5.044-0.805-7.636-0.808c-32.59-0.037-65.178-0.016-97.768-0.01
	c-30.2,0.006-60.4-0.048-90.6,0.055c-7.523,0.027-12.281,5.155-11.539,11.832c0.712,6.401,5.918,9.471,13.767,7.821
	c0.133-2.251-0.106-4.713,0.532-6.922c0.504-1.743,2.089-3.171,3.194-4.739c1.262,1.643,3.039,3.118,3.65,4.977
	c0.709,2.152,0.394,4.641,0.534,7.182c1.722,0.219,2.975,0.507,4.226,0.504C329.977,357.367,331.45,357.112,333.232,356.937z
	 M410.218,364.715c-0.335,0.834-0.671,1.668-1.005,2.503c19.103,10.974,37.884,22.572,57.427,32.697
	c12.407,6.428,25.748,11.274,39.049,15.69c10.014,3.326,11.821,1.38,12.444-9.333c0.783-13.475-3.473-25.62-9.715-37.308
	c-1.796-3.363-4.146-4.434-7.793-4.36c-9.765,0.198-19.534,0.106-29.301,0.11C450.955,364.721,430.586,364.715,410.218,364.715z
	 M471.396,327.687c0.109-0.475,0.218-0.949,0.326-1.423c-19.011-12.135-37.963-24.366-57.137-36.241
	c-1.761-1.09-5.475-0.785-7.364,0.373c-14.065,8.623-27.905,17.615-41.803,26.511c-5.01,3.207-9.986,6.467-16.638,10.779
	C391.037,327.687,431.217,327.687,471.396,327.687z M405.223,374.252c0.32-0.61,0.64-1.221,0.959-1.832
	c-4.557-2.564-9.054-7.21-13.682-7.345c-23.826-0.69-47.686-0.267-71.532-0.066c-1.633,0.014-4.103,0.931-4.755,2.177
	c-10.697,20.431-15.252,43.681,0.843,64.168c1.338,1.702,2.968,3.174,5.53,5.883c0-10.08,0.26-18.31-0.086-26.512
	c-0.255-6.033,1.757-9.949,6.993-13.384c9.04-5.932,17.303-13.035,26.183-19.23c2.824-1.969,6.542-3.582,9.904-3.689
	C378.783,374.003,392.007,374.252,405.223,374.252z M341.223,323.628c21.386-13.662,41.727-26.657,63.107-40.315
	c-9.981-6.376-19.132-12.22-28.42-18.154c-2.128,2.906-4.188,4.976-5.361,7.465c-2.956,6.274-7.147,6.274-12.729,3.667
	c-5.164-2.41-10.66-4.107-16.596-6.339C341.223,288.259,341.223,305.253,341.223,323.628z M418.126,283.291
	c21.488,13.691,42,26.762,63.33,40.353c0-18.192,0-35.047,0-52.76c-6.012,2.228-11.515,4.061-16.842,6.311
	c-3.91,1.652-6.525,0.863-8.757-2.73c-2.238-3.601-4.859-6.963-7.451-10.626C438.188,270.402,428.59,276.567,418.126,283.291z
	 M510.632,327.534c0-22.572,0-44.748,0-67.786c-6.078,2.268-11.419,4.49-16.911,6.23c-3.762,1.191-4.875,3.308-4.829,7.156
	c0.192,16.481,0.056,32.966,0.103,49.448c0.004,1.644,0.433,3.284,0.668,4.952C496.85,327.534,503.502,327.534,510.632,327.534z
	 M315.577,258.796c0,23.333,0,45.846,0,68.589c5.844,0,11.738,0,18.211,0c0-17.081-0.554-33.577,0.233-50.007
	c0.395-8.227-2.06-12.489-9.995-14.16C321.612,262.709,319.475,260.893,315.577,258.796z M380.044,258.884
	c10.079,6.418,19.344,12.388,28.712,18.19c1.108,0.687,3.197,1.125,4.135,0.546c10.415-6.421,20.692-13.067,31.401-19.905
	c-10.775-15.474-20.984-30.133-31.71-45.534C401.62,227.918,391.141,242.958,380.044,258.884z M341.857,243.421
	c-3.255,16.745-2.531,18.087,11.731,23.396c0.203,0.075,0.408,0.146,0.611,0.222c9.516,3.541,9.516,3.541,14.742-6.318
	C360.137,255.097,351.287,249.443,341.857,243.421z M455.293,259.616c6.061,10.875,6.062,10.879,16.394,6.975
	c2.234-0.845,4.579-1.506,6.643-2.664c1.331-0.748,3.113-2.188,3.19-3.415c0.347-5.44,0.149-10.917,0.149-17.766
	C471.975,248.947,463.805,254.172,455.293,259.616z M422.769,191.526c0.104-6.389-4.079-10.97-10.155-11.125
	c-6.271-0.159-11.689,4.635-11.889,10.52c-0.211,6.198,4.671,11.004,11.143,10.973C418.355,201.862,422.667,197.76,422.769,191.526z
	 M501.131,455.978c0,10.779,0,21.479,0,32.245c8.428-1.342,14.035-7.551,14.244-15.373
	C515.599,464.376,509.999,457.554,501.131,455.978z M322.302,456.798c-7.833,1.778-12.098,6.977-12.255,14.541
	c-0.17,8.167,4.145,14.069,12.255,16.19C322.302,477.228,322.302,467.061,322.302,456.798z M338.769,571.394
	c0.705-0.212,1.41-0.425,2.115-0.637c-3.061-16.551-6.122-33.101-9.183-49.65c-1.483,11.486-1.875,22.771-1.332,34.008
	C330.68,561.534,332.701,567.779,338.769,571.394z M379.267,578.926c20.707,0,40.752,0,61.945,0
	C426.93,572.74,391.333,572.839,379.267,578.926z M347.521,223.785c-0.418-8.325-4.417-9.896-9.402-10.021
	c-5.221-0.13-8.414,3.028-8.212,7.824c0.198,4.689,4.949,9.658,9.576,8.395C342.926,229.042,345.617,225.34,347.521,223.785z
	 M353.424,608.51c6.144-13.504,17.377-16.955,28.173-21.282c-6.03-0.569-11.848-0.584-17.666-0.565
	c-7.153,0.024-11.249,3.721-11.586,10.914C352.207,600.509,352.894,603.48,353.424,608.51z M485.862,216.087
	c-4.968-0.059-7.725,2.378-7.989,7.338c-0.258,4.851,3.671,9.003,8.404,8.651c4.565-0.34,7.794-2.667,8.202-7.567
	C494.869,219.845,490.905,216.104,485.862,216.087z M487.791,528.995c-2.581,14.129-5.162,28.257-7.918,43.35
	C490.244,565.136,490.18,552.173,487.791,528.995z M496.97,438.206c0.643,0.473,1.284,0.945,1.925,1.418
	c4.393-4.637,8.785-9.273,14.162-14.95c-6.285-1.248-10.944-2.174-16.087-3.195C496.97,427.578,496.97,432.892,496.97,438.206z"/>
<path fill-rule="evenodd" clip-rule="evenodd" d="M410.241,601.52c10.966,1.508,21.669,2.465,30.647,8.965
	c3.106,2.248,5.229,6.084,7.188,9.542c0.546,0.965-1.097,3.17-1.736,4.806c-1.708-0.84-3.645-1.4-5.079-2.575
	c-3.177-2.604-5.642-6.635-9.211-8.104c-13.977-5.749-28.43-5.421-42.729-1.003c-4.903,1.515-9.949,3.285-11.481,9.457
	c-0.282,1.133-2.979,1.665-4.56,2.474c-0.752-1.594-2.373-3.35-2.111-4.756c1.407-7.552,7.273-11.329,13.802-13.279
	C393.208,604.585,401.8,603.308,410.241,601.52z"/>
<path fill-rule="evenodd" clip-rule="evenodd" d="M395.84,502.013c-7.314-9.861-4.961-20.104-5.017-29.945
	c-0.009-1.684,2.374-3.381,3.652-5.071c1.145,1.768,3.094,3.454,3.278,5.314c0.49,4.952,0.051,9.987,0.29,14.975
	c0.391,8.179,5.832,13.579,13.09,13.297c6.57-0.256,11.415-5.626,11.709-13.263c0.184-4.773-0.315-9.601,0.23-14.318
	c0.243-2.099,2.306-3.987,3.543-5.97c1.324,1.886,3.716,3.73,3.793,5.668c0.4,9.849,2.166,19.984-4.521,29.179
	c1.614,0.212,2.441,0.395,3.275,0.419c16.004,0.471,19.473,4.039,19.64,20.365c0.046,4.562,0.13,9.136-0.141,13.684
	c-0.383,6.419-5.278,11.974-11.233,12.458c-1.724,0.14-3.585-1.391-5.382-2.156c0.991-1.619,1.709-4.337,3.021-4.661
	c5.199-1.288,6.218-4.8,6.193-9.298c-0.028-5.499-0.007-11-0.007-16.5c-0.554,0.004-1.109,0.006-1.665,0.01
	c0,4.304,0.14,8.611-0.032,12.907c-0.232,5.754-2.692,10.161-8.673,11.427c-1.508,0.32-3.36-0.979-5.055-1.536
	c0.731-1.607,1.042-3.749,2.275-4.723c3.704-2.936,6.282-17.243,3.009-20.206c-1.245-1.126-3.563-1.446-5.401-1.472
	c-9.559-0.135-19.124,0.117-28.678-0.123c-4.917-0.125-7.176,2.284-6.517,6.619c0.856,5.622-2.667,13.137,6.045,15.994
	c0.581,0.189,1.004,2.975,0.443,3.941c-0.58,1-2.513,1.864-3.738,1.729c-5.285-0.582-9.115-3.465-9.605-8.923
	c-0.5-5.58-0.111-11.238-0.111-16.863c-0.817,0.009-1.635,0.017-2.452,0.024c0.428,7.741,0.567,15.517,1.527,23.189
	c0.193,1.554,3.635,2.56,5.297,4.117c1.209,1.134,1.955,2.762,2.907,4.171c-1.527,0.828-3.055,2.363-4.581,2.36
	c-6.688-0.01-12.09-6.176-12.497-14.183c-0.274-5.413-0.247-10.85-0.115-16.271c0.253-10.441,5.855-15.881,16.316-16.097
	C391.452,502.25,392.946,502.148,395.84,502.013z"/>
<path fill-rule="evenodd" clip-rule="evenodd" d="M457.078,467.38c-10.438,0.046-19.033-7.352-19.109-16.442
	c-0.084-9.97,8.195-17.954,18.488-17.832c9.892,0.117,18.295,7.661,18.455,16.568C475.088,459.362,467.056,467.338,457.078,467.38z
	 M467.539,450.488c0.108-5.315-4.5-9.521-10.697-9.76c-6.737-0.26-11.722,3.671-11.695,9.224c0.024,5.265,4.841,9.731,10.729,9.953
	C462.463,460.15,467.425,456.146,467.539,450.488z"/>
<path fill-rule="evenodd" clip-rule="evenodd" d="M365.585,467.386c-10.655,0.075-19.507-7.665-19.431-16.991
	c0.074-9.043,8.369-17.068,17.841-17.26c10.61-0.214,19.318,7.422,19.378,16.992C383.431,459.166,375.027,467.32,365.585,467.386z
	 M375.879,450.049c-0.173-5.626-5.015-9.482-11.751-9.356c-6.458,0.121-10.794,4.124-10.51,9.701
	c0.281,5.505,5.655,9.91,11.731,9.616C371.576,459.709,376.045,455.48,375.879,450.049z"/>
<path fill-rule="evenodd" clip-rule="evenodd" d="M366.007,424.723c-6.95,0-13.915,0.254-20.837-0.176
	c-1.766-0.109-3.396-2.386-5.089-3.666c1.808-1.127,3.597-3.192,5.428-3.23c13.459-0.284,26.931-0.31,40.389,0.001
	c1.89,0.044,3.729,2.363,5.591,3.63c-1.977,1.194-3.893,3.279-5.942,3.421c-6.487,0.446-13.022,0.164-19.539,0.164
	C366.007,424.818,366.007,424.77,366.007,424.723z"/>
<path fill-rule="evenodd" clip-rule="evenodd" d="M454.639,417.476c6.725,0,13.464-0.243,20.161,0.166
	c1.743,0.105,3.359,2.245,5.034,3.452c-1.663,1.27-3.304,3.606-4.993,3.641c-13.66,0.278-27.335,0.255-40.995-0.071
	c-1.604-0.038-3.148-2.461-4.721-3.778c1.56-1.128,3.073-3.144,4.688-3.229c6.926-0.361,13.881-0.155,20.825-0.155
	C454.639,417.494,454.639,417.484,454.639,417.476z"/>
<path fill-rule="evenodd" clip-rule="evenodd" d="M411.789,230.855c9.925,0.061,18.401,8.287,18.486,17.941
	c0.092,10.208-8.436,18.822-18.45,18.641c-10.231-0.186-18.372-8.156-18.403-18.018
	C393.388,238.952,401.463,230.791,411.789,230.855z M411.825,238.27c-6.431,0.118-11.169,4.868-11.06,11.087
	c0.1,5.652,5.164,10.398,11.107,10.411c6.378,0.014,11.121-4.812,10.92-11.112C422.605,242.73,417.78,238.16,411.825,238.27z"/>
<line fill="none" stroke="#000000" stroke-width="8" stroke-miterlimit="10" x1="233.171" y1="565.762" x2="294.067" y2="551.752"/>
<path fill="none" stroke="#000000" stroke-width="8" stroke-miterlimit="10" d="M244.642,620.164L230.3,555.45l-0.436-1.894
	l-0.072-2.478l0.148-4.771l0.422-3.588l0.731-4.407c0,0,2.176-13.299,2.14-13.457c0,0,2.578-15.887,2.542-16.044
	c0,0,0.451-3.096,0.421-3.588l0.348-2.822l0.038-2.004l-0.037-1.238c0,0-0.465-2.386-0.817-3.552
	c-0.708-3.078-10.351-45.807-10.351-45.807l24.228-5.508l10.188,44.282l1.436,5.155l0.509,1.129c0,0,6.121,9.32,9.353,13.557
	c0.055,0.237,17.831,26.566,17.831,26.566l0.455,0.893l1.018,2.259l0.618,1.603l1.544,5.63l0.055,0.236l28.469,120.154"/>
<line fill="none" stroke="#000000" stroke-width="8" stroke-miterlimit="10" x1="236.547" y1="499.159" x2="261.175" y2="493.492"/>
<path fill="none" stroke="#000000" stroke-width="8" stroke-miterlimit="10" d="M234.176,518.746c0,0,17.419,1.834,37.583-8.647"/>
<path fill="none" stroke="#000000" stroke-width="8" stroke-miterlimit="10" d="M231.408,532.943c0,0,23.359,5.294,48.956-11.263"/>
<rect x="230.62" y="439.64" transform="matrix(-0.9745 0.2242 -0.2242 -0.9745 658.4063 1085.2759)" fill="none" width="73.929" height="280.761"/>
<rect x="230.62" y="439.64" transform="matrix(-0.9745 0.2242 -0.2242 -0.9745 658.4063 1085.2759)" fill="none" width="73.929" height="280.761"/>
<line fill="none" stroke="#000000" stroke-width="8" stroke-miterlimit="10" x1="590.745" y1="567.261" x2="529.849" y2="553.251"/>
<path fill="none" stroke="#000000" stroke-width="8" stroke-miterlimit="10" d="M576.533,634.028l17.083-77.079l0.436-1.894
	l0.071-2.478l-0.148-4.771l-0.422-3.588l-0.731-4.406c0,0-2.176-13.3-2.14-13.458c0,0-2.578-15.886-2.542-16.044
	c0,0-0.451-3.096-0.421-3.588l-0.349-2.822l-0.038-2.004l0.036-1.238c0,0,0.466-2.386,0.817-3.552
	c0.708-3.078,10.352-45.807,10.352-45.807l-24.228-5.508l-10.188,44.282l-1.436,5.155l-0.509,1.129c0,0-6.12,9.321-9.353,13.557
	c-0.054,0.237-17.831,26.566-17.831,26.566l-0.454,0.893l-1.019,2.259l-0.618,1.604l-1.544,5.629l-0.055,0.236l-29.463,124.351"/>
<line fill="none" stroke="#000000" stroke-width="8" stroke-miterlimit="10" x1="587.368" y1="500.658" x2="562.74" y2="494.992"/>
<path fill="none" stroke="#000000" stroke-width="8" stroke-miterlimit="10" d="M589.74,520.245c0,0-17.42,1.834-37.583-8.646"/>
<path fill="none" stroke="#000000" stroke-width="8" stroke-miterlimit="10" d="M592.508,534.442c0,0-23.359,5.294-48.956-11.263"/>
<rect x="519.367" y="441.139" transform="matrix(0.9745 0.2242 -0.2242 0.9745 144.5532 -109.9343)" fill="none" width="73.928" height="280.761"/>
<rect x="519.367" y="441.139" transform="matrix(0.9745 0.2242 -0.2242 0.9745 144.5532 -109.9343)" fill="none" width="73.928" height="280.761"/>
</svg>
