<?xml version="1.0" encoding="utf-8"?>
<!-- Generator: Adobe Illustrator 16.0.0, SVG Export Plug-In . SVG Version: 6.00 Build 0)  -->
<!DOCTYPE svg PUBLIC "-//W3C//DTD SVG 1.1//EN" "http://www.w3.org/Graphics/SVG/1.1/DTD/svg11.dtd">
<svg version="1.1" id="Layer_1" xmlns="http://www.w3.org/2000/svg" xmlns:xlink="http://www.w3.org/1999/xlink" x="0px" y="0px"
	 width="830px" height="826px" viewBox="0 0 830 826" enable-background="new 0 0 830 826" xml:space="preserve">
<g>
	<path d="M111.225,580.389l7.422,9.441c-2.992,2.769-4.687,5.587-5.085,8.454s0.409,5.873,2.422,9.02
		c2.133,3.332,4.444,5.392,6.937,6.18c2.491,0.787,4.681,0.576,6.568-0.632c1.211-0.775,2.015-1.791,2.412-3.047
		c0.395-1.255,0.341-2.97-0.163-5.144c-0.356-1.48-1.378-4.719-3.065-9.717c-2.175-6.426-2.977-11.399-2.404-14.919
		c0.806-4.951,3.237-8.725,7.292-11.32c2.61-1.67,5.525-2.493,8.745-2.467c3.219,0.025,6.314,1.05,9.285,3.074
		c2.971,2.023,5.717,5.005,8.238,8.944c4.117,6.432,5.805,12.176,5.067,17.231c-0.739,5.056-3.411,9.172-8.014,12.348l-7.077-10.056
		c2.35-2.129,3.636-4.291,3.857-6.485c0.221-2.195-0.601-4.749-2.465-7.662c-1.924-3.006-4.049-4.965-6.373-5.875
		c-1.494-0.589-2.904-0.457-4.232,0.393c-1.212,0.776-1.921,1.952-2.127,3.529c-0.26,2.007,0.627,5.907,2.66,11.701
		c2.033,5.795,3.187,10.305,3.46,13.529c0.273,3.226-0.254,6.224-1.584,8.997c-1.33,2.772-3.614,5.196-6.854,7.269
		c-2.937,1.88-6.208,2.824-9.816,2.834c-3.608,0.009-6.99-1.078-10.146-3.264s-6.159-5.503-9.007-9.954
		c-4.147-6.479-5.834-12.412-5.062-17.802C102.888,589.602,105.925,584.734,111.225,580.389z"/>
	<path d="M140.645,655.803l37.597-33.793l-12.069-13.428l7.655-6.881l32.322,35.961l-7.655,6.881l-12.041-13.396l-37.597,33.793
		L140.645,655.803z"/>
	<path d="M171.345,688.176l37.747-47.721l20.279,16.042c5.1,4.033,8.466,7.394,10.1,10.078c1.633,2.686,2.277,5.674,1.932,8.964
		c-0.345,3.29-1.633,6.347-3.864,9.167c-2.833,3.581-6.225,5.705-10.174,6.373c-3.951,0.668-8.26-0.351-12.929-3.057
		c1.122,2.863,1.786,5.559,1.992,8.085c0.206,2.527-0.008,6.556-0.643,12.086l-1.537,13.919l-11.523-9.115l1.248-15.894
		c0.461-5.668,0.619-9.345,0.471-11.032c-0.148-1.686-0.59-3.112-1.327-4.277s-2.212-2.622-4.425-4.373l-1.953-1.545l-15.758,19.921
		L171.345,688.176z M202.764,668.259l7.128,5.639c4.623,3.656,7.663,5.744,9.122,6.264c1.459,0.519,2.892,0.559,4.298,0.118
		c1.406-0.439,2.676-1.375,3.809-2.808c1.27-1.605,1.867-3.241,1.791-4.907c-0.077-1.665-0.792-3.246-2.149-4.742
		c-0.696-0.727-2.996-2.635-6.902-5.725l-7.52-5.948L202.764,668.259z"/>
	<path d="M224.217,727.135l31.366-52.137l10.527,6.334l-31.367,52.137L224.217,727.135z"/>
	<path d="M248.699,741.839l24.828-55.549l17.999,8.045c6.82,3.048,11.142,5.313,12.965,6.795c2.811,2.256,4.665,5.26,5.565,9.011
		c0.899,3.751,0.361,7.837-1.614,12.258c-1.524,3.41-3.425,6-5.701,7.771c-2.277,1.771-4.665,2.893-7.165,3.366
		c-2.5,0.474-4.832,0.485-6.994,0.034c-2.915-0.667-6.911-2.135-11.988-4.403l-7.313-3.27l-9.365,20.954L248.699,741.839z
		 M280.542,700.7l-7.045,15.763l6.138,2.744c4.42,1.976,7.505,3.006,9.256,3.091c1.75,0.086,3.324-0.302,4.724-1.161
		c1.399-0.859,2.466-2.11,3.2-3.753c0.903-2.021,1.054-3.953,0.455-5.797c-0.601-1.845-1.736-3.337-3.408-4.479
		c-1.227-0.851-3.86-2.18-7.902-3.986L280.542,700.7z"/>
	<path d="M306.953,766.106l14.954-58.979l19.109,4.846c7.242,1.836,11.887,3.328,13.937,4.476c3.155,1.742,5.496,4.385,7.025,7.926
		c1.528,3.542,1.697,7.66,0.507,12.353c-0.918,3.621-2.348,6.499-4.287,8.633c-1.94,2.135-4.101,3.648-6.482,4.543
		c-2.382,0.895-4.677,1.306-6.884,1.23c-2.986-0.157-7.174-0.92-12.565-2.286l-7.765-1.969l-5.641,22.247L306.953,766.106z
		 M331.285,720.125l-4.244,16.736l6.518,1.652c4.693,1.189,7.909,1.678,9.648,1.462c1.739-0.216,3.224-0.867,4.456-1.953
		c1.231-1.086,2.068-2.501,2.511-4.245c0.544-2.146,0.362-4.075-0.544-5.79c-0.908-1.714-2.282-2.99-4.125-3.828
		c-1.354-0.629-4.176-1.487-8.467-2.575L331.285,720.125z"/>
	<path d="M368.508,780.042l4.694-60.664l44.98,3.48l-0.794,10.263l-32.732-2.533l-1.041,13.449l30.456,2.356l-0.791,10.221
		l-30.456-2.356l-1.277,16.511l33.891,2.622l-0.791,10.221L368.508,780.042z"/>
	<path d="M431.614,783.469l-5.92-60.556l11.896-1.163l28.737,38.017l-3.953-40.439l11.359-1.111l5.92,60.557l-12.268,1.199
		l-28.273-37.103l3.86,39.489L431.614,783.469z"/>
	<path d="M499.449,775.015L482.46,716.59l11.797-3.43l7.544,25.944l16.288-32.875l15.861-4.612l-15.382,29.153l33.566,28.924
		l-15.264,4.438l-24.034-22.748l-6.725,12.545l5.134,17.655L499.449,775.015z"/>
	<path d="M613.333,729.445l-11.921,6.041l-10.986-9.926l-21.694,10.995l1.769,14.598l-11.625,5.892l-6.367-64.986l11.588-5.872
		L613.333,729.445z M582.274,718.198l-17.686-16.349l2.877,23.854L582.274,718.198z"/>
	<path d="M668.052,688.402l-10.608,8.128l-12.623-7.739l-19.306,14.793l4.42,14.024l-10.345,7.927l-18.195-62.711l10.312-7.901
		L668.052,688.402z M635.455,683.052l-20.387-12.822l7.209,22.92L635.455,683.052z"/>
	<path d="M677.601,678.848l-45.201-40.73l17.309-19.209c4.353-4.83,7.922-7.974,10.706-9.432c2.785-1.457,5.808-1.908,9.069-1.354
		c3.262,0.556,6.229,2.037,8.9,4.444c3.392,3.057,5.294,6.578,5.707,10.563c0.413,3.985-0.88,8.221-3.88,12.706
		c2.93-0.936,5.662-1.426,8.196-1.47c2.535-0.043,6.541,0.429,12.02,1.417l13.792,2.427l-9.836,10.915l-15.781-2.265
		c-5.626-0.824-9.285-1.217-10.979-1.178c-1.692,0.04-3.144,0.39-4.354,1.05s-2.759,2.039-4.648,4.136l-1.667,1.85l18.87,17.004
		L677.601,678.848z M659.739,646.217l6.085-6.753c3.945-4.378,6.223-7.278,6.835-8.701c0.611-1.423,0.743-2.85,0.395-4.282
		c-0.349-1.431-1.201-2.759-2.559-3.98c-1.521-1.371-3.114-2.071-4.781-2.103c-1.667-0.03-3.291,0.583-4.871,1.841
		c-0.77,0.647-2.821,2.82-6.155,6.521l-6.418,7.122L659.739,646.217z"/>
	<path d="M728.724,615.687l-42.734-27.005l-9.645,15.262l-8.701-5.498l25.83-40.875l8.701,5.498l-9.623,15.228l42.734,27.005
		L728.724,615.687z"/>
</g>
<path fill="none" stroke="#000000" stroke-width="10" stroke-miterlimit="10" d="M690.208,413.5
	c0,149.502-121.206,270.709-270.708,270.709c-149.509,0-270.708-121.207-270.708-270.709c0-149.509,121.2-270.708,270.708-270.708
	C569.002,142.792,690.208,263.991,690.208,413.5z"/>
<circle fill="none" stroke="#000000" stroke-width="10" stroke-miterlimit="10" cx="419.5" cy="413.5" r="400"/>
<g>
	<path d="M212.685,192.038l-8.809,10.051l-13.896-5.114l-16.03,18.291l7.084,12.886l-8.589,9.801l-30.139-57.926l8.563-9.77
		L212.685,192.038z M179.673,193.183l-22.506-8.576l11.563,21.062L179.673,193.183z"/>
	<path d="M233.009,148.291l11.734-4.296c2.616,6.371,3.23,12.13,1.84,17.278c-1.389,5.148-4.667,9.719-9.833,13.712
		c-6.393,4.941-13.335,6.818-20.826,5.632c-7.492-1.186-14.165-5.567-20.02-13.142c-6.193-8.012-8.934-15.834-8.223-23.465
		c0.711-7.631,4.438-14.053,11.181-19.265c5.889-4.552,12.018-6.509,18.386-5.871c3.779,0.366,7.706,2.052,11.779,5.059
		l-7.845,9.735c-2.499-2.056-5.209-3.108-8.132-3.157s-5.676,0.925-8.259,2.921c-3.568,2.758-5.474,6.277-5.716,10.556
		c-0.243,4.279,1.854,9.287,6.287,15.022c4.704,6.086,9.149,9.575,13.335,10.466c4.186,0.892,8.03-0.017,11.533-2.725
		c2.583-1.997,4.171-4.535,4.763-7.615C235.584,156.057,234.924,152.441,233.009,148.291z"/>
	<path d="M262.884,154.657l-27.227-54.413l10.986-5.498l10.716,21.417l21.528-10.772l-10.716-21.417l10.986-5.498l27.227,54.413
		l-10.986,5.498l-11.905-23.792l-21.528,10.772l11.905,23.792L262.884,154.657z"/>
	<path d="M316.442,130.011l-19.643-57.587l11.627-3.966l19.643,57.587L316.442,130.011z"/>
	<path d="M337.337,122.481l-12.134-59.623l44.208-8.997l2.053,10.086l-32.17,6.547l2.69,13.218l29.933-6.092l2.044,10.045
		l-29.933,6.092l3.302,16.228l33.309-6.779l2.044,10.045L337.337,122.481z"/>
	<path d="M406.141,112.22l-23.073-60.354l13.32-0.292l16.379,44.684l13.911-45.347l13.029-0.285l-20.454,61.307L406.141,112.22z"/>
	<path d="M444.748,112.227l9.438-60.108l44.568,6.999l-1.597,10.168l-32.432-5.093l-2.093,13.325l30.177,4.739l-1.59,10.127
		l-30.178-4.739l-2.568,16.36l33.58,5.273l-1.59,10.127L444.748,112.227z"/>
	<path d="M497.813,120.782l21.359-56.973l17.217,6.455l-4.232,42.738l24.79-35.03l17.255,6.469l-21.359,56.973l-10.687-4.007
		l16.813-44.847l-28.123,40.607l-11.075-4.152l5.543-49.073l-16.813,44.847L497.813,120.782z"/>
	<path d="M560.94,146.246l32.375-51.517l38.197,24.005l-5.477,8.715l-27.796-17.468l-7.178,11.421l25.864,16.253l-5.455,8.68
		l-25.863-16.253l-8.812,14.021l28.78,18.087l-5.455,8.68L560.94,146.246z"/>
	<path d="M606.459,175.703l41.35-44.635l8.769,8.124l-9.346,46.73l27.614-29.807l8.373,7.757l-41.351,44.635l-9.042-8.377
		l8.971-45.776l-26.965,29.107L606.459,175.703z"/>
	<path d="M656.85,227.459l40.384-30.408l-10.859-14.423l8.223-6.191l29.084,38.626l-8.223,6.191l-10.835-14.389l-40.383,30.408
		L656.85,227.459z"/>
</g>
<path fill="none" stroke="#000000" stroke-width="10" stroke-miterlimit="10" d="M737.491,484.571
	c17.234-77.01,6.731-160.452-35.836-234.181"/>
<path fill="none" stroke="#000000" stroke-width="10" stroke-miterlimit="10" d="M100.999,484.571
	c-17.234-77.01-6.731-160.452,35.836-234.181"/>
<g>
	<path fill-rule="evenodd" clip-rule="evenodd" d="M365.331,440.329c-4.667,0-9.335-0.092-13.999,0.031
		c-3.391,0.088-5.795-1.141-7.124-4.328c-0.319-0.766-0.693-1.528-1.164-2.209c-0.726-1.049-1.154-3.096-2.443-2.743
		c-1.306,0.356-0.512,2.333-0.674,3.589c-0.127,0.988-0.053,2.001-0.178,2.989c-0.192,1.513-1.027,2.44-2.638,2.425
		c-1.52-0.015-2.545-0.789-2.894-2.26c-0.229-0.964-0.241-1.978-0.364-2.967c-0.587-4.709-3.697-7.922-8.451-8.326
		c-2.81-0.238-5.68-0.239-8.484,0.041c-5.543,0.555-8.259,3.396-8.986,8.939c-0.602,4.594-0.751,4.799-5.679,4.816
		c-12.5,0.045-24.999,0.041-37.499,0.002c-5.389-0.017-5.543-0.223-5.885-5.578c-0.032-0.499,0.026-1.012-0.072-1.495
		c-0.092-0.451-0.231-1.124-0.535-1.249c-0.504-0.209-0.83,0.379-1.064,0.807c-3.996,7.306-7.948,14.636-11.995,21.913
		c-1.303,2.344-0.169,3.697,1.55,5.042c6.953,5.436,13.948,10.82,20.798,16.382c5.164,4.192,10.849,7.753,15.393,12.709
		c3.033,3.309,3.654,7.005,2.068,11.104c-2.675,6.914-9.904,9.639-16.437,6.081c-2.179-1.187-4.129-2.806-6.134-4.294
		c-13.112-9.728-26.227-19.451-39.306-29.223c-6.89-5.148-8.347-12.809-4.109-20.369c12.458-22.227,24.823-44.506,37.355-66.691
		c2.52-4.46,4.642-9.191,8.542-12.834c3.267-3.051,6.898-5.25,11.169-6.315c4.688-1.169,9.442-2.021,14.313-1.998
		c6.667,0.03,13.333,0.071,19.999-0.011c3.879-0.049,7.619,0.702,11.358,1.546c7.346,1.657,12.871,5.601,16.974,12.093
		c7.121,11.268,14.709,22.239,22.104,33.333c0.647,0.971,1.246,1.982,1.979,2.885c1.554,1.913,2.22,1.891,3.842-0.095
		c0.63-0.771,1.147-1.637,1.702-2.469c6.193-9.291,12.235-18.688,18.646-27.826c2.646-3.772,3.151-6.845,0.401-10.839
		c-3.201-4.647-5.743-9.753-8.524-14.687c-3.012-5.342-2.438-6.75,3.386-9.272c4.585-1.985,9.099-4.134,13.666-6.16
		c5.605-2.486,6.972-1.942,8.834,3.72c2.082,6.33,3.982,12.721,6.059,19.054c0.828,2.526,1.703,5.078,2.926,7.426
		c2.281,4.376,2.246,8.571-0.133,12.854c-4.043,7.279-8.029,14.591-12.042,21.888c-5.136,9.339-10.408,18.606-15.338,28.054
		c-1.691,3.239-3.77,4.732-7.417,4.571c-4.491-0.198-8.998-0.048-13.498-0.048C365.331,440.335,365.331,440.331,365.331,440.329z"/>
	<path fill-rule="evenodd" clip-rule="evenodd" d="M568.9,507.345c-4.62-0.014-8.917-2.962-10.445-7.166
		c-1.639-4.508-0.139-10.226,3.885-13.598c2.427-2.035,4.762-4.158,7.13-6.253c6.851-6.063,13.816-11.996,20.727-17.992
		c0.88-0.764,1.684-1.614,2.548-2.396c1.871-1.691,2.175-3.597,0.992-5.834c-3.737-7.067-7.428-14.159-11.167-21.226
		c-0.204-0.385-0.687-0.622-1.039-0.927c-0.194,0.414-0.495,0.811-0.565,1.244c-0.343,2.083,0.669,4.593-1.161,6.175
		c-2.057,1.778-4.803,0.918-7.244,0.935c-10.831,0.076-21.663,0.056-32.494,0.025c-5.289-0.015-5.289-0.059-6.387-5.224
		c-1.01-4.755-4.895-8.31-9.729-8.63c-3.318-0.221-6.643-0.215-9.94,0.577c-3.967,0.953-6.463,3.249-7.354,7.253
		c-0.253,1.138-0.531,2.271-0.79,3.408c-0.457,2.012-1.876,2.582-3.735,2.518c-1.996-0.068-3.084-1.09-3.188-3.082
		c-0.087-1.664-0.096-3.33-0.167-4.995c-0.02-0.472-0.063-1.14-0.602-1.153c-0.343-0.008-0.796,0.502-1.034,0.883
		c-1.06,1.695-2.196,3.361-3.046,5.16c-1.156,2.451-3.015,3.311-5.608,3.297c-9.832-0.053-19.664-0.047-29.496-0.01
		c-2.412,0.009-4.083-0.924-5.256-3.07c-2.633-4.822-5.422-9.559-8.074-14.37c-6.592-11.959-13.107-23.96-19.724-35.903
		c-2.822-5.095-3.14-10.049,0.179-15.035c4.052-6.088,5.203-13.285,7.578-20.013c0.83-2.354,1.354-4.819,2.244-7.147
		c1.232-3.221,2.689-4.094,5.756-2.853c6.324,2.562,12.585,5.31,18.729,8.275c3.384,1.633,3.646,3.034,1.742,6.45
		c-3.161,5.673-6.314,11.361-9.78,16.848c-2.528,4.002-2.681,7.392,0.16,11.436c6.606,9.406,12.8,19.102,19.204,28.65
		c2.395,3.57,2.543,3.584,4.986-0.104c7.913-11.945,15.911-23.839,23.579-35.94c4.128-6.513,9.916-10.218,17.204-11.79
		c4.057-0.875,8.167-1.598,12.376-1.459c9.474,0.313,18.996-0.763,28.419,1.047c2.786,0.535,5.513,1.188,8.169,2.244
		c5.338,2.125,9.187,5.652,11.977,10.74c9.447,17.229,19.101,34.345,28.7,51.489c3.66,6.538,7.392,13.037,11.083,19.559
		c0.738,1.305,1.49,2.604,2.148,3.95c3.452,7.047,2.161,13.743-3.889,18.758c-12.044,9.982-24.175,19.862-36.305,29.741
		c-1.799,1.465-3.248,3.38-5.461,4.326C572.87,506.962,570.935,507.396,568.9,507.345z"/>
	<path fill-rule="evenodd" clip-rule="evenodd" d="M541.333,287.31c20.39-0.113,35.396,15.642,35.185,35.75
		c-0.215,20.549-16.06,35.113-35.594,35.15c-18.447,0.037-35.803-13.29-35.64-36.051C505.428,302.124,520.854,286.71,541.333,287.31
		z"/>
	<path fill-rule="evenodd" clip-rule="evenodd" d="M262.831,322.128c-1.598-18.559,17.792-35.473,35.229-35.089
		c18.672,0.412,35.723,14.83,35.607,35.556c-0.127,22.801-18.941,35.521-35.13,35.73
		C278.916,358.577,261.481,341.966,262.831,322.128z"/>
	<path fill-rule="evenodd" clip-rule="evenodd" d="M435.806,446.306c20.97,0,41.939-0.001,62.909,0.001
		c1.331,0,2.667-0.048,3.993,0.042c3.548,0.238,3.919,0.759,3.626,4.288c-0.288,3.476-0.28,6.986-0.738,10.438
		c-0.614,4.621-1.434,5.251-6.146,5.292c-6.989,0.061-13.979,0.02-20.97,0.02c-33.784,0.001-67.568,0-101.353,0.001
		c-0.666,0-1.332,0.001-1.997-0.001c-7.249-0.026-7.258-0.027-7.286-7.172c-0.014-3.492,0.183-6.989-1.587-10.232
		c-0.896-1.641-0.102-2.525,1.649-2.602c1.496-0.066,2.994-0.07,4.492-0.07C393.534,446.306,414.67,446.308,435.806,446.306z"/>
	<path fill-rule="evenodd" clip-rule="evenodd" d="M308.874,500.426c0-5.16,0.07-10.321-0.021-15.48
		c-0.079-4.404,0.626-8.628,2.468-12.628c2.697-5.857,3.671-11.965,3.654-18.426c-0.016-5.942,0.956-11.887,0.44-17.854
		c-0.233-2.701,1.25-3.422,3.57-3.65c6.541-0.646,7.783,0.741,7.579,7.307c-0.252,8.115-0.043,16.247,1.372,24.282
		c0.287,1.63,0.624,3.326,1.347,4.788c3.201,6.466,3.855,13.296,3.687,20.396c-0.229,9.649-0.022,19.309-0.076,28.963
		c-0.034,6.002-1.48,7.549-7.538,8.248c-3.605,0.417-7.159,1.41-10.858,0.17c-4.053-1.359-5.49-2.801-5.572-7.141
		c-0.119-6.323-0.031-12.65-0.031-18.976C308.889,500.426,308.881,500.426,308.874,500.426z"/>
	<path fill-rule="evenodd" clip-rule="evenodd" d="M507.858,500.065c0-4.994,0.163-9.995-0.046-14.98
		c-0.208-4.958,0.838-9.59,2.788-14.07c2.295-5.268,3.442-10.72,3.288-16.5c-0.163-6.121,1.136-12.217,0.523-18.355
		c-0.262-2.613,1.024-3.666,3.445-3.742c0.166-0.006,0.333-0.012,0.499-0.025c6.364-0.508,7.392,0.757,7.202,7.189
		c-0.352,11.966-0.414,23.936,4.887,35.15c1.076,2.277,1.444,4.757,1.441,7.294c-0.012,12.153,0.048,24.306-0.008,36.458
		c-0.025,5.598-1.72,7.463-7.385,7.813c-3.444,0.214-6.811,1.457-10.387,0.403c-4.681-1.38-6.129-2.798-6.208-7.656
		c-0.103-6.324-0.025-12.651-0.025-18.978C507.869,500.065,507.864,500.065,507.858,500.065z"/>
	<path fill-rule="evenodd" clip-rule="evenodd" d="M354.254,544.385c-2.324-0.05-4.659,0.104-6.949-0.474
		c-4.069-1.029-5.299-2.375-5.399-6.553c-0.123-5.152-0.054-10.311-0.059-15.466c-0.005-6.319,0.146-12.644-0.046-18.958
		c-0.145-4.774,0.77-9.267,2.664-13.578c2.449-5.576,3.847-11.359,3.354-17.455c-0.391-4.833,1.448-9.553,0.55-14.389
		c-0.054-0.291,0.046-0.75,0.251-0.928c2.607-2.254,5.671-1.207,8.544-0.973c2.237,0.184,1.969,2.006,2.042,3.789
		c0.292,7.119,0.758,14.231,1.303,21.336c0.271,3.523,1.701,6.771,3.138,9.947c1.686,3.725,2.308,7.561,2.273,11.629
		c-0.092,10.81-0.012,21.62-0.018,32.43c-0.004,7.96-1.605,9.545-9.653,9.639C355.584,544.389,354.919,544.382,354.254,544.385z"/>
	<path fill-rule="evenodd" clip-rule="evenodd" d="M555.701,466.378c-5.159,0.002-10.319,0.051-15.478-0.013
		c-4.666-0.057-5.442-0.688-6.088-5.366c-0.499-3.616-0.419-7.292-1.054-10.914c-0.375-2.145,0.73-3.514,3.016-3.676
		c0.995-0.07,1.994-0.097,2.992-0.098c12.316-0.006,24.633-0.02,36.948,0.011c1.959,0.005,4.222-0.48,5.619,1.308
		c1.844,2.357,3.292,5.025,3.815,8.025c0.252,1.445-0.8,2.51-1.807,3.387c-2.383,2.072-4.813,4.088-7.255,6.092
		c-1.526,1.252-3.395,1.235-5.231,1.239C566.021,466.384,560.861,466.377,555.701,466.378z"/>
	<path fill-rule="evenodd" clip-rule="evenodd" d="M286.107,466.372c-4.982-0.003-9.965-0.041-14.946,0.014
		c-2.459,0.027-4.475-0.732-6.283-2.458c-2.396-2.288-5.002-4.353-7.475-6.562c-1.416-1.264-2.639-2.725-1.58-4.764
		c1.257-2.42,1.72-5.594,5.188-6.119c1.142-0.172,2.318-0.165,3.478-0.166c12.456-0.012,24.911-0.008,37.367-0.004
		c0.83,0,1.667-0.03,2.488,0.067c2.785,0.333,3.699,1.134,3.304,3.844c-0.529,3.63-0.56,7.275-0.912,10.901
		c-0.413,4.252-1.449,5.151-5.683,5.229C296.073,466.444,291.089,466.375,286.107,466.372z"/>
	<path fill-rule="evenodd" clip-rule="evenodd" d="M191.868,446.329c5.655,0.002,11.313-0.089,16.965,0.035
		c3.527,0.078,4.003,0.779,2.558,3.857c-1.734,3.695-2.582,7.473-2.593,11.561c-0.011,3.986-0.634,4.529-4.772,4.565
		c-9.314,0.08-18.63,0.115-27.943-0.011c-6.3-0.084-10.077-3.926-10.129-9.9c-0.053-5.982,3.722-9.917,9.947-10.082
		C181.22,446.214,186.545,446.325,191.868,446.329z"/>
	<path fill-rule="evenodd" clip-rule="evenodd" d="M647.501,446.323c5.312,0,10.635,0.225,15.931-0.063
		c5.137-0.278,9.048,4.161,9.346,9.606c0.316,5.797-3.298,10.254-8.997,10.395c-9.953,0.246-19.916,0.072-29.875,0.123
		c-2.265,0.012-3.431-0.764-3.141-3.23c0.505-4.29-1.06-8.176-2.586-12.04c-1.873-4.739-1.903-4.758,3.388-4.796
		c5.312-0.039,10.623-0.009,15.935-0.009C647.501,446.313,647.501,446.319,647.501,446.323z"/>
	<path fill-rule="evenodd" clip-rule="evenodd" d="M415.87,305.354c0-2.991-0.003-5.982,0.001-8.975
		c0.002-0.83-0.018-1.664,0.042-2.492c0.259-3.619,2.233-6.214,4.612-6.099c2.232,0.107,4.125,2.549,4.276,5.903
		c0.149,3.316,0.05,6.646,0.062,9.969c0.018,4.658-1.19,9.215-1.072,13.896c0.06,2.335-1.35,3.653-3.771,3.711
		c-2.529,0.061-3.92-1.077-4.057-3.95c-0.188-3.979-0.047-7.975-0.047-11.963C415.9,305.354,415.885,305.354,415.87,305.354z"/>
	<path fill-rule="evenodd" clip-rule="evenodd" d="M396.725,329.069c-1.238-0.051-2.246-0.644-3.056-1.5
		c-5.471-5.783-10.946-11.564-16.346-17.414c-1.531-1.658-1.753-3.617-0.076-5.359c1.587-1.65,3.61-1.831,5.457-0.641
		c1.511,0.975,2.827,2.307,4.073,3.627c4.095,4.345,8.115,8.76,12.17,13.141c1.045,1.129,1.82,2.368,1.803,3.973
		C400.725,327.279,398.922,329.149,396.725,329.069z"/>
	<path fill-rule="evenodd" clip-rule="evenodd" d="M463.624,308.941c0.032,1.831-0.736,2.914-1.688,3.868
		c-5.161,5.178-10.339,10.34-15.521,15.497c-0.955,0.951-2.03,1.726-3.431,1.872c-1.588,0.166-2.979-0.244-3.996-1.531
		c-1.076-1.362-0.855-2.805-0.064-4.193c0.407-0.717,0.871-1.436,1.447-2.015c5.268-5.297,10.289-10.858,16.288-15.379
		c2.666-2.009,5.058-1.864,6.396,0.39C463.383,308.003,463.522,308.667,463.624,308.941z"/>
	<path fill-rule="evenodd" clip-rule="evenodd" d="M334.293,449.838c-0.145-1.473-0.002-2.698,1.355-3.101
		c1.92-0.57,3.919-0.826,5.784,0.205c0.275,0.151,0.477,1.003,0.308,1.307c-2.495,4.495-1.648,9.405-1.876,14.186
		c-0.069,1.446,0.039,3.299-2.029,3.389c-1.715,0.073-1.878-1.605-2.262-2.844C334.22,458.614,335.433,453.993,334.293,449.838z"/>
	<path fill-rule="evenodd" clip-rule="evenodd" d="M354.201,454.485c-2.08-0.4-5.092,0.387-5.066-1.561
		c0.036-2.662,3.079-1.451,4.8-1.525c1.657-0.071,4.682-0.85,4.713,1.154C358.691,455.269,355.484,453.679,354.201,454.485z"/>
</g>
</svg>
