<?xml version="1.0" encoding="utf-8"?>
<!-- Generator: Adobe Illustrator 16.0.0, SVG Export Plug-In . SVG Version: 6.00 Build 0)  -->
<!DOCTYPE svg PUBLIC "-//W3C//DTD SVG 1.1//EN" "http://www.w3.org/Graphics/SVG/1.1/DTD/svg11.dtd">
<svg version="1.1" id="Layer_1" xmlns="http://www.w3.org/2000/svg" xmlns:xlink="http://www.w3.org/1999/xlink" x="0px" y="0px"
	 width="830px" height="826px" viewBox="0 0 830 826" enable-background="new 0 0 830 826" xml:space="preserve">
<g>
	<path d="M55.843,388.13l61.979-18.265l-0.755,13.301l-45.832,12.82l44.115,17.43l-0.739,13.01l-59.512-25.203L55.843,388.13z"/>
	<path d="M54.741,435.687l60.447-6.949l5.153,44.82l-10.226,1.175l-3.75-32.614l-13.4,1.54l3.488,30.347l-10.184,1.172
		l-3.489-30.348l-16.452,1.892l3.882,33.769l-10.185,1.171L54.741,435.687z"/>
	<path d="M63.487,498.527l58.242-17.606l7.481,24.751c1.882,6.224,2.726,10.904,2.533,14.041c-0.194,3.137-1.372,5.957-3.534,8.461
		c-2.163,2.504-4.966,4.276-8.409,5.317c-4.37,1.321-8.367,1.127-11.991-0.582c-3.624-1.707-6.58-5.005-8.866-9.893
		c-0.715,2.991-1.709,5.583-2.983,7.773c-1.274,2.191-3.751,5.377-7.432,9.553l-9.212,10.547l-4.252-14.064l10.103-12.332
		c3.617-4.389,5.846-7.316,6.688-8.786c0.842-1.469,1.294-2.892,1.355-4.269c0.06-1.378-0.318-3.417-1.134-6.118l-0.721-2.383
		l-24.314,7.35L63.487,498.527z M100.652,500.127l2.63,8.7c1.705,5.642,3.008,9.092,3.909,10.352c0.901,1.259,2.054,2.11,3.46,2.553
		c1.406,0.442,2.982,0.398,4.73-0.13c1.959-0.591,3.383-1.594,4.273-3.004c0.888-1.41,1.204-3.117,0.945-5.12
		c-0.156-0.994-0.955-3.874-2.396-8.641l-2.774-9.178L100.652,500.127z"/>
	<path d="M90.715,574.107l22.923-11.415l21.607-35.658l6.42,12.893L126.5,563.475l27.802,1.827l6.308,12.669l-41.588-4.281
		l-22.849,11.377L90.715,574.107z"/>
	<path d="M127.244,635.667l46.518-38.442l7.826,9.471l-38.616,31.911l19.459,23.547l-7.902,6.53L127.244,635.667z"/>
	<path d="M182.691,655.364c4.009-4.727,8.079-8.097,12.213-10.105c3.059-1.469,6.297-2.369,9.716-2.7
		c3.417-0.33,6.599-0.027,9.542,0.908c3.929,1.228,7.783,3.442,11.561,6.646c6.838,5.798,10.511,12.556,11.019,20.279
		c0.509,7.722-2.44,15.361-8.845,22.917c-6.352,7.492-13.359,11.628-21.02,12.405c-7.662,0.779-14.9-1.722-21.717-7.502
		c-6.901-5.851-10.604-12.609-11.107-20.271C173.549,670.276,176.429,662.751,182.691,655.364z M192.615,663.233
		c-4.455,5.255-6.619,10.268-6.491,15.037s2.06,8.738,5.795,11.906c3.736,3.166,7.941,4.42,12.618,3.76
		c4.677-0.659,9.297-3.681,13.86-9.063c4.509-5.318,6.707-10.275,6.594-14.87c-0.114-4.593-2.101-8.527-5.963-11.803
		c-3.863-3.274-8.099-4.589-12.708-3.944C201.711,654.901,197.143,657.894,192.615,663.233z"/>
	<path d="M222.537,725.744l29.731-53.087l10.429,5.842l1.873,47.619l19.854-35.451l9.958,5.578l-29.73,53.086l-10.755-6.023
		l-2.013-46.604l-19.388,34.617L222.537,725.744z"/>
	<path d="M282.726,757.252l19.798-57.534l42.66,14.681l-3.35,9.732l-31.043-10.683l-4.389,12.755l28.885,9.939l-3.336,9.694
		l-28.884-9.939l-5.388,15.659l32.142,11.06l-3.336,9.693L282.726,757.252z"/>
	<path d="M342.9,776.094l10.138-59.489l12.111,2.064l-8.416,49.383l30.113,5.132l-1.722,10.105L342.9,776.094z"/>
	<path d="M408.008,784.06l0.29-25.606l-21.888-35.486l14.401,0.162l14.046,24.232l14.299-23.912l14.151,0.16l-22.768,35.065
		l-0.288,25.522L408.008,784.06z"/>
	<path d="M530.191,766.776l-12.979,3.183l-8.45-12.159l-23.622,5.791l-1.587,14.619l-12.657,3.103l8.53-64.737l12.617-3.093
		L530.191,766.776z M502.49,748.782l-13.517-19.933l-2.606,23.886L502.49,748.782z"/>
	<path d="M542.406,761.648l-23.994-55.371l11.272-4.885l19.917,45.965l28.029-12.146l4.075,9.407L542.406,761.648z"/>
	<path d="M615.528,697.859l12.065-3.25c2.047,6.575,2.153,12.366,0.318,17.373c-1.836,5.006-5.502,9.271-10.998,12.796
		c-6.802,4.361-13.882,5.622-21.24,3.783c-7.359-1.839-13.623-6.787-18.789-14.847c-5.466-8.524-7.512-16.557-6.134-24.097
		c1.378-7.539,5.653-13.608,12.827-18.209c6.266-4.019,12.543-5.43,18.831-4.235c3.732,0.697,7.495,2.721,11.29,6.073l-8.669,9.01
		c-2.31-2.268-4.917-3.554-7.823-3.858c-2.908-0.306-5.736,0.424-8.483,2.187c-3.797,2.434-6.004,5.771-6.62,10.012
		c-0.617,4.242,1.031,9.414,4.943,15.516c4.152,6.476,8.274,10.342,12.366,11.595c4.091,1.256,8.001,0.688,11.727-1.701
		c2.749-1.763,4.554-4.151,5.413-7.168C617.412,705.822,617.07,702.162,615.528,697.859z"/>
	<path d="M629.057,679.385c-4.223-4.536-7.089-8.975-8.598-13.317c-1.099-3.21-1.611-6.532-1.538-9.966
		c0.073-3.433,0.749-6.556,2.024-9.368c1.681-3.757,4.332-7.324,7.959-10.699c6.562-6.108,13.707-8.961,21.434-8.558
		c7.729,0.403,14.969,4.231,21.718,11.48c6.693,7.189,9.976,14.634,9.847,22.333c-0.127,7.7-3.463,14.594-10.004,20.685
		c-6.622,6.164-13.769,9.046-21.438,8.645C642.791,690.218,635.656,686.474,629.057,679.385z M638.04,670.456
		c4.694,5.042,9.417,7.78,14.169,8.214c4.751,0.435,8.92-1.017,12.504-4.354s5.324-7.366,5.219-12.089
		c-0.105-4.722-2.561-9.664-7.369-14.829c-4.751-5.104-9.415-7.868-13.99-8.297c-4.574-0.428-8.716,1.084-12.422,4.534
		c-3.707,3.449-5.511,7.502-5.412,12.154C630.836,660.444,633.27,665.333,638.04,670.456z"/>
	<path d="M703.452,648.505l-48.896-36.209l7.311-9.874l19.245,14.253l14.326-19.346l-19.245-14.253l7.311-9.872l48.897,36.21
		l-7.312,9.873l-21.379-15.832L689.383,622.8l21.381,15.832L703.452,648.505z"/>
	<path d="M714.754,581.772c-5.593-2.669-9.888-5.747-12.885-9.23c-2.2-2.584-3.896-5.487-5.088-8.707
		c-1.191-3.221-1.709-6.373-1.556-9.458c0.185-4.112,1.343-8.403,3.478-12.873c3.861-8.091,9.461-13.366,16.799-15.827
		c7.338-2.46,15.476-1.558,24.414,2.709c8.866,4.231,14.65,9.953,17.356,17.161c2.706,7.209,2.135,14.848-1.715,22.911
		c-3.898,8.165-9.488,13.47-16.771,15.911C731.506,586.811,723.494,585.944,714.754,581.772z M719.834,570.17
		c6.217,2.968,11.615,3.782,16.194,2.442s7.924-4.22,10.034-8.64c2.11-4.419,2.249-8.806,0.419-13.161
		c-1.831-4.353-5.931-8.05-12.298-11.09c-6.293-3.003-11.646-3.864-16.06-2.583c-4.412,1.281-7.711,4.207-9.891,8.776
		c-2.182,4.569-2.373,9.001-0.574,13.293C709.457,563.501,713.517,567.155,719.834,570.17z"/>
	<path d="M772.278,525.276l-58.312-15.542l3.164-11.87l48.405,12.901l7.867-29.517l9.906,2.641L772.278,525.276z"/>
	<path d="M784.852,471.097l-60.241-8.549l1.727-12.163l60.24,8.548L784.852,471.097z"/>
	<path d="M766.969,403.277l3.877-11.88c6.625,1.882,11.532,4.96,14.72,9.234s4.754,9.676,4.698,16.206
		c-0.067,8.079-2.883,14.697-8.447,19.852c-5.563,5.155-13.132,7.692-22.705,7.612c-10.127-0.086-17.969-2.767-23.527-8.043
		s-8.303-12.175-8.231-20.697c0.063-7.443,2.313-13.469,6.751-18.082c2.625-2.743,6.377-4.787,11.259-6.13l2.802,12.185
		c-3.16,0.693-5.662,2.173-7.508,4.439c-1.845,2.268-2.781,5.034-2.81,8.298c-0.038,4.51,1.55,8.183,4.765,11.019
		c3.213,2.835,8.444,4.283,15.693,4.344c7.692,0.065,13.183-1.271,16.471-4.012c3.287-2.738,4.95-6.322,4.986-10.749
		c0.028-3.264-0.984-6.082-3.041-8.451C774.666,406.053,771.416,404.337,766.969,403.277z"/>
</g>
<path fill="none" stroke="#000000" stroke-width="10" stroke-miterlimit="10" d="M690.208,413.5
	c0,149.502-121.206,270.709-270.708,270.709c-149.509,0-270.708-121.207-270.708-270.709c0-149.509,121.2-270.708,270.708-270.708
	C569.002,142.792,690.208,263.991,690.208,413.5z"/>
<circle fill="none" stroke="#000000" stroke-width="10" stroke-miterlimit="10" cx="419.5" cy="413.5" r="400"/>
<g>
	<path d="M212.685,192.038l-8.809,10.051l-13.896-5.114l-16.03,18.291l7.084,12.886l-8.589,9.801l-30.139-57.926l8.563-9.77
		L212.685,192.038z M179.673,193.183l-22.506-8.576l11.563,21.062L179.673,193.183z"/>
	<path d="M233.009,148.291l11.734-4.296c2.616,6.371,3.23,12.13,1.84,17.278c-1.389,5.148-4.667,9.719-9.833,13.712
		c-6.393,4.941-13.335,6.818-20.826,5.632c-7.492-1.186-14.165-5.567-20.02-13.142c-6.193-8.012-8.934-15.834-8.223-23.465
		c0.711-7.631,4.438-14.053,11.181-19.265c5.889-4.552,12.018-6.509,18.386-5.871c3.779,0.366,7.706,2.052,11.779,5.059
		l-7.845,9.735c-2.499-2.056-5.209-3.108-8.132-3.157s-5.676,0.925-8.259,2.921c-3.568,2.758-5.474,6.277-5.716,10.556
		c-0.243,4.279,1.854,9.287,6.287,15.022c4.704,6.086,9.149,9.575,13.335,10.466c4.186,0.892,8.03-0.017,11.533-2.725
		c2.583-1.997,4.171-4.535,4.763-7.615C235.584,156.057,234.924,152.441,233.009,148.291z"/>
	<path d="M262.884,154.657l-27.227-54.413l10.986-5.498l10.716,21.417l21.528-10.772l-10.716-21.417l10.986-5.498l27.227,54.413
		l-10.986,5.498l-11.905-23.792l-21.528,10.772l11.905,23.792L262.884,154.657z"/>
	<path d="M316.442,130.011l-19.643-57.587l11.627-3.966l19.643,57.587L316.442,130.011z"/>
	<path d="M337.337,122.481l-12.134-59.623l44.208-8.997l2.053,10.086l-32.17,6.547l2.69,13.218l29.933-6.092l2.044,10.045
		l-29.933,6.092l3.302,16.228l33.309-6.779l2.044,10.045L337.337,122.481z"/>
	<path d="M406.141,112.22l-23.073-60.354l13.32-0.292l16.379,44.684l13.911-45.347l13.029-0.285l-20.454,61.307L406.141,112.22z"/>
	<path d="M444.748,112.227l9.438-60.108l44.568,6.999l-1.597,10.168l-32.432-5.093l-2.093,13.325l30.177,4.739l-1.59,10.127
		l-30.178-4.739l-2.568,16.36l33.58,5.273l-1.59,10.127L444.748,112.227z"/>
	<path d="M497.813,120.782l21.359-56.973l17.217,6.455l-4.232,42.738l24.79-35.03l17.255,6.469l-21.359,56.973l-10.687-4.007
		l16.813-44.847l-28.123,40.607l-11.075-4.152l5.543-49.073l-16.813,44.847L497.813,120.782z"/>
	<path d="M560.94,146.246l32.375-51.517l38.197,24.005l-5.477,8.715l-27.796-17.468l-7.178,11.421l25.864,16.253l-5.455,8.68
		l-25.863-16.253l-8.812,14.021l28.78,18.087l-5.455,8.68L560.94,146.246z"/>
	<path d="M606.459,175.703l41.35-44.635l8.769,8.124l-9.346,46.73l27.614-29.807l8.373,7.757l-41.351,44.635l-9.042-8.377
		l8.971-45.776l-26.965,29.107L606.459,175.703z"/>
	<path d="M656.85,227.459l40.384-30.408l-10.859-14.423l8.223-6.191l29.084,38.626l-8.223,6.191l-10.835-14.389l-40.383,30.408
		L656.85,227.459z"/>
</g>
<path fill="none" stroke="#000000" stroke-width="10" stroke-miterlimit="10" d="M87.831,345.365c0,0-0.142-59.268,38.004-101.975"
	/>
<path fill-rule="evenodd" clip-rule="evenodd" d="M359.214,404.649c-2.387,48.407-4.873,96.811-7.104,145.226
	c-0.257,5.579-2.648,6.663-7.615,6.644c-39.383-0.149-78.769-0.302-118.148,0.11c-7.421,0.078-9.157-3.091-9.374-9.229
	c-0.467-13.192-0.955-26.387-1.601-39.57c-1.676-34.265-3.194-68.541-5.374-102.774c-0.454-7.14,1.668-8.352,8.1-8.302
	c35.299,0.267,136.688,0.259,141.131,0.478C359.229,399.989,359.327,402.325,359.214,404.649z M221.024,451.76
	c1.514,16.423,2.027,32.42,4.739,48.036c2.063,11.877,10.69,17.216,23.009,17.259c23.741,0.081,47.483,0.078,71.225,0.032
	c14.373-0.028,22.806-6.267,24.844-20.552c1.887-13.217,1.861-26.704,2.752-40.067c0.283-4.263-1.896-5.077-5.684-5.212
	 M218.926,405.415l2.198,41.727l127.381,0.341l1.776-42.067H218.926z M237.511,523.293c-8.727,0.018-9.536,0.845-9.576,9.351
	c-0.012,2.638,0.071,5.278-0.011,7.914c-0.161,5.21,2.754,7.532,7.515,7.544c32.857,0.073,65.714,0.066,98.571,0.008
	c5.15-0.011,7.982-2.725,8.017-8.036c0.004-0.479,0.02-0.959,0.035-1.438c0.487-15.291,0.425-15.354-14.614-15.349
	c-14.39,0.005-28.779,0.002-43.17,0.002C268.688,523.283,253.1,523.261,237.511,523.293z"/>
<g>
	<g>
		<defs>
			<rect id="SVGID_1_" x="371.173" y="184.851" width="118.667" height="450.666"/>
		</defs>
		<clipPath id="SVGID_2_">
			<use xlink:href="#SVGID_1_"  overflow="visible"/>
		</clipPath>
		<g clip-path="url(#SVGID_2_)">
			<defs>
				<rect id="SVGID_3_" x="371.173" y="184.851" width="118.667" height="450.666"/>
			</defs>
			<clipPath id="SVGID_4_">
				<use xlink:href="#SVGID_3_"  overflow="visible"/>
			</clipPath>
			<path clip-path="url(#SVGID_4_)" fill="none" stroke="#000000" stroke-width="10" stroke-miterlimit="10" d="M479.207,375.494
				H378.905 M406.661,628.627l8.19,0.391l10.531,0.39h8.58l15.213-0.78l5.459-0.389l5.852-0.781l7.021-1.95l6.629-1.95l3.121-1.561
				c0,0,2.274-1.886,3.121-3.119c0.844-1.236,1.56-7.347,1.56-10.531v-7.021l-1.951-242.993v-3.119l-0.78-3.901l-1.949-7.411
				l-1.951-5.46l-2.729-6.631c0,0-8.19-20.021-8.19-20.281c0,0-9.752-23.923-9.752-24.183c0,0-1.819-4.68-1.949-5.461l-1.561-4.29
				l-0.781-3.121l-0.389-1.95c0,0-0.13-3.899,0-5.85c0-5.069-0.293-75.381-0.293-75.381l-39.881,0.104v72.937l-0.39,8.581
				l-0.39,1.949c0,0-6.22,16.783-9.751,24.572c0,0.391-18.332,47.976-18.332,47.976l-0.39,1.56l-0.78,3.9l-0.39,2.729l-0.39,9.361
				v0.39l-1.56,239.482l0.391,12.092l1.169,2.341l1.17,1.561l7.021,4.29l8.971,1.95L406.661,628.627z M481.938,581.822h-104.53
				 M449.955,272.522h-40.564 M460.715,302.309c0,0-26.59,9.139-61.902,0 M470.154,323.522c0,0-34.636,16.688-80.636,0"/>
		</g>
	</g>
</g>
<path fill="none" stroke="#000000" stroke-width="10" stroke-miterlimit="10" d="M752.409,345.365c0,0,0.142-59.269-38.004-101.975"
	/>
<path fill-rule="evenodd" clip-rule="evenodd" d="M614.047,392.7c-1.985,40.278-4.055,80.554-5.91,120.838
	c-0.214,4.643-2.204,5.545-6.337,5.528c-32.77-0.124-65.541-0.251-98.308,0.092c-6.175,0.065-7.62-2.571-7.8-7.679
	c-0.389-10.977-0.795-21.956-1.332-32.926c-1.395-28.511-2.658-57.03-4.472-85.516c-0.378-5.94,1.388-6.949,6.739-6.907
	c29.371,0.222,113.734,0.215,117.432,0.397C614.06,388.823,614.142,390.766,614.047,392.7z M499.063,431.899
	c1.26,13.665,1.687,26.976,3.943,39.97c1.717,9.883,8.896,14.325,19.145,14.36c19.755,0.067,39.51,0.065,59.265,0.027
	c11.959-0.024,18.976-5.215,20.672-17.101c1.569-10.998,1.549-22.22,2.289-33.339c0.236-3.547-1.577-4.225-4.729-4.337
	 M497.317,393.337l1.829,34.719l105.99,0.284l1.478-35.003H497.317z M512.781,491.42c-7.261,0.015-7.935,0.703-7.968,7.78
	c-0.01,2.195,0.059,4.393-0.01,6.586c-0.134,4.335,2.292,6.267,6.253,6.276c27.34,0.062,54.679,0.056,82.019,0.007
	c4.285-0.009,6.643-2.267,6.671-6.687c0.003-0.399,0.016-0.798,0.029-1.197c0.405-12.723,0.354-12.775-12.16-12.771
	c-11.974,0.004-23.947,0.001-35.921,0.001C538.724,491.412,525.752,491.394,512.781,491.42z"/>
</svg>
