<?xml version="1.0" encoding="utf-8"?>
<!-- Generator: Adobe Illustrator 16.0.0, SVG Export Plug-In . SVG Version: 6.00 Build 0)  -->
<!DOCTYPE svg PUBLIC "-//W3C//DTD SVG 1.1//EN" "http://www.w3.org/Graphics/SVG/1.1/DTD/svg11.dtd">
<svg version="1.1" id="Layer_1" xmlns="http://www.w3.org/2000/svg" xmlns:xlink="http://www.w3.org/1999/xlink" x="0px" y="0px"
	 width="113.333px" height="450px" viewBox="0 0 113.333 450" enable-background="new 0 0 113.333 450" xml:space="preserve">
<path fill="none" stroke="#000000" stroke-width="10" stroke-miterlimit="10" d="M7.967,189.977h100.302 M80.513,443.11l-8.19,0.391
	l-10.531,0.39h-8.581L38,443.11l-5.461-0.389l-5.851-0.781l-7.021-1.95l-6.63-1.95l-3.121-1.561c0,0-2.275-1.886-3.12-3.119
	c-0.845-1.236-1.56-7.347-1.56-10.531c0-3.186,0-7.021,0-7.021l1.95-242.993v-3.119l0.78-3.901l1.95-7.411l1.95-5.46l2.73-6.631
	c0,0,8.19-20.021,8.19-20.281c0,0,9.751-23.922,9.751-24.182c0,0,1.82-4.681,1.951-5.461l1.56-4.29l0.78-3.121l0.39-1.95
	c0,0,0.13-3.9,0-5.85c0-5.069,0.293-75.381,0.293-75.381L77.393,5.88v72.937l0.39,8.581l0.391,1.95c0,0,6.22,16.783,9.751,24.573
	c0,0.39,18.332,47.975,18.332,47.975l0.39,1.56l0.78,3.9l0.39,2.73l0.39,9.361v0.39l1.561,239.482l-0.391,12.092l-1.17,2.341
	l-1.17,1.561l-7.021,4.29l-8.971,1.95L80.513,443.11z M5.236,396.306h104.53 M37.219,87.006h40.563 M26.46,116.792
	c0,0,26.589,9.139,61.901,0 M17.02,138.006c0,0,34.636,16.688,80.636,0"/>
</svg>
